<svg width="40" height="24" viewBox="0 0 40 24" fill="none" xmlns="http://www.w3.org/2000/svg">
<path d="M32.1165 6.92536L36.1797 2.86542C36.8417 2.2259 36.86 1.17092 36.2206 0.508741C35.5811 -0.15328 34.5261 -0.171561 33.8639 0.467804C33.85 0.481241 33.8364 0.494835 33.823 0.508741L29.0898 5.2421C23.2927 2.72386 16.7104 2.72386 10.9133 5.2421L6.18014 0.50546C5.51812 -0.134062 4.46298 -0.115624 3.82346 0.546396C3.19972 1.19232 3.19972 2.21621 3.82346 2.86199L7.88339 6.9252C2.93394 10.2002 -0.0303895 15.7502 0.000234996 21.685C0.000234996 22.6054 0.746475 23.3517 1.66693 23.3517H38.3331C39.2535 23.3517 39.9998 22.6054 39.9998 21.685C40.0302 15.7504 37.0659 10.2003 32.1165 6.92536Z" fill="#00DE7A"/>
<path d="M11.6667 16.6852C12.5872 16.6852 13.3334 15.939 13.3334 15.0185C13.3334 14.098 12.5872 13.3518 11.6667 13.3518C10.7462 13.3518 10 14.098 10 15.0185C10 15.939 10.7462 16.6852 11.6667 16.6852Z" fill="#191919"/>
<path d="M28.3332 16.6852C29.2537 16.6852 29.9999 15.939 29.9999 15.0185C29.9999 14.098 29.2537 13.3518 28.3332 13.3518C27.4127 13.3518 26.6665 14.098 26.6665 15.0185C26.6665 15.939 27.4127 16.6852 28.3332 16.6852Z" fill="#191919"/>
</svg>
