<svg width="34" height="34" viewBox="0 0 34 34" fill="none" xmlns="http://www.w3.org/2000/svg">
<g clip-path="url(#clip0)">
<path d="M32.7533 10.6259H17.0007C13.48 10.6225 10.6232 13.4737 10.6196 16.9943C10.6186 18.0879 10.8988 19.1633 11.4334 20.1171L3.55713 6.60275C9.29391 -0.822134 19.9636 -2.19057 27.3885 3.5462C29.7729 5.38856 31.6245 7.832 32.7533 10.6259Z" fill="#F44336"/>
<path d="M33.9997 17.0005C33.9918 26.3856 26.3856 33.9919 17.0004 33.9997C16.2896 34.0024 15.5796 33.955 14.8755 33.8581L22.5252 20.1878C24.2784 17.1357 23.2333 13.2404 20.1878 11.4757C19.2235 10.9174 18.1287 10.6241 17.0145 10.6257H32.753C33.5803 12.649 34.0038 14.8146 33.9997 17.0005Z" fill="#FFC107"/>
<path d="M22.5253 20.188L14.8757 33.8583H14.8615C5.55259 32.6821 -1.04032 24.1823 0.135815 14.8733C0.516505 11.8603 1.69789 9.00432 3.55704 6.60278L11.4333 20.1172L11.4758 20.188C13.2323 23.2393 17.1296 24.2889 20.1808 22.5325C21.1555 21.9715 21.9644 21.1626 22.5253 20.188Z" fill="#4CAF50"/>
<path d="M22.5251 20.1879C20.7686 23.2391 16.8713 24.2887 13.8201 22.5324C12.8455 21.9713 12.0366 21.1625 11.4756 20.1879L11.4331 20.117C9.71183 17.0458 10.8063 13.1607 13.8775 11.4395C14.8315 10.9049 15.9069 10.6247 17.0003 10.6257H17.0145C18.1287 10.6241 19.2234 10.9174 20.1877 11.4757C23.2333 13.2404 24.2783 17.1357 22.5251 20.1879Z" fill="#F44336"/>
<path d="M22.5251 20.1879C20.7686 23.2391 16.8713 24.2887 13.8201 22.5324C12.8455 21.9713 12.0366 21.1625 11.4756 20.1879L11.4331 20.117C9.71183 17.0458 10.8063 13.1607 13.8775 11.4395C14.8315 10.9049 15.9069 10.6247 17.0003 10.6257H17.0145C18.1287 10.6241 19.2234 10.9174 20.1877 11.4757C23.2333 13.2404 24.2783 17.1357 22.5251 20.1879Z" fill="#2196F3"/>
<path d="M16.9763 24.0837C15.7413 24.0836 14.5282 23.7582 13.4589 23.1403C12.3807 22.5167 11.4852 21.6208 10.8622 20.5423C8.90632 17.1545 10.067 12.8226 13.4548 10.8667C14.5327 10.2444 15.7557 9.91706 17.0004 9.91773C20.9122 9.91467 24.0859 13.0834 24.0889 16.9953C24.0899 18.2404 23.7625 19.4639 23.1399 20.5423C21.8634 22.7369 19.5152 24.0861 16.9763 24.0837ZM17.0131 11.3343C14.9803 11.3235 13.0983 12.4054 12.0847 14.1675C10.52 16.8808 11.451 20.3488 14.1643 21.9135C16.8775 23.4783 20.3455 22.5472 21.9103 19.834C23.475 17.1238 22.5464 13.6583 19.8362 12.0935C18.9782 11.5981 18.0052 11.3364 17.0145 11.3344H17.0131V11.3343Z" fill="#FAFAFA"/>
</g>
<defs>
<clipPath id="clip0">
<rect width="34" height="34" fill="white"/>
</clipPath>
</defs>
</svg>
