<svg width="34" height="34" viewBox="0 0 34 34" fill="none" xmlns="http://www.w3.org/2000/svg">
<g clip-path="url(#clip0)">
<path d="M23.5807 0.741595C23.2065 0.627662 22.8109 0.838597 22.6969 1.2128C22.6063 1.51051 22.7206 1.83259 22.9788 2.00648C25.7974 3.92289 27.5184 9.05458 27.6261 13.08C26.9836 11.8554 26.0745 10.7906 24.966 9.96392C24.6531 9.72921 24.2092 9.79262 23.9746 10.1055C23.7857 10.3574 23.7857 10.7036 23.9746 10.9554C26.531 14.416 25.798 19.2937 22.3375 21.8502C20.998 22.8397 19.3766 23.3739 17.7112 23.3745C16.9204 23.4111 16.1304 23.2858 15.3898 23.0062C16.1971 22.6719 16.9672 22.2536 17.6872 21.7584C18.509 21.097 19.4978 20.6759 20.5441 20.5417C20.9352 20.5415 21.2522 20.2244 21.2521 19.8333C21.2521 19.7756 21.245 19.7181 21.2311 19.6621C20.8538 18.4425 19.694 17.6369 18.4195 17.7088C17.734 17.6788 17.0683 17.9426 16.5894 18.4341C16.2084 18.774 15.8147 19.1253 14.1702 19.1253C11.2722 19.1253 9.92098 17.4355 9.92098 16.2924C9.96499 15.8685 10.1908 15.4845 10.54 15.24C10.8543 15.0172 11.1909 14.8273 11.5442 14.6735C11.8253 14.9388 12.2645 14.9388 12.5456 14.6735C12.948 14.2296 13.0815 13.6041 12.8954 13.0347L16.6858 10.5078C17.0112 10.2908 17.0991 9.85105 16.8821 9.52565C16.7511 9.32925 16.5309 9.211 16.2948 9.21034H14.8784C13.302 9.21034 12.2708 8.9044 12.0456 8.37038C11.7213 7.58852 12.7892 5.92282 13.9592 4.75428C14.2361 4.47808 14.2367 4.02965 13.9604 3.75272C13.8283 3.62026 13.6491 3.54543 13.462 3.54464C11.5988 3.71202 9.91845 4.73369 8.91244 6.31089C7.84529 6.21416 6.77089 6.23029 5.70712 6.35903C5.47992 6.10328 5.2893 5.81725 5.14058 5.50918C4.67688 4.68323 4.37631 3.77582 4.25534 2.83641C4.25607 2.44528 3.9395 2.12765 3.54837 2.12692C3.35981 2.12658 3.17889 2.20148 3.0457 2.335C1.50701 3.95296 1.0783 6.33108 1.95504 8.38453C-2.41232 16.6939 0.783241 26.9704 9.09257 31.3378C11.5322 32.62 14.247 33.2897 17.003 33.2894C26.5341 33.2894 34 26.1336 34 17.0006V15.5842C33.9999 6.9441 28.6175 2.25293 23.5807 0.741595Z" fill="#FF5722"/>
</g>
<defs>
<clipPath id="clip0">
<rect width="34" height="34" fill="white"/>
</clipPath>
</defs>
</svg>
