<svg width="34" height="34" viewBox="0 0 34 34" fill="none" xmlns="http://www.w3.org/2000/svg">
<path d="M17.2221 7.31654C17.2171 7.26415 17.2147 7.21175 17.2147 7.15922C17.2147 6.39038 17.7183 5.7649 18.3371 5.7649C18.9704 5.7649 19.4665 6.37736 19.4665 7.15922C19.4665 7.33626 19.4399 7.50693 19.3903 7.66457C19.5759 7.3696 19.6833 6.99839 19.6833 6.60925C19.6833 5.67432 19.0856 4.91357 18.3511 4.91357C17.6165 4.91357 17.019 5.67425 17.019 6.60925C17.019 6.83908 17.055 7.06406 17.1263 7.27988C17.1573 7.2917 17.1893 7.30399 17.2221 7.31654Z" fill="white"/>
<path d="M13.9057 5.83852C13.9458 5.83241 13.9825 5.82962 14.019 5.82962C14.5116 5.82962 14.9533 6.31312 15.0691 6.97918C15.0807 7.05222 15.088 7.125 15.0912 7.19679C15.1232 7.18052 15.1558 7.16525 15.1889 7.1511C15.2052 7.03562 15.2131 6.92738 15.2131 6.81867C15.2131 5.95632 14.7563 5.22778 14.2157 5.22778C13.7553 5.22778 13.3674 5.73486 13.2568 6.41977C13.3827 6.1074 13.6126 5.8872 13.9057 5.83852Z" fill="white"/>
<path d="M23.1821 23.2325C23.3059 22.7074 23.5523 21.3665 23.3191 19.7445C23.0244 17.6946 20.1399 11.3114 19.6435 10.5986C19.354 10.6391 18.5846 11.0837 17.9606 11.4442C17.2371 11.8622 16.4887 12.2946 15.9798 12.4415C15.8735 12.4716 15.7625 12.4865 15.648 12.4865C14.9043 12.4865 14.0994 11.8578 13.5804 11.3625C13.4898 12.3235 12.9776 13.5429 12.4234 14.1697C12.0734 14.5711 11.7606 15.4881 11.458 16.375C11.1778 17.1963 10.888 18.0456 10.5333 18.6057C9.81552 19.7241 9.40381 21.8965 9.92609 23.1319C10.1788 23.7307 11.0962 24.438 11.9055 25.0618C12.8952 25.8249 13.7499 26.4837 13.8442 27.1482C13.9543 27.9338 13.5365 28.3693 13.1186 28.5757L14.1785 29.7885C14.3423 29.8133 14.7367 29.861 15.3547 29.861C16.0776 29.861 16.8801 29.7977 17.7392 29.6728C19.8484 29.3603 21.3175 27.6221 21.608 27.2531C21.6096 26.7641 21.6245 24.5886 21.7672 23.9085C21.8225 23.6465 22.0352 23.2081 22.8387 23.2081C22.9636 23.2079 23.0825 23.2188 23.1821 23.2325Z" fill="white"/>
<path d="M13.978 9.76703C14.0194 9.92786 14.3855 10.3392 14.9549 10.7128C15.0357 10.7646 15.1115 10.8162 15.1827 10.8646C15.4985 11.0792 15.639 11.1673 15.866 11.1367C16.2003 11.0929 17.4318 10.3462 17.9577 10.0273L18.0886 9.94805C18.2845 9.82878 18.441 9.7473 18.5667 9.68183C18.8158 9.55227 18.8383 9.53135 18.8489 9.48407C18.8207 9.41082 18.5882 9.21473 18.1423 9.06146C18.0006 9.01073 17.7995 8.93038 17.5665 8.83741C17.0626 8.6362 16.3723 8.36088 16.0925 8.31134C16.0806 8.30908 16.0694 8.30835 16.0567 8.30835C15.8186 8.30835 15.3375 8.60711 14.8594 9.0517C14.6237 9.26446 14.1636 9.62352 13.978 9.76703Z" fill="#E69629"/>
<path d="M9.77177 26.2655C9.56465 25.9187 9.38562 25.619 9.289 25.4696C8.90796 24.8766 8.24669 24.2141 7.93153 24.2141C7.9039 24.2141 7.88936 24.2206 7.87993 24.2261C7.71172 24.3219 7.57035 24.6137 7.43348 24.8958C7.24443 25.2859 7.03007 25.7282 6.63422 25.968C6.34137 26.1457 5.89366 26.2427 5.46096 26.3368C5.15304 26.4037 4.43213 26.5601 4.39826 26.7062C4.35158 26.9033 4.39501 27.1068 4.45013 27.3645C4.51501 27.6685 4.59596 28.0467 4.52703 28.5111C4.47842 28.8024 4.39003 29.0805 4.3043 29.3496C4.18523 29.7239 4.05023 30.1485 4.16664 30.279C4.31021 30.4057 5.17648 30.5459 5.80893 30.6483C6.60394 30.7769 7.42598 30.9101 7.9294 31.121L8.06281 31.1772C8.96454 31.5561 10.643 32.2615 11.4908 32.2615C11.568 32.2615 11.6337 32.2553 11.6868 32.2433C11.833 32.1449 12.4525 31.6999 12.5689 31.1527C12.7279 30.4475 12.0816 29.625 11.6825 29.1974C11.2394 28.7216 10.3912 27.3019 9.77177 26.2655Z" fill="#E69629"/>
<path d="M28.9373 27.9552L28.834 27.9008C28.1242 27.5256 27.7511 26.5074 27.8005 25.7398C27.8098 25.5985 27.7922 25.4888 27.7635 25.4048C27.6324 25.6204 27.4452 25.8928 27.2228 26.1152C26.8449 26.4931 25.9223 26.9009 25.0908 26.9009C24.7807 26.9009 24.498 26.8463 24.2507 26.7384C23.4207 26.3764 23.3076 25.3385 23.3054 24.8181C23.2931 24.8216 23.2819 24.8256 23.2719 24.8303C23.2212 25.0096 23.2703 25.6143 23.3034 26.0213C23.3212 26.239 23.3394 26.4641 23.3503 26.6707C23.3973 27.581 23.1073 29.1249 22.8557 30.2599C22.6169 31.371 23.0614 32.1501 23.6011 32.3183C23.6495 32.3337 23.7041 32.3413 23.764 32.3413C24.2611 32.3413 25.0845 31.8267 25.8125 31.0606C26.3296 30.5168 27.4807 29.9291 28.4963 29.4104C29.0689 29.1181 29.6609 28.8157 29.8292 28.662C29.8666 28.6271 29.8722 28.6076 29.8723 28.6074C29.8617 28.4405 29.1901 28.0879 28.9373 27.9552Z" fill="#E69629"/>
<path d="M30.6177 27.299C29.6206 26.8908 29.1941 26.3489 29.2354 25.5403C29.2779 24.5965 28.7424 23.9054 28.4882 23.6322C28.6418 23.0454 29.0907 21.0154 28.4886 19.2522C27.8416 17.3649 25.8662 14.4825 23.828 11.6492C22.9937 10.4856 22.9542 9.22074 22.9086 7.75615C22.8649 6.35924 22.8156 4.77585 22.0366 3.01563C21.1896 1.09902 19.49 0 17.3735 0C16.1143 0 14.8219 0.393522 13.8273 1.07956C11.7906 2.48518 12.0598 5.54975 12.238 7.57745C12.2625 7.85516 12.2854 8.11747 12.2988 8.34139C12.4174 10.3275 12.3095 11.3743 12.1684 11.6924C12.077 11.9004 11.6276 12.492 11.1519 13.1186C10.66 13.7666 10.1023 14.5009 9.64512 15.1852C9.09967 16.0087 8.65933 17.2673 8.23353 18.4845C7.92195 19.3751 7.62764 20.2164 7.34117 20.7194C6.79817 21.6865 6.9333 22.5884 7.04606 23.0052C6.84047 23.148 6.5435 23.4293 6.29282 23.9592C5.98981 24.6057 5.37502 24.9531 4.09664 25.1989C3.50914 25.3191 3.10407 25.5662 2.89223 25.9331C2.58398 26.4672 2.75192 27.1383 2.90505 27.597C3.13136 28.2711 2.99031 28.6978 2.73392 29.4727C2.67482 29.6514 2.60782 29.8539 2.53995 30.0771C2.43303 30.4296 2.47162 30.7499 2.6543 31.0295C3.13707 31.7674 4.54594 32.0277 5.99625 32.1991C6.86218 32.3019 7.80993 32.6482 8.7266 32.9832C9.62474 33.3114 10.5535 33.6508 11.3976 33.7538C11.5259 33.77 11.653 33.778 11.7756 33.778C13.0502 33.778 13.626 32.9323 13.8086 32.5849C14.2664 32.4915 15.8455 32.1923 17.473 32.1521C19.0979 32.1058 20.67 32.4266 21.1154 32.5262C21.2553 32.7943 21.6245 33.4063 22.2129 33.7218C22.5363 33.8986 22.9863 33.9999 23.4472 33.9999C23.4473 33.9999 23.4472 33.9999 23.4473 33.9999C23.9396 33.9999 24.8761 33.8835 25.6174 33.1037C26.3567 32.3203 28.2038 31.3201 29.5526 30.5898C29.8537 30.4268 30.1352 30.2743 30.3821 30.1368C31.1398 29.7167 31.5533 29.1166 31.5164 28.4903C31.4856 27.9698 31.1412 27.5135 30.6177 27.299ZM18.3507 4.91371C19.0853 4.91371 19.6829 5.67439 19.6829 6.60939C19.6829 6.99846 19.5755 7.36967 19.3899 7.66471C19.4393 7.50706 19.4661 7.3364 19.4661 7.15936C19.4661 6.3775 18.9701 5.76504 18.3367 5.76504C17.7178 5.76504 17.2143 6.39051 17.2143 7.15936C17.2143 7.21189 17.2169 7.26428 17.2217 7.31668C17.1889 7.30419 17.157 7.29184 17.1258 7.28002C17.0545 7.0642 17.0185 6.83922 17.0185 6.60939C17.0186 5.67446 17.6161 4.91371 18.3507 4.91371ZM16.0919 8.31164C16.3717 8.36105 17.0618 8.6365 17.5659 8.83771C17.7989 8.93068 18.0001 9.01103 18.1416 9.06176C18.5876 9.21503 18.8201 9.41112 18.8483 9.48437C18.8377 9.53172 18.8151 9.55257 18.5661 9.68213C18.4403 9.74754 18.2839 9.82895 18.088 9.94835L17.9571 10.0276C17.4312 10.3466 16.1997 11.0933 15.8654 11.137C15.6383 11.1676 15.4978 11.0794 15.1821 10.8649C15.1108 10.8164 15.035 10.7649 14.9542 10.7131C14.3849 10.3394 14.0187 9.92816 13.9774 9.76733C14.163 9.62389 14.623 9.26476 14.8586 9.05207C15.3367 8.60748 15.8178 8.30872 16.056 8.30872C16.0686 8.30852 16.08 8.30938 16.0919 8.31164ZM14.2155 5.22775C14.7562 5.22775 15.2129 5.95622 15.2129 6.81863C15.2129 6.92741 15.205 7.03558 15.1887 7.15106C15.1556 7.16521 15.123 7.18061 15.091 7.19675C15.0878 7.12483 15.0803 7.05218 15.0688 6.97914C14.9532 6.31308 14.5114 5.82958 14.0188 5.82958C13.9824 5.82958 13.9457 5.83237 13.9055 5.83848C13.6124 5.88729 13.3825 6.10736 13.2565 6.4196C13.3672 5.73475 13.7553 5.22775 14.2155 5.22775ZM12.5685 31.1529C12.4521 31.7002 11.8325 32.1451 11.6864 32.2436C11.6333 32.2555 11.5676 32.2618 11.4904 32.2618C10.6425 32.2618 8.96413 31.5563 8.0624 31.1774L7.92899 31.1212C7.42544 30.9102 6.60346 30.7772 5.80852 30.6486C5.176 30.5461 4.30987 30.406 4.16623 30.2792C4.04982 30.1487 4.18482 29.7242 4.30389 29.3499C4.38962 29.0808 4.47814 28.8026 4.52662 28.5113C4.59541 28.047 4.5146 27.6686 4.44972 27.3647C4.39467 27.107 4.35117 26.9035 4.39786 26.7064C4.43172 26.5604 5.15263 26.404 5.46055 26.3371C5.89338 26.243 6.34109 26.1459 6.63381 25.9682C7.02966 25.7284 7.24402 25.2862 7.43307 24.896C7.56994 24.614 7.71132 24.3221 7.87952 24.2264C7.88902 24.2207 7.90349 24.2143 7.93112 24.2143C8.24628 24.2143 8.90755 24.8767 9.28859 25.4699C9.38521 25.6192 9.56424 25.9188 9.77136 26.2657C10.3909 27.3022 11.2391 28.7219 11.6821 29.1976C12.0812 29.6252 12.7274 30.4477 12.5685 31.1529ZM21.7668 23.9086C21.6244 24.5888 21.6093 26.7643 21.6077 27.2532C21.3172 27.6223 19.8481 29.3604 17.7388 29.6729C16.8797 29.7978 16.0774 29.8611 15.3544 29.8611C14.7363 29.8611 14.342 29.8134 14.1782 29.7887L13.1183 28.5759C13.5361 28.3694 13.9539 27.934 13.8439 27.1484C13.7496 26.484 12.8949 25.825 11.9051 25.062C11.0958 24.4381 10.1785 23.731 9.92576 23.1321C9.40347 21.8968 9.81519 19.7244 10.533 18.6059C10.8877 18.0458 11.1774 17.1964 11.4577 16.3752C11.7602 15.4883 12.0731 14.5712 12.4231 14.1698C12.9772 13.5431 13.4894 12.3237 13.5801 11.3627C14.099 11.8579 14.9039 12.4867 15.6476 12.4867C15.7621 12.4867 15.8733 12.4717 15.9795 12.4417C16.4883 12.2947 17.2366 11.8624 17.9603 11.4443C18.5842 11.0838 19.3536 10.6392 19.6431 10.5988C20.1395 11.3116 23.024 17.6948 23.3187 19.7447C23.5519 21.3667 23.3056 22.7075 23.1817 23.2327C23.082 23.219 22.9632 23.208 22.8384 23.208C22.0349 23.2081 21.8222 23.6466 21.7668 23.9086ZM29.829 28.6622C29.6608 28.816 29.0687 29.1184 28.4961 29.4107C27.4804 29.9292 26.3292 30.5171 25.8123 31.0609C25.0843 31.8269 24.261 32.3415 23.7638 32.3415C23.7039 32.3415 23.6494 32.3339 23.6009 32.3185C23.0611 32.1503 22.6167 31.3712 22.8555 30.2601C23.1071 29.1251 23.3969 27.5813 23.3501 26.671C23.3392 26.4643 23.321 26.2392 23.3032 26.0215C23.2701 25.6146 23.221 25.01 23.2717 24.8305C23.2817 24.8258 23.2929 24.8218 23.3052 24.8184C23.3074 25.3387 23.4204 26.3767 24.2505 26.7386C24.4978 26.8465 24.7805 26.9012 25.0906 26.9012C25.9221 26.9012 26.8447 26.4934 27.2226 26.1154C27.4451 25.893 27.6322 25.6207 27.7633 25.4051C27.792 25.489 27.8096 25.5987 27.8003 25.74C27.7509 26.5075 28.1239 27.5257 28.8338 27.901L28.9371 27.9554C29.1899 28.0879 29.8615 28.4406 29.8723 28.6078C29.872 28.6078 29.8664 28.6274 29.829 28.6622Z" fill="black"/>
</svg>
