<svg width="42" height="42" viewBox="0 0 42 42" fill="none" xmlns="http://www.w3.org/2000/svg">
<g filter="url(#filter0_d)">
<mask id="mask0" mask-type="alpha" maskUnits="userSpaceOnUse" x="4" y="2" width="34" height="34">
<path d="M37.9977 11.378C37.9957 11.038 37.9917 10.698 37.9825 10.3582C37.9625 9.61737 37.9188 8.87024 37.7871 8.13772C37.6535 7.39463 37.4353 6.70304 37.0914 6.02787C36.7534 5.36425 36.3119 4.757 35.7851 4.23054C35.2584 3.70408 34.6509 3.26282 33.9871 2.92501C33.3112 2.58109 32.6189 2.36298 31.875 2.22942C31.1424 2.09787 30.395 2.05426 29.6543 2.03425C29.3141 2.02505 28.974 2.02117 28.6338 2.01906C28.2299 2.01659 27.8261 2.01679 27.4222 2.01679L22.7329 2H19.2256L14.6193 2.01679C14.2146 2.01679 13.81 2.01659 13.4053 2.01906C13.0644 2.02117 12.7237 2.02505 12.3829 2.03425C11.6404 2.05426 10.8913 2.09791 10.157 2.22962C9.41211 2.36315 8.71874 2.58118 8.04197 2.92485C7.3767 3.2627 6.76797 3.704 6.24015 4.23054C5.71241 4.75696 5.27004 5.36409 4.9314 6.02758C4.58662 6.70308 4.36801 7.39509 4.23408 8.13859C4.10221 8.87082 4.05851 9.6177 4.03841 10.3582C4.02925 10.6981 4.02529 11.038 4.02323 11.378C4.02075 11.7817 4 12.2832 4 12.6869V17.2294V20.7742L4.02096 25.4132C4.02096 25.8174 4.0208 26.2217 4.02323 26.6259C4.02529 26.9663 4.02925 27.3068 4.03846 27.6471C4.05851 28.3889 4.10229 29.1371 4.23428 29.8706C4.36818 30.6147 4.58674 31.3072 4.93124 31.9833C5.26992 32.6478 5.71237 33.2559 6.24015 33.7831C6.76793 34.3103 7.3765 34.7521 8.04164 35.0904C8.71883 35.4348 9.41252 35.6532 10.1579 35.7869C10.8919 35.9187 11.6407 35.9624 12.3829 35.9824C12.7237 35.9916 13.0644 35.9955 13.4053 35.9976C13.81 36 14.2146 36 14.6193 36H19.2672H22.7832H27.4222C27.8261 36 28.2299 36 28.6338 35.9976C28.974 35.9955 29.3141 35.9916 29.6543 35.9824C30.3953 35.9623 31.1429 35.9186 31.8758 35.7868C32.6193 35.653 33.3113 35.4347 33.9868 35.0905C34.6508 34.7523 35.2583 34.3104 35.7851 33.7831C36.3118 33.256 36.7533 32.648 37.0913 31.9836C37.4354 31.3072 37.6536 30.6143 37.7873 29.8697C37.9189 29.1365 37.9625 28.3886 37.9825 27.6471C37.9917 27.3067 37.9957 26.9663 37.9977 26.6259C38 26.2217 38 25.8174 38 25.4132C38 25.4132 38 20.8561 38 20.7742V17.2257C38 17.1652 38 12.589 38 12.589C38 12.1854 38 11.7817 37.9977 11.378Z" fill="#8E8E93"/>
</mask>
<g mask="url(#mask0)">
<path d="M37.9977 11.378C37.9957 11.038 37.9917 10.698 37.9825 10.3582C37.9625 9.61737 37.9188 8.87024 37.7871 8.13772C37.6535 7.39463 37.4353 6.70304 37.0914 6.02787C36.7534 5.36425 36.3119 4.757 35.7851 4.23054C35.2584 3.70408 34.6509 3.26282 33.9871 2.92501C33.3112 2.58109 32.6189 2.36298 31.875 2.22942C31.1424 2.09787 30.395 2.05426 29.6543 2.03425C29.3141 2.02505 28.974 2.02117 28.6338 2.01906C28.2299 2.01659 27.8261 2.01679 27.4222 2.01679L22.7329 2H19.2256L14.6193 2.01679C14.2146 2.01679 13.81 2.01659 13.4053 2.01906C13.0644 2.02117 12.7237 2.02505 12.3829 2.03425C11.6404 2.05426 10.8913 2.09791 10.157 2.22962C9.41211 2.36315 8.71874 2.58118 8.04197 2.92485C7.3767 3.2627 6.76797 3.704 6.24015 4.23054C5.71241 4.75696 5.27004 5.36409 4.9314 6.02758C4.58662 6.70308 4.36801 7.39509 4.23408 8.13859C4.10221 8.87082 4.05851 9.6177 4.03841 10.3582C4.02925 10.6981 4.02529 11.038 4.02323 11.378C4.02075 11.7817 4 12.2832 4 12.6869V17.2294V20.7742L4.02096 25.4132C4.02096 25.8174 4.0208 26.2217 4.02323 26.6259C4.02529 26.9663 4.02925 27.3068 4.03846 27.6471C4.05851 28.3889 4.10229 29.1371 4.23428 29.8706C4.36818 30.6147 4.58674 31.3072 4.93124 31.9833C5.26992 32.6478 5.71237 33.2559 6.24015 33.7831C6.76793 34.3103 7.3765 34.7521 8.04164 35.0904C8.71883 35.4348 9.41252 35.6532 10.1579 35.7869C10.8919 35.9187 11.6407 35.9624 12.3829 35.9824C12.7237 35.9916 13.0644 35.9955 13.4053 35.9976C13.81 36 14.2146 36 14.6193 36H19.2672H22.7832H27.4222C27.8261 36 28.2299 36 28.6338 35.9976C28.974 35.9955 29.3141 35.9916 29.6543 35.9824C30.3953 35.9623 31.1429 35.9186 31.8758 35.7868C32.6193 35.653 33.3113 35.4347 33.9868 35.0905C34.6508 34.7523 35.2583 34.3104 35.7851 33.7831C36.3118 33.256 36.7533 32.648 37.0913 31.9836C37.4354 31.3072 37.6536 30.6143 37.7873 29.8697C37.9189 29.1365 37.9625 28.3886 37.9825 27.6471C37.9917 27.3067 37.9957 26.9663 37.9977 26.6259C38 26.2217 38 25.8174 38 25.4132C38 25.4132 38 20.8561 38 20.7742V17.2257C38 17.1652 38 12.589 38 12.589C38 12.1854 38 11.7817 37.9977 11.378Z" fill="url(#paint0_linear)"/>
<g style="mix-blend-mode:hard-light" filter="url(#filter1_ddiii)">
<path d="M41.923 39.9231V-1.9231H27.364C25.1974 -1.9231 23.4409 -0.166675 23.4409 1.99998C23.4409 1.99998 18.9272 5.97426 18.166 16.7333C18.1575 16.8531 18.1495 16.9708 18.142 17.087C18.0502 18.5027 19.2077 19.6538 20.6264 19.6538C22.2357 19.6538 23.4823 21.1238 23.3709 22.7293C23.1534 25.865 23.1811 30.9706 24.8576 36C24.8576 38.1666 26.614 39.9231 28.7807 39.9231H41.923Z" fill="url(#paint1_linear)"/>
</g>
<g filter="url(#filter2_dd)">
<path fill-rule="evenodd" clip-rule="evenodd" d="M11.8459 11.3173C11.8459 10.8659 12.2118 10.5 12.6632 10.5C13.1146 10.5 13.4805 10.8659 13.4805 11.3173V14.9135C13.4805 15.3648 13.1146 15.7308 12.6632 15.7308C12.2118 15.7308 11.8459 15.3648 11.8459 14.9135V11.3173ZM11.2882 23.8964C10.9239 23.4833 10.2938 23.4424 9.87918 23.8056C9.46375 24.1695 9.42197 24.8013 9.78588 25.2167L10.5381 24.5578C9.78588 25.2167 9.7862 25.2171 9.78653 25.2174L9.78727 25.2183L9.789 25.2202L9.79346 25.2253L9.80642 25.2397C9.81686 25.2513 9.83089 25.2667 9.8485 25.2856C9.88372 25.3234 9.93331 25.3754 9.99719 25.4395C10.1249 25.5678 10.3101 25.7449 10.5521 25.9545C11.0359 26.3732 11.7494 26.9234 12.6886 27.4714C14.5698 28.5691 17.3573 29.6576 20.9996 29.6576C24.642 29.6576 27.4295 28.5691 29.3107 27.4714C30.2499 26.9234 30.9634 26.3732 31.4472 25.9545C31.6892 25.7449 31.8744 25.5678 32.0021 25.4395C32.066 25.3754 32.1156 25.3234 32.1508 25.2856C32.1684 25.2667 32.1824 25.2513 32.1929 25.2397L32.2058 25.2253L32.2103 25.2202L32.212 25.2183L32.2127 25.2174C32.2131 25.2171 32.2134 25.2167 31.4612 24.5578L32.2134 25.2167C32.5773 24.8013 32.5355 24.1695 32.1201 23.8056C31.7055 23.4424 31.0754 23.4833 30.7111 23.8964L30.7095 23.8982L30.7085 23.8994C30.7049 23.9033 30.6979 23.911 30.6876 23.9221C30.6668 23.9444 30.6325 23.9804 30.5848 24.0284C30.4893 24.1243 30.3402 24.2675 30.1382 24.4423C29.7339 24.7923 29.1202 25.267 28.3028 25.744C26.6708 26.6962 24.2275 27.6576 20.9996 27.6576C17.7717 27.6576 15.3285 26.6962 13.6965 25.744C12.879 25.267 12.2654 24.7923 11.8611 24.4423C11.6591 24.2675 11.51 24.1243 11.4145 24.0284C11.3667 23.9804 11.3325 23.9444 11.3117 23.9221C11.3013 23.911 11.2944 23.9033 11.2908 23.8994L11.2882 23.8964ZM29.3361 10.5C28.8848 10.5 28.5188 10.8659 28.5188 11.3173V14.9135C28.5188 15.3648 28.8848 15.7308 29.3361 15.7308C29.7875 15.7308 30.1535 15.3648 30.1535 14.9135V11.3173C30.1535 10.8659 29.7875 10.5 29.3361 10.5Z" fill="#191919"/>
</g>
<path opacity="0.1" d="M37.4827 10.3717V10.3716C37.4629 9.63913 37.42 8.92158 37.295 8.2262C37.1689 7.52503 36.9648 6.88101 36.6459 6.25477C36.3318 5.63808 35.9213 5.07359 35.4316 4.58422L35.4316 4.58418C34.942 4.09477 34.3773 3.68458 33.7603 3.37063C33.1334 3.05164 32.4887 2.8476 31.7866 2.72155L31.8749 2.22964L31.7866 2.72155C31.0911 2.59667 30.3733 2.55386 29.6408 2.53407L29.6407 2.53406C29.3056 2.525 28.9694 2.52115 28.6307 2.51905L37.4827 10.3717ZM37.4827 10.3717C37.4918 10.7066 37.4957 11.0426 37.4977 11.381L37.4827 10.3717ZM27.4222 2.51679H27.4204L22.7329 2.5H22.732H19.2265H19.2256L14.6211 2.51679L14.6193 2.5168L14.5328 2.51679C14.1568 2.51678 13.7825 2.51676 13.4084 2.51905L27.4222 2.51679ZM27.4222 2.51679L27.5085 2.51679M27.4222 2.51679L27.5085 2.51679M12.3964 2.53407L12.3963 2.53407C11.6621 2.55386 10.9425 2.59671 10.2453 2.72177L10.2452 2.72178C9.5421 2.84782 8.89623 3.05182 8.26837 3.37065L12.3964 2.53407ZM12.3964 2.53407C12.7322 2.525 13.069 2.52115 13.4084 2.51905L12.3964 2.53407ZM6.59327 4.58452L6.59326 4.58454C6.10262 5.07394 5.69142 5.63834 5.37675 6.25488L5.37675 6.25489C5.05701 6.88132 4.85254 7.52565 4.72616 8.22721L6.59327 4.58452ZM6.59327 4.58452C7.08397 4.09501 7.64994 3.68472 8.26835 3.37066L6.59327 4.58452ZM4.52322 11.3811L4.52322 11.3811C4.52204 11.5732 4.51685 11.786 4.51176 11.9946C4.51135 12.0113 4.51094 12.028 4.51054 12.0446C4.50502 12.2717 4.5 12.492 4.5 12.6869V17.2294V20.7731V20.7742L4.52096 25.411L4.52097 25.4132L4.52096 25.4853C4.52095 25.8657 4.52094 26.2443 4.52322 26.6228C4.52527 26.9616 4.52921 27.2982 4.53827 27.6336C4.5581 28.3671 4.60108 29.0857 4.72638 29.782C4.85274 30.4842 5.05719 31.1292 5.37672 31.7562C5.69147 32.3739 6.1028 32.9392 6.59351 33.4293C7.08421 33.9195 7.65004 34.3303 8.26831 34.6448C8.89653 34.9642 9.54267 35.1686 10.2462 35.2948L10.2462 35.2948C10.9431 35.4199 11.6624 35.4628 12.3964 35.4826C12.7322 35.4916 13.0691 35.4955 13.4084 35.4976C13.8113 35.5 14.2144 35.5 14.6193 35.5H19.2672H22.7832H27.4222C27.8263 35.5 28.2287 35.5 28.6308 35.4976C28.9694 35.4955 29.3056 35.4916 29.6407 35.4826C30.3735 35.4627 31.0916 35.4198 31.7873 35.2947C32.4889 35.1685 33.1333 34.9642 33.7598 34.645L33.9868 35.0905L33.7598 34.645C34.3769 34.3307 34.9416 33.9199 35.4313 33.4297L35.4314 33.4296C35.9211 32.9396 36.3315 32.3744 36.6457 31.7568C36.9648 31.1295 37.1689 30.4841 37.2951 29.7813C37.4201 29.0852 37.4629 28.3668 37.4827 27.6336C37.4918 27.2982 37.4957 26.9617 37.4977 26.6229C37.4977 26.6229 37.4977 26.623 37.4977 26.623L4.52322 11.3811ZM4.52322 11.3811C4.52527 11.0428 4.5292 10.7067 4.53823 10.3717L4.52322 11.3811ZM27.5085 2.51679C27.8838 2.51678 28.2573 2.51676 28.6307 2.51905L27.5085 2.51679ZM4.53823 10.3716C4.55811 9.63943 4.601 8.9222 4.72616 8.22723L4.53823 10.3716Z" stroke="white" stroke-opacity="0.2"/>
</g>
</g>
<defs>
<filter id="filter0_d" x="0" y="0" width="42" height="42" filterUnits="userSpaceOnUse" color-interpolation-filters="sRGB">
<feFlood flood-opacity="0" result="BackgroundImageFix"/>
<feColorMatrix in="SourceAlpha" type="matrix" values="0 0 0 0 0 0 0 0 0 0 0 0 0 0 0 0 0 0 127 0"/>
<feOffset dy="2"/>
<feGaussianBlur stdDeviation="2"/>
<feColorMatrix type="matrix" values="0 0 0 0 0 0 0 0 0 0 0 0 0 0 0 0 0 0 0.15 0"/>
<feBlend mode="normal" in2="BackgroundImageFix" result="effect1_dropShadow"/>
<feBlend mode="normal" in="SourceGraphic" in2="effect1_dropShadow" result="shape"/>
</filter>
<filter id="filter1_ddiii" x="6.13672" y="-13.9231" width="47.7861" height="65.8462" filterUnits="userSpaceOnUse" color-interpolation-filters="sRGB">
<feFlood flood-opacity="0" result="BackgroundImageFix"/>
<feColorMatrix in="SourceAlpha" type="matrix" values="0 0 0 0 0 0 0 0 0 0 0 0 0 0 0 0 0 0 127 0"/>
<feOffset dy="2"/>
<feGaussianBlur stdDeviation="2"/>
<feColorMatrix type="matrix" values="0 0 0 0 0 0 0 0 0 0 0 0 0 0 0 0 0 0 0.2 0"/>
<feBlend mode="normal" in2="BackgroundImageFix" result="effect1_dropShadow"/>
<feColorMatrix in="SourceAlpha" type="matrix" values="0 0 0 0 0 0 0 0 0 0 0 0 0 0 0 0 0 0 127 0"/>
<feOffset/>
<feGaussianBlur stdDeviation="6"/>
<feColorMatrix type="matrix" values="0 0 0 0 0.117647 0 0 0 0 0.243137 0 0 0 0 0.494118 0 0 0 0.2 0"/>
<feBlend mode="normal" in2="effect1_dropShadow" result="effect2_dropShadow"/>
<feBlend mode="normal" in="SourceGraphic" in2="effect2_dropShadow" result="shape"/>
<feColorMatrix in="SourceAlpha" type="matrix" values="0 0 0 0 0 0 0 0 0 0 0 0 0 0 0 0 0 0 127 0" result="hardAlpha"/>
<feOffset/>
<feGaussianBlur stdDeviation="4"/>
<feComposite in2="hardAlpha" operator="arithmetic" k2="-1" k3="1"/>
<feColorMatrix type="matrix" values="0 0 0 0 1 0 0 0 0 1 0 0 0 0 1 0 0 0 0.25 0"/>
<feBlend mode="normal" in2="shape" result="effect3_innerShadow"/>
<feColorMatrix in="SourceAlpha" type="matrix" values="0 0 0 0 0 0 0 0 0 0 0 0 0 0 0 0 0 0 127 0" result="hardAlpha"/>
<feOffset dy="2"/>
<feGaussianBlur stdDeviation="1"/>
<feComposite in2="hardAlpha" operator="arithmetic" k2="-1" k3="1"/>
<feColorMatrix type="matrix" values="0 0 0 0 1 0 0 0 0 1 0 0 0 0 1 0 0 0 0.25 0"/>
<feBlend mode="normal" in2="effect3_innerShadow" result="effect4_innerShadow"/>
<feColorMatrix in="SourceAlpha" type="matrix" values="0 0 0 0 0 0 0 0 0 0 0 0 0 0 0 0 0 0 127 0" result="hardAlpha"/>
<feOffset dy="-1"/>
<feGaussianBlur stdDeviation="1"/>
<feComposite in2="hardAlpha" operator="arithmetic" k2="-1" k3="1"/>
<feColorMatrix type="matrix" values="0 0 0 0 0 0 0 0 0 0 0 0 0 0 0 0 0 0 0.25 0"/>
<feBlend mode="normal" in2="effect4_innerShadow" result="effect5_innerShadow"/>
</filter>
<filter id="filter2_dd" x="5.53809" y="8.5" width="30.9231" height="27.1576" filterUnits="userSpaceOnUse" color-interpolation-filters="sRGB">
<feFlood flood-opacity="0" result="BackgroundImageFix"/>
<feColorMatrix in="SourceAlpha" type="matrix" values="0 0 0 0 0 0 0 0 0 0 0 0 0 0 0 0 0 0 127 0"/>
<feOffset dy="2"/>
<feGaussianBlur stdDeviation="2"/>
<feColorMatrix type="matrix" values="0 0 0 0 0 0 0 0 0 0 0 0 0 0 0 0 0 0 0.15 0"/>
<feBlend mode="normal" in2="BackgroundImageFix" result="effect1_dropShadow"/>
<feColorMatrix in="SourceAlpha" type="matrix" values="0 0 0 0 0 0 0 0 0 0 0 0 0 0 0 0 0 0 127 0"/>
<feOffset dy="1"/>
<feGaussianBlur stdDeviation="0.5"/>
<feColorMatrix type="matrix" values="0 0 0 0 0 0 0 0 0 0 0 0 0 0 0 0 0 0 0.15 0"/>
<feBlend mode="normal" in2="effect1_dropShadow" result="effect2_dropShadow"/>
<feBlend mode="normal" in="SourceGraphic" in2="effect2_dropShadow" result="shape"/>
</filter>
<linearGradient id="paint0_linear" x1="21" y1="2" x2="21" y2="36" gradientUnits="userSpaceOnUse">
<stop stop-color="#3ED4F9"/>
<stop offset="1" stop-color="#2E6DEA"/>
</linearGradient>
<linearGradient id="paint1_linear" x1="28.2576" y1="0.866648" x2="28.2576" y2="37.1333" gradientUnits="userSpaceOnUse">
<stop stop-color="white"/>
<stop offset="1" stop-color="white" stop-opacity="0.8"/>
</linearGradient>
</defs>
</svg>
