<svg width="22" height="24" viewBox="0 0 22 24" fill="none" xmlns="http://www.w3.org/2000/svg">
<path d="M16 0C16.5523 0 17 0.447715 17 1L17.0007 2.15982C17.8406 2.29344 18.3843 2.50928 18.9305 2.8014C19.9083 3.32432 20.6757 4.09168 21.1986 5.06946C21.6737 5.95778 21.947 6.83957 21.993 8.99907L22 9V16.3083L21.9947 16.9184C21.9539 19.1381 21.6797 20.031 21.1986 20.9305C20.6757 21.9083 19.9083 22.6757 18.9305 23.1986C17.9528 23.7215 16.9829 24 14.3083 24H7.69166L7.08162 23.9947C4.86187 23.9539 3.96902 23.6797 3.06946 23.1986C2.09169 22.6757 1.32432 21.9083 0.801398 20.9305C0.299394 19.9919 0.0226692 19.0605 0.00133443 16.6212L0 9.69166V9C0.0530014 6.83957 0.326319 5.95778 0.801398 5.06946C1.32432 4.09168 2.09169 3.32432 3.06946 2.8014C3.61591 2.50916 4.15988 2.29326 5.00031 2.15965L5 1C5 0.447715 5.44772 0 6 0C6.55228 0 7 0.447715 7 1L6.99907 2.00697C7.21654 2.00233 7.44696 2 7.69166 2H14.3083C14.5534 2 14.7842 2.00234 15.0019 2.00699L15 1C15 0.447715 15.4477 0 16 0ZM19.999 11H2L2.00092 16.5913L2.00977 17.1601C2.04865 18.6673 2.2079 19.3196 2.56502 19.9873C2.90155 20.6166 3.38342 21.0985 4.01266 21.435C4.75898 21.8341 5.48594 21.9861 7.40871 21.9991H14.5913L15.1601 21.9902C16.6673 21.9514 17.3196 21.7921 17.9873 21.435C18.6166 21.0985 19.0985 20.6166 19.435 19.9873C19.8341 19.241 19.9861 18.5141 19.9991 16.5913L19.999 11ZM16.046 16C16.4788 16 16.8196 16.0812 17.1047 16.2337C17.3899 16.3863 17.6137 16.6101 17.7663 16.8953C17.9188 17.1804 18 17.5212 18 17.954V18.046C18 18.4788 17.9188 18.8196 17.7663 19.1047C17.6137 19.3899 17.3899 19.6137 17.1047 19.7663C16.8196 19.9188 16.4788 20 16.046 20H15.954C15.5212 20 15.1804 19.9188 14.8953 19.7663C14.6101 19.6137 14.3863 19.3899 14.2337 19.1047C14.0812 18.8196 14 18.4788 14 18.046V17.954C14 17.5212 14.0812 17.1804 14.2337 16.8953C14.3863 16.6101 14.6101 16.3863 14.8953 16.2337C15.1804 16.0812 15.5212 16 15.954 16H16.046ZM14.5913 4.00092H7.40871L7 4.006V5C7 5.55228 6.55228 6 6 6C5.44772 6 5 5.55228 5 5L4.99925 4.19251C4.61856 4.28042 4.31722 4.40214 4.01266 4.56502C3.38342 4.90155 2.90155 5.38342 2.56502 6.01266C2.1956 6.70342 2.03791 7.37759 2.00618 8.99864L19.993 9L19.9902 8.83985C19.9514 7.33268 19.7921 6.68042 19.435 6.01266C19.0985 5.38342 18.6166 4.90155 17.9873 4.56502C17.6829 4.40218 17.3816 4.28048 17.001 4.19257L17 5C17 5.55228 16.5523 6 16 6C15.4477 6 15 5.55228 15 5L15.0024 4.0062C14.8717 4.00364 14.7348 4.00189 14.5913 4.00092Z" fill="#4D5259"/>
</svg>
