<svg width="24" height="24" viewBox="0 0 24 24" fill="none" xmlns="http://www.w3.org/2000/svg">
<path d="M12 0C18.6258 0 24 5.37231 24 12C24 18.6277 18.6258 24 12 24C5.37231 24 0 18.6277 0 12C0 5.37231 5.37231 0 12 0ZM12 2C6.47688 2 2 6.47688 2 12C2 17.5231 6.47688 22 12 22C17.522 22 22 17.5224 22 12C22 6.47756 17.522 2 12 2ZM11.5 6.00008C12.0523 6.00008 12.5 6.4478 12.5 7.00008V12.1037L17.3746 14.0729C17.8866 14.2798 18.1341 14.8626 17.9272 15.3747C17.7203 15.8867 17.1375 16.1342 16.6254 15.9273L11.1254 13.7054C10.7475 13.5527 10.5 13.1859 10.5 12.7782V7.00008C10.5 6.4478 10.9477 6.00008 11.5 6.00008Z" fill="#4D5259"/>
</svg>
