<svg width="28" height="28" viewBox="0 0 28 28" fill="none" xmlns="http://www.w3.org/2000/svg">
<path d="M12.5 15.375C13.3889 14.7083 14.6111 14.7083 15.5 15.375L21 19.5C22.1046 20.3284 22.3284 21.8954 21.5 23C21.0279 23.6295 20.2869 24 19.5 24H8.5C7.11929 24 6 22.8807 6 21.5C6 20.7131 6.37049 19.9721 7 19.5L12.5 15.375ZM14.3 16.975C14.1222 16.8417 13.8778 16.8417 13.7 16.975L8.2 21.1C8.0741 21.1944 8 21.3426 8 21.5C8 21.7761 8.22386 22 8.5 22H19.5C19.6574 22 19.8056 21.9259 19.9 21.8C20.0657 21.5791 20.0209 21.2657 19.8 21.1L14.3 16.975ZM20 4C22.6888 4 24.8818 6.12231 24.9954 8.78311L25 9V15C25 16.235 24.5493 17.4026 23.748 18.3096C23.3823 18.7234 22.7503 18.7625 22.3364 18.3968C21.9226 18.0311 21.8835 17.3992 22.2492 16.9853C22.6824 16.495 22.944 15.8805 22.992 15.2213L23 15V9C23 7.40232 21.7511 6.09634 20.1763 6.00509L20 6H8C6.40232 6 5.09634 7.24892 5.00509 8.82373L5 9V15C5 15.742 5.26904 16.4395 5.74982 16.9842C6.1153 17.3982 6.07592 18.0302 5.66187 18.3957C5.24781 18.7611 4.61587 18.7218 4.25039 18.3077C3.50723 17.4658 3.06608 16.3995 3.00685 15.2634L3 15V9C3 6.31125 5.12231 4.11818 7.78311 4.00462L8 4H20Z" fill="#3366FF" fill-opacity="0.8"/>
</svg>
