<svg width="28" height="28" viewBox="0 0 28 28" fill="none" xmlns="http://www.w3.org/2000/svg">
<path d="M18.6656 4C20.9114 4 21.9528 4.27848 22.9305 4.8014C23.9083 5.32432 24.6757 6.09169 25.1986 7.06946C25.7215 8.04724 26 9.08856 26 11.3344V16.6656C26 18.9114 25.7215 19.9528 25.1986 20.9305C24.6757 21.9083 23.9083 22.6757 22.9305 23.1986C21.9528 23.7215 20.9114 24 18.6656 24H11.7561C10.6319 24 10.2367 23.9504 9.80202 23.8349C9.36733 23.7194 8.98491 23.538 8.62044 23.2745L8.47753 23.1671C8.17154 22.9271 7.87268 22.6202 7.25625 21.8657L3.55929 17.3406C2.55827 16.1154 2.29951 15.5842 2.12927 14.9509C1.95903 14.3176 1.95903 13.6824 2.12927 13.0491C2.29951 12.4158 2.55827 11.8846 3.55929 10.6594L7.51939 5.81651C8.04579 5.19071 8.30457 4.95396 8.62044 4.72554C8.98491 4.46199 9.36733 4.2806 9.80202 4.1651C10.2077 4.05731 10.579 4.00691 11.5408 4.00067L18.6656 4ZM18.6656 6L11.386 6.00186L11.0579 6.00882C10.7702 6.01859 10.5948 6.03712 10.4446 6.06766L10.3156 6.09804C10.1176 6.15064 9.95837 6.22618 9.79239 6.3462L9.68721 6.42691C9.51146 6.57054 9.32091 6.77389 8.92889 7.24887L5.1081 11.9248C4.45418 12.7252 4.22756 13.073 4.10894 13.4113L4.06069 13.5683C3.98189 13.8615 3.98189 14.1385 4.06069 14.4317L4.10894 14.5887C4.22756 14.927 4.45418 15.2748 5.1081 16.0752L8.92889 20.7511L9.26066 21.1434C9.4463 21.355 9.57004 21.4773 9.68721 21.5731L9.79239 21.6538C9.95837 21.7738 10.1176 21.8494 10.3156 21.902L10.458 21.935C10.6558 21.9739 10.9011 21.9926 11.386 21.9981L18.6656 22C20.443 22 21.2305 21.8397 21.9873 21.435C22.6166 21.0985 23.0985 20.6166 23.435 19.9873C23.8159 19.2751 23.9803 18.5355 23.9983 16.9692V11.0308C23.9803 9.4645 23.8159 8.72494 23.435 8.01266C23.0985 7.38342 22.6166 6.90155 21.9873 6.56502C21.2305 6.16028 20.443 6 18.6656 6ZM11.7929 10.2929C12.1834 9.90237 12.8166 9.90237 13.2071 10.2929L15.4996 12.585L17.7929 10.2929C18.1834 9.90237 18.8166 9.90237 19.2071 10.2929C19.5976 10.6834 19.5976 11.3166 19.2071 11.7071L16.9146 14L19.2071 16.2929C19.5676 16.6534 19.5953 17.2206 19.2903 17.6129L19.2071 17.7071C18.8166 18.0976 18.1834 18.0976 17.7929 17.7071L15.4996 15.414L13.2071 17.7071C12.8166 18.0976 12.1834 18.0976 11.7929 17.7071C11.4024 17.3166 11.4024 16.6834 11.7929 16.2929L14.0856 14L11.7929 11.7071C11.4324 11.3466 11.4047 10.7794 11.7097 10.3871L11.7929 10.2929Z" fill="#3366FF" fill-opacity="0.8"/>
</svg>
