<svg width="28" height="28" viewBox="0 0 28 28" fill="none" xmlns="http://www.w3.org/2000/svg">
<path d="M20.3287 21.7429L6.25705 7.67127C4.84637 9.39514 4 11.5987 4 14C4 19.5228 8.47715 24 14 24C16.4013 24 18.6049 23.1536 20.3287 21.7429ZM21.7429 20.3287C23.1536 18.6049 24 16.4013 24 14C24 8.47715 19.5228 4 14 4C11.5987 4 9.39514 4.84637 7.67127 6.25705L21.7429 20.3287ZM14 26C7.37258 26 2 20.6274 2 14C2 7.37258 7.37258 2 14 2C20.6274 2 26 7.37258 26 14C26 20.6274 20.6274 26 14 26Z" fill="#3366FF" fill-opacity="0.8"/>
</svg>
