<svg width="28" height="28" viewBox="0 0 28 28" fill="none" xmlns="http://www.w3.org/2000/svg">
<path d="M20.301 3.04258C20.6777 3.4465 20.6556 4.07928 20.2517 4.45594L18.9238 5.69433C19.7322 6.32645 20.4159 7.11063 20.932 8.00384L21 8H24C24.5523 8 25 8.44772 25 9C25 9.51284 24.614 9.93551 24.1166 9.99328L24 10L21.7479 9.99965C21.9125 10.639 22 11.3093 22 12V13.9996L26 14C26.5128 14 26.9355 14.386 26.9933 14.8834L27 15C27 15.5128 26.614 15.9355 26.1166 15.9933L26 16L22 15.9996V18C22 18.6907 21.9125 19.361 21.7479 20.0004L24 20C24.5523 20 25 20.4477 25 21C25 21.5128 24.614 21.9355 24.1166 21.9933L24 22H21L20.9308 21.9976C19.5493 24.3895 16.9627 26 14 26C11.0373 26 8.45073 24.3895 7.06804 21.9962L7 22H4C3.44772 22 3 21.5523 3 21C3 20.4872 3.38604 20.0645 3.88338 20.0067L4 20L6.25213 20.0004C6.08754 19.361 6 18.6907 6 18V15.9996L2 16C1.48716 16 1.06449 15.614 1.00673 15.1166L1 15C1 14.4872 1.38604 14.0645 1.88338 14.0067L2 14L6 13.9996V12C6 11.3093 6.08754 10.639 6.25213 9.99965L4 10C3.44772 10 3 9.55229 3 9C3 8.48717 3.38604 8.0645 3.88338 8.00673L4 8H7L7.0688 8.00233C7.58644 7.10641 8.27311 6.3201 9.08526 5.687L7.76503 4.45594C7.36112 4.07928 7.33902 3.4465 7.71568 3.04258C8.06336 2.66974 8.62928 2.62223 9.03198 2.91338L9.12903 2.99323L10.8842 4.62942C11.8417 4.22416 12.8947 4 14 4C15.11 4 16.1671 4.22605 17.1279 4.63462L18.8877 2.99323C19.2916 2.61657 19.9244 2.63867 20.301 3.04258ZM14 6C10.6863 6 8 8.6863 8 12V18C8 21.3137 10.6863 24 14 24C17.3137 24 20 21.3137 20 18V12C20 8.6863 17.3137 6 14 6ZM15 17C15.5523 17 16 17.4477 16 18C16 18.5523 15.5523 19 15 19H13C12.4477 19 12 18.5523 12 18C12 17.4477 12.4477 17 13 17H15ZM13 11H15C15.5523 11 16 11.4477 16 12C16 12.5128 15.614 12.9355 15.1166 12.9933L15 13H13C12.4477 13 12 12.5523 12 12C12 11.4872 12.386 11.0645 12.8834 11.0067L13 11H15H13Z" fill="#3366FF" fill-opacity="0.8"/>
</svg>
