<svg width="28" height="28" viewBox="0 0 28 28" fill="none" xmlns="http://www.w3.org/2000/svg">
<path d="M15.6972 2C16.2174 2 16.6903 2.06482 17.1274 2.20177C17.5848 2.34509 17.9979 2.56618 18.3709 2.86725C18.7272 3.15494 19.0435 3.51249 19.332 3.9453L19.5978 4.34251L19.7318 4.53153C19.8286 4.6613 19.8937 4.72903 19.9671 4.78975C20.0537 4.86135 20.1403 4.90766 20.2479 4.93999C20.3756 4.9784 20.5057 4.99554 20.8249 4.99922L21.0431 5.00093C22.2355 5.05239 22.9143 5.21632 23.6299 5.59903C24.3909 6.00598 24.994 6.60914 25.401 7.37008C25.8456 8.20148 26 9.00096 26 10.615V16.5903C26 18.7733 25.7973 19.823 25.214 20.9137C24.685 21.9028 23.9028 22.685 22.9137 23.214C21.823 23.7973 20.7733 24 18.5903 24H9.40971C7.22671 24 6.17697 23.7973 5.08629 23.214C4.0972 22.685 3.31498 21.9028 2.78602 20.9137C2.23341 19.8804 2.02239 18.8839 2.00171 16.9257V10.3217C2.02043 8.9009 2.18217 8.14952 2.59902 7.37008C3.00598 6.60914 3.60914 6.00598 4.37008 5.59903C5.06098 5.22953 5.71673 5.06518 6.82135 5.01599L6.90966 5.00405L7 5L7.17513 4.99922C7.49426 4.99554 7.62436 4.9784 7.75214 4.93999C7.85973 4.90766 7.94627 4.86135 8.03286 4.78975C8.13569 4.70474 8.22212 4.606 8.40221 4.34251L8.66795 3.9453C8.95649 3.51249 9.27275 3.15494 9.62914 2.86725C10.0021 2.56618 10.4152 2.34509 10.8726 2.20177C11.3097 2.06482 11.7826 2 12.3028 2H15.6972ZM15.6972 4H12.3028C11.9761 4 11.7032 4.03741 11.4706 4.11027C11.2528 4.17852 11.063 4.28011 10.8854 4.42348C10.6958 4.57654 10.5133 4.78288 10.332 5.0547L10.0283 5.50715C9.75729 5.8987 9.56254 6.1201 9.30723 6.33118C9.01501 6.57277 8.6909 6.74623 8.32778 6.85536C7.98872 6.95726 7.67821 6.99507 7.14124 6.99954L7.08745 7.0058L6.81753 7.0183C6.06506 7.05673 5.70828 7.1514 5.31328 7.36265C4.90088 7.58321 4.5832 7.90088 4.36265 8.31328C4.09415 8.81533 4 9.30289 4 10.615V16.5903C4 18.4714 4.14248 19.2092 4.54964 19.9705C4.89221 20.6111 5.38894 21.1078 6.02948 21.4504C6.71068 21.8147 7.37304 21.9671 8.85233 21.9951L9.40971 22H18.5903L19.1477 21.9951C20.627 21.9671 21.2893 21.8147 21.9705 21.4504C22.6111 21.1078 23.1078 20.6111 23.4504 19.9705C23.8147 19.2893 23.9671 18.627 23.9951 17.1477L24 16.5903V10.615L23.9954 10.16C23.9737 9.18077 23.8723 8.75257 23.6373 8.31328C23.4168 7.90088 23.0991 7.58321 22.6867 7.36265C22.2559 7.13224 21.8671 7.03835 21 7L20.7578 6.99825C20.2817 6.98994 19.9895 6.95071 19.6722 6.85536C19.3091 6.74623 18.985 6.57277 18.6928 6.33118C18.4375 6.1201 18.2427 5.8987 17.9717 5.50715L17.6679 5.0547C17.4867 4.78288 17.3042 4.57654 17.1146 4.42348C16.937 4.28011 16.7472 4.17852 16.5294 4.11027C16.2968 4.03741 16.0239 4 15.6972 4ZM14 8.5C16.8997 8.5 19.25 10.8503 19.25 13.75C19.25 16.6497 16.8997 19 14 19C11.1003 19 8.75 16.6497 8.75 13.75C8.75 10.8503 11.1003 8.5 14 8.5ZM14 10.5C12.2048 10.5 10.75 11.9548 10.75 13.75C10.75 15.5452 12.2048 17 14 17C15.7952 17 17.25 15.5452 17.25 13.75C17.25 11.9548 15.7952 10.5 14 10.5Z" fill="#3366FF" fill-opacity="0.8"/>
</svg>
