<svg width="28" height="28" viewBox="0 0 28 28" fill="none" xmlns="http://www.w3.org/2000/svg">
<path d="M12.59 16.83C12.2 17.22 11.56 17.22 11.17 16.83C9.22 14.88 9.22 11.71 11.17 9.76L16.41 4.52C18.36 2.57 21.53 2.57 23.48 4.52C25.43 6.47 25.43 9.64 23.48 11.59L22.0441 13.0259C21.6545 13.4155 21.023 13.416 20.6328 13.0271C20.2426 12.6383 20.2414 12.0069 20.63 11.6166L22.06 10.18C23.24 9.01 23.24 7.11 22.06 5.94C20.89 4.76 18.99 4.76 17.82 5.94L12.59 11.17C11.41 12.34 11.41 14.24 12.59 15.41C13 15.8 13 16.44 12.59 16.83ZM15.41 11.17C15.8 10.78 16.44 10.78 16.83 11.17C18.78 13.12 18.78 16.29 16.83 18.24L11.59 23.48C9.64 25.43 6.47 25.43 4.52 23.48C2.57 21.53 2.57 18.36 4.52 16.41L5.95147 14.9785C6.34158 14.5876 6.97475 14.5876 7.36527 14.9781C7.36541 14.9782 7.36555 14.9784 7.36527 14.9789L7.36606 14.9797C7.75578 15.3707 7.7556 16.0036 7.36564 16.3943L5.94 17.82C4.76 18.99 4.76 20.89 5.94 22.06C7.11 23.24 9.01 23.24 10.18 22.06L15.41 16.83C16.59 15.66 16.59 13.76 15.41 12.59C15 12.2 15 11.56 15.41 11.17Z" fill="#3366FF" fill-opacity="0.8"/>
</svg>
