<svg width="28" height="28" viewBox="0 0 28 28" fill="none" xmlns="http://www.w3.org/2000/svg">
<path d="M13.484 1.50207C13.8336 1.45219 14.1664 1.45219 14.516 1.50207C14.8613 1.55133 15.1493 1.62902 15.8124 1.85005L22.6325 4.1234C23.4491 4.39563 24 5.15991 24 6.02077V15.3C24 20.0944 21.1216 23.7674 15.5419 26.2423L15.1736 26.4022C14.4237 26.721 13.5763 26.721 12.8264 26.4022C7.00734 23.9287 4 20.2025 4 15.3V6.02077C4 5.15991 4.55086 4.39563 5.36754 4.1234L12.3757 1.78793C12.9089 1.61377 13.1733 1.54641 13.484 1.50207ZM14.2335 3.48202C14.0713 3.45888 13.9287 3.45888 13.7665 3.48202C13.5666 3.51054 13.3784 3.56129 12.8201 3.74742L6 6.02077V15.3C6 19.316 8.47107 22.3777 13.6088 24.5616C13.8588 24.6679 14.1412 24.6679 14.3841 24.5647L14.7381 24.411C19.6408 22.2363 22 19.2258 22 15.3V6.02077L15.0231 3.69553C14.6814 3.5834 14.5024 3.53206 14.3551 3.5027L14.2335 3.48202ZM19.4071 10.4929C19.7676 10.8534 19.7953 11.4206 19.4903 11.8129L19.4071 11.9071L13.4071 17.9071C13.0466 18.2676 12.4794 18.2953 12.0871 17.9903L11.9929 17.9071L8.74289 14.6571C8.35237 14.2666 8.35237 13.6334 8.74289 13.2429C9.10338 12.8824 9.67061 12.8547 10.0629 13.1597L10.1571 13.2429L12.7 15.785L17.9929 10.4929C18.3834 10.1024 19.0166 10.1024 19.4071 10.4929Z" fill="#3366FF" fill-opacity="0.8"/>
</svg>
