<svg width="28" height="28" viewBox="0 0 28 28" fill="none" xmlns="http://www.w3.org/2000/svg">
<path d="M14 2C20.6274 2 26 7.37258 26 14C26 20.6274 20.6274 26 14 26C7.37258 26 2 20.6274 2 14C2 7.37258 7.37258 2 14 2ZM14 4C8.47715 4 4 8.47715 4 14C4 19.5228 8.47715 24 14 24C19.5228 24 24 19.5228 24 14C24 8.47715 19.5228 4 14 4ZM12.0429 9.29289C12.4334 8.90237 13.0666 8.90237 13.4571 9.29289L17.4571 13.2929C17.8476 13.6834 17.8476 14.3166 17.4571 14.7071L13.4571 18.7071C13.0666 19.0976 12.4334 19.0976 12.0429 18.7071C11.6524 18.3166 11.6524 17.6834 12.0429 17.2929L15.3358 14L12.0429 10.7071C11.6524 10.3166 11.6524 9.68342 12.0429 9.29289Z" fill="#3366FF" fill-opacity="0.8"/>
</svg>
