<svg width="28" height="28" viewBox="0 0 28 28" fill="none" xmlns="http://www.w3.org/2000/svg">
<path d="M14 2C20.6258 2 26 7.37231 26 14C26 20.6277 20.6258 26 14 26C7.37231 26 2 20.6277 2 14C2 7.37231 7.37231 2 14 2ZM14 4C8.47688 4 4 8.47688 4 14C4 19.5231 8.47688 24 14 24C19.522 24 24 19.5224 24 14C24 8.47756 19.522 4 14 4ZM13.5 8.00008C14.0523 8.00008 14.5 8.4478 14.5 9.00008V14.1037L19.3746 16.0729C19.8866 16.2798 20.1341 16.8626 19.9272 17.3747C19.7203 17.8867 19.1375 18.1342 18.6254 17.9273L13.1254 15.7054C12.7475 15.5527 12.5 15.1859 12.5 14.7782V9.00008C12.5 8.4478 12.9477 8.00008 13.5 8.00008Z" fill="#3366FF" fill-opacity="0.8"/>
</svg>
