<svg width="28" height="28" viewBox="0 0 28 28" fill="none" xmlns="http://www.w3.org/2000/svg">
<path d="M13.5065 1.54463C13.8379 1.48512 14.1621 1.48512 14.4935 1.54463C14.8236 1.60392 15.0915 1.69869 15.6268 1.94202L24.2078 5.84247C24.7346 6.08193 24.9996 6.24601 25.2624 6.50218C25.5213 6.75454 25.7132 7.05255 25.8358 7.39267C25.9603 7.73792 26 8.04706 26 8.62574V18.9763C26 19.555 25.9603 19.8641 25.8358 20.2094C25.7132 20.5495 25.5213 20.8475 25.2624 21.0998C24.9996 21.356 24.7346 21.5201 24.2078 21.7596L15.438 25.7445C15.0236 25.9265 14.7823 26.0055 14.4935 26.0574C14.1621 26.1169 13.8379 26.1169 13.5065 26.0574C13.1764 25.9981 12.9085 25.9033 12.3732 25.66L3.79218 21.7596C3.26537 21.5201 3.00038 21.356 2.73758 21.0998C2.47868 20.8475 2.28679 20.5495 2.16418 20.2094C2.03972 19.8641 2 19.555 2 18.9763L2.00195 8.42077C2.01125 7.96921 2.05528 7.69477 2.16418 7.39267C2.28679 7.05255 2.47868 6.75454 2.73758 6.50218C3.00038 6.24601 3.26537 6.08193 3.79218 5.84247L12.562 1.85752C12.9764 1.67556 13.2177 1.59651 13.5065 1.54463ZM4 8.854L4.00043 19.0853C4.00217 19.2859 4.00933 19.3857 4.02438 19.4568L4.04566 19.5311C4.0656 19.5864 4.0915 19.6266 4.1336 19.6677C4.20439 19.7367 4.28535 19.7868 4.61979 19.9388L13 23.748L12.9999 12.9325C12.9859 12.9276 12.972 12.9225 12.9581 12.9174L12.7586 12.8352L4 8.854ZM24 8.853L15.2414 12.8352C15.1624 12.8711 15.0822 12.9034 15.0011 12.9321L15 23.748L23.3802 19.9388C23.5952 19.8411 23.7055 19.7855 23.7756 19.7399L23.8076 19.7178L23.8664 19.6677C23.9085 19.6266 23.9344 19.5864 23.9543 19.5311C23.9879 19.4381 24 19.3437 24 18.9763V8.853ZM8.5 5.899L5.416 7.301L13.5862 11.0145C13.8116 11.1169 14.0655 11.1315 14.299 11.0584L14.4138 11.0145L17.083 9.801L8.5 5.899ZM14.1399 3.51314C14.0424 3.49562 13.9576 3.49562 13.8601 3.51314C13.7243 3.53752 13.5979 3.58223 13.2008 3.76275L10.916 4.8L19.5 8.702L22.583 7.301L14.7992 3.76275C14.5344 3.6424 14.39 3.58241 14.2829 3.54857L14.2321 3.53367L14.1399 3.51314Z" fill="#3366FF" fill-opacity="0.8"/>
</svg>
