<svg width="28" height="28" viewBox="0 0 28 28" fill="none" xmlns="http://www.w3.org/2000/svg">
<path d="M22 10V20.5C22 22.9853 19.9853 25 17.5 25H10.5C8.01472 25 6 22.9853 6 20.5V10H5.29019C4.57764 10 4 9.42236 4 8.70981V7.25C4 5.73122 5.23122 4.5 6.75 4.5H8.40116C8.92486 3.59342 9.90309 3 11 3H17C18.0969 3 19.0751 3.59342 19.5988 4.5H21.25C22.7688 4.5 24 5.73122 24 7.25V8.70981C24 9.42236 23.4224 10 22.7098 10H22ZM21 8H22V7.25C22 6.83579 21.6642 6.5 21.25 6.5H18.937C18.4807 6.5 18.0823 6.19114 17.9686 5.74926C17.856 5.3121 17.4589 5 17 5H11C10.5411 5 10.144 5.3121 10.0314 5.74926C9.91771 6.19114 9.51929 6.5 9.06301 6.5H6.75C6.33579 6.5 6 6.83579 6 7.25V8H7H21ZM8 10V20.5C8 21.8807 9.11929 23 10.5 23H17.5C18.8807 23 20 21.8807 20 20.5V10H8Z" fill="#3366FF" fill-opacity="0.8"/>
</svg>
