<svg width="28" height="28" viewBox="0 0 28 28" fill="none" xmlns="http://www.w3.org/2000/svg">
<path d="M8.84583 9L11.4194 9.00182C12.6168 9.01894 13.2646 9.15935 13.9369 9.51889C14.6 9.87355 15.1265 10.4 15.4811 11.0631C15.8663 11.7834 16 12.4756 16 13.8458V21.1542C16 22.5244 15.8663 23.2166 15.4811 23.9369C15.1265 24.6 14.6 25.1265 13.9369 25.4811C13.2166 25.8663 12.5244 26 11.1542 26H8.84583C7.47564 26 6.78342 25.8663 6.06313 25.4811C5.39998 25.1265 4.87355 24.6 4.51889 23.9369C4.13367 23.2166 4 22.5244 4 21.1542L4.00182 13.5806C4.01894 12.3832 4.15936 11.7354 4.51889 11.0631C4.87355 10.4 5.39998 9.87355 6.06313 9.51889C6.78342 9.13367 7.47564 9 8.84583 9ZM17.8722 2C19.6488 2 20.5198 2.16819 21.4253 2.65245C22.2514 3.09427 22.9057 3.74859 23.3475 4.57471C23.8033 5.42693 23.9791 6.24858 23.9982 7.82346L24 8.12777V19.8722C24 21.6488 23.8318 22.5198 23.3475 23.4253C22.9057 24.2514 22.2514 24.9057 21.4253 25.3475C20.5412 25.8204 19.6935 25.9906 18.0093 25.9997C17.4571 26.0026 17.0069 25.5573 17.004 25.005C17.001 24.4527 17.4463 24.0026 17.9986 23.9997C19.383 23.9922 19.9204 23.8843 20.4821 23.5839C20.9597 23.3285 21.3285 22.9597 21.5839 22.4821C21.8558 21.9737 21.9718 21.4787 21.9954 20.3562L22 19.8722V8.12777L21.9954 7.6438C21.9718 6.52132 21.8558 6.02626 21.5839 5.51791C21.3285 5.04032 20.9597 4.67149 20.4821 4.41608C19.9737 4.14421 19.4787 4.02817 18.3566 4.00463L17.8727 4L14.8672 4.00147C13.5777 4.01654 13.0637 4.1242 12.5179 4.41608C12.0403 4.67149 11.6715 5.04032 11.4161 5.51791C11.3163 5.70454 11.247 5.86463 11.1932 6.04356L11.144 6.23047C11.0203 6.76871 10.4836 7.10473 9.94536 6.98099C9.40712 6.85725 9.0711 6.3206 9.19484 5.78236C9.29702 5.33789 9.43976 4.9724 9.65245 4.57471C10.0943 3.74859 10.7486 3.09427 11.5747 2.65245C12.3813 2.22107 13.1542 2.0428 14.5643 2.00686L14.855 2.00154L17.8722 2ZM11.1542 11L8.62719 11.0011C7.72318 11.0112 7.36934 11.0884 7.00633 11.2825C6.69171 11.4508 6.45077 11.6917 6.28251 12.0063C6.07344 12.3973 6 12.7776 6 13.8458V21.1542C6 22.2224 6.07344 22.6027 6.28251 22.9937C6.45077 23.3083 6.69171 23.5492 7.00633 23.7175C7.34141 23.8967 7.66869 23.9762 8.42809 23.9953L8.84583 24H11.1542C12.2224 24 12.6027 23.9266 12.9937 23.7175C13.3083 23.5492 13.5492 23.3083 13.7175 22.9937C13.8967 22.6586 13.9762 22.3313 13.9953 21.5719L14 21.1542V13.8458C14 12.7776 13.9266 12.3973 13.7175 12.0063C13.5492 11.6917 13.3083 11.4508 12.9937 11.2825C12.6027 11.0734 12.2224 11 11.1542 11Z" fill="#3366FF" fill-opacity="0.8"/>
</svg>
