<svg width="28" height="28" viewBox="0 0 28 28" fill="none" xmlns="http://www.w3.org/2000/svg">
<path d="M15.2053 2.12204C15.6105 2.21543 15.9766 2.36706 16.3292 2.58754C16.6851 2.81012 16.9581 3.04393 17.5215 3.60727L22.3927 8.47851C22.9561 9.04186 23.1899 9.31494 23.4125 9.67084C23.6329 10.0234 23.7846 10.3895 23.878 10.7947C23.9722 11.2037 24 11.5621 24 12.3588V19.2313C24 21.2111 23.8145 22.1714 23.2808 23.1695C22.7954 24.0771 22.0771 24.7954 21.1695 25.2808C20.1714 25.8145 19.2111 26 17.2313 26H10.7687C8.78894 26 7.82858 25.8145 6.8305 25.2808C5.9229 24.7954 5.20463 24.0771 4.71924 23.1695C4.18545 22.1714 4 21.2111 4 19.2313V8.06595C4 6.78109 4.2317 5.74212 4.71924 4.8305C5.20463 3.9229 5.9229 3.20463 6.8305 2.71924C7.74212 2.2317 8.78109 2 10.066 2H13.6412C14.4379 2 14.7963 2.02777 15.2053 2.12204ZM13.8261 4.00054L10.066 4C9.09428 4 8.37782 4.15978 7.7737 4.48286C7.21463 4.78185 6.78185 5.21463 6.48286 5.7737C6.15978 6.37782 6 7.09428 6 8.06595V19.2313C6 20.9091 6.12522 21.5576 6.48286 22.2263C6.78185 22.7854 7.21463 23.2181 7.7737 23.5171C8.44243 23.8748 9.09087 24 10.7687 24H17.2313C18.9091 24 19.5576 23.8748 20.2263 23.5171C20.7854 23.2181 21.2181 22.7854 21.5171 22.2263C21.8748 21.5576 22 20.9091 22 19.2313V12.3588C22 12.2215 21.9992 12.1031 21.9976 11.9996L16.5 12C15.1193 12 14 10.8807 14 9.5L14.0015 4.00245C13.9473 4.00157 13.8891 4.00094 13.8261 4.00054ZM16.1073 5.02149L16 4.915V9.5C16 9.74546 16.1769 9.94961 16.4101 9.99194L16.5 10L21.0873 10.0021C21.0531 9.9675 21.0169 9.93111 20.9785 9.89273L16.1073 5.02149Z" fill="#3366FF" fill-opacity="0.8"/>
</svg>
