<svg width="28" height="28" viewBox="0 0 28 28" fill="none" xmlns="http://www.w3.org/2000/svg">
<path d="M14 11.125C14.4461 11.125 14.8142 11.4588 14.8682 11.8902L14.875 12V23.071L17.4398 20.8278C17.8111 20.5184 18.3628 20.5686 18.6722 20.9398C18.9558 21.2801 18.9373 21.7721 18.6463 22.09L18.5602 22.1722L14.5602 25.6722L14.528 25.698C14.5132 25.7092 14.4981 25.7199 14.4828 25.7301L14.5602 25.6722C14.518 25.7073 14.4735 25.7378 14.4273 25.7637C14.4137 25.7715 14.4003 25.7785 14.3867 25.7852C14.3637 25.7965 14.34 25.8069 14.3159 25.8162C14.3054 25.8202 14.2947 25.8241 14.2839 25.8278C14.2617 25.8355 14.2393 25.8422 14.2167 25.8479C14.2015 25.8517 14.1857 25.8553 14.1699 25.8584C14.1494 25.8626 14.129 25.8658 14.1086 25.8683C14.0912 25.8704 14.0738 25.8721 14.0563 25.8732C14.038 25.8744 14.0193 25.875 14.0007 25.875C13.9813 25.875 13.9623 25.8744 13.9433 25.8732C13.9262 25.8721 13.9088 25.8704 13.8914 25.8682C13.871 25.8658 13.8506 25.8626 13.8304 25.8586C13.8143 25.8553 13.7985 25.8517 13.7829 25.8477C13.7607 25.8422 13.7383 25.8355 13.7161 25.8279C13.7053 25.8241 13.6946 25.8202 13.684 25.8161C13.66 25.8069 13.6363 25.7965 13.613 25.785C13.5997 25.7785 13.5863 25.7715 13.5731 25.7641C13.5265 25.7378 13.482 25.7073 13.4398 25.6722L13.5172 25.7301C13.5019 25.7199 13.4868 25.7092 13.472 25.698L13.4398 25.6722L9.43984 22.1722L9.35374 22.09C9.06273 21.7721 9.04422 21.2801 9.32781 20.9398C9.63718 20.5686 10.1889 20.5184 10.5602 20.8278L13.125 23.071V12C13.125 11.5168 13.5168 11.125 14 11.125ZM16.0833 3C19.5501 3 22.3748 5.74929 22.4959 9.18652L22.5 9.4L22.5663 9.43564C23.9791 10.2244 24.9191 11.6997 24.995 13.3651L25 13.5833C25 16.051 23.1142 18.0913 20.6461 18.3143L20.4268 18.3293L18.0003 18.33C17.448 18.3302 17.0002 17.8826 17 17.3303C16.9998 16.8175 17.3858 16.3947 17.8831 16.3368L17.9997 16.33L20.3802 16.3303C21.8428 16.2625 23 15.0538 23 13.5833C23 12.3985 22.2438 11.3582 21.1417 10.9816C20.6973 10.8297 20.4184 10.389 20.4715 9.92235C20.4904 9.7555 20.5 9.58678 20.5 9.41667C20.5 6.97741 18.5226 5 16.0833 5C14.7256 5 13.4712 5.61525 12.6389 6.65367C12.3488 7.01556 11.848 7.1305 11.4291 6.93131C11.0644 6.75783 10.6646 6.66667 10.25 6.66667C8.73122 6.66667 7.5 7.89788 7.5 9.41667C7.5 9.56936 7.51235 9.71905 7.53665 9.86429C7.61767 10.3485 7.33523 10.8199 6.87007 10.9768C5.7617 11.3508 5 12.3943 5 13.5833C5 15.0459 6.1417 16.2417 7.58195 16.3283L7.74941 16.3333L9.99941 16.332C10.5517 16.3317 10.9997 16.7791 11 17.3314C11.0003 17.8442 10.6145 18.2671 10.1172 18.3252L10.0006 18.332L7.75 18.3333C5.12665 18.3333 3 16.2067 3 13.5833C3 11.8231 3.9662 10.248 5.44855 9.4269L5.5 9.399L5.50489 9.19924C5.61528 6.74888 7.58221 4.78195 10.0326 4.67155L10.25 4.66667C10.6067 4.66667 10.9583 4.70618 11.2997 4.78325L11.572 4.854L11.6058 4.82105C12.7249 3.72869 14.2145 3.07166 15.8155 3.00552L16.0833 3Z" fill="#3366FF" fill-opacity="0.8"/>
</svg>
