<svg width="28" height="28" viewBox="0 0 28 28" fill="none" xmlns="http://www.w3.org/2000/svg">
<path d="M14 19.1782L19.69 22.6537C19.7362 22.6819 19.7918 22.6907 19.8444 22.6781C19.9546 22.6518 20.0225 22.5413 19.9963 22.4311L18.4492 15.9456L23.5129 11.6081C23.554 11.5729 23.5796 11.5228 23.5839 11.4688C23.5929 11.3559 23.5088 11.2571 23.3959 11.2481L16.7498 10.7152L14.1893 4.55904C14.1685 4.50903 14.1287 4.46928 14.0787 4.44848C13.9742 4.40501 13.8542 4.4545 13.8107 4.55904L11.2502 10.7152L4.60408 11.2481C4.55009 11.2524 4.50001 11.2779 4.46477 11.319C4.39112 11.405 4.40111 11.5344 4.4871 11.6081L9.55075 15.9456L8.00372 22.4311C7.99115 22.4838 7.99995 22.5393 8.02818 22.5856C8.08719 22.6822 8.21336 22.7127 8.30998 22.6537L14 19.1782ZM14 21.5218L9.35249 24.3605C8.31323 24.9952 6.95615 24.6673 6.32138 23.6281C6.01771 23.1309 5.92313 22.5338 6.0583 21.9671L7.32189 16.6698L3.18598 13.127C2.26113 12.3348 2.15362 10.9428 2.94586 10.0179C3.32485 9.57548 3.86354 9.30101 4.44425 9.25445L9.8727 8.81925L11.9641 3.79098C12.4317 2.66657 13.7224 2.13418 14.8468 2.60184C15.3847 2.82557 15.8122 3.25308 16.0359 3.79098L18.1273 8.81925L23.5557 9.25445C24.7696 9.35177 25.6748 10.4147 25.5775 11.6286C25.5309 12.2093 25.2565 12.748 24.814 13.127L20.6781 16.6698L21.9417 21.9671C22.2243 23.1516 21.493 24.341 20.3085 24.6235C19.7418 24.7587 19.1447 24.6641 18.6475 24.3605L14 21.5218Z" fill="#3366FF" fill-opacity="0.8"/>
</svg>
