<svg width="28" height="28" viewBox="0 0 28 28" fill="none" xmlns="http://www.w3.org/2000/svg">
<path d="M12.4355 3.69292C13.065 4.11934 13.592 4.70984 14.0014 5.44929C14.4089 4.70984 14.936 4.11934 15.5654 3.69292C17.0557 2.68339 18.9408 2.79067 20.0753 3.92518C21.2098 5.05968 21.3171 6.94479 20.3076 8.43505C20.1729 8.63381 20.0219 8.82236 19.855 9.00022L21 8.99952C21.7987 8.99952 22.5094 9.17773 23.102 9.50409C23.6945 9.83045 24.1691 10.305 24.4954 10.8976C24.8218 11.4902 25 12.2008 25 12.9995V13.429C25 14.4359 24.8608 14.9759 24.5993 15.4648C24.3378 15.9537 23.9542 16.3374 23.4653 16.5988C23.319 16.677 23.1682 16.7443 23.0016 16.8002L23 19.8717C23 21.6548 22.8143 22.3014 22.4657 22.9532C22.1171 23.6051 21.6055 24.1166 20.9537 24.4653C20.3018 24.8139 19.6553 24.9995 17.8722 24.9995H10.1278C8.34473 24.9995 7.69816 24.8139 7.04631 24.4653C6.39446 24.1166 5.88288 23.6051 5.53427 22.9532C5.18565 22.3014 5 21.6548 5 19.8717L4.99935 16.8005C4.83242 16.7446 4.68128 16.6772 4.53473 16.5988C4.04584 16.3374 3.66216 15.9537 3.4007 15.4648C3.16103 15.0166 3.02406 14.5256 3.00289 13.6712L3 12.9995C3 12.2008 3.17821 11.4902 3.50458 10.8976C3.83094 10.305 4.30545 9.83045 4.89804 9.50409C5.49064 9.17773 6.20131 8.99952 7 8.99952L8.14595 9.00022C7.97906 8.82236 7.82805 8.63381 7.69341 8.43505C6.68387 6.94479 6.79116 5.05968 7.92566 3.92518C9.06016 2.79067 10.9453 2.68339 12.4355 3.69292ZM13 16.999L7 16.9995V19.8717C7 21.1954 7.07784 21.5986 7.29789 22.01C7.46011 22.3133 7.68619 22.5394 7.98951 22.7016C8.40096 22.9217 8.80407 22.9995 10.1278 22.9995L13 22.999V16.999ZM15 16.999V22.999L17.8722 22.9995C19.1959 22.9995 19.599 22.9217 20.0105 22.7016C20.3138 22.5394 20.5399 22.3133 20.7021 22.01C20.9222 21.5986 21 21.1954 21 19.8717V16.9995L15 16.999ZM13 10.999L7 10.9995C6.54162 10.9995 6.1606 11.092 5.86287 11.256C5.60182 11.3997 5.40023 11.6013 5.25646 11.8624C5.0925 12.1601 5 12.5411 5 12.9995L5.00154 13.6088C5.01081 14.1148 5.06228 14.3308 5.16433 14.5216C5.23939 14.6619 5.33758 14.7601 5.47793 14.8352C5.68793 14.9475 5.92837 14.9985 6.55259 14.9995L13 14.999V10.999ZM21 10.9995L15 10.999V14.999H21.446L21.6093 14.998C22.1153 14.9887 22.3313 14.9372 22.5221 14.8352C22.6624 14.7601 22.7606 14.6619 22.8357 14.5216C22.9377 14.3308 22.9892 14.1148 22.9985 13.6088L23 12.9995C23 12.5411 22.9075 12.1601 22.7435 11.8624C22.5998 11.6013 22.3982 11.3997 22.1371 11.256C21.8394 11.092 21.4584 10.9995 21 10.9995ZM15 8.99952C18.65 8.64974 19.6955 6.29497 18.7 5.29952C17.7045 4.30406 15.3498 5.34952 15 8.99952ZM9.30097 5.29952C8.30551 6.29497 9.35097 8.64974 13.001 8.99952C12.6512 5.34952 10.2964 4.30406 9.30097 5.29952Z" fill="#3366FF" fill-opacity="0.8"/>
</svg>
