<svg width="28" height="28" viewBox="0 0 28 28" fill="none" xmlns="http://www.w3.org/2000/svg">
<path d="M7.70711 4.79289L13.0321 10.1179L13.0355 10.1171L17.8829 14.9645L17.8821 14.9679L23.7071 20.7929C24.0976 21.1834 24.0976 21.8166 23.7071 22.2071C23.3166 22.5976 22.6834 22.5976 22.2929 22.2071L20.4176 20.3335C18.4807 21.3995 16.2807 22 14 22C8.18176 22 2.5 17.644 2.5 14C2.5 11.873 4.68521 9.23066 7.69316 7.60745L6.29289 6.20711C5.90237 5.81658 5.90237 5.18342 6.29289 4.79289C6.68342 4.40237 7.31658 4.40237 7.70711 4.79289ZM4.5 14C4.5 16.406 9.1878 20 14 20C15.7325 20 17.4153 19.5896 18.934 18.8504L16.871 16.7852C16.144 17.5344 15.1264 18 14 18C11.7909 18 10 16.2091 10 14C10 12.8736 10.4656 11.856 11.2148 11.129L9.17988 9.09571C6.48034 10.377 4.5 12.6339 4.5 14ZM14 6C19.8182 6 25.5 10.356 25.5 14C25.5 14.9447 25.0668 15.9982 24.3034 17.0334C23.9755 17.4778 23.3495 17.5724 22.905 17.2446C22.4605 16.9168 22.3659 16.2907 22.6938 15.8463C23.2252 15.1257 23.5 14.4574 23.5 14C23.5 11.594 18.8122 8 14 8C13.4477 8 13 7.55228 13 7C13 6.44772 13.4477 6 14 6ZM12.6293 12.5435C12.2419 12.9083 12 13.4259 12 14C12 15.1046 12.8954 16 14 16C14.5741 16 15.0917 15.7581 15.4565 15.3707L12.6293 12.5435Z" fill="#3366FF" fill-opacity="0.8"/>
</svg>
