<svg width="28" height="28" viewBox="0 0 28 28" fill="none" xmlns="http://www.w3.org/2000/svg">
<path d="M16.3083 3C18.8978 3 20.1262 3.23723 21.4021 3.91958C22.5542 4.53571 23.4643 5.44582 24.0804 6.59786C24.7628 7.87375 25 9.10224 25 11.6917V16.3083C25 18.8978 24.7628 20.1262 24.0804 21.4021C23.4643 22.5542 22.5542 23.4643 21.4021 24.0804C20.1262 24.7628 18.8978 25 16.3083 25H11.6917C9.10224 25 7.87375 24.7628 6.59786 24.0804C5.44582 23.4643 4.53571 22.5542 3.91958 21.4021C3.23723 20.1262 3 18.8978 3 16.3083V11.6917C3 9.10224 3.23723 7.87375 3.91958 6.59786C4.53571 5.44582 5.44582 4.53571 6.59786 3.91958C7.87375 3.23723 9.10224 3 11.6917 3H16.3083ZM16.3083 5H11.6917C9.40417 5 8.4876 5.177 7.54106 5.68321C6.73755 6.11293 6.11293 6.73755 5.68321 7.54106C5.177 8.4876 5 9.40417 5 11.6917V16.3083C5 18.5958 5.177 19.5124 5.68321 20.4589C6.11293 21.2624 6.73755 21.8871 7.54106 22.3168C8.4876 22.823 9.40417 23 11.6917 23H16.3083C18.5958 23 19.5124 22.823 20.4589 22.3168C21.2624 21.8871 21.8871 21.2624 22.3168 20.4589C22.823 19.5124 23 18.5958 23 16.3083V11.6917C23 9.40417 22.823 8.4876 22.3168 7.54106C21.8871 6.73755 21.2624 6.11293 20.4589 5.68321C19.5124 5.177 18.5958 5 16.3083 5ZM11 15C12.1046 15 13 15.8954 13 17C13 18.1046 12.1046 19 11 19C9.89543 19 9 18.1046 9 17C9 15.8954 9.89543 15 11 15ZM17 15C18.1046 15 19 15.8954 19 17C19 18.1046 18.1046 19 17 19C15.8954 19 15 18.1046 15 17C15 15.8954 15.8954 15 17 15ZM11 9C12.1046 9 13 9.89543 13 11C13 12.1046 12.1046 13 11 13C9.89543 13 9 12.1046 9 11C9 9.89543 9.89543 9 11 9ZM17 9C18.1046 9 19 9.89543 19 11C19 12.1046 18.1046 13 17 13C15.8954 13 15 12.1046 15 11C15 9.89543 15.8954 9 17 9Z" fill="#3366FF" fill-opacity="0.8"/>
</svg>
