<svg width="28" height="28" viewBox="0 0 28 28" fill="none" xmlns="http://www.w3.org/2000/svg">
<path d="M10.4097 3L17.9257 3.00171C19.8839 3.02239 20.8804 3.23341 21.9137 3.78602C22.9028 4.31499 23.685 5.0972 24.214 6.08629C24.7973 7.17697 25 8.22671 25 10.4097L24.9983 17.9257C24.9776 19.8839 24.7666 20.8804 24.214 21.9137C23.685 22.9028 22.9028 23.685 21.9137 24.214C20.823 24.7973 19.7733 25 17.5903 25L10.0743 24.9983C8.11609 24.9776 7.11957 24.7666 6.08629 24.214C5.0972 23.685 4.31499 22.9028 3.78602 21.9137C3.20271 20.823 3 19.7733 3 17.5903L3.00171 10.0743C3.02239 8.11609 3.23341 7.11957 3.78602 6.08629C4.31499 5.0972 5.0972 4.31499 6.08629 3.78602C7.17697 3.20271 8.22671 3 10.4097 3ZM17.5903 5H10.4097C8.52864 5 7.79082 5.14248 7.02948 5.54964C6.38894 5.89221 5.89221 6.38894 5.54964 7.02948C5.18534 7.71068 5.03293 8.37305 5.00488 9.85233L5 10.4097V17.5903C5 19.4714 5.14248 20.2092 5.54964 20.9705C5.89221 21.6111 6.38894 22.1078 7.02948 22.4504C7.71068 22.8147 8.37305 22.9671 9.85233 22.9951L10.4097 23H17.5903C19.4714 23 20.2092 22.8575 20.9705 22.4504C21.6111 22.1078 22.1078 21.6111 22.4504 20.9705C22.8147 20.2893 22.9671 19.627 22.9951 18.1477L23 17.5903V10.4097C23 8.52864 22.8575 7.79082 22.4504 7.02948C22.1078 6.38894 21.6111 5.89221 20.9705 5.54964C20.2893 5.18534 19.627 5.03293 18.1477 5.00488L17.5903 5ZM12 17.5C12.5523 17.5 13 17.9477 13 18.5C13 19.0128 12.614 19.4355 12.1166 19.4933L12 19.5H9C8.44772 19.5 8 19.0523 8 18.5C8 17.9872 8.38604 17.5645 8.88338 17.5067L9 17.5H12ZM19 17.5C19.5523 17.5 20 17.9477 20 18.5C20 19.0128 19.614 19.4355 19.1166 19.4933L19 19.5H16C15.4477 19.5 15 19.0523 15 18.5C15 17.9872 15.386 17.5645 15.8834 17.5067L16 17.5H19ZM12 13C12.5523 13 13 13.4477 13 14C13 14.5128 12.614 14.9355 12.1166 14.9933L12 15H9C8.44772 15 8 14.5523 8 14C8 13.4872 8.38604 13.0645 8.88338 13.0067L9 13H12ZM19 13C19.5523 13 20 13.4477 20 14C20 14.5128 19.614 14.9355 19.1166 14.9933L19 15H16C15.4477 15 15 14.5523 15 14C15 13.4872 15.386 13.0645 15.8834 13.0067L16 13H19ZM19 8.5C19.5523 8.5 20 8.94772 20 9.5C20 10.0128 19.614 10.4355 19.1166 10.4933L19 10.5H16C15.4477 10.5 15 10.0523 15 9.5C15 8.98716 15.386 8.56449 15.8834 8.50673L16 8.5H19ZM12 8.5C12.5523 8.5 13 8.94772 13 9.5C13 10.0128 12.614 10.4355 12.1166 10.4933L12 10.5H9C8.44772 10.5 8 10.0523 8 9.5C8 8.98716 8.38604 8.56449 8.88338 8.50673L9 8.5H12Z" fill="#3366FF" fill-opacity="0.8"/>
</svg>
