<svg width="28" height="28" viewBox="0 0 28 28" fill="none" xmlns="http://www.w3.org/2000/svg">
<path d="M12.5 17C13.0523 17 13.5 17.4477 13.5 18C13.5 18.5523 13.0523 19 12.5 19H4.5C3.94772 19 3.5 18.5523 3.5 18C3.5 17.4477 3.94772 17 4.5 17H12.5ZM12.5 11C13.0523 11 13.5 11.4477 13.5 12C13.5 12.5523 13.0523 13 12.5 13H4.5C3.94772 13 3.5 12.5523 3.5 12C3.5 11.4477 3.94772 11 4.5 11H12.5ZM21.5 5C22.0523 5 22.5 5.44772 22.5 6C22.5 6.55228 22.0523 7 21.5 7H4.5C3.94772 7 3.5 6.55228 3.5 6C3.5 5.44772 3.94772 5 4.5 5H21.5ZM18.0178 13.1687L24.5866 17.1445C25.059 17.4305 25.2102 18.0453 24.9243 18.5178C24.8406 18.656 24.7248 18.7719 24.5866 18.8555L18.0178 22.8313C17.5453 23.1173 16.9305 22.9661 16.6445 22.4936C16.55 22.3375 16.5 22.1584 16.5 21.9758V14.0242C16.5 13.4719 16.9477 13.0242 17.5 13.0242C17.6826 13.0242 17.8616 13.0741 18.0178 13.1687Z" fill="#3366FF" fill-opacity="0.8"/>
</svg>
