<svg width="28" height="28" viewBox="0 0 28 28" fill="none" xmlns="http://www.w3.org/2000/svg">
<path d="M17.5903 3C19.7733 3 20.823 3.20271 21.9137 3.78602C22.9028 4.31499 23.685 5.0972 24.214 6.08629C24.7973 7.17697 25 8.22671 25 10.4097V17.5903C25 19.7733 24.7973 20.823 24.214 21.9137C23.685 22.9028 22.9028 23.685 21.9137 24.214C20.823 24.7973 19.7733 25 17.5903 25H10.4097C8.22671 25 7.17697 24.7973 6.08629 24.214C5.0972 23.685 4.31499 22.9028 3.78602 21.9137C3.20271 20.823 3 19.7733 3 17.5903V10.4097C3 8.22671 3.20271 7.17697 3.78602 6.08629C4.31499 5.0972 5.0972 4.31499 6.08629 3.78602C7.17697 3.20271 8.22671 3 10.4097 3H17.5903ZM17.5903 5H10.4097C8.52864 5 7.79082 5.14248 7.02948 5.54964C6.38894 5.89221 5.89221 6.38894 5.54964 7.02948C5.14248 7.79082 5 8.52864 5 10.4097V17.5903C5 19.4714 5.14248 20.2092 5.54964 20.9705C5.89221 21.6111 6.38894 22.1078 7.02948 22.4504C7.79082 22.8575 8.52864 23 10.4097 23H17.5903C19.4714 23 20.2092 22.8575 20.9705 22.4504C21.6111 22.1078 22.1078 21.6111 22.4504 20.9705C22.8575 20.2092 23 19.4714 23 17.5903V10.4097C23 8.52864 22.8575 7.79082 22.4504 7.02948C22.1078 6.38894 21.6111 5.89221 20.9705 5.54964C20.2092 5.14248 19.4714 5 17.5903 5ZM9.53139 10.575C9.88088 10.575 10.0123 10.728 10.1434 11.1066C10.8122 13.0549 11.9399 14.7576 12.4035 14.7576C12.56 14.7576 12.6402 14.6927 12.6547 14.3579L12.6571 14.236V12.2222C12.6063 11.295 12.1138 11.219 12.1138 10.8893C12.1138 10.7555 12.2138 10.6152 12.3844 10.5822L12.4618 10.575H14.6107C14.8683 10.575 14.9766 10.6974 14.9975 10.9689L15.0014 11.0777V13.7869C15.0014 14.0766 15.1272 14.178 15.2141 14.178C15.388 14.178 15.5329 14.0766 15.8516 13.7579C16.8368 12.6568 17.5322 10.9617 17.5322 10.9617C17.6095 10.7815 17.7447 10.6161 18.018 10.5816L18.1271 10.575H19.4946C19.9082 10.575 19.9951 10.7879 19.9082 11.0777C19.7477 11.8132 18.3157 13.8696 18.0964 14.1816L18.0682 14.2215C17.9234 14.4533 17.8654 14.5692 18.0682 14.83C18.2131 15.0328 18.6912 15.4385 19.0099 15.8151C19.5974 16.476 20.04 17.0335 20.1634 17.4177C20.2667 17.7711 20.1111 17.9647 19.7835 17.9945L19.69 17.9986H18.3225C17.8009 17.9986 17.6481 17.5826 16.7209 16.6554C15.9096 15.8731 15.5618 15.7717 15.359 15.7717C15.1113 15.7717 15.0198 15.8348 15.004 16.1323L15.0014 16.2404V17.4667C15.0014 17.8032 14.8939 17.9986 14.0246 17.9986C12.5758 17.9986 10.9837 17.119 9.85369 15.4964C8.15863 13.1204 7.69502 11.324 7.69502 10.9617C7.69502 10.7792 7.75832 10.612 8.05581 10.5804L8.16388 10.575H9.53139Z" fill="#3366FF" fill-opacity="0.8"/>
</svg>
