<svg width="28" height="28" viewBox="0 0 28 28" fill="none" xmlns="http://www.w3.org/2000/svg">
<path d="M8.12777 4L20.1765 4.00178C21.7514 4.02088 22.5731 4.19668 23.4253 4.65245C24.2514 5.09427 24.9057 5.74859 25.3475 6.57471C25.8318 7.48019 26 8.35117 26 10.1278V17.8722C26 19.6488 25.8318 20.5198 25.3475 21.4253C24.9057 22.2514 24.2514 22.9057 23.4253 23.3475C22.5198 23.8318 21.6488 24 19.8722 24H8.12777C6.35117 24 5.48019 23.8318 4.57471 23.3475C3.74859 22.9057 3.09427 22.2514 2.65245 21.4253C2.16819 20.5198 2 19.6488 2 17.8722L2.00178 9.82346C2.02088 8.24858 2.19668 7.42693 2.65245 6.57471C3.09427 5.74859 3.74859 5.09427 4.57471 4.65245C5.48019 4.16819 6.35117 4 8.12777 4ZM23.6872 7.72802L16.8284 14.5858C15.3184 16.0958 12.9014 16.1461 11.3309 14.7368L11.1716 14.5858L4.31283 7.72802C4.08341 8.24279 4 8.8316 4 10.1278V17.8722C4 19.3469 4.10796 19.906 4.41608 20.4821C4.67149 20.9597 5.04032 21.3285 5.51791 21.5839C6.02626 21.8558 6.52132 21.9718 7.6438 21.9954L8.12777 22H19.8722C21.3469 22 21.906 21.892 22.4821 21.5839C22.9597 21.3285 23.3285 20.9597 23.5839 20.4821C23.8558 19.9737 23.9718 19.4787 23.9954 18.3562L24 17.8722V10.1278C24 8.8316 23.9166 8.24279 23.6872 7.72802ZM19.8722 6H8.12777C6.8316 6 6.24279 6.08341 5.72802 6.31283L12.5858 13.1716C13.3257 13.9115 14.5012 13.9505 15.287 13.2884L15.4142 13.1716L22.272 6.31283C21.7572 6.08341 21.1684 6 19.8722 6Z" fill="#3366FF" fill-opacity="0.8"/>
</svg>
