<svg width="28" height="28" viewBox="0 0 28 28" fill="none" xmlns="http://www.w3.org/2000/svg">
<path d="M13.6729 24.6504C11.5765 24.6504 9.74675 24.2266 8.18359 23.3789C6.62043 22.5312 5.41276 21.3281 4.56055 19.7695C3.70833 18.2109 3.28223 16.3926 3.28223 14.3145V13.5625C3.28223 11.4935 3.72656 9.65691 4.61523 8.05273C5.50391 6.44856 6.7526 5.20215 8.36133 4.31348C9.97006 3.4248 11.8089 2.98047 13.8779 2.98047H13.9873C15.9196 2.98047 17.6491 3.37923 19.1758 4.17676C20.7025 4.97429 21.8965 6.07714 22.7578 7.48535C23.6191 8.89356 24.0498 10.4909 24.0498 12.2773V12.9609C24.0498 14.1823 23.8493 15.2624 23.4482 16.2012C23.0472 17.14 22.4867 17.8714 21.7666 18.3955C21.0465 18.9196 20.2171 19.1816 19.2783 19.1816C18.4307 19.1816 17.7015 19.0039 17.0908 18.6484C16.4801 18.293 16.1156 17.8281 15.9971 17.2539H15.8604C15.7601 17.6094 15.5596 17.9352 15.2588 18.2314C14.958 18.5277 14.5911 18.7601 14.1582 18.9287C13.7253 19.0973 13.2718 19.1816 12.7979 19.1816C12.0505 19.1816 11.3988 18.9994 10.8428 18.6348C10.2868 18.2702 9.8584 17.7507 9.55762 17.0762C9.25683 16.4017 9.10644 15.6042 9.10644 14.6836V13.3164C9.10644 12.4232 9.25911 11.6439 9.56445 10.9785C9.86979 10.3131 10.3073 9.80274 10.877 9.44727C11.4466 9.09179 12.1143 8.91406 12.8799 8.91406C13.5544 8.91406 14.1468 9.0804 14.6572 9.41309C15.1676 9.74577 15.5049 10.181 15.6689 10.7188H15.7783V10.3633C15.7783 9.9987 15.8786 9.70931 16.0791 9.49512C16.2796 9.28092 16.5531 9.17383 16.8994 9.17383C17.2367 9.17383 17.5055 9.28092 17.7061 9.49512C17.9066 9.70931 18.0068 9.9987 18.0068 10.3633V15.832C18.0068 16.2969 18.1481 16.6683 18.4307 16.9463C18.7132 17.2243 19.0824 17.3633 19.5381 17.3633C20.0212 17.3633 20.445 17.1764 20.8096 16.8027C21.1742 16.429 21.4544 15.8981 21.6504 15.21C21.8464 14.5218 21.9443 13.7175 21.9443 12.7969V12.3457C21.9443 10.9147 21.6048 9.63412 20.9258 8.50391C20.2467 7.37369 19.3034 6.48959 18.0957 5.85156C16.888 5.21354 15.5186 4.89453 13.9873 4.89453H13.8779C12.2191 4.89453 10.7516 5.25911 9.47559 5.98828C8.19954 6.71745 7.20834 7.74511 6.50195 9.07129C5.79557 10.3975 5.44238 11.9219 5.44238 13.6445V14.2324C5.44238 15.946 5.78418 17.4476 6.46777 18.7373C7.15137 20.027 8.11978 21.0205 9.37305 21.7178C10.6263 22.415 12.0869 22.7637 13.7549 22.7637H13.8643C14.4841 22.7637 15.2542 22.6953 16.1748 22.5586C16.6579 22.4948 16.9723 22.4629 17.1182 22.4629C17.3825 22.4629 17.6012 22.5426 17.7744 22.7021C17.9476 22.8617 18.0342 23.0645 18.0342 23.3105C18.0342 23.5566 17.9613 23.7663 17.8154 23.9395C17.6696 24.1126 17.46 24.2357 17.1865 24.3086C16.3024 24.5365 15.1722 24.6504 13.7959 24.6504H13.6729ZM11.4854 14.3691C11.4854 15.2897 11.6608 15.9893 12.0117 16.4678C12.3626 16.9463 12.8799 17.1855 13.5635 17.1855C14.238 17.1855 14.7529 16.9554 15.1084 16.4951C15.4639 16.0348 15.6416 15.3672 15.6416 14.4922V13.3848C15.6416 12.5827 15.4525 11.9492 15.0742 11.4844C14.696 11.0195 14.1833 10.7871 13.5361 10.7871C12.889 10.7871 12.3854 11.0309 12.0254 11.5186C11.6654 12.0062 11.4854 12.6875 11.4854 13.5625V14.3691Z" fill="#3366FF" fill-opacity="0.8"/>
</svg>
