<svg width="28" height="28" viewBox="0 0 28 28" fill="none" xmlns="http://www.w3.org/2000/svg">
<path d="M14 3.5C20.32 3.5 25.5 7.94 25.5 13.5C25.5 19.06 20.32 23.5 14 23.5C12.6453 23.5 11.322 23.2962 10.0757 22.9034C8.67376 24.2092 6.61771 24.8966 3.95208 25.0012C3.7296 25.0099 3.50814 24.9667 3.30525 24.875C2.58375 24.5488 2.26324 23.6996 2.58931 22.9778C3.50006 20.9632 4.00234 19.4801 4.10294 18.5994C3.06167 17.073 2.50001 15.3231 2.50001 13.5C2.50001 7.94 7.68001 3.5 14 3.5ZM14 5.5C8.72203 5.5 4.50001 9.11887 4.50001 13.5C4.50001 15.0077 4.99685 16.4549 5.92623 17.7133C6.054 17.8863 6.1226 18.0959 6.12183 18.3109C6.1181 19.358 5.67261 20.8776 4.79202 22.9378C6.77869 22.7298 8.17969 22.1066 9.03659 21.1014C9.30973 20.7811 9.75427 20.6661 10.1485 20.8138C11.3499 21.264 12.6543 21.5 14 21.5C19.278 21.5 23.5 17.8811 23.5 13.5C23.5 9.11887 19.278 5.5 14 5.5ZM14 12C15.1046 12 16 12.8954 16 14C16 15.1046 15.1046 16 14 16C12.8954 16 12 15.1046 12 14C12 12.8954 12.8954 12 14 12Z" fill="#3366FF" fill-opacity="0.8"/>
</svg>
