<svg width="28" height="28" viewBox="0 0 28 28" fill="none" xmlns="http://www.w3.org/2000/svg">
<path d="M14 2C20.6274 2 26 7.37258 26 14C26 20.6274 20.6274 26 14 26C10.7743 26 7.74871 24.72 5.51333 22.4839C5.12287 22.0933 5.12297 21.4601 5.51356 21.0697C5.90415 20.6792 6.53731 20.6793 6.92777 21.0699C8.79178 22.9345 11.3103 24 14 24C19.5228 24 24 19.5228 24 14C24 8.47715 19.5228 4 14 4C11.2614 4 8.71026 5.10803 6.85728 7.00037L8.5 7C9.05228 7 9.5 7.44772 9.5 8C9.5 8.51284 9.11396 8.93551 8.61662 8.99327L8.5 9H4.5C3.98716 9 3.56449 8.61396 3.50673 8.11662L3.5 8V4C3.5 3.44772 3.94772 3 4.5 3C5.01284 3 5.43551 3.38604 5.49327 3.88338L5.5 4L5.49973 5.52875C7.71675 3.30257 10.7495 2 14 2ZM15.1765 8.66943C17.6584 8.66943 19.0613 10.0557 19.0613 12.2305C19.0613 14.314 17.7664 15.75 15.1516 15.75H13.5579V16.9453H15.3508C15.8738 16.9453 16.1975 17.2275 16.1975 17.6841C16.1975 18.1406 15.8655 18.4146 15.3508 18.4146H13.5164V19.1948C13.4001 19.7759 12.9685 20.083 12.4373 20.083C11.9143 20.083 11.4744 19.7759 11.3582 19.1948V18.4146H10.5779C10.0466 18.4146 9.7312 18.1406 9.7312 17.6841C9.7312 17.2275 10.0466 16.9453 10.5779 16.9453H11.3167V15.75H10.7024C10.0964 15.7417 9.7312 15.418 9.7312 14.8784C9.7312 14.3472 10.0964 14.0151 10.7024 13.9985H11.3167V10.396C11.3167 9.20898 11.8645 8.66943 13.0266 8.66943H15.1765ZM14.7947 10.4541H13.5496V13.9985H14.6038C16.0813 13.9985 16.7786 13.5254 16.7786 12.2388C16.7786 10.9604 16.073 10.4541 14.7947 10.4541Z" fill="#3366FF" fill-opacity="0.8"/>
</svg>
