<svg width="28" height="28" viewBox="0 0 28 28" fill="none" xmlns="http://www.w3.org/2000/svg">
<path d="M14.3447 16.7715C14.7572 16.4075 15.3868 16.4468 15.7508 16.8593C16.1148 17.2719 16.0754 17.9014 15.6629 18.2654L9.17928 24.2203C7.94507 25.3092 6.07683 25.2509 4.91296 24.0871C3.74908 22.9233 3.69075 21.0551 4.77976 19.821L9.73937 13.3371C10.1034 12.9246 10.7329 12.8852 11.1455 13.2492C11.558 13.6132 11.5974 14.2427 11.2333 14.6552L6.27373 21.1391C5.88082 21.5844 5.90186 22.2584 6.32179 22.6783C6.74171 23.0982 7.41577 23.1193 7.86107 22.7264L14.3447 16.7715ZM14.2574 13.7426C11.9142 11.3995 11.9142 7.60051 14.2574 5.25736C16.6005 2.91421 20.3995 2.91421 22.7426 5.25736C25.0858 7.60051 25.0858 11.3995 22.7426 13.7426C20.3995 16.0858 16.6005 16.0858 14.2574 13.7426ZM15.6716 12.4284C17.2337 13.9905 19.7663 13.9905 21.3284 12.4284C22.8905 10.8663 22.8905 8.33367 21.3284 6.77157C19.7663 5.20948 17.2337 5.20948 15.6716 6.77157C14.1095 8.33367 14.1095 10.8663 15.6716 12.4284Z" fill="#3366FF" fill-opacity="0.8"/>
</svg>
