<svg width="28" height="28" viewBox="0 0 28 28" fill="none" xmlns="http://www.w3.org/2000/svg">
<path d="M10.4097 5C11.743 5 11.743 7 10.4097 7L9.85233 7.00488C8.37305 7.03293 7.71068 7.18534 7.02948 7.54964C6.38894 7.89221 5.89221 8.38894 5.54964 9.02948C5.18534 9.71068 5.03293 10.373 5.00488 11.8523L5 12.4097V17.5903C5 19.4714 5.14248 20.2092 5.54964 20.9705C5.89221 21.6111 6.38894 22.1078 7.02948 22.4504C7.71068 22.8147 8.37305 22.9671 9.85233 22.9951L10.4097 23H17.5903C19.4714 23 20.2092 22.8575 20.9705 22.4504C21.6111 22.1078 22.1078 21.6111 22.4504 20.9705C22.8147 20.2893 22.9671 19.627 22.9951 18.1477L23 17.5903V12.4097L22.9951 11.8523C22.9671 10.373 22.8147 9.71068 22.4504 9.02948C22.1078 8.38894 21.6111 7.89221 20.9705 7.54964C20.2893 7.18534 19.627 7.03293 18.1477 7.00488L17.5903 7L17.4571 6.99303C16.3013 6.86904 16.3013 5.13096 17.4571 5.00697L17.5903 5H18L18.071 5.003L18.2434 5.00695C19.8917 5.04454 20.8241 5.23917 21.7417 5.69705L21.9137 5.78602C22.9028 6.31499 23.685 7.0972 24.214 8.08629C24.7666 9.11957 24.9776 10.1161 24.9983 12.0743L25 12.4097V17.5903C25 19.7733 24.7973 20.823 24.214 21.9137C23.685 22.9028 22.9028 23.685 21.9137 24.214C20.8804 24.7666 19.8839 24.9776 17.9257 24.9983L10.4097 25C8.22671 25 7.17697 24.7973 6.08629 24.214C5.0972 23.685 4.31499 22.9028 3.78602 21.9137C3.23341 20.8804 3.02239 19.8839 3.00171 17.9257L3 12.4097C3 10.2267 3.20271 9.17697 3.78602 8.08629C4.31499 7.0972 5.0972 6.31499 6.08629 5.78602C7.06216 5.26411 8.00526 5.04689 9.75664 5.00695L9.928 5.003L10 5H10.4097ZM15 17C15.5523 17 16 17.4477 16 18C16 18.5523 15.5523 19 15 19H9C8.44772 19 8 18.5523 8 18C8 17.4477 8.44772 17 9 17H15ZM19 12C19.5523 12 20 12.4477 20 13C20 13.5523 19.5523 14 19 14H9C8.44772 14 8 13.5523 8 13C8 12.4477 8.44772 12 9 12H19ZM14 3C14.5523 3 15 3.44772 15 4V8C15 8.55228 14.5523 9 14 9C13.4477 9 13 8.55228 13 8V4C13 3.44772 13.4477 3 14 3Z" fill="#3366FF" fill-opacity="0.8"/>
</svg>
