<svg width="28" height="28" viewBox="0 0 28 28" fill="none" xmlns="http://www.w3.org/2000/svg">
<path d="M15.2977 2.43478C16.0301 2.60572 16.6748 2.97796 17.189 3.52673C17.7103 4.08303 18.0136 4.67244 18.34 5.82461L19.1847 8.97006C19.3277 9.50352 19.0111 10.0519 18.4776 10.1948C17.9442 10.3377 17.3958 10.0212 17.2529 9.4877L16.4786 6.59795L16.3659 6.19565C16.151 5.46707 15.9894 5.17153 15.7296 4.89425C15.4856 4.6339 15.1906 4.46353 14.8431 4.38243C14.4731 4.29606 14.1363 4.30392 13.3979 4.48204L12.9932 4.58564L7.86571 5.95954C7.01172 6.18837 6.61196 6.35416 6.35689 6.54274L6.29595 6.5904L6.16201 6.70853C5.90166 6.95248 5.73129 7.24757 5.65019 7.59502C5.55662 7.9959 5.57364 8.35767 5.79792 9.23347L9.03904 21.3339C9.31552 22.3658 9.48489 22.7141 9.78802 23.0376C10.032 23.298 10.3271 23.4683 10.6745 23.5494C11.0135 23.6285 11.3007 23.6281 11.8833 23.5028L12.0889 23.4563L12.538 23.3427C13.0734 23.2072 13.6173 23.5315 13.7527 24.0669C13.8785 24.5641 13.6079 25.0685 13.1399 25.2465L13.0285 25.2816L12.5636 25.3991C11.5402 25.6402 10.9208 25.6607 10.2199 25.4971C9.48756 25.3261 8.84282 24.9539 8.32861 24.4051C7.80733 23.8488 7.50403 23.2594 7.17758 22.1072L3.92155 9.96259C3.56692 8.63909 3.51688 7.93586 3.70254 7.14042C3.85449 6.48944 4.16549 5.90768 4.63267 5.41205L4.81518 5.23026L4.99402 5.07252C5.48972 4.66088 6.07127 4.38817 7.08534 4.10011L7.34807 4.02769L12.4755 2.65379C13.799 2.29916 14.5023 2.24912 15.2977 2.43478ZM20.8421 12C23.1384 12 25 13.8615 25 16.1577C25 18.4005 24.1084 19.5162 20.5527 22.2815L18.9063 23.562C18.3732 23.9766 17.6268 23.9766 17.0937 23.562L15.4473 22.2815C11.8916 19.5162 11 18.4005 11 16.1577C11 13.8615 12.8616 12 15.1579 12C16.1444 12 17.0526 12.2792 17.8628 12.8238L18 12.92L18.1372 12.8238C18.8737 12.3287 19.6913 12.053 20.575 12.0069L20.8421 12ZM20.8421 14C20.0389 14 19.3438 14.3008 18.7069 14.9373L18.3537 15.2903C18.1582 15.4852 17.8418 15.4852 17.6463 15.2903L17.2931 14.9373C16.6562 14.3008 15.9611 14 15.1579 14C13.9661 14 13 14.966 13 16.1577C13 17.5679 13.5841 18.2988 16.6752 20.7028L18 21.733L19.8447 20.2954C22.4002 18.2756 22.9656 17.5316 22.9984 16.2804L23 16.1577C23 14.966 22.0339 14 20.8421 14Z" fill="#3366FF" fill-opacity="0.8"/>
</svg>
