<svg width="28" height="28" viewBox="0 0 28 28" fill="none" xmlns="http://www.w3.org/2000/svg">
<path d="M14 2.33334C20.4283 2.33334 25.6667 7.04667 25.6667 12.8333C25.6667 16.695 22.5283 19.8333 18.6667 19.8333H16.6017C16.275 19.8333 16.0183 20.09 16.0183 20.4167C16.0183 20.5567 16.0767 20.685 16.17 20.8017C16.6483 21.35 16.9167 22.0383 16.9167 22.75C16.9167 24.36 15.61 25.6667 14 25.6667C7.57168 25.6667 2.33334 20.4283 2.33334 14C2.33334 7.57167 7.57168 2.33334 14 2.33334ZM13.995 4.33C8.66718 4.33 4.33001 8.66717 4.33001 13.995C4.33001 19.3228 8.66718 23.66 13.995 23.66C14.3333 23.66 14.5991 23.3942 14.5991 23.0559C14.5991 22.8626 14.5024 22.7177 14.4299 22.6331C13.9346 22.0774 13.6688 21.3646 13.6688 20.6397C13.6688 18.9725 15.0219 17.6194 16.6891 17.6194H18.8275C21.4975 17.6194 23.66 15.4568 23.66 12.7869C23.66 8.12352 19.3228 4.33 13.995 4.33ZM7.58334 11.6667C8.54984 11.6667 9.33334 12.4502 9.33334 13.4167C9.33334 14.3832 8.54984 15.1667 7.58334 15.1667C6.61685 15.1667 5.83334 14.3832 5.83334 13.4167C5.83334 12.4502 6.61685 11.6667 7.58334 11.6667ZM20.4167 11.6667C21.3832 11.6667 22.1667 12.4502 22.1667 13.4167C22.1667 14.3832 21.3832 15.1667 20.4167 15.1667C19.4502 15.1667 18.6667 14.3832 18.6667 13.4167C18.6667 12.4502 19.4502 11.6667 20.4167 11.6667ZM11.0833 7C12.0498 7 12.8333 7.7835 12.8333 8.75C12.8333 9.7165 12.0498 10.5 11.0833 10.5C10.1168 10.5 9.33334 9.7165 9.33334 8.75C9.33334 7.7835 10.1168 7 11.0833 7ZM16.9167 7C17.8832 7 18.6667 7.7835 18.6667 8.75C18.6667 9.7165 17.8832 10.5 16.9167 10.5C15.9502 10.5 15.1667 9.7165 15.1667 8.75C15.1667 7.7835 15.9502 7 16.9167 7Z" fill="#3366FF" fill-opacity="0.8"/>
</svg>
