<svg width="28" height="28" viewBox="0 0 28 28" fill="none" xmlns="http://www.w3.org/2000/svg">
<path d="M16.1117 17.259L15.3776 17.9931C15.1815 18.1894 14.8892 18.254 14.6287 18.1585C13.8986 17.8901 12.9853 17.2085 11.8886 16.1117C10.793 15.016 10.1105 14.1026 9.84301 13.3715C9.74731 13.1111 9.81148 12.8188 10.0075 12.6225L10.7425 11.8884C12.0967 10.5341 12.2205 8.40112 11.0268 6.98541L10.165 5.96103C9.18127 4.79101 7.40905 4.67312 6.20545 5.69651C5.75782 6.08229 5.42131 6.5806 5.23068 7.13996C5.14829 7.38346 5.09509 7.63587 5.07218 7.8919C4.63135 11.1642 6.20941 14.5989 9.80536 18.1952C13.4013 21.7914 16.8348 23.3686 20.1078 22.9278C20.9581 22.8466 21.7444 22.4407 22.303 21.7944C23.3273 20.5917 23.2085 18.8183 22.0395 17.8346L21.0152 16.9717C19.5976 15.7799 17.4658 15.9047 16.1117 17.259ZM13.3029 14.6976C13.8267 15.2215 14.2835 15.6188 14.6528 15.8894C16.7761 13.766 20.0799 13.5724 22.3038 15.4421L23.3273 16.3044C25.3566 18.0122 25.5595 21.0553 23.8161 23.1023C22.9208 24.138 21.6607 24.7886 20.3748 24.9099C16.3927 25.4462 12.3881 23.6067 8.39109 19.6093C4.394 15.6119 2.55375 11.6062 3.08014 7.71368C3.11714 7.30007 3.20309 6.89231 3.33759 6.49481C3.64309 5.59837 4.18239 4.79977 4.90991 4.17284C6.94717 2.44061 9.98872 2.64353 11.6954 4.67346L12.5558 5.69618C14.428 7.91652 14.2362 11.223 12.1558 13.3035C12.3817 13.7169 12.7789 14.1735 13.3029 14.6976Z" fill="#3366FF" fill-opacity="0.8"/>
</svg>
