<svg width="28" height="28" viewBox="0 0 28 28" fill="none" xmlns="http://www.w3.org/2000/svg">
<path d="M19.8722 7C21.6553 7 22.3018 7.18565 22.9537 7.53427C23.6055 7.88288 24.1171 8.39446 24.4657 9.04631C24.8143 9.69816 25 10.3447 25 12.1278V18.8722C25 20.6553 24.8143 21.3018 24.4657 21.9537C24.1171 22.6055 23.6055 23.1171 22.9537 23.4657C22.3018 23.8143 21.6553 24 19.8722 24H8.12777C6.34473 24 5.69816 23.8143 5.04631 23.4657C4.39446 23.1171 3.88288 22.6055 3.53427 21.9537C3.204 21.3361 3.01999 20.7233 3.00154 19.1445L3 12.1278C3 10.3447 3.18565 9.69816 3.53427 9.04631C3.88288 8.39446 4.39446 7.88288 5.04631 7.53427C5.66385 7.204 6.27666 7.01999 7.85552 7.00154L19.8722 7ZM19.999 14.414L15.0607 19.3536C14.5115 19.9027 13.6424 19.9371 13.0533 19.4565L12.9393 19.3536L11 17.414L6.51714 21.8974C6.81669 21.9633 7.22267 21.9936 7.89014 21.9991L19.8722 22C21.1959 22 21.599 21.9222 22.0105 21.7021C22.3138 21.5399 22.5399 21.3138 22.7021 21.0105L22.7781 20.8548C22.9288 20.5104 22.991 20.0948 22.9991 19.1099L22.999 17.414L19.999 14.414ZM20.1099 9.00093H7.89014L7.47416 9.00863C6.65261 9.03419 6.32381 9.1191 5.98951 9.29789C5.68619 9.46011 5.46011 9.68619 5.29789 9.98951L5.22191 10.1452C5.07119 10.4896 5.00904 10.9052 5.00093 11.8901V19.1099L5.00863 19.5258C5.02204 19.9567 5.05177 20.2521 5.1028 20.4837L9.93934 15.6464C10.4885 15.0973 11.3576 15.0629 11.9467 15.5435L12.0607 15.6464L14 17.586L18.9393 12.6464C19.4885 12.0973 20.3576 12.0629 20.9467 12.5435L21.0607 12.6464L23 14.585V12.1278C23 10.8041 22.9222 10.401 22.7021 9.98951C22.5399 9.68619 22.3138 9.46011 22.0105 9.29789L21.8548 9.22191C21.5104 9.07119 21.0948 9.00904 20.1099 9.00093ZM8.5 11C9.32843 11 10 11.6716 10 12.5C10 13.3284 9.32843 14 8.5 14C7.67157 14 7 13.3284 7 12.5C7 11.6716 7.67157 11 8.5 11ZM17.4361 3C18.3276 3 18.6509 3.09283 18.9768 3.26713C19.3028 3.44144 19.5586 3.69723 19.7329 4.02315C19.8642 4.26868 19.9492 4.51271 19.9832 4.99928H8.01678C8.05076 4.51271 8.13582 4.26868 8.26713 4.02315C8.44144 3.69723 8.69723 3.44144 9.02315 3.26713C9.34908 3.09283 9.67237 3 10.5639 3H17.4361Z" fill="#3366FF" fill-opacity="0.8"/>
</svg>
