<svg width="28" height="28" viewBox="0 0 28 28" fill="none" xmlns="http://www.w3.org/2000/svg">
<path d="M21 7C23.2091 7 25 8.79086 25 11V20C25 22.2091 23.2091 24 21 24H7C4.79086 24 3 22.2091 3 20V11C3 8.79086 4.79086 7 7 7H21ZM21 9H7C5.89543 9 5 9.89543 5 11V20C5 21.1046 5.89543 22 7 22H21C22.1046 22 23 21.1046 23 20V11C23 9.89543 22.1046 9 21 9ZM12.5 12.3204C12.5974 12.3204 12.6927 12.3488 12.7741 12.4022L16.8427 15.0691C17.0737 15.2205 17.1382 15.5305 16.9868 15.7614C16.9466 15.8227 16.8935 15.8743 16.8312 15.9128L12.7626 18.4241C12.5276 18.5691 12.2196 18.4962 12.0745 18.2612C12.0258 18.1823 12 18.0914 12 17.9986V12.8204C12 12.5442 12.2239 12.3204 12.5 12.3204ZM18 3C19.0544 3 19.9182 3.81588 19.9945 4.85074L20 5H8C8 3.89543 8.89543 3 10 3H18Z" fill="#3366FF" fill-opacity="0.8"/>
</svg>
