<svg width="28" height="28" viewBox="0 0 28 28" fill="none" xmlns="http://www.w3.org/2000/svg">
<path d="M24.7796 4.02458C25.4051 3.8833 26 4.35882 26 5.00001V7.10248C26 8.73346 24.9035 10.1607 23.3276 10.5809L20 11.4683V18C20 18.0057 20 18.0115 19.9999 18.0172L20 19.3936C20 24.0815 15.4175 26.4934 12.9272 24.0031C10.3506 21.4265 12.8205 17.1992 18.0006 16.9425L18 10.7221C17.9997 10.7069 17.9997 10.6917 18 10.6765L18.0001 8.93086C17.973 7.00871 18.9097 5.64268 20.6838 5.05132C21.325 4.83759 22.6772 4.49954 24.7796 4.02458ZM18 18.9439C14.4621 19.1398 13.1554 21.4028 14.3414 22.5889C15.4843 23.7318 18 22.4077 18 19.3936V18.9439ZM8.5 17C9.05228 17 9.5 17.4477 9.5 18C9.5 18.5523 9.05228 19 8.5 19H4.5C3.94772 19 3.5 18.5523 3.5 18C3.5 17.4477 3.94772 17 4.5 17H8.5ZM13.5 11C14.0523 11 14.5 11.4477 14.5 12C14.5 12.5523 14.0523 13 13.5 13H4.5C3.94772 13 3.5 12.5523 3.5 12C3.5 11.4477 3.94772 11 4.5 11H13.5ZM24 6.25553C22.652 6.57066 21.7511 6.80373 21.3162 6.94869C20.3816 7.26024 19.9849 7.83872 20 8.91677V9.39839L22.8123 8.64846C23.5127 8.46168 24 7.82736 24 7.10248V6.25553ZM15 5.00001C15.5523 5.00001 16 5.44772 16 6.00001C16 6.55229 15.5523 7.00001 15 7.00001H4.5C3.94772 7.00001 3.5 6.55229 3.5 6.00001C3.5 5.44772 3.94772 5.00001 4.5 5.00001H15Z" fill="#3366FF" fill-opacity="0.8"/>
</svg>
