<svg width="28" height="28" viewBox="0 0 28 28" fill="none" xmlns="http://www.w3.org/2000/svg">
<path d="M16.1787 2.19745C21.8344 3.23527 26.0002 8.18446 26.0002 14C26.0002 19.816 21.8338 24.7654 16.1776 25.8028C15.6344 25.9024 15.1132 25.5428 15.0136 24.9996C14.914 24.4563 15.2736 23.9352 15.8168 23.8356C20.5275 22.9716 24.0002 18.8463 24.0002 14C24.0002 9.15404 20.528 5.02894 15.8178 4.1646C15.2745 4.06492 14.915 3.54375 15.0147 3.00053C15.1144 2.45732 15.6355 2.09776 16.1787 2.19745ZM6.37502 20.4705C7.65855 21.9813 9.36287 23.0842 11.2741 23.6243C11.5709 23.7082 11.872 23.7783 12.1767 23.8344C12.7198 23.9344 13.0791 24.4557 12.9791 24.9989C12.8791 25.5421 12.3578 25.9013 11.8146 25.8013C11.4486 25.734 11.0868 25.6497 10.7302 25.5489C8.43468 24.9002 6.38987 23.577 4.85079 21.7653C4.49321 21.3444 4.54456 20.7134 4.96546 20.3558C5.38637 19.9982 6.01745 20.0496 6.37502 20.4705ZM3.99194 9.31952C4.51132 9.50728 4.78016 10.0805 4.5924 10.5999C4.20195 11.68 3.99982 12.8254 3.99982 14C3.99982 15.1275 4.18605 16.2282 4.54652 17.2703C4.72706 17.7923 4.45029 18.3618 3.92834 18.5423C3.4064 18.7228 2.83693 18.4461 2.65639 17.9241C2.22343 16.6724 1.99982 15.3507 1.99982 14C1.99982 12.5928 2.24254 11.2173 2.71153 9.91999C2.89929 9.4006 3.47255 9.13176 3.99194 9.31952ZM12.2 10.0785C12.3392 10.0785 12.476 10.1149 12.5969 10.1839L18.0595 13.3054C18.4431 13.5246 18.5763 14.0133 18.3571 14.3969C18.2863 14.5209 18.1835 14.6237 18.0595 14.6946L12.5969 17.816C12.2133 18.0353 11.7246 17.902 11.5054 17.5184C11.4363 17.3975 11.4 17.2607 11.4 17.1215V10.8785C11.4 10.4367 11.7582 10.0785 12.2 10.0785ZM12.9811 3.00091C13.081 3.54409 12.7217 4.0654 12.1785 4.16528C9.93655 4.57757 7.91503 5.74784 6.43203 7.46301C6.07081 7.88079 5.4393 7.92663 5.02153 7.56541C4.60375 7.20419 4.55791 6.57269 4.91913 6.15491C6.6975 4.09812 9.12387 2.69348 11.8168 2.19827C12.36 2.09838 12.8813 2.45774 12.9811 3.00091Z" fill="#3366FF" fill-opacity="0.8"/>
</svg>
