<svg width="28" height="28" viewBox="0 0 28 28" fill="none" xmlns="http://www.w3.org/2000/svg">
<path d="M24.4422 12.0577C24.9554 12.8275 25.0298 13.8894 24.6336 14.7213L21.9552 20.346C20.4349 23.5385 16.539 26 12.9978 26H12C7.57839 26 4 22.4202 4 17.9913V10.1277C4 8.60891 5.23115 7.38277 6.75 7.38277C7.01013 7.38277 7.26169 7.41883 7.5 7.48623V6.75432C7.5 5.23589 8.72555 4 10.25 4C10.5362 4 10.8121 4.04396 11.0714 4.12541C11.3541 2.90811 12.4432 2 13.75 2C15.2202 2 16.4198 3.15035 16.4961 4.60424C16.7357 4.53634 16.9885 4.5 17.25 4.5C18.7711 4.5 20 5.72951 20 7.25455V11.5185C21.2989 10.2402 23.3574 10.4306 24.4422 12.0577ZM6.75 9.38277C6.3329 9.38277 6 9.7163 6 10.1277V17.9913C6 21.319 8.68629 24 12 24H12.9978C15.771 24 18.9623 21.9791 20.1495 19.4861L22.8279 13.8614C22.9215 13.6649 22.9006 13.351 22.7781 13.1671C22.3498 12.5246 21.6547 12.5179 21.2288 13.1569L19.051 16.4236C18.4746 17.2882 18 17.1498 18 16.101V7.25455C18 6.83177 17.6642 6.5 17.25 6.5C16.8329 6.5 16.5 6.83424 16.5 7.24655V13.0041C16.5 13.5533 16.0523 14 15.5 14C14.9439 14 14.5 13.5543 14.5 13.0046V4.75163C14.5 4.33272 14.1642 4 13.75 4C13.3329 4 13 4.33651 13 4.75163V13.0046C13 13.5443 12.5523 14 12 14C11.4439 14 11 13.5536 11 13.003V6.75262C11 6.34375 10.6642 6 10.25 6C9.8329 6 9.5 6.33772 9.5 6.75432V13.4916C9.5 14.043 9.05228 14.5 8.5 14.5C7.94386 14.5 7.5 14.0528 7.5 13.5012V10.1378C7.5 9.71853 7.16421 9.38277 6.75 9.38277Z" fill="#3366FF" fill-opacity="0.8"/>
</svg>
