<svg width="28" height="28" viewBox="0 0 28 28" fill="none" xmlns="http://www.w3.org/2000/svg">
<path d="M9.34646 15C10.6169 15 11.0776 15.1323 11.542 15.3807C12.0064 15.6291 12.3709 15.9936 12.6193 16.458C12.8677 16.9224 13 17.3831 13 18.6535V21.3465C13 22.6169 12.8677 23.0776 12.6193 23.542C12.3709 24.0065 12.0064 24.3709 11.542 24.6193C11.0776 24.8677 10.6169 25 9.34646 25H6.65354C5.38312 25 4.92244 24.8677 4.45799 24.6193C3.99355 24.3709 3.62905 24.0065 3.38066 23.542C3.13228 23.0776 3 22.6169 3 21.3465V18.6535C3 17.3831 3.13228 16.9224 3.38066 16.458C3.62905 15.9936 3.99355 15.6291 4.45799 15.3807C4.92244 15.1323 5.38312 15 6.65354 15H9.34646ZM23.5385 22C23.8729 22 23.9941 22.0348 24.1163 22.1002C24.2385 22.1655 24.3345 22.2615 24.3998 22.3837C24.4652 22.5059 24.5 22.6271 24.5 22.9615V23.5385C24.5 23.8729 24.4652 23.9941 24.3998 24.1163C24.3345 24.2385 24.2385 24.3345 24.1163 24.3998C23.9941 24.4652 23.8729 24.5 23.5385 24.5H22.9615C22.6271 24.5 22.5059 24.4652 22.3837 24.3998C22.2615 24.3345 22.1655 24.2385 22.1002 24.1163C22.0348 23.9941 22 23.8729 22 23.5385V22.9615C22 22.6271 22.0348 22.5059 22.1002 22.3837C22.1655 22.2615 22.2615 22.1655 22.3837 22.1002C22.5059 22.0348 22.6271 22 22.9615 22H23.5385ZM17.0385 22C17.3729 22 17.4941 22.0348 17.6163 22.1002C17.7385 22.1655 17.8345 22.2615 17.8998 22.3837C17.9652 22.5059 18 22.6271 18 22.9615V23.5385C18 23.8729 17.9652 23.9941 17.8998 24.1163C17.8345 24.2385 17.7385 24.3345 17.6163 24.3998C17.4941 24.4652 17.3729 24.5 17.0385 24.5H16.4615C16.1271 24.5 16.0059 24.4652 15.8837 24.3998C15.7615 24.3345 15.6655 24.2385 15.6002 24.1163C15.5348 23.9941 15.5 23.8729 15.5 23.5385V22.9615C15.5 22.6271 15.5348 22.5059 15.6002 22.3837C15.6655 22.2615 15.7615 22.1655 15.8837 22.1002C16.0059 22.0348 16.1271 22 16.4615 22H17.0385ZM9.52012 17.0006L6.65354 17C5.7972 17 5.59967 17.0381 5.40119 17.1443C5.28529 17.2063 5.20628 17.2853 5.14429 17.4012C5.04573 17.5855 5.0058 17.769 5.00059 18.4799L5 21.3465C5 22.2028 5.03815 22.4003 5.14429 22.5988C5.20628 22.7147 5.28529 22.7937 5.40119 22.8557C5.59967 22.9619 5.7972 23 6.65354 23H9.34646C10.2028 23 10.4003 22.9619 10.5988 22.8557C10.7147 22.7937 10.7937 22.7147 10.8557 22.5988C10.9619 22.4003 11 22.2028 11 21.3465V18.6535C11 17.7972 10.9619 17.5997 10.8557 17.4012C10.7937 17.2853 10.7147 17.2063 10.5988 17.1443C10.4145 17.0457 10.231 17.0058 9.52012 17.0006ZM8.28854 18.75C8.62286 18.75 8.74409 18.7848 8.86632 18.8502C8.98854 18.9155 9.08446 19.0115 9.14983 19.1337C9.21519 19.2559 9.25 19.3771 9.25 19.7115V20.2885C9.25 20.6229 9.21519 20.7441 9.14983 20.8663C9.08446 20.9885 8.98854 21.0845 8.86632 21.1498C8.74409 21.2152 8.62286 21.25 8.28854 21.25H7.71146C7.37714 21.25 7.25591 21.2152 7.13368 21.1498C7.01146 21.0845 6.91554 20.9885 6.85017 20.8663C6.78481 20.7441 6.75 20.6229 6.75 20.2885V19.7115C6.75 19.3771 6.78481 19.2559 6.85017 19.1337C6.91554 19.0115 7.01146 18.9155 7.13368 18.8502C7.25591 18.7848 7.37714 18.75 7.71146 18.75H8.28854ZM20.2885 18.75C20.6229 18.75 20.7441 18.7848 20.8663 18.8502C20.9885 18.9155 21.0845 19.0115 21.1498 19.1337C21.2152 19.2559 21.25 19.3771 21.25 19.7115V20.2885C21.25 20.6229 21.2152 20.7441 21.1498 20.8663C21.0845 20.9885 20.9885 21.0845 20.8663 21.1498C20.7441 21.2152 20.6229 21.25 20.2885 21.25H19.7115C19.3771 21.25 19.2559 21.2152 19.1337 21.1498C19.0115 21.0845 18.9155 20.9885 18.8502 20.8663C18.7848 20.7441 18.75 20.6229 18.75 20.2885V19.7115C18.75 19.3771 18.7848 19.2559 18.8502 19.1337C18.9155 19.0115 19.0115 18.9155 19.1337 18.8502C19.2559 18.7848 19.3771 18.75 19.7115 18.75H20.2885ZM17.0385 15.5C17.3729 15.5 17.4941 15.5348 17.6163 15.6002C17.7385 15.6655 17.8345 15.7615 17.8998 15.8837C17.9652 16.0059 18 16.1271 18 16.4615V17.0385C18 17.3729 17.9652 17.4941 17.8998 17.6163C17.8345 17.7385 17.7385 17.8345 17.6163 17.8998C17.4941 17.9652 17.3729 18 17.0385 18H16.4615C16.1271 18 16.0059 17.9652 15.8837 17.8998C15.7615 17.8345 15.6655 17.7385 15.6002 17.6163C15.5348 17.4941 15.5 17.3729 15.5 17.0385V16.4615C15.5 16.1271 15.5348 16.0059 15.6002 15.8837C15.6655 15.7615 15.7615 15.6655 15.8837 15.6002C16.0059 15.5348 16.1271 15.5 16.4615 15.5H17.0385ZM23.5385 15.5C23.8729 15.5 23.9941 15.5348 24.1163 15.6002C24.2385 15.6655 24.3345 15.7615 24.3998 15.8837C24.4652 16.0059 24.5 16.1271 24.5 16.4615V17.0385C24.5 17.3729 24.4652 17.4941 24.3998 17.6163C24.3345 17.7385 24.2385 17.8345 24.1163 17.8998C23.9941 17.9652 23.8729 18 23.5385 18H22.9615C22.6271 18 22.5059 17.9652 22.3837 17.8998C22.2615 17.8345 22.1655 17.7385 22.1002 17.6163C22.0348 17.4941 22 17.3729 22 17.0385V16.4615C22 16.1271 22.0348 16.0059 22.1002 15.8837C22.1655 15.7615 22.2615 15.6655 22.3837 15.6002C22.5059 15.5348 22.6271 15.5 22.9615 15.5H23.5385ZM9.34646 3C10.6169 3 11.0776 3.13228 11.542 3.38066C12.0064 3.62905 12.3709 3.99355 12.6193 4.45799C12.8677 4.92244 13 5.38312 13 6.65354V9.34646C13 10.6169 12.8677 11.0776 12.6193 11.542C12.3709 12.0064 12.0064 12.3709 11.542 12.6193C11.0776 12.8677 10.6169 13 9.34646 13H6.65354C5.38312 13 4.92244 12.8677 4.45799 12.6193C3.99355 12.3709 3.62905 12.0064 3.38066 11.542C3.13228 11.0776 3 10.6169 3 9.34646V6.65354C3 5.38312 3.13228 4.92244 3.38066 4.45799C3.62905 3.99355 3.99355 3.62905 4.45799 3.38066C4.92244 3.13228 5.38312 3 6.65354 3H9.34646ZM21.3465 3C22.6169 3 23.0776 3.13228 23.542 3.38066C24.0065 3.62905 24.3709 3.99355 24.6193 4.45799C24.8677 4.92244 25 5.38312 25 6.65354V9.34646C25 10.6169 24.8677 11.0776 24.6193 11.542C24.3709 12.0064 24.0065 12.3709 23.542 12.6193C23.0776 12.8677 22.6169 13 21.3465 13H18.6535C17.3831 13 16.9224 12.8677 16.458 12.6193C15.9936 12.3709 15.6291 12.0064 15.3807 11.542C15.1323 11.0776 15 10.6169 15 9.34646V6.65354C15 5.38312 15.1323 4.92244 15.3807 4.45799C15.6291 3.99355 15.9936 3.62905 16.458 3.38066C16.9224 3.13228 17.3831 3 18.6535 3H21.3465ZM9.52012 5.00059L6.65354 5C5.7972 5 5.59967 5.03815 5.40119 5.14429C5.28529 5.20628 5.20628 5.28529 5.14429 5.40119C5.04573 5.58549 5.0058 5.76898 5.00059 6.47988L5 9.34646C5 10.2028 5.03815 10.4003 5.14429 10.5988C5.20628 10.7147 5.28529 10.7937 5.40119 10.8557C5.59967 10.9619 5.7972 11 6.65354 11H9.34646C10.2028 11 10.4003 10.9619 10.5988 10.8557C10.7147 10.7937 10.7937 10.7147 10.8557 10.5988C10.9619 10.4003 11 10.2028 11 9.34646V6.65354C11 5.7972 10.9619 5.59967 10.8557 5.40119C10.7937 5.28529 10.7147 5.20628 10.5988 5.14429C10.4145 5.04573 10.231 5.0058 9.52012 5.00059ZM21.5201 5.00059L18.6535 5C17.7972 5 17.5997 5.03815 17.4012 5.14429C17.2853 5.20628 17.2063 5.28529 17.1443 5.40119C17.0457 5.58549 17.0058 5.76898 17.0006 6.47988L17 9.34646C17 10.2028 17.0381 10.4003 17.1443 10.5988C17.2063 10.7147 17.2853 10.7937 17.4012 10.8557C17.5997 10.9619 17.7972 11 18.6535 11H21.3465C22.2028 11 22.4003 10.9619 22.5988 10.8557C22.7147 10.7937 22.7937 10.7147 22.8557 10.5988C22.9619 10.4003 23 10.2028 23 9.34646V6.65354C23 5.7972 22.9619 5.59967 22.8557 5.40119C22.7937 5.28529 22.7147 5.20628 22.5988 5.14429C22.4145 5.04573 22.231 5.0058 21.5201 5.00059ZM8.28854 6.75C8.62286 6.75 8.74409 6.78481 8.86632 6.85017C8.98854 6.91554 9.08446 7.01146 9.14983 7.13368C9.21519 7.25591 9.25 7.37714 9.25 7.71146V8.28854C9.25 8.62286 9.21519 8.74409 9.14983 8.86632C9.08446 8.98854 8.98854 9.08446 8.86632 9.14983C8.74409 9.21519 8.62286 9.25 8.28854 9.25H7.71146C7.37714 9.25 7.25591 9.21519 7.13368 9.14983C7.01146 9.08446 6.91554 8.98854 6.85017 8.86632C6.78481 8.74409 6.75 8.62286 6.75 8.28854V7.71146C6.75 7.37714 6.78481 7.25591 6.85017 7.13368C6.91554 7.01146 7.01146 6.91554 7.13368 6.85017C7.25591 6.78481 7.37714 6.75 7.71146 6.75H8.28854ZM20.2885 6.75C20.6229 6.75 20.7441 6.78481 20.8663 6.85017C20.9885 6.91554 21.0845 7.01146 21.1498 7.13368C21.2152 7.25591 21.25 7.37714 21.25 7.71146V8.28854C21.25 8.62286 21.2152 8.74409 21.1498 8.86632C21.0845 8.98854 20.9885 9.08446 20.8663 9.14983C20.7441 9.21519 20.6229 9.25 20.2885 9.25H19.7115C19.3771 9.25 19.2559 9.21519 19.1337 9.14983C19.0115 9.08446 18.9155 8.98854 18.8502 8.86632C18.7848 8.74409 18.75 8.62286 18.75 8.28854V7.71146C18.75 7.37714 18.7848 7.25591 18.8502 7.13368C18.9155 7.01146 19.0115 6.91554 19.1337 6.85017C19.2559 6.78481 19.3771 6.75 19.7115 6.75H20.2885Z" fill="#3366FF" fill-opacity="0.8"/>
</svg>
