<svg width="28" height="28" viewBox="0 0 28 28" fill="none" xmlns="http://www.w3.org/2000/svg">
<path d="M7.49097 5.69785C7.87221 6.09744 7.85733 6.73043 7.45773 7.11167C7.4496 7.11942 7.4496 7.11942 7.42506 7.1429C7.41291 7.15454 7.41291 7.15454 7.40429 7.16285C5.55984 8.9426 4.5 11.3857 4.5 14C4.5 16.6291 5.57194 19.0848 7.43479 20.8665C7.83391 21.2482 7.84801 21.8812 7.46628 22.2803C7.08455 22.6795 6.45154 22.6936 6.05242 22.3118C3.79904 20.1566 2.5 17.1807 2.5 14C2.5 10.8372 3.7844 7.8765 6.01554 5.72362C6.02807 5.71155 6.02807 5.71155 6.04156 5.69863C6.06826 5.67309 6.06826 5.67309 6.07714 5.66461C6.47674 5.28337 7.10973 5.29825 7.49097 5.69785ZM20.509 5.69785C20.8903 5.29825 21.5233 5.28337 21.9229 5.66461C21.9317 5.67309 21.9317 5.67309 21.9584 5.69863C21.9719 5.71155 21.9719 5.71155 21.9845 5.72362C24.2156 7.8765 25.5 10.8372 25.5 14C25.5 17.1807 24.201 20.1566 21.9476 22.3118C21.5485 22.6936 20.9155 22.6795 20.5337 22.2803C20.152 21.8812 20.1661 21.2482 20.5652 20.8665C22.4281 19.0848 23.5 16.6291 23.5 14C23.5 11.3857 22.4402 8.9426 20.5957 7.16285C20.5871 7.15454 20.5871 7.15454 20.5749 7.1429C20.5504 7.11942 20.5504 7.11942 20.5423 7.11167C20.1427 6.73043 20.1278 6.09744 20.509 5.69785ZM10.8378 9.0943C11.2122 9.50027 11.1866 10.1329 10.7807 10.5074C9.81082 11.4018 9.25 12.6547 9.25 14C9.25 15.3449 9.81054 16.5975 10.7799 17.492C11.1858 17.8665 11.2113 18.4992 10.8368 18.9051C10.4622 19.311 9.82959 19.3364 9.42369 18.9619C8.04811 17.6927 7.25 15.9092 7.25 14C7.25 12.0904 8.04851 10.3065 9.4247 9.03719C9.83067 8.66275 10.4633 8.68832 10.8378 9.0943ZM17.1622 9.0943C17.5367 8.68832 18.1693 8.66275 18.5753 9.03719C19.9515 10.3065 20.75 12.0904 20.75 14C20.75 15.9092 19.9519 17.6927 18.5763 18.9619C18.1704 19.3364 17.5378 19.311 17.1632 18.9051C16.7887 18.4992 16.8142 17.8665 17.2201 17.492C18.1895 16.5975 18.75 15.3449 18.75 14C18.75 12.6547 18.1892 11.4018 17.2193 10.5074C16.8134 10.1329 16.7878 9.50027 17.1622 9.0943ZM14 11.75C15.2426 11.75 16.25 12.7574 16.25 14C16.25 15.2426 15.2426 16.25 14 16.25C12.7574 16.25 11.75 15.2426 11.75 14C11.75 12.7574 12.7574 11.75 14 11.75Z" fill="#3366FF" fill-opacity="0.8"/>
</svg>
