<svg width="28" height="28" viewBox="0 0 28 28" fill="none" xmlns="http://www.w3.org/2000/svg">
<path d="M13 4.5C17.6944 4.5 21.5 8.30558 21.5 13C21.5 14.987 20.8182 16.8147 19.6758 18.2621L24.2071 22.7929C24.5976 23.1834 24.5976 23.8166 24.2071 24.2071C23.8166 24.5976 23.1834 24.5976 22.7929 24.2071L18.2621 19.6758C16.8147 20.8182 14.987 21.5 13 21.5C8.30558 21.5 4.5 17.6944 4.5 13C4.5 8.30558 8.30558 4.5 13 4.5ZM13 6.5C9.41015 6.5 6.5 9.41015 6.5 13C6.5 16.5899 9.41015 19.5 13 19.5C16.5899 19.5 19.5 16.5899 19.5 13C19.5 9.41015 16.5899 6.5 13 6.5Z" fill="#3366FF" fill-opacity="0.8"/>
</svg>
