<svg width="28" height="28" viewBox="0 0 28 28" fill="none" xmlns="http://www.w3.org/2000/svg">
<path d="M20 2C22.2091 2 24 3.79086 24 6C24 8.20914 22.2091 10 20 10C18.9228 10 17.9451 9.57421 17.2259 8.88176L10.8239 12.8225C10.9384 13.1948 11 13.5902 11 14C11 14.4102 10.9383 14.8059 10.8236 15.1785L17.2249 19.1192C17.9442 18.4262 18.9223 18 20 18C22.2091 18 24 19.7909 24 22C24 24.2091 22.2091 26 20 26C17.7909 26 16 24.2091 16 22C16 21.5898 16.0617 21.1941 16.1764 20.8215L9.77408 16.8818C9.05492 17.5742 8.07718 18 7 18C4.79086 18 3 16.2091 3 14C3 11.7909 4.79086 10 7 10C8.07718 10 9.05492 10.4258 9.77408 11.1182L16.1764 7.17846C16.0617 6.80592 16 6.41017 16 6C16 3.79086 17.7909 2 20 2ZM20 20C18.8954 20 18 20.8954 18 22C18 23.1046 18.8954 24 20 24C21.1046 24 22 23.1046 22 22C22 20.8954 21.1046 20 20 20ZM7 12C5.89543 12 5 12.8954 5 14C5 15.1046 5.89543 16 7 16C8.10457 16 9 15.1046 9 14C9 12.8954 8.10457 12 7 12ZM20 4C18.8954 4 18 4.89543 18 6C18 7.10457 18.8954 8 20 8C21.1046 8 22 7.10457 22 6C22 4.89543 21.1046 4 20 4Z" fill="#3366FF" fill-opacity="0.8"/>
</svg>
