<svg width="28" height="28" viewBox="0 0 28 28" fill="none" xmlns="http://www.w3.org/2000/svg">
<path d="M14.5556 2.51634L14.6927 2.64224L25.3312 13.2807C25.7714 13.721 26.0038 14.3276 25.9702 14.9493C25.9656 15.0357 25.9618 15.0938 25.9589 15.1237C25.3755 21.2108 20.2472 25.9709 14.0071 25.9709C7.37577 25.9709 2 20.5952 2 13.9638C2 7.75292 6.71568 2.64343 12.7619 2.02047C12.8023 2.01631 12.8891 2.01058 13.0222 2.00329C13.5823 1.9726 14.1303 2.15773 14.5556 2.51634ZM20.2727 16.6982C15.3022 16.6982 11.2727 12.6688 11.2727 7.6982C11.2727 6.44193 11.5301 5.24578 11.995 4.15961C7.4055 5.09333 4 9.15746 4 13.9638C4 19.4906 8.48034 23.9709 14.0071 23.9709C18.8046 23.9709 22.8594 20.5789 23.8059 16.0077L23.8128 15.9738C22.727 16.4404 21.53 16.6982 20.2727 16.6982ZM13.69 4.468L13.9374 4.71601C13.5022 5.6383 13.2727 6.64988 13.2727 7.6982C13.2727 11.5642 16.4067 14.6982 20.2727 14.6982C21.321 14.6982 22.3326 14.4688 23.2549 14.0336L23.605 14.383L13.69 4.468Z" fill="#3366FF" fill-opacity="0.8"/>
</svg>
