<svg width="28" height="28" viewBox="0 0 28 28" fill="none" xmlns="http://www.w3.org/2000/svg">
<path d="M17.9257 3.00171C19.8839 3.02239 20.8804 3.23341 21.9137 3.78602C22.9028 4.31498 23.685 5.0972 24.214 6.08629C24.7666 7.11957 24.9776 8.11609 24.9983 10.0743V17.9257C24.9776 19.8839 24.7666 20.8804 24.214 21.9137C23.685 22.9028 22.9028 23.685 21.9137 24.214C20.8804 24.7666 19.8839 24.9776 17.9257 24.9983H10.0743C8.11609 24.9776 7.11957 24.7666 6.08629 24.214C5.0972 23.685 4.31498 22.9028 3.78602 21.9137C3.23341 20.8804 3.02239 19.8839 3.00171 17.9257V10.0743C3.02239 8.11609 3.23341 7.11957 3.78602 6.08629C4.31498 5.0972 5.0972 4.31498 6.08629 3.78602C7.11957 3.23341 8.11609 3.02239 10.0743 3.00171H17.9257ZM17.5903 5H10.4097L9.85233 5.00488C8.37304 5.03293 7.71068 5.18534 7.02948 5.54964C6.38894 5.89221 5.89221 6.38894 5.54964 7.02948C5.18534 7.71068 5.03293 8.37304 5.00488 9.85233L5 10.4097V17.5903L5.00488 18.1477C5.03293 19.627 5.18534 20.2893 5.54964 20.9705C5.89221 21.6111 6.38894 22.1078 7.02948 22.4504C7.71068 22.8147 8.37304 22.9671 9.85233 22.9951L10.4097 23H17.5903L18.1477 22.9951C19.627 22.9671 20.2893 22.8147 20.9705 22.4504C21.6111 22.1078 22.1078 21.6111 22.4504 20.9705C22.8147 20.2893 22.9671 19.627 22.9951 18.1477L23 17.5903V10.4097L22.9951 9.85233C22.9671 8.37304 22.8147 7.71068 22.4504 7.02948C22.1078 6.38894 21.6111 5.89221 20.9705 5.54964C20.2893 5.18534 19.627 5.03293 18.1477 5.00488L17.5903 5ZM14 8.75C16.8995 8.75 19.25 11.1005 19.25 14C19.25 16.8995 16.8995 19.25 14 19.25C11.1005 19.25 8.75 16.8995 8.75 14C8.75 11.1005 11.1005 8.75 14 8.75ZM14 10.75C12.2051 10.75 10.75 12.2051 10.75 14C10.75 15.7949 12.2051 17.25 14 17.25C15.7949 17.25 17.25 15.7949 17.25 14C17.25 12.2051 15.7949 10.75 14 10.75Z" fill="#3366FF" fill-opacity="0.8"/>
</svg>
