<svg width="28" height="28" viewBox="0 0 28 28" fill="none" xmlns="http://www.w3.org/2000/svg">
<path d="M18.3083 4C20.9829 4 21.9528 4.27848 22.9305 4.8014C23.9083 5.32432 24.6757 6.09169 25.1986 7.06946C25.7215 8.04724 26 9.0171 26 11.6917V16.3083C26 18.9829 25.7215 19.9528 25.1986 20.9305C24.6757 21.9083 23.9083 22.6757 22.9305 23.1986C21.9528 23.7215 20.9829 24 18.3083 24H9.69166C7.0171 24 6.04724 23.7215 5.06946 23.1986C4.09169 22.6757 3.32432 21.9083 2.8014 20.9305C2.27848 19.9528 2 18.9829 2 16.3083V11.6917C2 9.0171 2.27848 8.04724 2.8014 7.06946C3.32432 6.09169 4.09169 5.32432 5.06946 4.8014C6.04724 4.27848 7.0171 4 9.69166 4H18.3083ZM18.5913 6.00092L9.69166 6C7.55513 6 6.79452 6.14688 6.01266 6.56502C5.38342 6.90155 4.90155 7.38342 4.56502 8.01266C4.16589 8.75898 4.01391 9.48594 4.00092 11.4087L4 16.3083C4 18.4449 4.14688 19.2055 4.56502 19.9873C4.90155 20.6166 5.38342 21.0985 6.01266 21.435C6.79452 21.8531 7.55513 22 9.69166 22H18.3083C20.4449 22 21.2055 21.8531 21.9873 21.435C22.6166 21.0985 23.0985 20.6166 23.435 19.9873C23.8531 19.2055 24 18.4449 24 16.3083V11.6917C24 9.55513 23.8531 8.79452 23.435 8.01266C23.0985 7.38342 22.6166 6.90155 21.9873 6.56502C21.241 6.16589 20.5141 6.01391 18.5913 6.00092ZM14 16C14.5523 16 15 16.4477 15 17C15 17.5523 14.5523 18 14 18H8C7.44772 18 7 17.5523 7 17C7 16.4477 7.44772 16 8 16H14ZM20 16C20.5523 16 21 16.4477 21 17C21 17.5523 20.5523 18 20 18H18C17.4477 18 17 17.5523 17 17C17 16.4477 17.4477 16 18 16H20ZM20 12C20.5523 12 21 12.4477 21 13C21 13.5523 20.5523 14 20 14H14C13.4477 14 13 13.5523 13 13C13 12.4477 13.4477 12 14 12H20ZM10 12C10.5523 12 11 12.4477 11 13C11 13.5523 10.5523 14 10 14H8C7.44772 14 7 13.5523 7 13C7 12.4477 7.44772 12 8 12H10Z" fill="#3366FF" fill-opacity="0.8"/>
</svg>
