<svg width="28" height="28" viewBox="0 0 28 28" fill="none" xmlns="http://www.w3.org/2000/svg">
<path d="M14 2C14.5523 2 15 2.44772 15 3L15.0011 4.04948C19.725 4.51902 23.4815 8.2759 23.9506 12.9999L25 13C25.5523 13 26 13.4477 26 14C26 14.5523 25.5523 15 25 15L23.9505 15.0011C23.481 19.7246 19.7246 23.481 15.0011 23.9505L15 25C15 25.5523 14.5523 26 14 26C13.4477 26 13 25.5523 13 25L12.9999 23.9506C8.2759 23.4815 4.51902 19.725 4.04948 15.0011L3 15C2.44772 15 2 14.5523 2 14C2 13.4477 2.44772 13 3 13L4.04939 12.9999C4.51849 8.27556 8.27556 4.51849 12.9999 4.04939L13 3C13 2.44772 13.4477 2 14 2ZM15.001 6.06201L15 7C15 7.55228 14.5523 8 14 8C13.4477 8 13 7.55228 13 7L13 6.06189C9.38129 6.51312 6.51312 9.38129 6.06189 13L7 13C7.55228 13 8 13.4477 8 14C8 14.5523 7.55228 15 7 15L6.06201 15.001C6.51365 18.6192 9.38163 21.4869 13 21.9381L13 21C13 20.4477 13.4477 20 14 20C14.5523 20 15 20.4477 15 21L15.001 21.938C18.6189 21.4864 21.4864 18.6189 21.938 15.001L21 15C20.4477 15 20 14.5523 20 14C20 13.4477 20.4477 13 21 13L21.9381 13C21.4869 9.38163 18.6192 6.51365 15.001 6.06201ZM14 12C15.1046 12 16 12.8954 16 14C16 15.1046 15.1046 16 14 16C12.8954 16 12 15.1046 12 14C12 12.8954 12.8954 12 14 12Z" fill="#3366FF" fill-opacity="0.8"/>
</svg>
