<svg width="28" height="28" viewBox="0 0 28 28" fill="none" xmlns="http://www.w3.org/2000/svg">
<path d="M14 2C20.6274 2 26 7.37258 26 14C26 20.6274 20.6274 26 14 26C7.37258 26 2 20.6274 2 14C2 7.37258 7.37258 2 14 2ZM14 20.5C11.9141 20.5 9.92004 21.082 8.20321 22.149C9.83817 23.3146 11.839 24 14 24C16.1605 24 18.161 23.3148 19.796 22.15C18.0795 21.0818 16.0857 20.5 14 20.5ZM14 4C8.47715 4 4 8.47715 4 14C4 16.6157 5.00426 18.9968 6.64823 20.7788C8.78562 19.3082 11.331 18.5 14 18.5C16.6693 18.5 19.2149 19.3084 21.3527 20.7774C22.9961 18.9959 24 16.6152 24 14C24 8.47715 19.5228 4 14 4ZM14 7.5C16.6242 7.5 18.75 9.62584 18.75 12.25C18.75 14.8742 16.6242 17 14 17C11.3758 17 9.25 14.8742 9.25 12.25C9.25 9.62584 11.3758 7.5 14 7.5ZM14 9.5C12.4804 9.5 11.25 10.7304 11.25 12.25C11.25 13.7696 12.4804 15 14 15C15.5196 15 16.75 13.7696 16.75 12.25C16.75 10.7304 15.5196 9.5 14 9.5Z" fill="#3366FF" fill-opacity="0.8"/>
</svg>
