<svg width="28" height="28" viewBox="0 0 28 28" fill="none" xmlns="http://www.w3.org/2000/svg">
<path d="M14 2C20.6274 2 26 7.37258 26 14C26 20.6274 20.6274 26 14 26C7.37258 26 2 20.6274 2 14C2 7.37258 7.37258 2 14 2ZM14 4C8.47715 4 4 8.47715 4 14C4 19.5228 8.47715 24 14 24C19.5228 24 24 19.5228 24 14C24 8.47715 19.5228 4 14 4ZM11.9548 9.12119C12.2971 9.12119 12.6334 9.21109 12.9301 9.38191L18.0087 12.3059C18.9443 12.8446 19.266 14.0397 18.7273 14.9753C18.5553 15.2741 18.3074 15.522 18.0087 15.694L12.9301 18.618C11.9945 19.1567 10.7994 18.8349 10.2607 17.8993C10.0899 17.6027 10 17.2663 10 16.924V11.0759C10 9.99636 10.8752 9.12119 11.9548 9.12119ZM12 11.1542V16.8457L16.9426 14L12 11.1542Z" fill="#3366FF" fill-opacity="0.8"/>
</svg>
