<svg width="28" height="28" viewBox="0 0 28 28" fill="none" xmlns="http://www.w3.org/2000/svg">
<path d="M13.9833 2.5C17.354 2.5 24 10.3839 24 16C24 21.5228 19.5229 26 14 26C8.47715 26 4 21.5228 4 16C4 10.3821 10.6167 2.5 13.9833 2.5ZM13.9833 4.5C13.3308 4.5 11.2452 6.06548 9.50127 8.14295C7.338 10.7199 6 13.5598 6 16C6 20.4183 9.58172 24 14 24C18.4183 24 22 20.4183 22 16C22 13.5613 20.6562 10.7222 18.4833 8.14453C16.7321 6.06713 14.6374 4.5 13.9833 4.5Z" fill="#3366FF" fill-opacity="0.8"/>
</svg>
