<svg width="28" height="28" viewBox="0 0 28 28" fill="none" xmlns="http://www.w3.org/2000/svg">
<path d="M10.0743 3.00171L18.0017 3.002L18.0045 5.00258L10.122 5.0012C8.4509 5.01573 7.75075 5.16391 7.02948 5.54964C6.38894 5.89221 5.89221 6.38894 5.54964 7.02948C5.14248 7.79082 5 8.52864 5 10.4097V17.5903C5 19.4714 5.14248 20.2092 5.54964 20.9705C5.89221 21.6111 6.38894 22.1078 7.02948 22.4504C7.71068 22.8147 8.37304 22.9671 9.85233 22.9951L10.4097 23H17.5903L18.1477 22.9951C19.627 22.9671 20.2893 22.8147 20.9705 22.4504C21.6111 22.1078 22.1078 21.6111 22.4504 20.9705C22.8147 20.2893 22.9671 19.627 22.9951 18.1477L23 17.5903L22.9957 10L24.9974 9.99881L25 17.5903C25 19.7733 24.7973 20.823 24.214 21.9137C23.685 22.9028 22.9028 23.685 21.9137 24.214C20.823 24.7973 19.7733 25 17.5903 25H10.4097C8.22671 25 7.17697 24.7973 6.08629 24.214C5.0972 23.685 4.31498 22.9028 3.78602 21.9137C3.23341 20.8804 3.02239 19.8839 3.00171 17.9257V10.0743C3.02239 8.11609 3.23341 7.11957 3.78602 6.08629C4.31498 5.0972 5.0972 4.31499 6.08629 3.78602C7.11957 3.23341 8.11609 3.02239 10.0743 3.00171ZM23.1782 4.82183C23.6077 5.2514 23.6077 5.94788 23.1782 6.37746L14.2877 15.2679C13.6211 15.9346 12.8289 16.4624 11.9569 16.8209L11.5226 16.9995C11.3183 17.0835 11.0845 16.9859 11.0005 16.7816C10.9605 16.6842 10.9605 16.5749 11.0005 16.4774L11.1791 16.0431C11.5376 15.1711 12.0654 14.3789 12.7321 13.7123L21.6225 4.82183C22.0521 4.39225 22.7486 4.39225 23.1782 4.82183ZM24 9C24.5128 9 24.9355 9.38604 24.9933 9.88338L25 10H23C23 9.44772 23.4477 9 24 9ZM18 3C18.5523 3 19 3.44772 19 4C19 4.51284 18.614 4.93551 18.1166 4.99327L18 5V3ZM24.8 2C25.4627 2 26 2.53726 26 3.2C26 3.86274 25.4627 4.4 24.8 4.4C24.1373 4.4 23.6 3.86274 23.6 3.2C23.6 2.53726 24.1373 2 24.8 2Z" fill="#3366FF" fill-opacity="0.8"/>
</svg>
