<svg width="28" height="28" viewBox="0 0 28 28" fill="none" xmlns="http://www.w3.org/2000/svg">
<path d="M13.9525 20.4768C14.2402 22.1084 13.1507 23.6644 11.519 23.9521C9.88731 24.2398 8.33134 23.1503 8.04363 21.5186C7.86042 20.4796 7.70776 19.6139 7.58565 18.9213C4.98296 18.4885 3 16.2259 3 13.5C3 10.4624 5.46243 8.00001 8.5 8.00001H16.4174L20.3888 5.47151C21.7865 4.58168 23.6408 4.99334 24.5306 6.39098C24.8372 6.87245 25 7.43138 25 8.00215V18.9979C25 20.6547 23.6569 21.9979 22 21.9979C21.4292 21.9979 20.8703 21.835 20.3888 21.5285L16.4174 19L13.692 18.9995C13.7661 19.4196 13.8529 19.912 13.9525 20.4768ZM10.0132 21.1713C10.1091 21.7152 10.6278 22.0784 11.1717 21.9825C11.7156 21.8866 12.0788 21.3679 11.9829 20.824C11.8579 20.1155 11.7506 19.507 11.661 18.9986L9.6302 18.999C9.73503 19.5935 9.86271 20.3176 10.0132 21.1713ZM21.4629 7.1586L17 10V17L21.4629 19.8414C21.6234 19.9436 21.8097 19.9979 22 19.9979C22.5523 19.9979 23 19.5502 23 18.9979V8.00215C23 7.81189 22.9457 7.62558 22.8435 7.46509C22.5469 6.99921 21.9288 6.86199 21.4629 7.1586ZM15 9.99977L8.5 10C6.567 10 5 11.567 5 13.5C5 15.433 6.567 17 8.5 17L15 16.9998V9.99977Z" fill="#3366FF" fill-opacity="0.8"/>
</svg>
