<svg width="28" height="28" viewBox="0 0 28 28" fill="none" xmlns="http://www.w3.org/2000/svg">
<path d="M12.5 15.375C13.3889 14.7083 14.6111 14.7083 15.5 15.375L21 19.5C22.1046 20.3284 22.3284 21.8954 21.5 23C21.0279 23.6295 20.2869 24 19.5 24H8.50001C7.1193 24 6.00001 22.8807 6.00001 21.5C6.00001 20.7131 6.3705 19.9721 7.00001 19.5L12.5 15.375ZM14.3 16.975C14.1222 16.8417 13.8778 16.8417 13.7 16.975L8.20001 21.1C8.07411 21.1944 8.00001 21.3426 8.00001 21.5C8.00001 21.7761 8.22387 22 8.50001 22H19.5C19.6574 22 19.8056 21.9259 19.9 21.8C20.0657 21.5791 20.0209 21.2657 19.8 21.1L14.3 16.975ZM14 3C19.4124 3 23.8 7.38761 23.8 12.8C23.8 14.1875 23.5109 15.5361 22.9587 16.778C22.7343 17.2827 22.1433 17.5099 21.6387 17.2855C21.134 17.0611 20.9068 16.4701 21.1312 15.9654C21.5702 14.9781 21.8 13.9062 21.8 12.8C21.8 8.49218 18.3078 5 14 5C9.69219 5 6.20001 8.49218 6.20001 12.8C6.20001 13.9826 6.46273 15.1259 6.96215 16.1675C7.20092 16.6655 6.99078 17.2628 6.49278 17.5016C5.99478 17.7404 5.3975 17.5302 5.15873 17.0322C4.53059 15.7221 4.20001 14.2836 4.20001 12.8C4.20001 7.38761 8.58762 3 14 3ZM14 7C17.2033 7 19.8 9.59675 19.8 12.8C19.8 13.1202 19.774 13.4374 19.7226 13.7493L19.6473 14.1269C19.5214 14.6646 18.9833 14.9985 18.4456 14.8725C17.9079 14.7466 17.5741 14.2086 17.7 13.6708L17.7101 13.6266C17.7696 13.3577 17.8 13.0812 17.8 12.8C17.8 10.7013 16.0987 9 14 9C11.9013 9 10.2 10.7013 10.2 12.8C10.2 13.0443 10.2229 13.2851 10.268 13.5204L10.3357 13.8109C10.338 13.8193 10.3408 13.8293 10.3451 13.8444C10.4965 14.3755 10.1887 14.9288 9.65754 15.0803C9.12641 15.2317 8.57311 14.9238 8.4217 14.3927L8.38396 14.2538C8.26221 13.7823 8.20001 13.2948 8.20001 12.8C8.20001 9.59675 10.7968 7 14 7Z" fill="#3366FF" fill-opacity="0.8"/>
</svg>
