<svg width="28" height="28" viewBox="0 0 28 28" fill="none" xmlns="http://www.w3.org/2000/svg">
<path d="M17.924 3C19.8822 3.02068 20.8787 3.2317 21.912 3.78431C22.9011 4.31328 23.6833 5.09549 24.2123 6.08458C24.7649 7.11786 24.9759 8.11438 24.9966 10.0726V17.924C24.9759 19.8822 24.7649 20.8787 24.2123 21.912C23.6833 22.9011 22.9011 23.6833 21.912 24.2123C20.8787 24.7649 19.8822 24.9759 17.924 24.9966H10.0726C8.11438 24.9759 7.11786 24.7649 6.08458 24.2123C5.09549 23.6833 4.31328 22.9011 3.78431 21.912C3.2317 20.8787 3.02068 19.8822 3 17.924V10.0726C3.02068 8.11438 3.2317 7.11786 3.78431 6.08458C4.31328 5.09549 5.09549 4.31328 6.08458 3.78431C7.11786 3.2317 8.11438 3.02068 10.0726 3H17.924ZM17.5886 4.99829H10.408L9.85062 5.00317C8.37134 5.03122 7.70897 5.18363 7.02777 5.54793C6.38723 5.8905 5.8905 6.38723 5.54793 7.02777C5.18363 7.70897 5.03122 8.37134 5.00317 9.85062L4.99829 10.408V17.5886L5.00317 18.146C5.03122 19.6252 5.18363 20.2876 5.54793 20.9688C5.8905 21.6094 6.38723 22.1061 7.02777 22.4486C7.70897 22.813 8.37134 22.9654 9.85062 22.9934L10.408 22.9983H17.5886L18.146 22.9934C19.6252 22.9654 20.2876 22.813 20.9688 22.4486C21.6094 22.1061 22.1061 21.6094 22.4486 20.9688C22.813 20.2876 22.9654 19.6252 22.9934 18.146L22.9983 17.5886V10.408L22.9934 9.85062C22.9654 8.37134 22.813 7.70897 22.4486 7.02777C22.1061 6.38723 21.6094 5.8905 20.9688 5.54793C20.2876 5.18363 19.6252 5.03122 18.146 5.00317L17.5886 4.99829ZM14.3492 9.74074C14.7685 9.38132 15.3998 9.42988 15.7593 9.84921L18.7593 13.3492C18.7617 13.3521 18.7642 13.355 18.7666 13.3579C18.8079 13.4071 18.8444 13.4602 18.8757 13.5167C19.0414 13.817 19.0414 14.183 18.8757 14.483C18.8444 14.5398 18.8079 14.5929 18.7667 14.642L18.7593 14.6508L15.7593 18.1508C15.3998 18.5701 14.7685 18.6187 14.3492 18.2593C13.9299 17.8998 13.8813 17.2685 14.2407 16.8492L15.825 15H10C9.44772 15 9 14.5523 9 14C9 13.4477 9.44772 13 10 13H15.825L14.2407 11.1508C13.909 10.7637 13.9248 10.196 14.259 9.82829L14.3492 9.74074Z" fill="#3366FF" fill-opacity="0.8"/>
</svg>
