<svg width="28" height="28" viewBox="0 0 28 28" fill="none" xmlns="http://www.w3.org/2000/svg">
<path d="M20.9792 7.06497C21.3418 7.4276 21.3677 7.99945 21.0569 8.39196L20.9792 8.47919L19.7636 9.6959C22.9608 13.6235 22.7299 19.4122 19.0711 23.0711C15.1658 26.9763 8.83418 26.9763 4.92893 23.0711C1.02369 19.1658 1.02369 12.8342 4.92893 8.92893C8.60299 5.25487 14.4247 5.03737 18.353 8.27644L19.565 7.06497C19.9555 6.67445 20.5887 6.67445 20.9792 7.06497ZM17.6569 10.3431C14.5327 7.21895 9.46734 7.21895 6.34315 10.3431C3.21895 13.4673 3.21895 18.5327 6.34315 21.6569C9.46734 24.781 14.5327 24.781 17.6569 21.6569C20.781 18.5327 20.781 13.4673 17.6569 10.3431ZM19.9458 1.6159L19.9842 1.72622L20.4834 3.47821C20.6348 4.00936 20.3269 4.56262 19.7957 4.71397C19.3025 4.85451 18.7902 4.59907 18.5984 4.1366L18.56 4.02629L18.0607 2.2743C17.9094 1.74315 18.2173 1.18989 18.7484 1.03854C19.2416 0.898002 19.7539 1.15344 19.9458 1.6159ZM26.9439 9.09758C26.7708 9.58247 26.2496 9.85644 25.7424 9.74914L25.6258 9.71753L23.8103 9.11469C23.2688 8.93489 22.981 8.3658 23.1675 7.84361C23.3406 7.35871 23.8618 7.08475 24.3689 7.19205L24.4855 7.22366L26.301 7.82649C26.8425 8.0063 27.1304 8.57538 26.9439 9.09758ZM25.3792 2.53778C25.7418 2.90041 25.7677 3.47225 25.4569 3.86477L25.3792 3.95199L23.7792 5.55199C23.3887 5.94252 22.7555 5.94252 22.365 5.55199C22.0023 5.18936 21.9764 4.61752 22.2873 4.225L22.365 4.13778L23.965 2.53778C24.3555 2.14725 24.9887 2.14725 25.3792 2.53778Z" fill="#3366FF" fill-opacity="0.8"/>
</svg>
