<svg width="28" height="28" viewBox="0 0 28 28" fill="none" xmlns="http://www.w3.org/2000/svg">
<path d="M13.9814 2.42311L14.1986 2.35671C17.0385 1.53177 19.428 2.42691 20.9311 4.62314L21.0303 4.77254L21.2168 4.84983C25.1612 6.53651 25.8082 10.7017 24.0263 13.8786C24.9836 15.1678 25.1859 16.448 24.6978 17.6321C24.382 18.3983 23.8614 18.9952 23.1475 19.5573L23.1093 19.5855L23.1142 19.7801C23.136 22.3688 21.7692 23.6986 19.7582 23.7238C19.2022 24.8717 18.2454 25.6087 16.9455 25.8763C15.7882 26.1146 14.7702 25.8902 13.963 25.2275C12.3974 26.4311 9.67275 25.9525 8.29154 23.9793L8.15831 23.7765L8.12252 23.7756C5.78411 23.6723 4.55942 22.1002 4.77509 19.8999L4.79531 19.7215L4.73464 19.6905C3.26798 18.8681 2.58404 16.9947 3.04496 15.2164L3.1009 15.0192C3.24217 14.5615 3.44676 14.1467 3.70882 13.7807C1.99404 10.9712 2.80013 6.22231 6.63477 4.97609L6.78531 4.92954L6.97879 4.68221C7.14056 4.47628 7.2843 4.30025 7.4317 4.12996C9.18297 2.10662 11.2198 1.33852 13.9814 2.42311ZM14.8501 4.04318L14.8489 23.5804C15.2872 24.106 15.8238 24.2695 16.5825 24.1133C17.1565 23.9951 17.5859 23.7457 17.8959 23.339C16.9377 22.8292 16.3947 21.8031 16.2911 20.3879C16.2549 19.8922 16.6273 19.4609 17.1231 19.4247C17.6188 19.3884 18.0501 19.7608 18.0863 20.2566C18.1645 21.3249 18.4955 21.7727 19.1374 21.8762C20.7101 22.1299 21.5001 21.4729 21.2841 19.2408C21.2528 18.9178 21.3979 18.6029 21.6638 18.4168C22.3539 17.9337 22.8186 17.4678 23.0337 16.9461C23.2272 16.4766 23.1997 15.9676 22.8592 15.3665C21.5693 16.5226 19.7139 17.1417 18.6448 16.6916C18.1867 16.4987 17.9717 15.9709 18.1646 15.5128C18.3575 15.0547 18.8852 14.8397 19.3433 15.0326C19.7855 15.2188 21.4531 14.5054 22.1805 13.4424C23.8834 10.9534 23.4625 7.53085 20.1288 6.35701C19.9288 6.28661 19.7601 6.14788 19.6525 5.96529C18.6126 4.20205 16.9912 3.47184 14.8501 4.04318ZM8.7927 5.30795L8.53414 5.61824L8.02306 6.27303C7.89685 6.43531 7.71889 6.54948 7.51878 6.59656C4.80531 7.23503 4.08961 10.5432 5.09149 12.5688C6.24014 11.9434 7.77936 11.7679 9.57944 12.1695C10.0646 12.2778 10.3701 12.7588 10.2618 13.2439C10.1536 13.7291 9.67256 14.0346 9.18743 13.9263C6.7441 13.3811 5.26072 14.1249 4.82084 15.5501C4.45687 16.7293 4.95978 17.9368 5.89411 18.2405L6.02415 18.2762C6.52278 18.3888 6.82764 18.8936 6.69517 19.3873C6.21683 21.1703 6.84289 22.0825 8.63817 21.9726C9.01195 21.9497 9.36083 22.1607 9.51421 22.5023C10.2603 24.164 12.3469 24.495 13.0511 23.615L13.0487 3.99708C11.2363 3.37382 10.0229 3.88664 8.7927 5.30795ZM7.78794 15.8689C8.78874 16.2442 9.59901 16.82 10.2 17.5927C10.8156 18.3841 11.143 19.3446 11.1854 20.447C11.2045 20.9436 10.8174 21.3618 10.3207 21.3809C9.82399 21.4 9.40586 21.0128 9.38676 20.5161C9.35836 19.7778 9.15483 19.1808 8.77921 18.6978C8.3891 18.1962 7.85424 17.8162 7.15592 17.5543C6.69051 17.3798 6.45471 16.861 6.62924 16.3956C6.80376 15.9302 7.32254 15.6944 7.78794 15.8689ZM18.4247 7.96513C18.6941 8.89292 19.0581 9.50894 19.4877 9.83742C19.8991 10.152 20.4983 10.2953 21.3215 10.2385C21.8174 10.2044 22.2471 10.5786 22.2813 11.0745C22.3155 11.5704 21.9412 12.0001 21.4454 12.0343C20.2155 12.1191 19.1864 11.873 18.3943 11.2673C17.6203 10.6754 17.0639 9.7339 16.6961 8.46699C16.5575 7.98965 16.8322 7.49034 17.3095 7.35175C17.7868 7.21317 18.2862 7.48779 18.4247 7.96513ZM11.4601 6.38718C11.9423 6.50774 12.2355 6.99638 12.115 7.47859C11.8825 8.40842 11.3887 9.1244 10.6429 9.57188C9.97102 9.97503 9.22676 10.178 8.42768 10.178C7.93063 10.178 7.52768 9.77507 7.52768 9.27801C7.52768 8.78095 7.93063 8.37801 8.42768 8.37801C8.90295 8.37801 9.32682 8.26241 9.71685 8.02839C10.033 7.8387 10.2472 7.52813 10.3687 7.04203C10.4893 6.55981 10.9779 6.26663 11.4601 6.38718Z" fill="#3366FF" fill-opacity="0.8"/>
</svg>
