<svg width="28" height="28" viewBox="0 0 28 28" fill="none" xmlns="http://www.w3.org/2000/svg">
<path d="M19 1C19.5523 1 20 1.44772 20 2L20.0007 3.15982C20.8406 3.29344 21.3843 3.50928 21.9305 3.8014C22.9083 4.32432 23.6757 5.09168 24.1986 6.06946C24.6737 6.95778 24.947 7.83957 24.993 9.99907L25 10V17.3083L24.9947 17.9184C24.9539 20.1381 24.6797 21.031 24.1986 21.9305C23.6757 22.9083 22.9083 23.6757 21.9305 24.1986C20.9528 24.7215 19.9829 25 17.3083 25H10.6917L10.0816 24.9947C7.86187 24.9539 6.96902 24.6797 6.06946 24.1986C5.09169 23.6757 4.32432 22.9083 3.8014 21.9305C3.29939 20.9919 3.02267 20.0605 3.00133 17.6212L3 10.6917V10C3.053 7.83957 3.32632 6.95778 3.8014 6.06946C4.32432 5.09168 5.09169 4.32432 6.06946 3.8014C6.61591 3.50916 7.15988 3.29326 8.00031 3.15965L8 2C8 1.44772 8.44772 1 9 1C9.55228 1 10 1.44772 10 2L9.99907 3.00697C10.2165 3.00233 10.447 3 10.6917 3H17.3083C17.5534 3 17.7842 3.00234 18.0019 3.00699L18 2C18 1.44772 18.4477 1 19 1ZM22.999 12H5L5.00092 17.5913L5.00977 18.1601C5.04865 19.6673 5.2079 20.3196 5.56502 20.9873C5.90155 21.6166 6.38342 22.0985 7.01266 22.435C7.75898 22.8341 8.48594 22.9861 10.4087 22.9991H17.5913L18.1601 22.9902C19.6673 22.9514 20.3196 22.7921 20.9873 22.435C21.6166 22.0985 22.0985 21.6166 22.435 20.9873C22.8341 20.241 22.9861 19.5141 22.9991 17.5913L22.999 12ZM19.046 17C19.4788 17 19.8196 17.0812 20.1047 17.2337C20.3899 17.3863 20.6137 17.6101 20.7663 17.8953C20.9188 18.1804 21 18.5212 21 18.954V19.046C21 19.4788 20.9188 19.8196 20.7663 20.1047C20.6137 20.3899 20.3899 20.6137 20.1047 20.7663C19.8196 20.9188 19.4788 21 19.046 21H18.954C18.5212 21 18.1804 20.9188 17.8953 20.7663C17.6101 20.6137 17.3863 20.3899 17.2337 20.1047C17.0812 19.8196 17 19.4788 17 19.046V18.954C17 18.5212 17.0812 18.1804 17.2337 17.8953C17.3863 17.6101 17.6101 17.3863 17.8953 17.2337C18.1804 17.0812 18.5212 17 18.954 17H19.046ZM17.5913 5.00092H10.4087L10 5.006V6C10 6.55228 9.55228 7 9 7C8.44772 7 8 6.55228 8 6L7.99925 5.19251C7.61856 5.28042 7.31722 5.40214 7.01266 5.56502C6.38342 5.90155 5.90155 6.38342 5.56502 7.01266C5.1956 7.70342 5.03791 8.37759 5.00618 9.99864L22.993 10L22.9902 9.83985C22.9514 8.33268 22.7921 7.68042 22.435 7.01266C22.0985 6.38342 21.6166 5.90155 20.9873 5.56502C20.6829 5.40218 20.3816 5.28048 20.001 5.19257L20 6C20 6.55228 19.5523 7 19 7C18.4477 7 18 6.55228 18 6L18.0024 5.0062C17.8717 5.00364 17.7348 5.00189 17.5913 5.00092Z" fill="#3366FF" fill-opacity="0.8"/>
</svg>
