<svg width="28" height="28" viewBox="0 0 28 28" fill="none" xmlns="http://www.w3.org/2000/svg">
<path d="M14 2C20.6274 2 26 7.37258 26 14C26 20.6274 20.6274 26 14 26C7.37258 26 2 20.6274 2 14C2 7.37258 7.37258 2 14 2ZM14 4C8.47715 4 4 8.47715 4 14C4 19.5228 8.47715 24 14 24C19.5228 24 24 19.5228 24 14C24 8.47715 19.5228 4 14 4ZM18.29 10.29C18.6805 9.89948 19.3195 9.89948 19.71 10.29C20.1005 10.6805 20.1005 11.3195 19.71 11.71L12.7071 18.7071C12.3166 19.0976 11.6834 19.0976 11.2929 18.7071L7.79289 15.2071C7.40237 14.8166 7.40237 14.1834 7.79289 13.7929C8.18342 13.4024 8.81658 13.4024 9.20711 13.7929L12 16.5858L18.29 10.29Z" fill="#3366FF" fill-opacity="0.8"/>
</svg>
