<svg width="28" height="28" viewBox="0 0 28 28" fill="none" xmlns="http://www.w3.org/2000/svg">
<path d="M18.1078 8.0756L18.3257 8.0943C18.5324 8.12058 18.7011 8.16029 19.0885 8.27098L24.8396 9.91414C25.5264 10.1104 26 10.7382 26 11.4526V17.5C26 20.9806 23.3885 23.7786 18.3939 25.9191L18 26.088L17.6061 25.9191C12.6115 23.7786 10 20.9806 10 17.5V11.4526C10 10.7382 10.4736 10.1104 11.1604 9.91414L17.0649 8.22772C17.3479 8.14922 17.4971 8.11682 17.6743 8.0943C17.8949 8.06625 18.1051 8.06625 18.3257 8.0943L18.1078 8.0756ZM12.8722 2C14.6488 2 15.5198 2.16819 16.4253 2.65245C17.2295 3.08254 17.8712 3.71418 18.3124 4.51018C18.5802 4.99322 18.4056 5.60186 17.9226 5.8696C17.474 6.11822 16.9172 5.98549 16.6256 5.57851L16.5632 5.47977C16.3087 5.02076 15.947 4.66472 15.4821 4.41608C14.9737 4.14421 14.4787 4.02817 13.3566 4.00463L12.8727 4L9.8672 4.00147C8.57768 4.01654 8.06367 4.1242 7.51791 4.41608C7.04032 4.67149 6.67149 5.04032 6.41608 5.51791C6.14421 6.02626 6.02817 6.52132 6.00463 7.64371L6 8.12764L6.00147 20.1328C6.01654 21.4223 6.1242 21.9363 6.41608 22.4821C6.67149 22.9597 7.04032 23.3285 7.51791 23.5839C8.02626 23.8558 8.52132 23.9718 9.6438 23.9954L10.1278 24H10.4969C11.0492 24 11.4969 24.4477 11.4969 25C11.4969 25.5128 11.1109 25.9355 10.6136 25.9933L10.4969 26H10.1278C8.35117 26 7.48019 25.8318 6.57471 25.3475C5.74859 24.9057 5.09427 24.2514 4.65245 23.4253C4.22107 22.6187 4.0428 21.8458 4.00686 20.4354L4.00154 20.1446L4 8.12777C4 6.35117 4.16819 5.48019 4.65245 4.57471C5.09427 3.74859 5.74859 3.09427 6.57471 2.65245C7.38132 2.22107 8.15417 2.0428 9.56429 2.00686L9.85501 2.00154L12.8722 2ZM18 10.0733L17.9265 10.0783C17.8681 10.0858 17.8073 10.0983 17.6689 10.1358L12 11.754V17.5C12 19.8794 13.8332 21.9758 17.6919 23.7678L18 23.908L18.3081 23.7678C22.0533 22.0285 23.8904 20.0025 23.9952 17.7092L24 17.5V11.754L18.2866 10.1239C18.2032 10.1019 18.1522 10.0906 18.1094 10.0836L18.0735 10.0783C18.0203 10.0716 17.9797 10.0716 17.9265 10.0783L18 10.0733ZM21.5364 14.2636C21.8586 14.5858 21.8854 15.0915 21.6169 15.4442L21.5364 15.5364L17.5364 19.5364C17.2142 19.8586 16.7085 19.8854 16.3558 19.6169L16.2636 19.5364L14.6636 17.9364C14.3121 17.5849 14.3121 17.0151 14.6636 16.6636C14.9858 16.3414 15.4915 16.3146 15.8442 16.5831L15.9364 16.6636L16.9 17.627L20.2636 14.2636C20.6151 13.9121 21.1849 13.9121 21.5364 14.2636Z" fill="#3366FF" fill-opacity="0.8"/>
</svg>
