<svg width="28" height="28" viewBox="0 0 28 28" fill="none" xmlns="http://www.w3.org/2000/svg">
<path d="M16.0603 20.3541C16.358 20.0936 16.7402 19.95 17.1358 19.95H21.5833C22.7534 19.95 23.45 19.2534 23.45 18.0833V8.74999C23.45 7.57989 22.7534 6.88333 21.5833 6.88333H7.58334C6.41323 6.88333 5.71667 7.57989 5.71667 8.74999V18.0833C5.71667 19.2534 6.41323 19.95 7.58334 19.95H10.4988C11.3147 20.1853 11.3147 20.1853 11.55 21.0012V24.3011L16.0603 20.3541ZM10.3075 26.2879C9.75682 25.8749 9.45 25.1462 9.45 24.5V22.05H7.58334C5.25344 22.05 3.61667 20.4132 3.61667 18.0833V8.74999C3.61667 6.42009 5.25344 4.78333 7.58334 4.78333H21.5833C23.9132 4.78333 25.55 6.42009 25.55 8.74999V18.0833C25.55 20.4132 23.9132 22.05 21.5833 22.05H17.3112L12.9657 25.8523C12.1107 26.6909 11.1117 26.8911 10.3075 26.2879Z" fill="#3366FF" fill-opacity="0.8"/>
</svg>
