<svg width="28" height="28" viewBox="0 0 28 28" fill="none" xmlns="http://www.w3.org/2000/svg">
<path d="M18 5C24.3714 5 27 9.96513 27 16C27 20.4811 25.7404 23 23 23C21.8591 23 21.1032 22.5189 20.2418 21.5066L20.0789 21.3106C19.987 21.1975 19.627 20.7421 19.5364 20.6306L19.3798 20.4421C18.5017 19.4108 17.7721 19 16.5 19H11.5C10.2279 19 9.49826 19.4108 8.62024 20.4421L8.46361 20.6306C8.37298 20.7421 8.01296 21.1975 7.92108 21.3106L7.75821 21.5066C6.89678 22.5189 6.14092 23 5 23C2.25929 23 1 20.4814 1 16C1 9.96513 3.6286 5 10 5H18ZM18 7H10C5.07728 7 3 10.9238 3 16C3 19.5186 3.74071 21 5 21C5.42046 21 5.73067 20.8059 6.23779 20.2076L6.79499 19.5146L7.08767 19.1572C8.32064 17.7074 9.54425 17 11.5 17H16.5C18.4558 17 19.6794 17.7074 20.9123 19.1572L21.0886 19.3694L21.7622 20.2076C22.2693 20.8059 22.5795 21 23 21C24.2591 21 25 19.5183 25 16C25 10.9238 22.9227 7 18 7ZM9.51227 9.5C9.70349 9.5 9.86037 9.53713 9.99074 9.60685C10.1211 9.67658 10.2234 9.77889 10.2931 9.90926C10.3629 10.0396 10.4 10.1965 10.4 10.3877L10.399 11.599L11.6123 11.6C11.8035 11.6 11.9604 11.6371 12.0907 11.7069C12.2211 11.7766 12.3234 11.8789 12.3931 12.0093C12.4629 12.1396 12.5 12.2965 12.5 12.4877V12.5123C12.5 12.7035 12.4629 12.8604 12.3931 12.9907C12.3234 13.1211 12.2211 13.2234 12.0907 13.2931C11.9604 13.3629 11.8035 13.4 11.6123 13.4L10.399 13.399L10.4 14.6123C10.4 14.8035 10.3629 14.9604 10.2931 15.0907C10.2234 15.2211 10.1211 15.3234 9.99074 15.3931C9.86037 15.4629 9.70349 15.5 9.51227 15.5H9.48773C9.29651 15.5 9.13963 15.4629 9.00926 15.3931C8.87889 15.3234 8.77658 15.2211 8.70685 15.0907C8.63713 14.9604 8.6 14.8035 8.6 14.6123L8.599 13.399L7.38773 13.4C7.19651 13.4 7.03963 13.3629 6.90926 13.2931C6.77889 13.2234 6.67658 13.1211 6.60685 12.9907C6.53713 12.8604 6.5 12.7035 6.5 12.5123V12.4877C6.5 12.2965 6.53713 12.1396 6.60685 12.0093C6.67658 11.8789 6.77889 11.7766 6.90926 11.7069C7.03963 11.6371 7.19651 11.6 7.38773 11.6L8.599 11.599L8.6 10.3877C8.6 10.1965 8.63713 10.0396 8.70685 9.90926C8.77658 9.77889 8.87889 9.67658 9.00926 9.60685C9.13963 9.53713 9.29651 9.5 9.48773 9.5H9.51227ZM18.5736 13.5C18.8112 13.5 18.9604 13.5371 19.0907 13.6069C19.2211 13.6766 19.3234 13.7789 19.3931 13.9093C19.4629 14.0396 19.5 14.1888 19.5 14.4264V14.5736C19.5 14.8112 19.4629 14.9604 19.3931 15.0907C19.3234 15.2211 19.2211 15.3234 19.0907 15.3931C18.9604 15.4629 18.8112 15.5 18.5736 15.5H18.4264C18.1888 15.5 18.0396 15.4629 17.9093 15.3931C17.7789 15.3234 17.6766 15.2211 17.6069 15.0907C17.5371 14.9604 17.5 14.8112 17.5 14.5736V14.4264C17.5 14.1888 17.5371 14.0396 17.6069 13.9093C17.6766 13.7789 17.7789 13.6766 17.9093 13.6069C18.0396 13.5371 18.1888 13.5 18.4264 13.5H18.5736ZM16.5736 11.5C16.8112 11.5 16.9604 11.5371 17.0907 11.6069C17.2211 11.6766 17.3234 11.7789 17.3931 11.9093C17.4629 12.0396 17.5 12.1888 17.5 12.4264V12.5736C17.5 12.8112 17.4629 12.9604 17.3931 13.0907C17.3234 13.2211 17.2211 13.3234 17.0907 13.3931C16.9604 13.4629 16.8112 13.5 16.5736 13.5H16.4264C16.1888 13.5 16.0396 13.4629 15.9093 13.3931C15.7789 13.3234 15.6766 13.2211 15.6069 13.0907C15.5371 12.9604 15.5 12.8112 15.5 12.5736V12.4264C15.5 12.1888 15.5371 12.0396 15.6069 11.9093C15.6766 11.7789 15.7789 11.6766 15.9093 11.6069C16.0396 11.5371 16.1888 11.5 16.4264 11.5H16.5736ZM20.5736 11.5C20.8112 11.5 20.9604 11.5371 21.0907 11.6069C21.2211 11.6766 21.3234 11.7789 21.3931 11.9093C21.4629 12.0396 21.5 12.1888 21.5 12.4264V12.5736C21.5 12.8112 21.4629 12.9604 21.3931 13.0907C21.3234 13.2211 21.2211 13.3234 21.0907 13.3931C20.9604 13.4629 20.8112 13.5 20.5736 13.5H20.4264C20.1888 13.5 20.0396 13.4629 19.9093 13.3931C19.7789 13.3234 19.6766 13.2211 19.6069 13.0907C19.5371 12.9604 19.5 12.8112 19.5 12.5736V12.4264C19.5 12.1888 19.5371 12.0396 19.6069 11.9093C19.6766 11.7789 19.7789 11.6766 19.9093 11.6069C20.0396 11.5371 20.1888 11.5 20.4264 11.5H20.5736ZM18.5736 9.5C18.8112 9.5 18.9604 9.53713 19.0907 9.60685C19.2211 9.67658 19.3234 9.77889 19.3931 9.90926C19.4629 10.0396 19.5 10.1888 19.5 10.4264V10.5736C19.5 10.8112 19.4629 10.9604 19.3931 11.0907C19.3234 11.2211 19.2211 11.3234 19.0907 11.3931C18.9604 11.4629 18.8112 11.5 18.5736 11.5H18.4264C18.1888 11.5 18.0396 11.4629 17.9093 11.3931C17.7789 11.3234 17.6766 11.2211 17.6069 11.0907C17.5371 10.9604 17.5 10.8112 17.5 10.5736V10.4264C17.5 10.1888 17.5371 10.0396 17.6069 9.90926C17.6766 9.77889 17.7789 9.67658 17.9093 9.60685C18.0396 9.53713 18.1888 9.5 18.4264 9.5H18.5736Z" fill="#3366FF" fill-opacity="0.8"/>
</svg>
