<svg width="28" height="28" viewBox="0 0 28 28" fill="none" xmlns="http://www.w3.org/2000/svg">
<path d="M20.4119 3.85463L20.534 3.93322C20.5687 3.95579 20.6033 3.97854 20.6378 4.00146L20.5344 3.93332C20.6164 3.98664 20.6977 4.04094 20.7783 4.0962L20.6378 4.00146C20.7253 4.05971 20.8121 4.11907 20.898 4.17953L20.7783 4.0962C20.8619 4.15353 20.9447 4.21189 21.0267 4.27127L21.0267 4.27132C21.151 4.36119 21.2735 4.45343 21.3941 4.54794C21.5418 4.66371 21.6869 4.78295 21.8291 4.90546C22.0632 5.10711 22.2896 5.3179 22.5076 5.53707L22.4179 5.44783C22.4826 5.51159 22.5467 5.57608 22.61 5.64129L22.5076 5.53707C22.5865 5.61633 22.6642 5.69669 22.7408 5.77812L22.61 5.64129C22.6832 5.71663 22.7553 5.79292 22.8265 5.87015L22.7408 5.77812C22.8059 5.84728 22.8702 5.91721 22.9336 5.98791L22.8265 5.87015C22.8962 5.94584 22.965 6.02242 23.0328 6.09989L22.9336 5.98791C23.0014 6.06348 23.0683 6.13992 23.1342 6.21721L23.0328 6.09989C23.1009 6.17763 23.168 6.25627 23.234 6.33577L23.1342 6.21721C23.2014 6.29601 23.2676 6.37568 23.3328 6.45622L23.3326 6.45598C23.6124 6.80166 23.8731 7.16292 24.1136 7.53845L24.0263 7.40419C24.0941 7.50705 24.1604 7.61102 24.2251 7.71606L24.1136 7.53845C24.1656 7.61974 24.2167 7.70168 24.2668 7.78429L24.2251 7.71606C24.2681 7.78594 24.3105 7.85629 24.3521 7.9271L24.2668 7.78429C24.3242 7.87897 24.3804 7.97451 24.4353 8.07089L24.4354 8.0711C24.5196 8.21898 24.6009 8.36904 24.679 8.52098C24.7078 8.57707 24.736 8.63304 24.7638 8.68926C24.8391 8.84153 24.9113 8.99572 24.9802 9.15166C25.2095 9.67013 25.4034 10.2085 25.5584 10.7631L25.6217 10.9991L25.7082 11.3581C25.7183 11.4027 25.728 11.4474 25.7375 11.4921L25.8047 11.8322L25.8659 12.2C25.8875 12.3434 25.9065 12.4875 25.9229 12.6324L25.8867 12.3443C25.9042 12.4711 25.9197 12.5986 25.9332 12.7266L25.9332 12.7265C25.964 13.0183 25.9843 13.313 25.9938 13.6105L25.9938 13.6101L26 14L25.9948 14.357C25.993 14.4169 25.9909 14.4767 25.9882 14.5365C25.9761 14.8131 25.9545 15.0874 25.9239 15.3589L25.9328 15.2775C25.919 15.4076 25.9032 15.5371 25.8853 15.6659L25.9239 15.3589C25.9085 15.4953 25.8909 15.631 25.871 15.7659L25.871 15.766C25.8279 16.058 25.7743 16.3467 25.7106 16.6315L25.7105 16.6319L25.622 16.9999L25.5584 17.2369C25.3761 17.889 25.1402 18.5186 24.8557 19.1208C24.7091 19.4309 24.5494 19.7343 24.3774 20.0296L24.4337 19.9319C24.3865 20.0148 24.3383 20.0971 24.2891 20.1787L24.3774 20.0296C24.3229 20.1232 24.2672 20.216 24.2102 20.308L24.2891 20.1787C24.2357 20.2675 24.1811 20.3556 24.1255 20.4429L24.2102 20.308C24.1509 20.4039 24.0902 20.4989 24.0282 20.5929L24.1255 20.4429C24.0873 20.5028 24.0485 20.5624 24.0093 20.6217L24.0282 20.5929C23.9833 20.6611 23.9378 20.7287 23.8915 20.7959L24.0093 20.6217C23.9277 20.7447 23.8439 20.8661 23.758 20.9859L23.8915 20.7959C23.8317 20.8829 23.7707 20.969 23.7086 21.0543L23.7085 21.0544C23.4466 21.4143 23.1649 21.7593 22.8653 22.0875L22.9283 22.018C22.858 22.0962 22.7866 22.1736 22.7143 22.2499L22.8653 22.0875C22.79 22.1701 22.7135 22.2516 22.6358 22.332L22.7143 22.2499C22.6501 22.3177 22.5851 22.3848 22.5193 22.4511L22.6358 22.332C22.5631 22.4074 22.4894 22.4818 22.4148 22.5552L22.5193 22.4511C22.4695 22.5013 22.4193 22.5511 22.3686 22.6004L22.369 22.6C22.2504 22.7154 22.1298 22.8281 22.0069 22.9382C21.7413 23.1763 21.465 23.4028 21.1787 23.6168L21.2545 23.5597C21.1682 23.6253 21.081 23.6897 20.9929 23.753L21.1787 23.6168C21.1024 23.6739 21.0254 23.7301 20.9476 23.7854L20.9929 23.753C20.9163 23.808 20.8391 23.8621 20.7613 23.9153L20.9476 23.7854C20.8475 23.8566 20.7462 23.9264 20.6437 23.9946L20.7613 23.9153C20.6966 23.9595 20.6315 24.003 20.566 24.046L20.6437 23.9946C20.5623 24.0488 20.4802 24.1021 20.3974 24.1543L20.3976 24.1542C20.018 24.3939 19.6241 24.6128 19.2175 24.8094L19.3446 24.7471C19.2465 24.7959 19.1477 24.8435 19.0481 24.8897L19.2175 24.8094C19.1317 24.8509 19.0453 24.8914 18.9584 24.9309L19.0481 24.8897C18.9567 24.9321 18.8647 24.9735 18.7721 25.0136L18.9584 24.9309C18.854 24.9783 18.7488 25.0243 18.6429 25.0688L18.7721 25.0136C18.6671 25.0592 18.5613 25.1033 18.4547 25.1459L18.6429 25.0688C18.5604 25.1034 18.4775 25.1372 18.3941 25.17L18.4547 25.1459C18.3603 25.1837 18.2653 25.2203 18.1698 25.2557L18.3941 25.17C18.286 25.2126 18.1771 25.2536 18.0675 25.2931L18.1698 25.2557C18.0428 25.3028 17.9149 25.3477 17.7859 25.3906L17.7857 25.3906C17.5918 25.455 17.3955 25.5147 17.1971 25.5694L17.3229 25.534C17.2338 25.5596 17.1441 25.5843 17.0541 25.6079L17.1971 25.5694C17.0936 25.598 16.9896 25.6251 16.885 25.6509L17.0541 25.6079C16.9471 25.636 16.8396 25.6626 16.7315 25.6877L16.885 25.6509C16.7917 25.674 16.698 25.6959 16.6039 25.7167L16.7315 25.6877C16.6319 25.7109 16.5319 25.7329 16.4314 25.7535L16.6039 25.7167C16.4881 25.7423 16.3717 25.7663 16.2547 25.7885L16.4314 25.7535C16.3329 25.7738 16.234 25.7929 16.1347 25.8107L16.2547 25.7885C16.1628 25.806 16.0705 25.8224 15.9779 25.8378L15.9782 25.8377C15.8578 25.8577 15.7371 25.8758 15.6158 25.8921L15.4963 25.9076L15.2083 25.9399C14.8109 25.9797 14.4078 26 14 26C13.2719 26 12.5589 25.9351 11.8665 25.8109L12.0102 25.8365C11.9004 25.8181 11.791 25.7983 11.6822 25.777L11.8665 25.8109C11.7789 25.7952 11.6915 25.7785 11.6046 25.7609L11.6043 25.7615C11.4001 25.7195 11.1976 25.6729 10.9971 25.6212L11.0694 25.6401C10.976 25.6167 10.8831 25.5922 10.7906 25.5665L10.9971 25.6212C10.8952 25.5949 10.7938 25.5674 10.693 25.5385L10.6934 25.5392C10.4358 25.465 10.1822 25.383 9.93245 25.2931L10.2142 25.3911C10.0629 25.3408 9.91285 25.2875 9.76424 25.2314L9.93245 25.2931C9.83732 25.2588 9.74276 25.2234 9.64877 25.1868L9.76424 25.2314C9.65202 25.1891 9.54061 25.1451 9.43003 25.0995L9.64877 25.1868C9.55502 25.1503 9.46184 25.1127 9.36925 25.0739L9.43003 25.0995C9.35092 25.0669 9.27224 25.0334 9.19399 24.9992L9.36925 25.0739C9.27352 25.0338 9.17842 24.9925 9.08396 24.9501L9.19399 24.9992C9.09745 24.9569 9.00158 24.9134 8.90638 24.8687L9.08396 24.9501C8.99103 24.9083 8.89873 24.8653 8.80708 24.8213L8.90638 24.8687C8.82219 24.8292 8.73853 24.7887 8.65542 24.7473L8.65544 24.7471C8.50984 24.6748 8.36594 24.5993 8.2238 24.5211C8.16169 24.4867 8.09967 24.4519 8.03799 24.4165C7.83266 24.2989 7.63137 24.1754 7.43411 24.0462L7.60239 24.1542C7.51962 24.102 7.43754 24.0487 7.35616 23.9945L7.43411 24.0462C7.36357 24 7.29355 23.953 7.22406 23.9054L7.35616 23.9945C7.26692 23.9351 7.17851 23.8745 7.09097 23.8127L7.22406 23.9054C7.13586 23.8449 7.0485 23.7833 6.96202 23.7206L7.09097 23.8127C7.00257 23.7504 6.91506 23.6868 6.82845 23.6222L6.96202 23.7206C6.88919 23.6678 6.81697 23.6141 6.74538 23.5597L6.7455 23.5597C6.48649 23.3629 6.23583 23.1559 5.99402 22.9391C5.85479 22.8143 5.71845 22.6863 5.58516 22.5552L5.63098 22.6C5.58056 22.5509 5.53057 22.5014 5.48101 22.4515L5.58516 22.5552C5.51049 22.4817 5.43677 22.4073 5.36403 22.3319L5.48101 22.4515C5.41511 22.3851 5.34999 22.3179 5.28564 22.2499L5.36403 22.3319C5.28663 22.2517 5.21033 22.1704 5.13517 22.0881L5.28564 22.2499C5.21322 22.1734 5.1418 22.096 5.07139 22.0177L5.07172 22.018C4.77659 21.6896 4.4996 21.3451 4.24197 20.9859L4.29147 21.0544C4.22943 20.9692 4.16848 20.8831 4.10865 20.7962L4.24197 20.9859C4.15616 20.8663 4.0725 20.745 3.99104 20.6221L4.10865 20.7962C4.06233 20.7289 4.01667 20.6611 3.9717 20.5928L3.99104 20.6221C3.95168 20.5627 3.91284 20.503 3.87451 20.4429L3.9717 20.5928C3.90973 20.4988 3.84905 20.4038 3.78969 20.3079L3.87451 20.4429C3.81889 20.3557 3.76438 20.2677 3.71097 20.1789L3.78969 20.3079C3.73285 20.2161 3.67722 20.1235 3.62282 20.03L3.71097 20.1789C3.66169 20.097 3.61336 20.0145 3.56599 19.9314L3.5663 19.9319C3.39142 19.625 3.22997 19.3101 3.08238 18.9876L3.14434 19.1208C3.09994 19.0268 3.05673 18.9322 3.01472 18.837L3.01443 18.8363C2.78748 18.3216 2.59544 17.7872 2.44164 17.2369L2.37803 16.9999L2.28952 16.6319C2.28103 16.594 2.27272 16.556 2.26459 16.5179C2.20468 16.2372 2.15463 15.9533 2.11474 15.6661L2.12904 15.766C2.10911 15.6309 2.09144 15.4951 2.07605 15.3586L2.11474 15.6661C2.09685 15.5373 2.081 15.4079 2.06723 15.2778L2.0672 15.2775C2.03592 14.982 2.01536 14.6831 2.00594 14.3813L2.00596 14.3819L2 14L2.00622 13.6101C2.00778 13.5612 2.00963 13.5123 2.01178 13.4635C2.02408 13.1839 2.04595 12.9068 2.07706 12.6326L2.06677 12.7265C2.08028 12.5984 2.09581 12.4709 2.11332 12.3441L2.1133 12.3443L2.1341 12.2L2.1953 11.8322C2.22431 11.6732 2.25646 11.5153 2.29167 11.3585L2.29176 11.3581L2.37829 10.9991L2.44164 10.7631C2.59663 10.2085 2.79045 9.67013 3.02 9.1511L2.99897 9.19894C3.07417 9.02687 3.15329 8.85691 3.23621 8.68916C3.26395 8.63304 3.29217 8.57707 3.32081 8.52135C3.42458 8.31951 3.53369 8.12136 3.64813 7.92671L3.56458 8.0711C3.61953 7.97459 3.67578 7.87892 3.7333 7.78411L3.64813 7.92671C3.68963 7.85612 3.73184 7.78599 3.77474 7.71633L3.7333 7.78411C3.78347 7.70143 3.83461 7.61939 3.88671 7.53803L3.77474 7.71633C3.83946 7.61123 3.90576 7.50721 3.97359 7.4043L3.97366 7.40419C4.21817 7.03325 4.48279 6.67659 4.76592 6.33585L4.66984 6.45296C4.73417 6.37354 4.79949 6.29495 4.86578 6.21722L4.76592 6.33585C4.83202 6.2563 4.89913 6.17761 4.96723 6.09981L4.86578 6.21722C4.93167 6.13997 4.99852 6.06356 5.06631 5.98802L4.96723 6.09981C5.03509 6.02228 5.10393 5.94564 5.17374 5.86989L5.06631 5.98802C5.12975 5.91734 5.19401 5.8474 5.25909 5.77824L5.17374 5.86989C5.24485 5.79274 5.31695 5.71652 5.39004 5.64125L5.25909 5.77824C5.33584 5.69668 5.41371 5.61619 5.4927 5.5368L5.39004 5.64125C5.45321 5.57619 5.51711 5.51185 5.58173 5.44823L5.58213 5.44783C5.7724 5.26052 5.96932 5.07913 6.17215 4.90442C6.31381 4.78239 6.45857 4.66344 6.6061 4.54786C6.76486 4.4235 6.92704 4.30289 7.09229 4.18636L6.97335 4.27132C7.07563 4.19732 7.17912 4.12489 7.28379 4.05407L7.09229 4.18636C7.1685 4.13262 7.24536 4.07974 7.32286 4.02775L7.28379 4.05407C7.3622 4.00102 7.44127 3.94887 7.52098 3.89764L7.32286 4.02775C7.40984 3.9694 7.49762 3.91215 7.58618 3.85604L7.58627 3.85598C7.73466 3.76196 7.88535 3.67105 8.03816 3.58341C8.09967 3.54813 8.16169 3.51328 8.22405 3.47897C8.40042 3.38194 8.57935 3.28929 8.76085 3.20107L8.67632 3.24257C8.76097 3.2006 8.84619 3.15959 8.93195 3.11957L8.76085 3.20107C8.86209 3.15186 8.96412 3.10404 9.06692 3.05762L8.93195 3.11957C9.02661 3.07541 9.12193 3.03245 9.21791 2.9907L9.06692 3.05762C9.16171 3.01482 9.25714 2.97322 9.35322 2.93283L9.35317 2.93285C9.51451 2.86503 9.6776 2.80065 9.84239 2.73978C9.96525 2.6944 10.0892 2.65093 10.2141 2.60945L10.0602 2.66171C10.1441 2.63259 10.2283 2.60436 10.313 2.57705L10.2141 2.60945C10.309 2.5779 10.4045 2.5475 10.5005 2.51828L10.313 2.57705C10.4265 2.54045 10.5407 2.50549 10.6557 2.47221L10.5005 2.51828C10.6014 2.48756 10.7029 2.45813 10.8049 2.43002L10.6557 2.47221C10.7562 2.44307 10.8574 2.41522 10.959 2.38867L10.8049 2.43002C10.9078 2.4017 11.0111 2.3747 11.115 2.34906L10.959 2.38867C11.06 2.36231 11.1614 2.33723 11.2634 2.31345L11.115 2.34906C11.2132 2.32482 11.3119 2.30179 11.4111 2.27999L11.2634 2.31345C11.3614 2.29058 11.4599 2.26891 11.5589 2.24846L11.4111 2.27999C11.5242 2.25511 11.638 2.23182 11.7523 2.21015L11.5589 2.24846C11.6606 2.22745 11.7627 2.20772 11.8653 2.1893L11.7523 2.21015C11.8419 2.19318 11.9318 2.1772 12.0221 2.16223L12.0219 2.16227C12.1422 2.14231 12.2629 2.12417 12.3842 2.10785L12.5037 2.09238L12.7917 2.06008C13.1891 2.02035 13.5922 2 14 2C14.7281 2 15.4411 2.06485 16.1335 2.18909L15.9897 2.1635C16.0996 2.18185 16.2089 2.20169 16.3178 2.22301L16.1335 2.18909C16.2211 2.20482 16.3085 2.2215 16.3954 2.23911L16.3956 2.23851C16.606 2.28177 16.8146 2.32995 17.021 2.38348L16.9268 2.35891C17.0173 2.3816 17.1074 2.40532 17.197 2.43005L17.021 2.38348C17.1222 2.40972 17.2229 2.43726 17.323 2.46606L17.3229 2.46551C17.5311 2.52589 17.7368 2.59121 17.9401 2.66183L17.9398 2.66132C18.0827 2.7114 18.2242 2.76358 18.3643 2.81832L18.2009 2.75548C18.3101 2.7963 18.4185 2.83868 18.5262 2.88257L18.3643 2.81832C18.4553 2.85388 18.5458 2.89051 18.6358 2.92821L18.5262 2.88257C18.612 2.91753 18.6972 2.95346 18.782 2.99033L18.6358 2.92821C18.7356 2.97005 18.8347 3.01319 18.9331 3.05763L18.782 2.99033C18.8781 3.03213 18.9735 3.07515 19.0682 3.11937L18.9331 3.05763C19.0358 3.10401 19.1378 3.1518 19.2389 3.20097L19.0682 3.11937C19.1541 3.15943 19.2393 3.20046 19.324 3.24247L19.3237 3.24257C19.4765 3.3181 19.6271 3.39687 19.7759 3.4787C19.992 3.59784 20.204 3.72317 20.4117 3.85471L20.4119 3.85463ZM16.415 18.7993L11.5852 18.8001C12.1017 20.8443 12.9372 22.6687 13.9996 24.1637C15.0628 22.6689 15.8985 20.8441 16.415 18.7993ZM4.99772 18.8C6.37066 21.3695 8.81156 23.2825 11.7276 23.9459C10.8493 22.4244 10.1683 20.686 9.73554 18.8002L4.99772 18.8ZM23.0023 18.8L18.2647 18.7991C17.832 20.6849 17.1511 22.4234 16.2735 23.9449C19.1884 23.2825 21.6293 21.3695 23.0023 18.8ZM9.40544 10.9994L4.24846 10.9995C3.95692 11.9482 3.8 12.9558 3.8 14C3.8 15.0439 3.95681 16.0511 4.24815 16.9994L9.40539 17.0002C9.27053 16.028 9.2 15.0251 9.2 14C9.2 12.9748 9.27055 11.9718 9.40544 10.9994ZM16.7765 10.9988H11.2235C11.0772 11.9648 11 12.9684 11 14C11 15.0311 11.0772 16.0344 11.2233 17L16.7767 17.0002C16.9228 16.0345 17 15.0312 17 14C17 12.9684 16.9228 11.9648 16.7765 10.9988ZM23.7515 10.9995L18.5946 10.9994C18.7295 11.9718 18.8 12.9748 18.8 14C18.8 15.0249 18.7295 16.0275 18.5947 16.9996L23.7519 16.9994C24.0432 16.0511 24.2 15.0439 24.2 14C24.2 12.9558 24.0431 11.9482 23.7515 10.9995ZM11.7265 4.05509L11.5488 4.09644C8.7123 4.79615 6.34314 6.68264 4.99826 9.199L9.73552 9.19989C10.1682 7.31445 10.8491 5.57632 11.7265 4.05509ZM14 3.83575L13.9559 3.89808C12.9143 5.38144 12.0947 7.18366 11.5853 9.19971H16.4147C15.8982 7.15534 15.0626 5.33084 14 3.83575ZM16.2724 4.05406L16.3372 4.1665C17.1839 5.66098 17.8423 7.36032 18.2645 9.19989L23.0017 9.199C21.6287 6.62997 19.1881 4.71744 16.2724 4.05406Z" fill="#3366FF" fill-opacity="0.8"/>
</svg>
