<svg width="28" height="28" viewBox="0 0 28 28" fill="none" xmlns="http://www.w3.org/2000/svg">
<path d="M6 16C6.55228 16 7 16.4477 7 17V23C7 23.5523 6.55228 24 6 24C5.44772 24 5 23.5523 5 23V17C5 16.4477 5.44772 16 6 16ZM11 4C11.5523 4 12 4.44772 12 5V23C12 23.5523 11.5523 24 11 24C10.4477 24 10 23.5523 10 23V5C10 4.44772 10.4477 4 11 4ZM16 12C16.5523 12 17 12.4477 17 13V23C17 23.5523 16.5523 24 16 24C15.4477 24 15 23.5523 15 23V13C15 12.4477 15.4477 12 16 12ZM21 8C21.5523 8 22 8.44772 22 9V23C22 23.5523 21.5523 24 21 24C20.4477 24 20 23.5523 20 23V9C20 8.44772 20.4477 8 21 8Z" fill="#3366FF" fill-opacity="0.8"/>
</svg>
