<svg width="28" height="28" viewBox="0 0 28 28" fill="none" xmlns="http://www.w3.org/2000/svg">
<path d="M14 2C20.624 2 26 7.376 26 14C26 20.624 20.624 26 14 26C7.376 26 2 20.624 2 14C2 7.376 7.376 2 14 2ZM14 4C8.48056 4 4 8.48056 4 14C4 19.5194 8.48056 24 14 24C19.5194 24 24 19.5194 24 14C24 8.48056 19.5194 4 14 4ZM14 18.1004C14.7732 18.1004 15.4 18.7272 15.4 19.5004C15.4 20.2736 14.7732 20.9004 14 20.9004C13.2268 20.9004 12.6 20.2736 12.6 19.5004C12.6 18.7272 13.2268 18.1004 14 18.1004ZM13.934 6.99C15.9848 6.99 17.6458 8.66812 17.6458 10.74C17.6458 11.565 17.3118 12.315 16.7828 12.8494L15.9477 13.7119C15.451 14.2206 15.0928 14.6621 14.9416 15.4328C14.928 15.5023 14.918 15.6057 14.9117 15.7428C14.8887 16.2367 14.4816 16.6254 13.9871 16.6254H13.9779C13.4651 16.6255 13.0494 16.2098 13.0494 15.697L13.0494 15.6946C13.0501 15.4345 13.0582 15.2641 13.0737 15.1834C13.2173 14.4363 13.5814 13.7659 14.0918 13.2431L15.2424 12.0619C15.5717 11.7306 15.7899 11.2556 15.7899 10.74C15.7899 9.70875 14.9548 8.865 13.934 8.865C13.2854 8.865 12.7117 9.20568 12.3796 9.71866C12.3139 9.82013 12.2313 9.98186 12.1318 10.2039C11.9356 10.6412 11.4388 10.8574 10.9851 10.7027L10.9496 10.6906C10.4866 10.5328 10.2391 10.0295 10.3969 9.56653C10.4027 9.5496 10.409 9.53285 10.4157 9.51629C10.4818 9.35503 10.5453 9.21248 10.6062 9.08867C11.2436 7.79205 12.4437 6.99 13.934 6.99Z" fill="#3366FF" fill-opacity="0.8"/>
</svg>
