<svg width="28" height="28" viewBox="0 0 28 28" fill="none" xmlns="http://www.w3.org/2000/svg">
<path d="M14.5 2C17.7505 2 20.7832 3.30257 23.0003 5.52875L23 4L23.0067 3.88338C23.0645 3.38604 23.4872 3 24 3C24.5523 3 25 3.44772 25 4V8L24.9933 8.11662C24.9355 8.61396 24.5128 9 24 9H20L19.8834 8.99327C19.386 8.93551 19 8.51284 19 8C19 7.44772 19.4477 7 20 7L21.6427 7.00037C19.7897 5.10803 17.2386 4 14.5 4C8.97715 4 4.5 8.47715 4.5 14C4.5 19.5228 8.97715 24 14.5 24C17.1897 24 19.7082 22.9345 21.5722 21.0699C21.9627 20.6793 22.5959 20.6792 22.9864 21.0697C23.377 21.4601 23.3771 22.0933 22.9867 22.4839C20.7513 24.72 17.7257 26 14.5 26C7.87258 26 2.5 20.6274 2.5 14C2.5 7.37258 7.87258 2 14.5 2ZM14 8C14.5523 8 15 8.44772 15 9V13.5858L17.7071 16.2929C18.0976 16.6834 18.0976 17.3166 17.7071 17.7071C17.3166 18.0976 16.6834 18.0976 16.2929 17.7071L13.2929 14.7071C13.1054 14.5196 13 14.2652 13 14V9C13 8.44772 13.4477 8 14 8Z" fill="#3366FF" fill-opacity="0.8"/>
</svg>
