<svg width="28" height="28" viewBox="0 0 28 28" fill="none" xmlns="http://www.w3.org/2000/svg">
<path d="M17.5903 3C19.7733 3 20.823 3.20271 21.9137 3.78602C22.9028 4.31499 23.685 5.0972 24.214 6.08629C24.7666 7.11957 24.9776 8.11609 24.9983 10.0743L25 17.5903C25 19.7733 24.7973 20.823 24.214 21.9137C23.685 22.9028 22.9028 23.685 21.9137 24.214C20.8804 24.7666 19.8839 24.9776 17.9257 24.9983L16 25C15.4477 25 15 24.5523 15 24C15 23.4872 15.386 23.0645 15.8834 23.0067L16 23H17.5903L18.1477 22.9951C19.627 22.9671 20.2893 22.8147 20.9705 22.4504C21.6111 22.1078 22.1078 21.6111 22.4504 20.9705C22.8147 20.2893 22.9671 19.627 22.9951 18.1477L23 17.5903V10.4097L22.9951 9.85233C22.9671 8.37305 22.8147 7.71068 22.4504 7.02948C22.1078 6.38894 21.6111 5.89221 20.9705 5.54964C20.2893 5.18534 19.627 5.03293 18.1477 5.00488L17.5903 5H10.4097L9.85233 5.00488C8.37305 5.03293 7.71068 5.18534 7.02948 5.54964C6.38894 5.89221 5.89221 6.38894 5.54964 7.02948C5.18534 7.71068 5.03293 8.37305 5.00488 9.85233L5 10.4097V12.0033C5 12.5556 4.55228 13.0033 4 13.0033C3.48716 13.0033 3.06449 12.6173 3.00673 12.1199L3 12.0033V10.4097C3 8.22671 3.20271 7.17697 3.78602 6.08629C4.31499 5.0972 5.0972 4.31499 6.08629 3.78602C7.11957 3.23341 8.11609 3.02239 10.0743 3.00171L17.5903 3ZM19 8C19.5523 8 20 8.44772 20 9V15C20 15.5523 19.5523 16 19 16H17.499L17.5 17.5C17.5 18.0129 17.1139 18.4355 16.6166 18.4933L16.4999 18.5L13.906 18.499L13.9349 18.6518C13.9636 18.8375 13.983 19.0253 13.9927 19.2148L14 19.5C14 22.5376 11.5376 25 8.5 25C5.46243 25 3 22.5376 3 19.5C3 16.4624 5.46243 14 8.5 14C8.82783 14 9.15221 14.0288 9.47028 14.0855L9.495 14.09L15.2929 8.29289C15.4492 8.13661 15.6519 8.0374 15.8686 8.00867L16 8H19ZM17.999 10H16.414L10.5142 15.8999C10.2823 16.1317 9.95376 16.2334 9.63566 16.178L9.51707 16.1498C9.19067 16.0509 8.84931 16 8.5 16C6.567 16 5 17.567 5 19.5C5 21.433 6.567 23 8.5 23C10.433 23 12 21.433 12 19.5C12 18.9518 11.8746 18.4236 11.6366 17.9449C11.3062 17.2801 11.7898 16.4997 12.5322 16.4998L15.499 16.5L15.5 15C15.5 14.4872 15.886 14.0645 16.3834 14.0067L16.5 14H17.999V10ZM8 19C8.55228 19 9 19.4477 9 20C9 20.5523 8.55228 21 8 21C7.44772 21 7 20.5523 7 20C7 19.4477 7.44772 19 8 19Z" fill="#3366FF" fill-opacity="0.8"/>
</svg>
