<svg width="28" height="28" viewBox="0 0 28 28" fill="none" xmlns="http://www.w3.org/2000/svg">
<path d="M9.02632 4.88C5.42193 4.88 2.5 7.80193 2.5 11.4063C2.5 15.0191 3.94498 16.8274 9.99323 21.5316L12.7721 23.6929C13.4943 24.2546 14.5057 24.2546 15.2279 23.6929L18.0068 21.5316C24.055 16.8274 25.5 15.0191 25.5 11.4063C25.5 7.80193 22.5781 4.88 18.9737 4.88C17.1022 4.88 15.4359 5.73037 14 7.36654C12.5641 5.73037 10.8978 4.88 9.02632 4.88ZM9.02632 6.88C10.5455 6.88 11.9149 7.73751 13.1775 9.56334L13.3831 9.86068C13.6187 10.2014 14.0859 10.2866 14.4266 10.051C14.501 9.99952 14.5654 9.93506 14.6169 9.86068L14.8225 9.56334C16.0851 7.73751 17.4545 6.88 18.9737 6.88C21.4735 6.88 23.5 8.9065 23.5 11.4063C23.5 14.1866 22.3625 15.61 16.7789 19.9529L14 22.1142L11.2211 19.9529C5.63746 15.61 4.5 14.1866 4.5 11.4063C4.5 8.9065 6.5265 6.88 9.02632 6.88Z" fill="#3366FF" fill-opacity="0.8"/>
</svg>
