<svg width="28" height="28" viewBox="0 0 28 28" fill="none" xmlns="http://www.w3.org/2000/svg">
<path d="M20 12C20.5523 12 21 12.4477 21 13V17H25C25.5523 17 26 17.4477 26 18C26 18.5523 25.5523 19 25 19H21V23C21 23.5523 20.5523 24 20 24C19.4477 24 19 23.5523 19 23V19H15C14.4477 19 14 18.5523 14 18C14 17.4477 14.4477 17 15 17H19V13C19 12.4477 19.4477 12 20 12ZM9.5 17C10.0523 17 10.5 17.4477 10.5 18C10.5 18.5523 10.0523 19 9.5 19H4.5C3.94772 19 3.5 18.5523 3.5 18C3.5 17.4477 3.94772 17 4.5 17H9.5ZM14.5 11C15.0523 11 15.5 11.4477 15.5 12C15.5 12.5523 15.0523 13 14.5 13H4.5C3.94772 13 3.5 12.5523 3.5 12C3.5 11.4477 3.94772 11 4.5 11H14.5ZM21.5 5C22.0523 5 22.5 5.44772 22.5 6C22.5 6.55228 22.0523 7 21.5 7H4.5C3.94772 7 3.5 6.55228 3.5 6C3.5 5.44772 3.94772 5 4.5 5H21.5Z" fill="#3366FF" fill-opacity="0.8"/>
</svg>
