<svg width="28" height="28" viewBox="0 0 28 28" fill="none" xmlns="http://www.w3.org/2000/svg">
<path d="M15.3579 12.6371C15.7484 13.0276 15.7484 13.6608 15.3579 14.0513L4.7513 24.6579C4.36077 25.0484 3.72761 25.0484 3.33708 24.6579C2.94656 24.2674 2.94656 23.6342 3.33708 23.2437L13.9437 12.6371C14.3342 12.2466 14.9674 12.2466 15.3579 12.6371ZM23.9454 14.1796C23.9917 14.2674 23.9917 14.3723 23.9454 14.46L22.7085 16.8L23.9454 19.14C24.0228 19.2864 23.9668 19.468 23.8203 19.5454C23.7326 19.5918 23.6277 19.5918 23.5399 19.5454L21.2 18.3085L18.86 19.5454C18.7135 19.6228 18.532 19.5668 18.4546 19.4204C18.4082 19.3326 18.4082 19.2277 18.4546 19.14L19.6915 16.8L18.4546 14.46C18.3772 14.3136 18.4331 14.132 18.5796 14.0546C18.6673 14.0082 18.7723 14.0082 18.86 14.0546L21.2 15.2915L23.5399 14.0546C23.6864 13.9772 23.8679 14.0332 23.9454 14.1796ZM13.9454 4.17991C13.9917 4.26763 13.9917 4.37259 13.9454 4.46031L12.7085 6.80027L13.9454 9.14024C14.0228 9.28672 13.9668 9.46824 13.8203 9.54567C13.7326 9.59203 13.6277 9.59203 13.5399 9.54567L11.2 8.30877L8.86001 9.54567C8.71353 9.62309 8.53201 9.56712 8.45459 9.42064C8.40822 9.33292 8.40822 9.22796 8.45459 9.14024L9.69148 6.80027L8.45459 4.46031C8.37716 4.31383 8.43313 4.13231 8.57961 4.05488C8.66733 4.00852 8.77229 4.00852 8.86001 4.05488L11.2 5.29178L13.5399 4.05488C13.6864 3.97746 13.8679 4.03343 13.9454 4.17991ZM23.9454 4.17964C23.9917 4.26735 23.9917 4.37232 23.9454 4.46003L22.7085 6.8L23.9454 9.13997C24.0228 9.28645 23.9668 9.46796 23.8203 9.54539C23.7326 9.59176 23.6277 9.59176 23.5399 9.54539L21.2 8.30849L18.86 9.54539C18.7135 9.62282 18.532 9.56684 18.4546 9.42036C18.4082 9.33265 18.4082 9.22768 18.4546 9.13997L19.6915 6.8L18.4546 4.46003C18.3772 4.31355 18.4331 4.13204 18.5796 4.05461C18.6673 4.00824 18.7723 4.00824 18.86 4.05461L21.2 5.29151L23.5399 4.05461C23.6864 3.97718 23.8679 4.03316 23.9454 4.17964Z" fill="#3366FF" fill-opacity="0.8"/>
</svg>
