<svg width="28" height="28" viewBox="0 0 28 28" fill="none" xmlns="http://www.w3.org/2000/svg">
<path d="M14 2C20.6274 2 26 7.37258 26 14C26 20.6274 20.6274 26 14 26C7.37258 26 2 20.6274 2 14C2 7.37258 7.37258 2 14 2ZM14 4C8.47715 4 4 8.47715 4 14C4 19.5228 8.47715 24 14 24C19.5228 24 24 19.5228 24 14C24 8.47715 19.5228 4 14 4ZM15.6731 8.5C17.6958 8.5 19.3355 10.1397 19.3355 12.1623C19.3355 14.185 17.6958 15.8247 15.6731 15.8247L13.215 15.824V17.227L14.8518 17.2273C15.3037 17.2273 15.67 17.5936 15.67 18.0455C15.67 18.4973 15.3037 18.8636 14.8518 18.8636L13.215 18.863L13.2155 19.6429C13.2155 20.1162 12.8317 20.5 12.3583 20.5H12.2181C11.7447 20.5 11.3609 20.1162 11.3609 19.6429L11.36 18.863L10.4882 18.8636C10.0363 18.8636 9.67 18.4973 9.67 18.0455C9.67 17.5936 10.0363 17.2273 10.4882 17.2273L11.36 17.227V15.824L10.5271 15.8247C10.0538 15.8247 9.67 15.4409 9.67 14.9675V14.8117C9.67 14.3383 10.0538 13.9545 10.5271 13.9545L11.36 13.954L11.3609 9.35714C11.3609 8.88376 11.7447 8.5 12.2181 8.5H15.6731ZM15.709 10.2143H13.2155V13.9545H15.709C16.7418 13.9545 17.5791 13.1173 17.5791 12.0844C17.5791 11.0516 16.7418 10.2143 15.709 10.2143Z" fill="#3366FF" fill-opacity="0.8"/>
</svg>
