<svg width="28" height="28" viewBox="0 0 28 28" fill="none" xmlns="http://www.w3.org/2000/svg">
<path d="M11 16.9303V19.3936C11 24.0815 6.41748 26.4933 3.9272 24.0031C1.43692 21.5128 3.84878 16.9303 8.53663 16.9303H11ZM9.00001 18.9303H8.53663C5.52252 18.9303 4.19849 21.4459 5.34141 22.5889C6.48434 23.7318 9.00001 22.4077 9.00001 19.3936V18.9303ZM19.3881 3.52267C21.0102 3.18474 22.599 4.22572 22.9369 5.84774C22.9789 6.049 23 6.25403 23 6.45961V16.8936C23 21.5815 18.4175 23.9933 15.9272 21.5031C13.4369 19.0128 15.8488 14.4303 20.5366 14.4303L20.9993 14.43V9.729L10.9993 11.812L11 18H9.00001V8.91676C9.00001 7.97365 9.07864 7.48679 9.31323 6.96263C9.53519 6.46668 9.87259 6.05175 10.3128 5.7333C10.7781 5.39673 11.2387 5.22046 12.162 5.02811L19.3881 3.52267ZM21 16.4303H20.5366C17.5225 16.4303 16.1985 18.9459 17.3414 20.0889C18.4843 21.2318 21 19.9077 21 16.8936V16.4303ZM20.979 6.25565C20.8663 5.71498 20.3367 5.36799 19.7961 5.48063L12.5699 6.98607C11.8991 7.12583 11.6891 7.2062 11.485 7.3538C11.3293 7.46643 11.2172 7.60424 11.1387 7.77965C11.0359 8.00951 11 8.2315 11 8.91676L10.9993 9.77L20.9993 7.687L21 6.45961C21 6.42534 20.9982 6.39113 20.9947 6.35709L20.979 6.25565Z" fill="#3366FF" fill-opacity="0.8"/>
</svg>
