<svg width="28" height="28" viewBox="0 0 28 28" fill="none" xmlns="http://www.w3.org/2000/svg">
<path d="M7.70711 4.29289L23.7071 20.2929C24.0976 20.6834 24.0976 21.3166 23.7071 21.7071C23.3037 22.1105 22.6694 22.0836 22.2929 21.7071L18 17.415V22C18 23.1046 17.1046 24 16 24C15.0803 24 14.2245 23.6388 13.5858 23L8.58579 18H6.45833C5.08584 18 4 16.8813 4 15.5417V12.4583C4 11.0858 5.11909 10 6.45833 10H8.58579L9.585 9L6.29289 5.70711C5.88945 5.30366 5.92765 4.65813 6.29289 4.29288C6.6757 3.91008 7.31648 3.90228 7.70711 4.29289ZM11 10.415L9.70711 11.7071C9.51252 11.9017 9.25114 12 9 12H6.45833C6.19156 12 6 12.2148 6 12.4583V15.5417C6 15.8084 6.22266 16 6.45833 16H9C9.27518 16 9.52937 16.1152 9.70711 16.2929L15 21.5858C15.2722 21.858 15.6406 22 16 22V15.415L11 10.415ZM16 4C17.1202 4 18 4.89844 18 6V10C18 10.5523 17.5523 11 17 11C16.4477 11 16 10.5523 16 10V6C15.615 6 15.2716 6.14265 15 6.41421L14.208 7.208C13.2773 7.96875 12.0039 6.8125 12.7946 5.79475C12.7946 5.79475 13.5176 5.06819 13.5858 5C14.2261 4.35971 15.0945 4 16 4Z" fill="#3366FF" fill-opacity="0.8"/>
</svg>
