<svg width="28" height="28" viewBox="0 0 28 28" fill="none" xmlns="http://www.w3.org/2000/svg">
<path d="M4.29289 4.29289C4.68342 3.90237 5.31658 3.90237 5.70711 4.29289L24.0919 22.6777C24.4824 23.0682 24.4824 23.7014 24.0919 24.0919C23.7014 24.4824 23.0682 24.4824 22.6777 24.0919L20.0818 21.4967C20.0548 21.4989 20.0275 21.5 20 21.5L18.3989 21.5007C17.731 23.7645 16.2123 25 14 25C11.7877 25 10.269 23.7645 9.60115 21.5007L7 21.5C5.33483 21.5 4.24203 20.9258 3.75797 19.8962C3.54802 19.4497 3.5 19.0875 3.5 18.5882C3.5 17.475 3.92475 16.7582 4.99283 15.5202C5.13191 15.3592 5.19552 15.2854 5.26308 15.2057C5.80171 14.5706 6 14.2151 6 13.9071V12.0789C6 10.7186 6.2826 9.40958 6.81846 8.23409L4.29289 5.70711C3.90237 5.31658 3.90237 4.68342 4.29289 4.29289ZM16.2794 21.5008H11.7206C12.1714 22.5432 12.8987 23 14 23C15.1013 23 15.8286 22.5432 16.2794 21.5008ZM14.0046 3.5C18.5359 3.5 22 7.29407 22 12.0815L21.9954 13.9071C21.9954 14.2146 22.194 14.57 22.7335 15.205C22.8012 15.2847 22.8649 15.3585 23.0043 15.5195C23.8084 16.4498 24.1667 16.9696 24.3798 17.7274C24.4589 18.0088 24.5 18.2955 24.5 18.5882C24.5 19.1405 24.0523 19.5882 23.5 19.5882C22.9477 19.5882 22.5 19.1405 22.5 18.5882C22.5 18.4822 22.485 18.3772 22.4545 18.2688C22.3481 17.8903 22.1042 17.5366 21.4911 16.8273C21.3522 16.6668 21.2828 16.5864 21.2094 16.5C20.3806 15.5245 19.9954 14.8353 19.9954 13.9046L20 12.0789C20 8.36008 17.3886 5.5 14.0046 5.5C12.9499 5.5 11.9579 5.77344 11.0853 6.2901C10.61 6.57147 9.99668 6.41431 9.71531 5.93907C9.43394 5.46384 9.5911 4.85048 10.0663 4.56912C11.2465 3.8704 12.5902 3.5 14.0046 3.5ZM18.086 19.5L8.36065 9.77567C8.12386 10.4985 8 11.275 8 12.0789V13.9071C8 14.8348 7.6156 15.5239 6.78841 16.4993C6.71509 16.5857 6.64587 16.6661 6.50717 16.8266C5.74712 17.7076 5.5 18.1246 5.5 18.5882C5.5 18.8144 5.51597 18.9348 5.56791 19.0453C5.69184 19.3089 6.05558 19.5 7 19.5H18.086Z" fill="#3366FF" fill-opacity="0.8"/>
</svg>
