<svg width="28" height="28" viewBox="0 0 28 28" fill="none" xmlns="http://www.w3.org/2000/svg">
<path d="M10.632 18.8241L4.97514 24.481C4.03233 25.4238 2.61811 24.0096 3.56092 23.0668L9.21778 17.4099L4.66778 12.8599C4.13081 12.3229 4.13081 11.4523 4.66778 10.9154C4.89987 10.6833 5.20733 10.5419 5.53459 10.5167L11.0627 10.0914C11.1817 10.0823 11.2935 10.0309 11.3779 9.94647L14.907 6.41734C14.9768 6.34754 15.0244 6.25864 15.0438 6.16184L15.485 3.95553C15.6417 3.17235 16.608 2.87978 17.1727 3.44454L24.5973 10.8692C25.1621 11.4339 24.8695 12.4002 24.0864 12.5569L21.8801 12.9981C21.7833 13.0175 21.6944 13.0651 21.6246 13.1349L18.0954 16.664C18.011 16.7484 17.9596 16.8602 17.9504 16.9792L17.5252 22.5073C17.467 23.2645 16.806 23.831 16.0488 23.7728C15.7215 23.7476 15.4141 23.6062 15.182 23.3741L10.632 18.8241ZM15.9563 16.8258C16.0021 16.2308 16.2592 15.6718 16.6812 15.2498L20.2103 11.7206C20.5593 11.3716 21.0038 11.1337 21.4878 11.037L21.8619 10.9621L17.0798 6.18L17.0049 6.55407C16.9081 7.03805 16.6703 7.48255 16.3213 7.83155L12.7921 11.3607C12.3701 11.7827 11.8111 12.0398 11.2161 12.0856L7.04287 12.4066L15.6353 20.999L15.9563 16.8258Z" fill="#3366FF" fill-opacity="0.8"/>
</svg>
