<svg width="28" height="28" viewBox="0 0 28 28" fill="none" xmlns="http://www.w3.org/2000/svg">
<path d="M23 12.0148C23 7.0365 18.971 3 14 3C9.02902 3 5 7.0365 5 12.0148C5 15.5626 7.17918 19.8448 11.4804 24.9302C12.6573 26.3218 14.7395 26.4958 16.1311 25.3188C16.2712 25.2003 16.4011 25.0704 16.5196 24.9303C20.8208 19.8448 23 15.5626 23 12.0148ZM14.8395 23.7918C14.2913 24.2554 13.4711 24.1869 13.0074 23.6387C8.98341 18.881 7 14.9834 7 12.0148C7 8.14024 10.1344 5 14 5C17.8656 5 21 8.14024 21 12.0148C21 14.9834 19.0166 18.881 14.9926 23.6387C14.9459 23.6939 14.8947 23.7451 14.8395 23.7918ZM10 12C10 9.79143 11.7914 8 14 8C16.2086 8 18 9.79143 18 12C18 14.2086 16.2086 16 14 16C11.7914 16 10 14.2086 10 12ZM12 12C12 13.104 12.896 14 14 14C15.104 14 16 13.104 16 12C16 10.896 15.104 10 14 10C12.896 10 12 10.896 12 12Z" fill="#3366FF" fill-opacity="0.8"/>
</svg>
