<svg width="28" height="28" viewBox="0 0 28 28" fill="none" xmlns="http://www.w3.org/2000/svg">
<path d="M21.5863 6.3C21.7077 6.3 21.8262 6.33775 21.9254 6.40803L25.6148 9.0241C25.8789 9.21138 25.9412 9.57731 25.7539 9.84142C25.7157 9.89531 25.6686 9.94235 25.6148 9.98055L21.9254 12.5966C21.6612 12.7839 21.2953 12.7216 21.108 12.4575C21.0377 12.3584 21 12.2399 21 12.1184V10.5H16.8C15.6078 10.5 14.6064 11.3823 12.6449 13.9995C14.541 16.5303 15.5398 17.439 16.6808 17.497L16.8 17.5H21V15.8816C21 15.5578 21.2625 15.2953 21.5863 15.2953C21.7077 15.2953 21.8262 15.3331 21.9254 15.4034L25.6148 18.0194C25.8789 18.2067 25.9412 18.5726 25.7539 18.8368C25.7157 18.8906 25.6686 18.9377 25.6148 18.9759L21.9254 21.592C21.6612 21.7792 21.2953 21.7169 21.108 21.4528C21.0377 21.3537 21 21.2352 21 21.1137V19.5H16.8C14.8119 19.5 13.569 18.5104 11.4006 15.672C9.23104 18.5104 7.98809 19.5 6 19.5H3C2.44772 19.5 2 19.0523 2 18.5C2 17.9477 2.44772 17.5 3 17.5H6C7.192 17.5 8.19335 16.618 10.1544 14.0015C8.25932 11.4699 7.26033 10.5611 6.1192 10.503L6 10.5H3C2.44772 10.5 2 10.0523 2 9.5C2 8.98717 2.38604 8.5645 2.88338 8.50673L3 8.5H6C7.98809 8.5 9.23104 9.4896 11.3994 12.328C13.569 9.4896 14.8119 8.5 16.8 8.5H21V6.88625C21 6.56248 21.2625 6.3 21.5863 6.3Z" fill="#3366FF" fill-opacity="0.8"/>
</svg>
