<svg width="28" height="28" viewBox="0 0 28 28" fill="none" xmlns="http://www.w3.org/2000/svg">
<path d="M23 21C23.5523 21 24 21.4477 24 22C24 22.5523 23.5523 23 23 23H5C4.44772 23 4 22.5523 4 22C4 21.4477 4.44772 21 5 21H23ZM22 6C22.5523 6 23 6.44772 23 7V12C23 12.5523 22.5523 13 22 13C21.4477 13 21 12.5523 21 12V9.414L14.7071 15.7071C14.3466 16.0676 13.7794 16.0953 13.3871 15.7903L13.2929 15.7071L11 13.4142L6.70711 17.7071C6.31658 18.0976 5.68342 18.0976 5.29289 17.7071C4.90237 17.3166 4.90237 16.6834 5.29289 16.2929L10.2929 11.2929C10.6834 10.9024 11.3166 10.9024 11.7071 11.2929L14 13.5858L19.584 8H17C16.4872 8 16.0645 7.61396 16.0067 7.11662L16 7C16 6.44772 16.4477 6 17 6H22Z" fill="#3366FF" fill-opacity="0.8"/>
</svg>
