<svg width="28" height="28" viewBox="0 0 28 28" fill="none" xmlns="http://www.w3.org/2000/svg">
<path d="M8.57912 8.99332L5.29291 5.70711C4.90239 5.31659 4.90239 4.68342 5.29291 4.2929C5.68344 3.90237 6.3166 3.90237 6.70713 4.2929L24.7071 22.2929C25.0977 22.6834 25.0977 23.3166 24.7071 23.7071C24.3166 24.0976 23.6834 24.0976 23.2929 23.7071L21.674 22.0882C21.8016 23.1292 21.0979 24.1027 20.0527 24.2962C19.6024 24.3796 19.1371 24.3059 18.7346 24.0874L14 21.5178L9.26548 24.0874C8.29468 24.6143 7.08056 24.2545 6.55366 23.2837C6.33519 22.8812 6.26149 22.4158 6.34488 21.9655L7.3257 16.6686L3.41877 12.9599C2.61767 12.1994 2.58473 10.9335 3.3452 10.1324C3.66051 9.80023 4.08028 9.58635 4.53434 9.5265L8.57912 8.99332ZM10.3615 10.7757L4.79572 11.5093L9.09628 15.5918C9.34179 15.8248 9.45273 16.1662 9.39109 16.4991L8.31145 22.3297L13.523 19.5011C13.8205 19.3396 14.1795 19.3396 14.477 19.5011L19.6886 22.3297L19.1825 19.5967L10.3615 10.7757ZM18.125 8.82249L23.4657 9.5265C24.5608 9.67085 25.3315 10.6756 25.1872 11.7707C25.1273 12.2248 24.9134 12.6446 24.5813 12.9599L21.9436 15.4637C21.5431 15.844 20.9101 15.8275 20.5299 15.4269C20.1496 15.0264 20.1661 14.3934 20.5667 14.0132L23.2043 11.5093L17.3255 10.7344C16.9899 10.6902 16.6995 10.4792 16.5537 10.1736L14 4.82203L13.2297 6.4363C12.9919 6.93475 12.395 7.14601 11.8966 6.90816C11.3981 6.67032 11.1869 6.07343 11.4247 5.57499L12.195 3.96071C12.6707 2.96382 13.8644 2.54131 14.8613 3.017C15.2747 3.21424 15.6078 3.54737 15.8051 3.96071L18.125 8.82249Z" fill="#3366FF" fill-opacity="0.8"/>
</svg>
