<svg width="28" height="28" viewBox="0 0 28 28" fill="none" xmlns="http://www.w3.org/2000/svg">
<path d="M14 14.5C17.862 14.5 20.5 16.2586 20.5 19C20.5 20.9301 19.2161 22 17.5 22H10.5C8.78393 22 7.5 20.9301 7.5 19C7.5 16.2586 10.138 14.5 14 14.5ZM22 14.5C24.7458 14.5 26.5 16.1568 26.5 18.25C26.5 19.9424 25.2074 21 23.75 21H23C22.4477 21 22 20.5523 22 20C22 19.4477 22.4477 19 23 19H23.75C24.1815 19 24.5 18.7394 24.5 18.25C24.5 17.2877 23.666 16.5 22 16.5C21.4477 16.5 21 16.0523 21 15.5C21 14.9477 21.4477 14.5 22 14.5ZM6 14.5C6.55228 14.5 7 14.9477 7 15.5C7 16.0523 6.55228 16.5 6 16.5C4.33403 16.5 3.5 17.2877 3.5 18.25C3.5 18.7394 3.81854 19 4.25 19H5C5.55228 19 6 19.4477 6 20C6 20.5523 5.55228 21 5 21H4.25C2.79257 21 1.5 19.9424 1.5 18.25C1.5 16.1568 3.25421 14.5 6 14.5ZM14 16.5C11.112 16.5 9.5 17.5747 9.5 19C9.5 19.7366 9.81607 20 10.5 20H17.5C18.1839 20 18.5 19.7366 18.5 19C18.5 17.5747 16.888 16.5 14 16.5ZM20 6C21.933 6 23.5 7.567 23.5 9.5C23.5 11.433 21.933 13 20 13C19.4477 13 19 12.5523 19 12C19 11.4477 19.4477 11 20 11L20.1445 10.9931C20.9051 10.9204 21.5 10.2797 21.5 9.5C21.5 8.67157 20.8284 8 20 8L19.8834 7.99327C19.386 7.93551 19 7.51284 19 7C19 6.44772 19.4477 6 20 6ZM8 6C8.55228 6 9 6.44772 9 7C9 7.51284 8.61396 7.93551 8.11662 7.99327L8 8C7.17157 8 6.5 8.67157 6.5 9.5C6.5 10.2797 7.09489 10.9204 7.85554 10.9931L8 11C8.55228 11 9 11.4477 9 12C9 12.5523 8.55228 13 8 13C6.067 13 4.5 11.433 4.5 9.5C4.5 7.567 6.067 6 8 6ZM14 5C16.2091 5 18 6.79086 18 9C18 11.2091 16.2091 13 14 13C11.7909 13 10 11.2091 10 9C10 6.79086 11.7909 5 14 5ZM14 7C12.8954 7 12 7.89543 12 9C12 10.1046 12.8954 11 14 11C15.1046 11 16 10.1046 16 9C16 7.89543 15.1046 7 14 7Z" fill="#3366FF" fill-opacity="0.8"/>
</svg>
