<svg width="28" height="28" viewBox="0 0 28 28" fill="none" xmlns="http://www.w3.org/2000/svg">
<path d="M10.25 15C15.2011 15 19.5 16.7626 19.5 20.6429C19.5 22.6593 18.7189 23.5 17.0441 23.5H3.45588C1.78111 23.5 1 22.6593 1 20.6429C1 16.7626 5.29892 15 10.25 15ZM10.25 17C6.30402 17 3 18.3547 3 20.6429C3 21.5338 2.92853 21.5064 3.37213 21.5006L17.0441 21.5C17.5801 21.5 17.5 21.5862 17.5 20.6429C17.5 18.3547 14.196 17 10.25 17ZM22.7071 7.29289C23.0976 7.68342 23.0976 8.31658 22.7071 8.70711L20.414 11H26C26.5128 11 26.9355 11.386 26.9933 11.8834L27 12C27 12.5523 26.5523 13 26 13H20.414L22.7071 15.2929C23.0976 15.6834 23.0976 16.3166 22.7071 16.7071C22.3166 17.0976 21.6834 17.0976 21.2929 16.7071L17.2929 12.7071C16.9024 12.3166 16.9024 11.6834 17.2929 11.2929L21.2929 7.29289C21.6834 6.90237 22.3166 6.90237 22.7071 7.29289ZM10 3C13.0385 3 15.5 5.46147 15.5 8.5C15.5 11.5385 13.0385 14 10 14C6.96147 14 4.5 11.5385 4.5 8.5C4.5 5.46147 6.96147 3 10 3ZM10 5C8.06603 5 6.5 6.56603 6.5 8.5C6.5 10.434 8.06603 12 10 12C11.934 12 13.5 10.434 13.5 8.5C13.5 6.56603 11.934 5 10 5Z" fill="#3366FF" fill-opacity="0.8"/>
</svg>
