<svg width="28" height="28" viewBox="0 0 28 28" fill="none" xmlns="http://www.w3.org/2000/svg">
<path d="M14.8722 6C16.6553 6 17.3018 6.18565 17.9537 6.53427C18.6055 6.88288 19.1171 7.39446 19.4657 8.04631C19.6979 8.4805 19.8578 8.91234 19.9387 9.67925L21.9455 8.42557C23.1866 7.64988 24.8215 8.02717 25.5972 9.26826C25.8604 9.68943 26 10.1761 26 10.6728V17.3272C26 18.7908 24.8136 19.9772 23.35 19.9772C22.8533 19.9772 22.3667 19.8377 21.9455 19.5744L19.9387 18.3208C19.8578 19.0877 19.6979 19.5195 19.4657 19.9537C19.1171 20.6055 18.6055 21.1171 17.9537 21.4657C17.3018 21.8143 16.6553 22 14.8722 22H7.12777C5.34473 22 4.69816 21.8143 4.04631 21.4657C3.39446 21.1171 2.88288 20.6055 2.53427 19.9537C2.18565 19.3018 2 18.6553 2 16.8722V11.1278C2 9.34473 2.18565 8.69816 2.53427 8.04631C2.88288 7.39446 3.39446 6.88288 4.04631 6.53427C4.69816 6.18565 5.34473 6 7.12777 6H14.8722ZM15.1099 8.00093L7.12777 8C5.80407 8 5.40096 8.07784 4.98951 8.29789C4.68619 8.46011 4.46011 8.68619 4.29789 8.98951C4.0916 9.37525 4.01029 9.75365 4.00093 10.8901L4 16.8722C4 18.1959 4.07784 18.599 4.29789 19.0105C4.46011 19.3138 4.68619 19.5399 4.98951 19.7021C5.40096 19.9222 5.80407 20 7.12777 20H14.8722C16.1959 20 16.599 19.9222 17.0105 19.7021C17.3138 19.5399 17.5399 19.3138 17.7021 19.0105C17.9222 18.599 18 18.1959 18 16.8722V11.1278C18 9.80407 17.9222 9.40096 17.7021 8.98951C17.5399 8.68619 17.3138 8.46011 17.0105 8.29789C16.6248 8.0916 16.2464 8.01029 15.1099 8.00093ZM23.0055 10.1216L20 12V16L23.0055 17.8784C23.1088 17.943 23.2282 17.9772 23.35 17.9772C23.709 17.9772 24 17.6862 24 17.3272V10.6728C24 10.5509 23.9658 10.4316 23.9012 10.3283C23.7109 10.0238 23.3099 9.9313 23.0055 10.1216Z" fill="#3366FF" fill-opacity="0.8"/>
</svg>
