<svg width="28" height="28" viewBox="0 0 28 28" fill="none" xmlns="http://www.w3.org/2000/svg">
<path d="M23 12C23.5523 12 24 12.4477 24 13C24 18.185 20.0539 22.4483 15.0011 22.9505L15 25C15 25.5523 14.5523 26 14 26C13.4477 26 13 25.5523 13 25L12.9999 22.9506C7.94662 22.4488 4 18.1853 4 13C4 12.4477 4.44772 12 5 12C5.55228 12 6 12.4477 6 13C6 17.4183 9.58172 21 14 21C18.4183 21 22 17.4183 22 13C22 12.4477 22.4477 12 23 12ZM14 2C17.3137 2 20 4.68629 20 8V13C20 16.3137 17.3137 19 14 19C10.6863 19 8 16.3137 8 13V8C8 4.68629 10.6863 2 14 2ZM14 4C11.7909 4 10 5.79086 10 8V13C10 15.2091 11.7909 17 14 17C16.2091 17 18 15.2091 18 13V8C18 5.79086 16.2091 4 14 4Z" fill="#3366FF" fill-opacity="0.8"/>
</svg>
