<svg width="28" height="28" viewBox="0 0 28 28" fill="none" xmlns="http://www.w3.org/2000/svg">
<path d="M16 4C17.1046 4 18 4.89543 18 6V22C18 23.1046 17.1046 24 16 24C15.0945 24 14.2261 23.6403 13.5858 23L8.58579 18H6.45833C5.10063 18 4 16.8994 4 15.5417V12.4583C4 11.1006 5.10063 10 6.45833 10H8.58579L13.5858 5C14.2261 4.35971 15.0945 4 16 4ZM16 6C15.6249 6 15.2652 6.149 15 6.41421L9.70711 11.7071C9.51957 11.8946 9.26522 12 9 12H6.45833C6.2052 12 6 12.2052 6 12.4583V15.5417C6 15.7948 6.2052 16 6.45833 16H9C9.26522 16 9.51957 16.1054 9.70711 16.2929L15 21.5858C15.2652 21.851 15.6249 22 16 22V6ZM23.8644 7.43569C24.2549 7.04517 24.8881 7.04517 25.2786 7.43569C28.904 11.0611 28.904 16.9389 25.2786 20.5643C24.8881 20.9548 24.2549 20.9548 23.8644 20.5643C23.4739 20.1738 23.4739 19.5406 23.8644 19.1501C26.7087 16.3058 26.7087 11.6942 23.8644 8.84991C23.4739 8.45938 23.4739 7.82622 23.8644 7.43569ZM20.8946 10.4055C21.2851 10.015 21.9182 10.015 22.3088 10.4055C24.2939 12.3907 24.2939 15.6093 22.3088 17.5945C21.9182 17.985 21.2851 17.985 20.8946 17.5945C20.504 17.2039 20.504 16.5708 20.8946 16.1802C22.0987 14.9761 22.0987 13.0239 20.8946 11.8198C20.504 11.4292 20.504 10.7961 20.8946 10.4055Z" fill="#3366FF" fill-opacity="0.8"/>
</svg>
