<?xml version="1.0" encoding="UTF-8"?>
<svg width="300px" height="300px" viewBox="0 0 300 300" version="1.1" xmlns="http://www.w3.org/2000/svg" xmlns:xlink="http://www.w3.org/1999/xlink">
    <!-- Generator: Sketch 54.1 (76490) - https://sketchapp.com -->
    <title>Artboard</title>
    <desc>Created with Sketch.</desc>
    <g id="Artboard" stroke="none" stroke-width="1" fill="none" fill-rule="evenodd">
        <g id="apple" transform="translate(24.000000, 0.000000)" fill="#FFFFFF" fill-rule="nonzero">
            <path d="M247.232788,233.633295 C242.698957,244.107379 237.332376,253.748712 231.114545,262.612828 C222.639045,274.696869 215.699505,283.061338 210.351429,287.706212 C202.060992,295.330455 193.178376,299.235101 183.666573,299.457172 C176.838066,299.457172 168.603139,297.514091 159.017318,293.572449 C149.40004,289.649268 140.561836,287.706212 132.480505,287.706212 C124.00501,287.706212 114.915131,289.649268 105.192371,293.572449 C95.4547955,297.514091 87.6103409,299.568207 81.6127222,299.771768 C72.4913864,300.160379 63.3996667,296.144697 54.3245884,287.706212 C48.5323889,282.654217 41.2875076,273.993662 32.608447,261.724545 C23.2965091,248.622707 15.6408051,233.429735 9.64318889,216.108636 C3.21994823,197.399626 0,179.282793 0,161.743336 C0,141.651972 4.34137854,124.32347 13.0370881,109.802242 C19.87115,98.1382652 28.9628763,88.9373535 40.3418712,82.1828611 C51.7208763,75.4283788 64.0158965,71.9863662 77.256548,71.7661465 C84.5014242,71.7661465 94.0021288,74.0071566 105.808601,78.4114545 C117.581768,82.8305556 125.141245,85.0715657 128.455566,85.0715657 C130.933444,85.0715657 139.331217,82.4511894 153.56746,77.2271086 C167.030179,72.3823813 178.39252,70.3763838 187.70076,71.1665657 C212.923689,73.2021667 231.873268,83.1451465 244.47548,101.058419 C221.917341,114.726545 210.758553,133.870429 210.980616,158.429008 C211.184177,177.558086 218.123717,193.47647 231.762232,206.115699 C237.943048,211.981917 244.845586,216.515753 252.525328,219.735705 C250.859861,224.565624 249.101843,229.191987 247.232788,233.633295 Z M189.384763,5.99778712 C189.384763,20.9910775 183.907141,34.9902702 172.988934,47.9477778 C159.813045,63.3517197 143.876162,72.2528359 126.593919,70.8482753 C126.373707,69.0495429 126.246018,67.1564394 126.246018,65.1671061 C126.246018,50.7735631 132.511965,35.3696288 143.639295,22.7748199 C149.194621,16.3978477 156.260003,11.0954816 164.828028,6.86568359 C173.377543,2.69899672 181.464427,0.394729141 189.070159,0.000133167616 C189.29224,2.00450187 189.384763,4.00899672 189.384763,5.99759268 L189.384763,5.99778712 Z" id="path4"></path>
        </g>
    </g>
</svg>