<?xml version="1.0" encoding="UTF-8"?>
<svg width="73px" height="64px" viewBox="0 0 73 64" version="1.1" xmlns="http://www.w3.org/2000/svg" xmlns:xlink="http://www.w3.org/1999/xlink">
    <!-- Generator: Sketch 54.1 (76490) - https://sketchapp.com -->
    <title>Apple Store</title>
    <desc>Created with Sketch.</desc>
    <g id="Page-1" stroke="none" stroke-width="1" fill="none" fill-rule="evenodd">
        <g id="Download-Buttons" transform="translate(-294.000000, -70.000000)">
            <g id="Apple-Store" transform="translate(294.000000, 70.000000)">
                <rect id="button" fill="#000000" x="0" y="0" width="73" height="64" rx="10"></rect>
                <path d="M50.3357996,45.7046743 C48.581044,48.2593981 46.7659107,50.7984076 43.9000774,50.8516267 C41.0796329,50.9048457 40.175444,49.1884267 36.9570551,49.1884267 C33.7352885,49.1884267 32.727444,50.7984076 30.0644674,50.9048457 C27.2977929,51.0079314 25.1940496,48.1456267 23.4248329,45.6024267 C19.8103785,40.4024648 17.051684,30.8995124 20.7618351,24.4863657 C22.5990929,21.3014571 25.891244,19.286341 29.4587896,19.2331429 C32.1758107,19.18336 34.7424996,21.0568171 36.402044,21.0568171 C38.0641218,21.0568171 41.1794885,18.8075162 44.4546663,19.1374324 C45.8256218,19.1938152 49.6733329,19.6874114 52.1443885,23.28724 C51.9491107,23.4150286 47.5516663,25.9620838 47.6052885,31.2684838 C47.6591218,37.6072076 53.1845329,39.714179 53.2487107,39.7428838 C53.1986774,39.8918552 52.3654218,42.7508076 50.3357996,45.7046743 Z M38.3030996,12.1742229 C39.8199329,10.4046476 42.3828218,9.08844 44.497944,9 C44.7681663,11.4580286 43.7748885,13.9194514 42.3078774,15.6931124 C40.8379107,17.4635886 38.4316663,18.8427581 36.0701774,18.6586076 C35.7492885,16.2537771 36.9395329,13.7457352 38.3030996,12.1742229 Z" id="logo" fill="#FFFFFF" fill-rule="nonzero"></path>
            </g>
        </g>
    </g>
</svg>