<svg width="1486" height="302" viewBox="0 0 1486 302" fill="none" xmlns="http://www.w3.org/2000/svg">
<g clip-path="url(#clip0)">
<path d="M115.2 101.6H86.8V21.6C86.8 10.8 78 1.99998 66.8 1.99998C56 1.99998 47.2 10.8 47.2 21.6V101.6H18.4C7.6 101.6 -1.2 110.4 -1.2 121.2C-1.2 132 7.6 141.2 18.4 141.2H47.2V282.4C47.2 293.2 56 302.4 66.8 302.4C78 302.4 86.8 293.2 86.8 282.4V141.2H115.2C126.4 141.2 135.2 132 135.2 121.2C135.2 110.4 126.4 101.6 115.2 101.6ZM234.628 302C290.228 302 335.028 256.8 335.028 201.6C335.028 146 290.228 101.2 234.628 101.2C179.428 101.2 134.228 146 134.228 201.6C134.228 256.8 179.428 302 234.628 302ZM234.628 140.8C268.228 140.8 295.428 168 295.428 201.6C295.428 234.8 268.228 262.4 234.628 262.4C201.028 262.4 173.828 234.8 173.828 201.6C173.828 168 201.028 140.8 234.628 140.8ZM459.247 100.4C403.647 100.4 358.847 145.2 358.847 200.8C358.847 256 403.647 301.2 459.247 301.2C514.447 301.2 559.647 256 559.647 200.8V200.4V21.2C559.647 10.4 550.847 1.59998 539.647 1.59998C528.847 1.59998 520.047 10.4 520.047 21.2V120.8C503.247 108 482.047 100.4 459.247 100.4ZM459.247 261.6C425.647 261.6 398.447 234 398.447 200.8C398.447 167.2 425.647 140 459.247 140C492.847 140 520.047 167.2 520.047 200.4V200.8C520.047 234.4 492.847 261.6 459.247 261.6ZM682.675 302C738.275 302 783.075 256.8 783.075 201.6C783.075 146 738.275 101.2 682.675 101.2C627.475 101.2 582.275 146 582.275 201.6C582.275 256.8 627.475 302 682.675 302ZM682.675 140.8C716.275 140.8 743.475 168 743.475 201.6C743.475 234.8 716.275 262.4 682.675 262.4C649.075 262.4 621.875 234.8 621.875 201.6C621.875 168 649.075 140.8 682.675 140.8ZM906.894 101.6C851.694 101.6 806.494 146.4 806.494 202V282.4C806.494 293.2 815.294 302.4 826.494 302.4C837.294 302.4 846.094 293.2 846.094 282.4V202C846.094 168.4 873.294 141.2 906.894 141.2C918.094 141.2 926.894 132 926.894 121.2C926.894 110.4 918.094 101.6 906.894 101.6ZM1025.65 102C969.253 102 924.453 146.8 924.453 203.2C924.453 259.6 969.253 301.6 1025.65 301.6C1048.45 301.6 1067.65 296 1084.85 281.6C1084.85 293.2 1096.05 301.6 1104.05 301.6C1115.65 301.6 1124.05 293.2 1124.05 281.6V203.2C1124.05 146.8 1082.05 102 1025.65 102ZM1025.65 262.4C992.053 262.4 963.653 236.8 963.653 203.2C963.653 169.6 992.053 141.2 1025.65 141.2C1059.25 141.2 1084.85 169.6 1084.85 203.2C1084.85 236.8 1059.25 262.4 1025.65 262.4ZM1248.3 101.2C1193.1 101.2 1147.9 146 1147.9 201.6V282C1147.9 293.2 1156.7 302 1167.5 302C1178.7 302 1187.5 293.2 1187.5 282V201.6C1187.5 168 1214.7 140.8 1248.3 140.8C1281.9 140.8 1309.1 168 1309.1 201.6V282C1309.1 293.2 1317.9 302 1328.7 302C1339.9 302 1348.7 293.2 1348.7 282V201.6C1348.7 146 1303.5 101.2 1248.3 101.2ZM1463.25 101.6H1434.85V21.6C1434.85 10.8 1426.05 1.99998 1414.85 1.99998C1404.05 1.99998 1395.25 10.8 1395.25 21.6V101.6H1366.45C1355.65 101.6 1346.85 110.4 1346.85 121.2C1346.85 132 1355.65 141.2 1366.45 141.2H1395.25V282.4C1395.25 293.2 1404.05 302.4 1414.85 302.4C1426.05 302.4 1434.85 293.2 1434.85 282.4V141.2H1463.25C1474.45 141.2 1483.25 132 1483.25 121.2C1483.25 110.4 1474.45 101.6 1463.25 101.6Z" fill="black"/>
<path d="M115.2 101.6H86.8V21.6C86.8 10.8 78 1.99998 66.8 1.99998C56 1.99998 47.2 10.8 47.2 21.6V101.6H18.4C7.6 101.6 -1.2 110.4 -1.2 121.2C-1.2 132 7.6 141.2 18.4 141.2H47.2V282.4C47.2 293.2 56 302.4 66.8 302.4C78 302.4 86.8 293.2 86.8 282.4V141.2H115.2C126.4 141.2 135.2 132 135.2 121.2C135.2 110.4 126.4 101.6 115.2 101.6ZM234.628 302C290.228 302 335.028 256.8 335.028 201.6C335.028 146 290.228 101.2 234.628 101.2C179.428 101.2 134.228 146 134.228 201.6C134.228 256.8 179.428 302 234.628 302ZM234.628 140.8C268.228 140.8 295.428 168 295.428 201.6C295.428 234.8 268.228 262.4 234.628 262.4C201.028 262.4 173.828 234.8 173.828 201.6C173.828 168 201.028 140.8 234.628 140.8ZM459.247 100.4C403.647 100.4 358.847 145.2 358.847 200.8C358.847 256 403.647 301.2 459.247 301.2C514.447 301.2 559.647 256 559.647 200.8V200.4V21.2C559.647 10.4 550.847 1.59998 539.647 1.59998C528.847 1.59998 520.047 10.4 520.047 21.2V120.8C503.247 108 482.047 100.4 459.247 100.4ZM459.247 261.6C425.647 261.6 398.447 234 398.447 200.8C398.447 167.2 425.647 140 459.247 140C492.847 140 520.047 167.2 520.047 200.4V200.8C520.047 234.4 492.847 261.6 459.247 261.6ZM682.675 302C738.275 302 783.075 256.8 783.075 201.6C783.075 146 738.275 101.2 682.675 101.2C627.475 101.2 582.275 146 582.275 201.6C582.275 256.8 627.475 302 682.675 302ZM682.675 140.8C716.275 140.8 743.475 168 743.475 201.6C743.475 234.8 716.275 262.4 682.675 262.4C649.075 262.4 621.875 234.8 621.875 201.6C621.875 168 649.075 140.8 682.675 140.8ZM906.894 101.6C851.694 101.6 806.494 146.4 806.494 202V282.4C806.494 293.2 815.294 302.4 826.494 302.4C837.294 302.4 846.094 293.2 846.094 282.4V202C846.094 168.4 873.294 141.2 906.894 141.2C918.094 141.2 926.894 132 926.894 121.2C926.894 110.4 918.094 101.6 906.894 101.6ZM1025.65 102C969.253 102 924.453 146.8 924.453 203.2C924.453 259.6 969.253 301.6 1025.65 301.6C1048.45 301.6 1067.65 296 1084.85 281.6C1084.85 293.2 1096.05 301.6 1104.05 301.6C1115.65 301.6 1124.05 293.2 1124.05 281.6V203.2C1124.05 146.8 1082.05 102 1025.65 102ZM1025.65 262.4C992.053 262.4 963.653 236.8 963.653 203.2C963.653 169.6 992.053 141.2 1025.65 141.2C1059.25 141.2 1084.85 169.6 1084.85 203.2C1084.85 236.8 1059.25 262.4 1025.65 262.4ZM1248.3 101.2C1193.1 101.2 1147.9 146 1147.9 201.6V282C1147.9 293.2 1156.7 302 1167.5 302C1178.7 302 1187.5 293.2 1187.5 282V201.6C1187.5 168 1214.7 140.8 1248.3 140.8C1281.9 140.8 1309.1 168 1309.1 201.6V282C1309.1 293.2 1317.9 302 1328.7 302C1339.9 302 1348.7 293.2 1348.7 282V201.6C1348.7 146 1303.5 101.2 1248.3 101.2ZM1463.25 101.6H1434.85V21.6C1434.85 10.8 1426.05 1.99998 1414.85 1.99998C1404.05 1.99998 1395.25 10.8 1395.25 21.6V101.6H1366.45C1355.65 101.6 1346.85 110.4 1346.85 121.2C1346.85 132 1355.65 141.2 1366.45 141.2H1395.25V282.4C1395.25 293.2 1404.05 302.4 1414.85 302.4C1426.05 302.4 1434.85 293.2 1434.85 282.4V141.2H1463.25C1474.45 141.2 1483.25 132 1483.25 121.2C1483.25 110.4 1474.45 101.6 1463.25 101.6Z" fill="url(#paint0_linear)"/>
<path d="M827.483 97.1475L697.415 227.174C695.082 229.506 692.287 231.093 689.326 231.946C681.274 235.924 671.254 234.065 665.224 226.88L609.667 160.691C602.586 152.255 603.687 139.679 612.126 132.6C620.564 125.522 633.145 126.622 640.225 135.058L684.051 187.27L800.842 70.5158C808.199 63.1614 820.126 63.1614 827.483 70.5158C834.839 77.8695 834.839 89.7932 827.483 97.1475Z" fill="url(#paint1_linear)"/>
</g>
<defs>
<linearGradient id="paint0_linear" x1="14.5" y1="-54.0001" x2="1465.5" y2="184" gradientUnits="userSpaceOnUse">
<stop stop-color="#FF641A"/>
<stop offset="1" stop-color="#3366FF"/>
</linearGradient>
<linearGradient id="paint1_linear" x1="545.964" y1="35.2005" x2="833.365" y2="197.431" gradientUnits="userSpaceOnUse">
<stop stop-color="#FF641A"/>
<stop offset="1" stop-color="#3366FF"/>
</linearGradient>
</defs>
</svg>
