<svg width="118" height="24" viewBox="0 0 118 24" fill="none" xmlns="http://www.w3.org/2000/svg">
<path d="M9.25274 7.64628H6.9952V1.52926C6.9952 0.703457 6.29568 0.0305847 5.40538 0.0305847C4.54688 0.0305847 3.84736 0.703457 3.84736 1.52926V7.64628H1.55802C0.69952 7.64628 0 8.31915 0 9.14495C0 9.97074 0.69952 10.6742 1.55802 10.6742H3.84736V21.4707C3.84736 22.2965 4.54688 23 5.40538 23C6.29568 23 6.9952 22.2965 6.9952 21.4707V10.6742H9.25274C10.143 10.6742 10.8426 9.97074 10.8426 9.14495C10.8426 8.31915 10.143 7.64628 9.25274 7.64628Z" fill="black"/>
<path d="M9.25274 7.64628H6.9952V1.52926C6.9952 0.703457 6.29568 0.0305847 5.40538 0.0305847C4.54688 0.0305847 3.84736 0.703457 3.84736 1.52926V7.64628H1.55802C0.69952 7.64628 0 8.31915 0 9.14495C0 9.97074 0.69952 10.6742 1.55802 10.6742H3.84736V21.4707C3.84736 22.2965 4.54688 23 5.40538 23C6.29568 23 6.9952 22.2965 6.9952 21.4707V10.6742H9.25274C10.143 10.6742 10.8426 9.97074 10.8426 9.14495C10.8426 8.31915 10.143 7.64628 9.25274 7.64628Z" fill="url(#paint0_linear)"/>
<path d="M18.7462 22.9694C23.1659 22.9694 26.7271 19.5133 26.7271 15.2926C26.7271 11.0412 23.1659 7.61569 18.7462 7.61569C14.3583 7.61569 10.7653 11.0412 10.7653 15.2926C10.7653 19.5133 14.3583 22.9694 18.7462 22.9694ZM18.7462 10.6436C21.4171 10.6436 23.5792 12.7234 23.5792 15.2926C23.5792 17.8311 21.4171 19.9415 18.7462 19.9415C16.0753 19.9415 13.9131 17.8311 13.9131 15.2926C13.9131 12.7234 16.0753 10.6436 18.7462 10.6436Z" fill="black"/>
<path d="M18.7462 22.9694C23.1659 22.9694 26.7271 19.5133 26.7271 15.2926C26.7271 11.0412 23.1659 7.61569 18.7462 7.61569C14.3583 7.61569 10.7653 11.0412 10.7653 15.2926C10.7653 19.5133 14.3583 22.9694 18.7462 22.9694ZM18.7462 10.6436C21.4171 10.6436 23.5792 12.7234 23.5792 15.2926C23.5792 17.8311 21.4171 19.9415 18.7462 19.9415C16.0753 19.9415 13.9131 17.8311 13.9131 15.2926C13.9131 12.7234 16.0753 10.6436 18.7462 10.6436Z" fill="url(#paint1_linear)"/>
<path d="M36.6013 7.55452C32.1816 7.55452 28.6204 10.9801 28.6204 15.2314C28.6204 19.4521 32.1816 22.9082 36.6013 22.9082C40.9892 22.9082 44.5822 19.4521 44.5822 15.2314V1.49867C44.5822 0.672873 43.8827 0 42.9924 0C42.1339 0 41.4344 0.672873 41.4344 1.49867V9.11436C40.0989 8.13564 38.4137 7.55452 36.6013 7.55452ZM36.6013 19.8803C33.9304 19.8803 31.7683 17.7699 31.7683 15.2314C31.7683 12.6622 33.9304 10.5824 36.6013 10.5824C39.2722 10.5824 41.4344 12.6622 41.4344 15.2008V15.2314C41.4344 17.8005 39.2722 19.8803 36.6013 19.8803Z" fill="black"/>
<path d="M36.6013 7.55452C32.1816 7.55452 28.6204 10.9801 28.6204 15.2314C28.6204 19.4521 32.1816 22.9082 36.6013 22.9082C40.9892 22.9082 44.5822 19.4521 44.5822 15.2314V1.49867C44.5822 0.672873 43.8827 0 42.9924 0C42.1339 0 41.4344 0.672873 41.4344 1.49867V9.11436C40.0989 8.13564 38.4137 7.55452 36.6013 7.55452ZM36.6013 19.8803C33.9304 19.8803 31.7683 17.7699 31.7683 15.2314C31.7683 12.6622 33.9304 10.5824 36.6013 10.5824C39.2722 10.5824 41.4344 12.6622 41.4344 15.2008V15.2314C41.4344 17.8005 39.2722 19.8803 36.6013 19.8803Z" fill="url(#paint2_linear)"/>
<path d="M54.3618 22.9694C58.7815 22.9694 62.3427 19.5133 62.3427 15.2926C62.3427 11.0412 58.7815 7.61569 54.3618 7.61569C49.9739 7.61569 46.3809 11.0412 46.3809 15.2926C46.3809 19.5133 49.9739 22.9694 54.3618 22.9694ZM54.3618 10.6436C57.0327 10.6436 59.1949 12.7234 59.1949 15.2926C59.1949 17.8311 57.0327 19.9415 54.3618 19.9415C51.6909 19.9415 49.5288 17.8311 49.5288 15.2926C49.5288 12.7234 51.6909 10.6436 54.3618 10.6436Z" fill="black"/>
<path d="M54.3618 22.9694C58.7815 22.9694 62.3427 19.5133 62.3427 15.2926C62.3427 11.0412 58.7815 7.61569 54.3618 7.61569C49.9739 7.61569 46.3809 11.0412 46.3809 15.2926C46.3809 19.5133 49.9739 22.9694 54.3618 22.9694ZM54.3618 10.6436C57.0327 10.6436 59.1949 12.7234 59.1949 15.2926C59.1949 17.8311 57.0327 19.9415 54.3618 19.9415C51.6909 19.9415 49.5288 17.8311 49.5288 15.2926C49.5288 12.7234 51.6909 10.6436 54.3618 10.6436Z" fill="url(#paint3_linear)"/>
<path d="M72.1852 7.64628C67.7973 7.64628 64.2043 11.0718 64.2043 15.3231V21.4707C64.2043 22.2965 64.9038 23 65.7941 23C66.6526 23 67.3521 22.2965 67.3521 21.4707V15.3231C67.3521 12.754 69.5143 10.6742 72.1852 10.6742C73.0755 10.6742 73.775 9.97074 73.775 9.14495C73.775 8.31915 73.0755 7.64628 72.1852 7.64628Z" fill="black"/>
<path d="M72.1852 7.64628C67.7973 7.64628 64.2043 11.0718 64.2043 15.3231V21.4707C64.2043 22.2965 64.9038 23 65.7941 23C66.6526 23 67.3521 22.2965 67.3521 21.4707V15.3231C67.3521 12.754 69.5143 10.6742 72.1852 10.6742C73.0755 10.6742 73.775 9.97074 73.775 9.14495C73.775 8.31915 73.0755 7.64628 72.1852 7.64628Z" fill="url(#paint4_linear)"/>
<path d="M81.6255 7.67686C77.1422 7.67686 73.581 11.1024 73.581 15.4149C73.581 19.7274 77.1422 22.9388 81.6255 22.9388C83.4379 22.9388 84.9641 22.5106 86.3313 21.4096C86.3313 22.2965 87.2216 22.9388 87.8576 22.9388C88.7796 22.9388 89.4474 22.2965 89.4474 21.4096V15.4149C89.4474 11.1024 86.1088 7.67686 81.6255 7.67686ZM81.6255 19.9415C78.9546 19.9415 76.697 17.984 76.697 15.4149C76.697 12.8457 78.9546 10.6742 81.6255 10.6742C84.2964 10.6742 86.3313 12.8457 86.3313 15.4149C86.3313 17.984 84.2964 19.9415 81.6255 19.9415Z" fill="black"/>
<path d="M81.6255 7.67686C77.1422 7.67686 73.581 11.1024 73.581 15.4149C73.581 19.7274 77.1422 22.9388 81.6255 22.9388C83.4379 22.9388 84.9641 22.5106 86.3313 21.4096C86.3313 22.2965 87.2216 22.9388 87.8576 22.9388C88.7796 22.9388 89.4474 22.2965 89.4474 21.4096V15.4149C89.4474 11.1024 86.1088 7.67686 81.6255 7.67686ZM81.6255 19.9415C78.9546 19.9415 76.697 17.984 76.697 15.4149C76.697 12.8457 78.9546 10.6742 81.6255 10.6742C84.2964 10.6742 86.3313 12.8457 86.3313 15.4149C86.3313 17.984 84.2964 19.9415 81.6255 19.9415Z" fill="url(#paint5_linear)"/>
<path d="M99.3239 7.61569C94.936 7.61569 91.343 11.0412 91.343 15.2926V21.4402C91.343 22.2965 92.0425 22.9694 92.901 22.9694C93.7913 22.9694 94.4908 22.2965 94.4908 21.4402V15.2926C94.4908 12.7234 96.653 10.6436 99.3239 10.6436C101.995 10.6436 104.157 12.7234 104.157 15.2926V21.4402C104.157 22.2965 104.856 22.9694 105.715 22.9694C106.605 22.9694 107.305 22.2965 107.305 21.4402V15.2926C107.305 11.0412 103.712 7.61569 99.3239 7.61569Z" fill="black"/>
<path d="M99.3239 7.61569C94.936 7.61569 91.343 11.0412 91.343 15.2926V21.4402C91.343 22.2965 92.0425 22.9694 92.901 22.9694C93.7913 22.9694 94.4908 22.2965 94.4908 21.4402V15.2926C94.4908 12.7234 96.653 10.6436 99.3239 10.6436C101.995 10.6436 104.157 12.7234 104.157 15.2926V21.4402C104.157 22.2965 104.856 22.9694 105.715 22.9694C106.605 22.9694 107.305 22.2965 107.305 21.4402V15.2926C107.305 11.0412 103.712 7.61569 99.3239 7.61569Z" fill="url(#paint6_linear)"/>
<path d="M116.41 7.64628H114.153V1.52926C114.153 0.703457 113.453 0.0305847 112.563 0.0305847C111.704 0.0305847 111.005 0.703457 111.005 1.52926V7.64628H108.715C107.857 7.64628 107.157 8.31915 107.157 9.14495C107.157 9.97074 107.857 10.6742 108.715 10.6742H111.005V21.4707C111.005 22.2965 111.704 23 112.563 23C113.453 23 114.153 22.2965 114.153 21.4707V10.6742H116.41C117.3 10.6742 118 9.97074 118 9.14495C118 8.31915 117.3 7.64628 116.41 7.64628Z" fill="black"/>
<path d="M116.41 7.64628H114.153V1.52926C114.153 0.703457 113.453 0.0305847 112.563 0.0305847C111.704 0.0305847 111.005 0.703457 111.005 1.52926V7.64628H108.715C107.857 7.64628 107.157 8.31915 107.157 9.14495C107.157 9.97074 107.857 10.6742 108.715 10.6742H111.005V21.4707C111.005 22.2965 111.704 23 112.563 23C113.453 23 114.153 22.2965 114.153 21.4707V10.6742H116.41C117.3 10.6742 118 9.97074 118 9.14495C118 8.31915 117.3 7.64628 116.41 7.64628Z" fill="url(#paint7_linear)"/>
<path d="M65.5644 7.47289L55.2959 17.4749C55.1117 17.6543 54.8911 17.7764 54.6573 17.842C54.0216 18.148 53.2306 18.005 52.7545 17.4523L48.3684 12.3609C47.8094 11.7119 47.8963 10.7445 48.5626 10.2C49.2287 9.6555 50.222 9.74013 50.781 10.389L54.2409 14.4054L63.4612 5.42429C64.042 4.85857 64.9836 4.85857 65.5644 5.42429C66.1452 5.98996 66.1452 6.90717 65.5644 7.47289Z" fill="url(#paint8_linear)"/>
<defs>
<linearGradient id="paint0_linear" x1="1.248" y1="-4.25133" x2="116.346" y2="15.3752" gradientUnits="userSpaceOnUse">
<stop stop-color="#FF641A"/>
<stop offset="1" stop-color="#3366FF"/>
</linearGradient>
<linearGradient id="paint1_linear" x1="1.248" y1="-4.25133" x2="116.346" y2="15.3752" gradientUnits="userSpaceOnUse">
<stop stop-color="#FF641A"/>
<stop offset="1" stop-color="#3366FF"/>
</linearGradient>
<linearGradient id="paint2_linear" x1="1.248" y1="-4.25133" x2="116.346" y2="15.3752" gradientUnits="userSpaceOnUse">
<stop stop-color="#FF641A"/>
<stop offset="1" stop-color="#3366FF"/>
</linearGradient>
<linearGradient id="paint3_linear" x1="1.248" y1="-4.25133" x2="116.346" y2="15.3752" gradientUnits="userSpaceOnUse">
<stop stop-color="#FF641A"/>
<stop offset="1" stop-color="#3366FF"/>
</linearGradient>
<linearGradient id="paint4_linear" x1="1.248" y1="-4.25133" x2="116.346" y2="15.3752" gradientUnits="userSpaceOnUse">
<stop stop-color="#FF641A"/>
<stop offset="1" stop-color="#3366FF"/>
</linearGradient>
<linearGradient id="paint5_linear" x1="1.248" y1="-4.25133" x2="116.346" y2="15.3752" gradientUnits="userSpaceOnUse">
<stop stop-color="#FF641A"/>
<stop offset="1" stop-color="#3366FF"/>
</linearGradient>
<linearGradient id="paint6_linear" x1="1.248" y1="-4.25133" x2="116.346" y2="15.3752" gradientUnits="userSpaceOnUse">
<stop stop-color="#FF641A"/>
<stop offset="1" stop-color="#3366FF"/>
</linearGradient>
<linearGradient id="paint7_linear" x1="1.248" y1="-4.25133" x2="116.346" y2="15.3752" gradientUnits="userSpaceOnUse">
<stop stop-color="#FF641A"/>
<stop offset="1" stop-color="#3366FF"/>
</linearGradient>
<linearGradient id="paint8_linear" x1="43.3393" y1="2.70773" x2="65.7402" y2="15.6852" gradientUnits="userSpaceOnUse">
<stop stop-color="#FF641A"/>
<stop offset="1" stop-color="#3366FF"/>
</linearGradient>
</defs>
</svg>
