<svg version="1" xmlns="http://www.w3.org/2000/svg" width="1365.333" height="1365.333" viewBox="0 0 1024.000000 1024.000000"><path d="M391 168.6c-9.6 2.6-19.4 10.4-23.7 18.9-5.1 9.9-5 6.9-4.9 116.2.1 56.3-.1 102.3-.3 102.3-.8 0-8.6-5.5-8.9-6.3-.2-.4-1-.7-1.8-.7s-1.4-.5-1.4-1c0-.6-.4-1-1-1-.5 0-2.6-1.1-4.7-2.5-6.8-4.7-27.7-14.3-39.8-18.3-26-8.8-52.4-12-80-9.9-9.4.8-10 .8-23.2 3.2-8 1.5-25.1 6.2-30.9 8.6-1.6.7-3.5 1.3-4.2 1.5-3.3.6-28.6 13.9-36 18.8-38.4 25.5-64.8 59.7-81.1 105.1-2 5.7-5.9 22-7.7 32.5-1.9 10.8-2.6 43.8-1.2 54.5 3.7 28.2 13.3 57.3 25.6 77.5 1.2 1.9 2.5 4.2 2.9 5 .4.8 1.8 3.1 3.2 5.1 1.4 2 3.3 4.7 4.1 5.9 9.7 14.6 28.2 33.5 44.7 45.8 27.1 20 59.9 33.4 92.3 37.7 2.5.3 5.9.9 7.5 1.1 3.8.7 32.5.7 38.5 0 12.8-1.5 13.6-1.6 22.5-3.5 31-6.5 62.8-21.9 86.9-41.9 7.3-6.1 26.6-26.3 32-33.5 16.3-21.9 28.4-46.4 34.6-70.4 2.3-8.8 2.5-9.8 4.6-21.7 1.6-9 1.9-40.1 1.9-207.6 0-214.6.7-196-7.3-206.5-10.2-13.4-27.1-19.3-43.2-14.9zM257.5 446.4c26.5 3.9 49.4 15.4 68.5 34.6 11.2 11.2 12 12.2 18 22 7.1 11.5 12.2 23.7 15.2 36 1.6 6.9 3.5 24.8 3.2 29.9-1.1 15.3-1.6 19.4-3.4 26.7-6.5 27.3-21.1 50.1-44 68.8-11.4 9.3-32.4 19.1-48.5 22.6-14.6 3.3-34.8 3.3-51.2.1-10.6-2.1-35.1-11.8-36.1-14.3-.2-.4-.8-.8-1.4-.8-.9 0-7.1-4.1-12.8-8.5-6.1-4.8-20.1-19.8-24.7-26.6-10.1-14.9-17-31.5-19.8-47.4-.4-2.2-.9-5.1-1.2-6.5-.7-3.5-.6-27.9.1-31.5.3-1.7.9-4.6 1.2-6.5 1.5-10 6.9-25.5 12-34.7 1.5-2.6 3.2-5.7 3.8-6.8 5-9 20.2-25.8 29.1-32.3 2.8-2 5.2-3.9 5.5-4.2 1.1-1.3 10.9-6.9 18-10.2 7.9-3.8 21.7-8.3 28.5-9.4 2.2-.3 6-.9 8.5-1.3 5.5-.8 24.7-.6 31.5.3zM934.9 297.1c-2.8 1-6.4 2.6-8 3.7-1.6 1-27.4 26.2-57.3 56S814.8 411 814.3 411c-.6 0-1.6-.7-2.3-1.5-2.6-3.1-24.2-16.6-35.1-21.8-21.6-10.5-39.9-15.7-66.4-19.3-2.7-.4-11.5-.8-19.5-.9-33.2-.5-64 6.7-93.8 21.9-9.2 4.8-23.2 13.3-28.2 17.2-32.3 25.4-54.1 54-68 88.8-2.9 7.4-7.6 22.9-8.6 28.3-.3 1.5-1.1 5.7-1.9 9.3-2.1 10-2.9 20-2.9 36 0 13.4 1.1 30.6 2 32.1.2.4.6 2.4 1 4.5 2.1 14.3 8.8 34.3 17 51.3 5.8 11.8 17.7 31.3 21.6 35.2.8.8 1.9 2.1 2.4 3 4 7.2 29.5 31 42.9 40.2 20.9 14.3 48.3 26.2 71.5 31.1 27 5.8 58 5.8 85 .1 7.6-1.6 27.3-7.5 32.6-9.8 30.8-13.3 56.8-32 76.6-55.1 13.7-16 18.3-22.8 28.3-42.1 7.4-14.4 15.4-36.9 17.1-48.5.3-1.9 1-5.4 1.5-7.6 2.3-11 3.3-44 1.7-57.4-3-24.6-10-47.6-20.8-68.7l-4.7-9.1 57.7-57.9c55-55 57.9-58.1 60-63.8 5.3-14.2 2.5-29.6-7.4-40.3-9-9.6-25.8-13.6-38.7-9.1zM717.1 450.3c5.2 1.4 12.7 3.7 16.5 5.2 7.7 3.1 23.4 11.6 23.4 12.8 0 1-65.8 66.7-66.9 66.7-.5 0-2.9-2.4-5.2-5.3-2.4-2.8-4.6-5.4-4.9-5.7-.3-.3-3.9-4.6-8-9.5-4.1-5-7.7-9.2-8-9.5-.3-.3-6.1-7.3-13-15.5-6.9-8.3-13-15.6-13.7-16.3-3.3-3.4-8.5-10.3-8.2-10.7.3-.2 3.6-1.9 7.4-3.8 9.8-4.8 22.6-8.8 32.5-10.2 2.5-.4 4.7-.8 4.9-1 .2-.3 7.8-.3 17-.1 13.8.3 18.2.8 26.2 2.9zm-131 84.3c5.2 6.1 11.2 13.3 13.4 15.9 2.2 2.7 4.5 5.3 5 5.9.6.6 6.6 7.8 13.5 16.1 6.8 8.2 12.7 15.2 13 15.5.3.3 2.8 3.2 5.5 6.5 2.8 3.3 5.2 6.2 5.5 6.5.3.3 3.5 4.1 7.2 8.6 10.2 12.3 18.6 17.2 31.4 18.1 6.2.5 8.5.1 15.6-2.2 4.6-1.5 10.3-3.9 12.8-5.3 2.4-1.5 24.4-22.5 49.4-47.5l45-44.9 1.3 3.8c7.4 21.1 7.5 51.9.1 74.4-2 6.2-9.3 22.3-12 26.5-13.5 20.8-30.1 36-51.4 46.8-7.3 3.7-23.7 9-31.4 10.2-34.1 5-61.8-.9-89-19.1-29.6-19.9-48.8-51-53.6-86.9-1.5-10.7-.3-32.5 2.2-40.7.3-.9.7-2.7.9-4 .7-4.1 4.9-15.8 5.6-15.6.3.2 4.8 5.3 10 11.4z"/></svg>