<svg width="24" height="24" viewBox="0 0 24 24" fill="none" xmlns="http://www.w3.org/2000/svg">
<path d="M9.50211 12L4.53677 16.9653C4.20204 17.3001 4.20204 17.8428 4.53677 18.1775C4.87151 18.5122 5.41422 18.5122 5.74895 18.1775L11.3204 12.6061C11.6551 12.2713 11.6551 11.7286 11.3204 11.3939L5.74895 5.82246C5.41422 5.48773 4.87151 5.48773 4.53677 5.82246C4.20204 6.1572 4.20204 6.69991 4.53677 7.03465L9.50211 12Z" fill="#D9DBDE"/>
<path d="M18.0735 12L13.1082 16.9653C12.7735 17.3001 12.7735 17.8428 13.1082 18.1775C13.4429 18.5122 13.9856 18.5122 14.3204 18.1775L19.8918 12.6061C20.2265 12.2713 20.2265 11.7286 19.8918 11.3939L14.3204 5.82246C13.9856 5.48773 13.4429 5.48773 13.1082 5.82246C12.7735 6.1572 12.7735 6.69991 13.1082 7.03465L18.0735 12Z" fill="#D9DBDE"/>
</svg>
