<svg width="24" height="24" viewBox="0 0 24 24" fill="none" xmlns="http://www.w3.org/2000/svg">
<path d="M14.4979 12L19.4632 7.03468C19.798 6.69994 19.798 6.15723 19.4632 5.82249C19.1285 5.48776 18.5858 5.48776 18.251 5.82249L12.6796 11.3939C12.3449 11.7287 12.3449 12.2714 12.6796 12.6061L18.251 18.1775C18.5858 18.5123 19.1285 18.5123 19.4632 18.1775C19.798 17.8428 19.798 17.3001 19.4632 16.9654L14.4979 12Z" fill="#D9DBDE"/>
<path d="M5.92646 12L10.8918 7.03468C11.2265 6.69994 11.2265 6.15723 10.8918 5.82249C10.5571 5.48776 10.0144 5.48776 9.67962 5.82249L4.10819 11.3939C3.77346 11.7287 3.77346 12.2714 4.10819 12.6061L9.67962 18.1775C10.0144 18.5123 10.5571 18.5123 10.8918 18.1775C11.2265 17.8428 11.2265 17.3001 10.8918 16.9654L5.92646 12Z" fill="#D9DBDE"/>
</svg>
