<svg width="32" height="32" viewBox="0 0 32 32" fill="none" xmlns="http://www.w3.org/2000/svg">
<path d="M22.7782 6.80758C23.3305 6.80758 23.7782 7.25529 23.7782 7.80758L23.7782 12.0502C23.7782 12.6025 23.3305 13.0502 22.7782 13.0502L18.5356 13.0502C17.9833 13.0502 17.5356 12.6025 17.5356 12.0502C17.5356 11.4979 17.9833 11.0502 18.5356 11.0502L20.3473 11.0494C17.2066 8.2222 12.3662 8.32011 9.34316 11.3431C6.21897 14.4673 6.21897 19.5326 9.34316 22.6568C12.4674 25.781 17.5327 25.781 20.6569 22.6568C22.0674 21.2463 22.8783 19.4007 22.9875 17.4497C23.0183 16.8983 23.4903 16.4763 24.0417 16.5071C24.5932 16.538 25.0152 17.01 24.9843 17.5614C24.848 19.9988 23.8328 22.3093 22.0711 24.071C18.1658 27.9763 11.8342 27.9763 7.92895 24.071C4.02371 20.1658 4.02371 13.8341 7.92895 9.9289C11.7378 6.12009 17.8546 6.02604 21.7774 9.64676L21.7782 7.80758C21.7782 7.25529 22.2259 6.80758 22.7782 6.80758Z" fill="#3366FF"/>
</svg>
