<?xml version="1.0" encoding="UTF-8" standalone="no"?><!-- Generator: Gravit.io --><svg xmlns="http://www.w3.org/2000/svg" xmlns:xlink="http://www.w3.org/1999/xlink" style="isolation:isolate" viewBox="0 0 206.667 80" width="206.667pt" height="80pt"><defs><clipPath id="_clipPath_SgWPCGJ8H1r9Ix8nwPIMLVGinx6MM99Z"><rect width="206.667" height="80"/></clipPath></defs><g clip-path="url(#_clipPath_SgWPCGJ8H1r9Ix8nwPIMLVGinx6MM99Z)"><g><path d=" M 186.667 66.667 L 20 66.667 C 16.333 66.667 13.333 63.667 13.333 60 L 13.333 20 C 13.333 16.333 16.333 13.333 20 13.333 L 186.667 13.333 C 190.333 13.333 193.333 16.333 193.333 20 L 193.333 60 C 193.333 63.667 190.333 66.667 186.667 66.667 Z " fill="rgb(0,0,0)"/><path d=" M 186.667 13.333 L 20 13.333 C 16.333 13.333 13.333 16.333 13.333 20 L 13.333 60 C 13.333 63.667 16.333 66.667 20 66.667 L 186.667 66.667 C 190.333 66.667 193.333 63.667 193.333 60 L 193.333 20 C 193.333 16.333 190.333 13.333 186.667 13.333 Z  M 186.667 14.4 C 189.755 14.4 192.267 16.913 192.267 20 L 192.267 60 C 192.267 63.088 189.755 65.601 186.667 65.601 L 20 65.601 C 16.913 65.601 14.4 63.088 14.4 60 L 14.4 20 C 14.4 16.913 16.913 14.4 20 14.4 L 186.667 14.4 Z " fill="rgb(166,166,166)"/><path d=" M 76.558 26.991 C 76.558 28.108 76.227 28.998 75.565 29.661 C 74.812 30.451 73.831 30.845 72.625 30.845 C 71.471 30.845 70.489 30.445 69.682 29.644 C 68.873 28.844 68.469 27.851 68.469 26.667 C 68.469 25.482 68.873 24.49 69.682 23.689 C 70.489 22.888 71.471 22.487 72.625 22.487 C 73.198 22.487 73.747 22.599 74.268 22.823 C 74.789 23.047 75.206 23.344 75.519 23.717 L 74.816 24.42 C 74.286 23.787 73.557 23.471 72.625 23.471 C 71.783 23.471 71.055 23.767 70.441 24.359 C 69.826 24.952 69.519 25.721 69.519 26.667 C 69.519 27.613 69.826 28.381 70.441 28.974 C 71.055 29.566 71.783 29.862 72.625 29.862 C 73.519 29.862 74.264 29.565 74.86 28.969 C 75.247 28.581 75.471 28.041 75.531 27.348 L 72.625 27.348 L 72.625 26.387 L 76.502 26.387 C 76.54 26.596 76.558 26.797 76.558 26.991" fill="rgb(255,255,255)"/><path d=" M 76.558 26.991 L 76.425 26.991 C 76.423 28.083 76.105 28.931 75.47 29.567 L 75.469 29.568 L 75.468 29.569 C 74.74 30.331 73.803 30.71 72.625 30.712 C 71.502 30.71 70.561 30.327 69.775 29.55 C 68.992 28.771 68.604 27.821 68.603 26.667 C 68.604 25.512 68.992 24.562 69.775 23.784 C 70.561 23.006 71.502 22.622 72.625 22.621 C 73.181 22.621 73.71 22.729 74.215 22.945 C 74.72 23.163 75.119 23.448 75.417 23.803 L 75.519 23.717 L 75.425 23.622 L 74.721 24.327 L 74.816 24.42 L 74.918 24.335 C 74.364 23.671 73.586 23.336 72.625 23.338 C 71.752 23.337 70.984 23.649 70.348 24.264 C 69.707 24.88 69.384 25.692 69.385 26.667 C 69.384 27.641 69.707 28.453 70.348 29.07 C 70.984 29.684 71.752 29.996 72.625 29.995 C 73.548 29.997 74.335 29.684 74.954 29.063 L 74.954 29.063 C 75.368 28.648 75.602 28.074 75.664 27.36 L 75.676 27.215 L 72.759 27.215 L 72.759 26.521 L 76.502 26.521 L 76.502 26.387 L 76.371 26.411 C 76.407 26.613 76.425 26.805 76.425 26.991 L 76.558 26.991 L 76.691 26.991 C 76.691 26.789 76.672 26.58 76.633 26.364 L 76.614 26.254 L 72.492 26.254 L 72.492 27.348 L 72.492 27.482 L 75.531 27.482 L 75.531 27.348 L 75.398 27.337 C 75.339 28.008 75.125 28.513 74.766 28.875 L 74.766 28.875 C 74.193 29.445 73.49 29.727 72.625 29.729 C 71.815 29.728 71.127 29.448 70.533 28.878 C 69.946 28.31 69.654 27.584 69.652 26.667 C 69.654 25.749 69.946 25.023 70.533 24.455 C 71.127 23.885 71.815 23.606 72.625 23.605 C 73.527 23.607 74.208 23.905 74.714 24.506 L 74.807 24.618 L 75.613 23.811 L 75.699 23.725 L 75.621 23.631 C 75.293 23.241 74.857 22.931 74.32 22.701 C 73.783 22.47 73.216 22.354 72.625 22.354 C 71.44 22.353 70.417 22.77 69.587 23.594 C 68.755 24.417 68.335 25.452 68.336 26.667 C 68.335 27.881 68.755 28.916 69.588 29.74 C 70.417 30.564 71.44 30.98 72.625 30.979 C 73.86 30.98 74.884 30.57 75.661 29.754 L 75.565 29.661 L 75.659 29.756 C 76.349 29.066 76.692 28.133 76.691 26.991 L 76.558 26.991 Z " fill="rgb(255,255,255)"/><path d=" M 82.704 23.649 L 79.06 23.649 L 79.06 26.186 L 82.346 26.186 L 82.346 27.147 L 79.06 27.147 L 79.06 29.684 L 82.704 29.684 L 82.704 30.667 L 78.033 30.667 L 78.033 22.667 L 82.704 22.667 L 82.704 23.649 Z " fill="rgb(255,255,255)"/><path d=" M 82.704 23.649 L 82.704 23.516 L 78.927 23.516 L 78.927 26.319 L 82.213 26.319 L 82.213 27.014 L 78.927 27.014 L 78.927 29.817 L 82.57 29.817 L 82.57 30.533 L 78.167 30.533 L 78.167 22.8 L 82.57 22.8 L 82.57 23.649 L 82.704 23.649 L 82.704 23.516 L 82.704 23.649 L 82.837 23.649 L 82.837 22.667 L 82.837 22.533 L 77.9 22.533 L 77.9 30.8 L 82.837 30.8 L 82.837 29.684 L 82.837 29.551 L 79.194 29.551 L 79.194 27.281 L 82.479 27.281 L 82.479 26.186 L 82.479 26.053 L 79.194 26.053 L 79.194 23.783 L 82.837 23.783 L 82.837 23.649 L 82.704 23.649" fill="rgb(255,255,255)"/><path d=" M 87.039 30.667 L 86.01 30.667 L 86.01 23.649 L 83.775 23.649 L 83.775 22.667 L 89.273 22.667 L 89.273 23.649 L 87.039 23.649 L 87.039 30.667 Z " fill="rgb(255,255,255)"/><path d=" M 87.039 30.667 L 87.039 30.533 L 86.143 30.533 L 86.143 23.516 L 83.909 23.516 L 83.909 22.8 L 89.14 22.8 L 89.14 23.516 L 86.905 23.516 L 86.905 30.667 L 87.039 30.667 L 87.039 30.533 L 87.039 30.667 L 87.172 30.667 L 87.172 23.783 L 89.406 23.783 L 89.406 22.667 L 89.406 22.533 L 83.642 22.533 L 83.642 23.649 L 83.642 23.783 L 85.877 23.783 L 85.877 30.8 L 87.039 30.8 L 87.172 30.8 L 87.172 30.667 L 87.039 30.667" fill="rgb(255,255,255)"/><path d=" M 93.251 30.667 L 93.251 22.667 L 94.278 22.667 L 94.278 30.667 L 93.251 30.667 Z " fill="rgb(255,255,255)"/><path d=" M 93.251 30.667 L 93.384 30.667 L 93.384 22.8 L 94.145 22.8 L 94.145 30.533 L 93.251 30.533 L 93.251 30.667 L 93.384 30.667 L 93.251 30.667 L 93.251 30.8 L 94.278 30.8 L 94.411 30.8 L 94.411 22.533 L 93.251 22.533 L 93.117 22.533 L 93.117 30.8 L 93.251 30.8 L 93.251 30.667 Z " fill="rgb(255,255,255)"/><path d=" M 98.838 30.667 L 97.809 30.667 L 97.809 23.649 L 95.575 23.649 L 95.575 22.667 L 101.072 22.667 L 101.072 23.649 L 98.838 23.649 L 98.838 30.667 Z " fill="rgb(255,255,255)"/><path d=" M 98.838 30.667 L 98.838 30.533 L 97.943 30.533 L 97.943 23.516 L 95.708 23.516 L 95.708 22.8 L 100.939 22.8 L 100.939 23.516 L 98.705 23.516 L 98.705 30.667 L 98.838 30.667 L 98.838 30.533 L 98.838 30.667 L 98.971 30.667 L 98.971 23.783 L 101.206 23.783 L 101.206 22.667 L 101.206 22.533 L 95.442 22.533 L 95.442 23.649 L 95.442 23.783 L 97.676 23.783 L 97.676 30.8 L 98.838 30.8 L 98.971 30.8 L 98.971 30.667 L 98.838 30.667" fill="rgb(255,255,255)"/><path d=" M 106.372 28.963 C 106.965 29.563 107.689 29.862 108.546 29.862 C 109.403 29.862 110.128 29.563 110.719 28.963 C 111.311 28.364 111.608 27.597 111.608 26.667 C 111.608 25.736 111.311 24.97 110.719 24.37 C 110.128 23.771 109.403 23.471 108.546 23.471 C 107.689 23.471 106.965 23.771 106.372 24.37 C 105.781 24.97 105.484 25.736 105.484 26.667 C 105.484 27.597 105.781 28.364 106.372 28.963 Z  M 111.479 29.633 C 110.693 30.442 109.715 30.845 108.546 30.845 C 107.376 30.845 106.398 30.442 105.614 29.633 C 104.827 28.825 104.435 27.836 104.435 26.667 C 104.435 25.497 104.827 24.508 105.614 23.701 C 106.398 22.892 107.376 22.487 108.546 22.487 C 109.708 22.487 110.684 22.894 111.474 23.706 C 112.263 24.518 112.658 25.505 112.658 26.667 C 112.658 27.836 112.264 28.825 111.479 29.633 Z " fill="rgb(255,255,255)"/><path d=" M 106.372 28.963 L 106.278 29.057 C 106.892 29.68 107.658 29.997 108.546 29.995 C 109.433 29.997 110.201 29.68 110.814 29.057 C 111.432 28.433 111.743 27.625 111.742 26.667 C 111.743 25.708 111.432 24.901 110.814 24.277 L 110.814 24.277 C 110.201 23.653 109.433 23.336 108.546 23.338 C 107.658 23.336 106.892 23.653 106.278 24.277 L 106.278 24.277 C 105.661 24.901 105.349 25.708 105.351 26.667 C 105.349 27.625 105.661 28.433 106.278 29.057 L 106.372 28.963 L 106.467 28.869 C 105.902 28.294 105.619 27.57 105.618 26.667 C 105.619 25.764 105.902 25.04 106.467 24.464 L 106.467 24.464 C 107.038 23.889 107.72 23.606 108.546 23.605 C 109.371 23.606 110.055 23.889 110.624 24.464 L 110.624 24.464 C 111.191 25.04 111.473 25.764 111.475 26.667 C 111.473 27.57 111.191 28.294 110.624 28.869 C 110.055 29.445 109.371 29.727 108.546 29.729 C 107.72 29.727 107.038 29.445 106.467 28.869 L 106.372 28.963 Z  M 111.479 29.633 L 111.384 29.54 C 110.619 30.323 109.684 30.71 108.546 30.712 C 107.407 30.71 106.472 30.323 105.709 29.54 L 105.705 29.536 L 105.709 29.54 C 104.946 28.754 104.569 27.806 104.568 26.667 C 104.569 25.527 104.946 24.579 105.709 23.793 L 105.709 23.793 C 106.472 23.01 107.407 22.622 108.546 22.621 C 109.677 22.622 110.61 23.011 111.379 23.799 C 112.144 24.589 112.523 25.535 112.525 26.667 C 112.523 27.806 112.145 28.754 111.384 29.54 L 111.479 29.633 L 111.575 29.725 C 112.383 28.895 112.792 27.866 112.791 26.667 C 112.792 25.475 112.382 24.447 111.57 23.613 C 110.757 22.776 109.74 22.353 108.546 22.354 C 107.346 22.353 106.325 22.774 105.518 23.608 L 105.518 23.607 C 104.708 24.438 104.301 25.468 104.302 26.667 C 104.301 27.866 104.708 28.895 105.518 29.726 L 105.521 29.73 L 105.518 29.725 C 106.325 30.559 107.346 30.98 108.546 30.979 C 109.745 30.98 110.766 30.559 111.575 29.725 L 111.479 29.633" fill="rgb(255,255,255)"/><path d=" M 114.101 30.667 L 114.101 22.667 L 115.352 22.667 L 119.24 28.89 L 119.284 28.89 L 119.24 27.348 L 119.24 22.667 L 120.268 22.667 L 120.268 30.667 L 119.195 30.667 L 115.128 24.142 L 115.083 24.142 L 115.128 25.684 L 115.128 30.667 L 114.101 30.667 Z " fill="rgb(255,255,255)"/><path d=" M 114.101 30.667 L 114.234 30.667 L 114.234 22.8 L 115.278 22.8 L 119.166 29.023 L 119.284 29.023 L 119.421 29.023 L 119.373 27.346 L 119.373 22.8 L 120.135 22.8 L 120.135 30.533 L 119.269 30.533 L 115.202 24.008 L 115.083 24.008 L 114.946 24.008 L 114.994 25.686 L 114.994 30.533 L 114.101 30.533 L 114.101 30.667 L 114.234 30.667 L 114.101 30.667 L 114.101 30.8 L 115.128 30.8 L 115.261 30.8 L 115.261 25.682 L 115.217 24.138 L 115.083 24.142 L 115.083 24.275 L 115.128 24.275 L 115.128 24.142 L 115.015 24.213 L 119.121 30.8 L 120.268 30.8 L 120.402 30.8 L 120.402 22.533 L 119.24 22.533 L 119.106 22.533 L 119.106 27.35 L 119.151 28.894 L 119.284 28.89 L 119.284 28.757 L 119.24 28.757 L 119.24 28.89 L 119.353 28.819 L 115.425 22.533 L 114.101 22.533 L 113.967 22.533 L 113.967 30.8 L 114.101 30.8 L 114.101 30.667 Z " fill="rgb(255,255,255)"/><path d=" M 155.915 53.333 L 158.403 53.333 L 158.403 36.665 L 155.915 36.665 L 155.915 53.333 Z  M 178.324 42.669 L 175.472 49.896 L 175.387 49.896 L 172.427 42.669 L 169.747 42.669 L 174.185 52.77 L 171.655 58.388 L 174.251 58.388 L 181.091 42.669 L 178.324 42.669 Z  M 164.215 51.44 C 163.399 51.44 162.263 51.033 162.263 50.025 C 162.263 48.738 163.679 48.245 164.9 48.245 C 165.995 48.245 166.508 48.481 167.173 48.803 C 166.98 50.346 165.651 51.44 164.215 51.44 L 164.215 51.44 Z  M 164.515 42.305 C 162.713 42.305 160.848 43.098 160.076 44.857 L 162.284 45.779 C 162.756 44.857 163.635 44.556 164.557 44.556 C 165.844 44.556 167.152 45.329 167.173 46.701 L 167.173 46.872 C 166.723 46.615 165.759 46.229 164.579 46.229 C 162.199 46.229 159.775 47.537 159.775 49.982 C 159.775 52.212 161.727 53.649 163.913 53.649 C 165.587 53.649 166.508 52.898 167.088 52.019 L 167.173 52.019 L 167.173 53.306 L 169.575 53.306 L 169.575 46.915 C 169.575 43.956 167.367 42.305 164.515 42.305 L 164.515 42.305 Z  M 149.139 44.698 L 145.6 44.698 L 145.6 38.985 L 149.139 38.985 C 150.999 38.985 152.055 40.525 152.055 41.842 C 152.055 43.133 150.999 44.698 149.139 44.698 Z  M 149.075 36.665 L 143.113 36.665 L 143.113 53.333 L 145.6 53.333 L 145.6 47.018 L 149.075 47.018 C 151.832 47.018 154.543 45.022 154.543 41.842 C 154.543 38.661 151.832 36.665 149.075 36.665 Z  M 116.567 51.443 C 114.848 51.443 113.409 50.004 113.409 48.028 C 113.409 46.03 114.848 44.569 116.567 44.569 C 118.264 44.569 119.595 46.03 119.595 48.028 C 119.595 50.004 118.264 51.443 116.567 51.443 L 116.567 51.443 Z  M 119.423 43.603 L 119.337 43.603 C 118.779 42.937 117.705 42.335 116.352 42.335 C 113.516 42.335 110.917 44.827 110.917 48.028 C 110.917 51.207 113.516 53.677 116.352 53.677 C 117.705 53.677 118.779 53.075 119.337 52.389 L 119.423 52.389 L 119.423 53.205 C 119.423 55.375 118.264 56.534 116.395 56.534 C 114.87 56.534 113.925 55.439 113.537 54.515 L 111.368 55.417 C 111.991 56.921 113.645 58.768 116.395 58.768 C 119.316 58.768 121.786 57.049 121.786 52.861 L 121.786 42.679 L 119.423 42.679 L 119.423 43.603 Z  M 123.505 53.333 L 125.996 53.333 L 125.996 36.665 L 123.505 36.665 L 123.505 53.333 Z  M 129.67 47.834 C 129.605 45.643 131.367 44.527 132.634 44.527 C 133.623 44.527 134.46 45.02 134.739 45.73 L 129.67 47.834 Z  M 137.403 45.944 C 136.931 44.677 135.491 42.335 132.548 42.335 C 129.627 42.335 127.199 44.634 127.199 48.006 C 127.199 51.185 129.605 53.677 132.827 53.677 C 135.427 53.677 136.931 52.087 137.553 51.164 L 135.62 49.875 C 134.976 50.82 134.095 51.443 132.827 51.443 C 131.56 51.443 130.658 50.863 130.078 49.725 L 137.66 46.589 L 137.403 45.944 Z  M 76.992 44.075 L 76.992 46.481 L 82.748 46.481 C 82.577 47.834 82.125 48.822 81.438 49.51 C 80.601 50.348 79.29 51.271 76.992 51.271 C 73.447 51.271 70.677 48.415 70.677 44.87 C 70.677 41.326 73.447 38.469 76.992 38.469 C 78.904 38.469 80.299 39.221 81.331 40.187 L 83.028 38.491 C 81.589 37.116 79.677 36.063 76.992 36.063 C 72.137 36.063 68.056 40.016 68.056 44.87 C 68.056 49.725 72.137 53.677 76.992 53.677 C 79.613 53.677 81.589 52.818 83.135 51.207 C 84.725 49.617 85.219 47.383 85.219 45.579 C 85.219 45.02 85.176 44.505 85.09 44.075 L 76.992 44.075 Z  M 91.764 51.443 C 90.045 51.443 88.563 50.025 88.563 48.006 C 88.563 45.966 90.045 44.569 91.764 44.569 C 93.482 44.569 94.964 45.966 94.964 48.006 C 94.964 50.025 93.482 51.443 91.764 51.443 L 91.764 51.443 Z  M 91.764 42.335 C 88.627 42.335 86.071 44.72 86.071 48.006 C 86.071 51.271 88.627 53.677 91.764 53.677 C 94.899 53.677 97.456 51.271 97.456 48.006 C 97.456 44.72 94.899 42.335 91.764 42.335 Z  M 104.181 51.443 C 102.463 51.443 100.981 50.025 100.981 48.006 C 100.981 45.966 102.463 44.569 104.181 44.569 C 105.899 44.569 107.382 45.966 107.382 48.006 C 107.382 50.025 105.899 51.443 104.181 51.443 Z  M 104.181 42.335 C 101.045 42.335 98.489 44.72 98.489 48.006 C 98.489 51.271 101.045 53.677 104.181 53.677 C 107.317 53.677 109.873 51.271 109.873 48.006 C 109.873 44.72 107.317 42.335 104.181 42.335 Z " fill="rgb(255,255,255)"/><g><clipPath id="_clipPath_SfdbhaJ8cpnRtK41sGTKsnrvIj67R4fH"><path d=" M 27.346 56.519 L 27.247 56.425 C 26.859 56.014 26.63 55.377 26.63 54.551 L 26.63 54.745 L 26.63 54.745 L 26.63 25.257 C 26.63 25.255 26.63 25.253 26.63 25.251 C 26.63 25.253 26.63 25.255 26.63 25.258 L 26.63 25.453 C 26.63 24.559 26.897 23.885 27.345 23.482 L 43.865 40.001 L 27.346 56.519 Z  M 26.63 25.249 C 26.63 25.175 26.632 25.104 26.636 25.034 C 26.632 25.104 26.63 25.175 26.63 25.249 Z  M 26.636 25.031 C 26.636 25.03 26.636 25.029 26.636 25.028 C 26.636 25.029 26.636 25.03 26.636 25.031 Z  M 26.636 25.021 C 26.636 25.021 26.636 25.02 26.636 25.02 C 26.636 25.02 26.636 25.021 26.636 25.021 Z " fill="rgb(255,255,255)"/></clipPath><g clip-path="url(#_clipPath_SfdbhaJ8cpnRtK41sGTKsnrvIj67R4fH)"><g><linearGradient id="_lgradient_0" x1="0.9150065373635474" y1="0.9556707105439463" x2="-0.12049917872697291" y2="-0.0798350055465743" gradientTransform="matrix(17.234,0,0,-33.038,26.63,56.519)" gradientUnits="userSpaceOnUse"><stop offset="0%" stop-opacity="1" style="stop-color:rgb(0,160,255)"/><stop offset="0.657445%" stop-opacity="1" style="stop-color:rgb(0,161,255)"/><stop offset="26.009999999999998%" stop-opacity="1" style="stop-color:rgb(0,190,255)"/><stop offset="51.22%" stop-opacity="1" style="stop-color:rgb(0,210,255)"/><stop offset="76.03999999999999%" stop-opacity="1" style="stop-color:rgb(0,223,255)"/><stop offset="100%" stop-opacity="1" style="stop-color:rgb(0,227,255)"/></linearGradient><path d=" M 27.346 56.519 L 27.247 56.425 C 26.859 56.014 26.63 55.377 26.63 54.551 L 26.63 54.745 L 26.63 54.745 L 26.63 25.257 C 26.63 25.255 26.63 25.253 26.63 25.251 C 26.63 25.253 26.63 25.255 26.63 25.258 L 26.63 25.453 C 26.63 24.559 26.897 23.885 27.345 23.482 L 43.865 40.001 L 27.346 56.519 Z  M 26.63 25.249 C 26.63 25.175 26.632 25.104 26.636 25.034 C 26.632 25.104 26.63 25.175 26.63 25.249 Z  M 26.636 25.031 C 26.636 25.03 26.636 25.029 26.636 25.028 C 26.636 25.029 26.636 25.03 26.636 25.031 Z  M 26.636 25.021 C 26.636 25.021 26.636 25.02 26.636 25.02 C 26.636 25.02 26.636 25.021 26.636 25.021 Z " fill="url(#_lgradient_0)"/></g></g></g><g><clipPath id="_clipPath_7ZFBC8p37iVBgVsXWjmPtNj2X4ahg3Ta"><path d=" M 49.37 45.705 L 49.37 45.705 L 49.496 45.633 L 56.02 41.927 C 56.642 41.573 57.056 41.144 57.263 40.691 C 57.057 41.144 56.642 41.573 56.02 41.927 L 49.496 45.634 L 49.37 45.705 M 49.372 45.509 L 43.865 40.001 L 49.371 34.494 L 56.02 38.271 C 56.864 38.751 57.338 39.369 57.417 40.001 C 57.417 40.001 57.417 40.002 57.417 40.003 C 57.338 40.633 56.864 41.252 56.02 41.732 L 49.372 45.509" fill="rgb(255,255,255)"/></clipPath><g clip-path="url(#_clipPath_7ZFBC8p37iVBgVsXWjmPtNj2X4ahg3Ta)"><g><linearGradient id="_lgradient_1" x1="1.0759014216144425" y1="0.5086820009038799" x2="-1.3046386934920564" y2="0.5086820009038796" gradientTransform="matrix(13.553,0,0,-11.211,43.865,45.705)" gradientUnits="userSpaceOnUse"><stop offset="0%" stop-opacity="1" style="stop-color:rgb(255,224,0)"/><stop offset="40.87%" stop-opacity="1" style="stop-color:rgb(255,189,0)"/><stop offset="77.53999999999999%" stop-opacity="1" style="stop-color:rgb(255,165,0)"/><stop offset="100%" stop-opacity="1" style="stop-color:rgb(255,156,0)"/></linearGradient><path d=" M 49.37 45.705 L 49.37 45.705 L 49.496 45.633 L 56.02 41.927 C 56.642 41.573 57.056 41.144 57.263 40.691 C 57.057 41.144 56.642 41.573 56.02 41.927 L 49.496 45.634 L 49.37 45.705 M 49.372 45.509 L 43.865 40.001 L 49.371 34.494 L 56.02 38.271 C 56.864 38.751 57.338 39.369 57.417 40.001 C 57.417 40.001 57.417 40.002 57.417 40.003 C 57.338 40.633 56.864 41.252 56.02 41.732 L 49.372 45.509" fill="url(#_lgradient_1)"/></g></g></g><g><clipPath id="_clipPath_aZqauib9sfhKS2u1RQJUh10G66o89qQC"><path d=" M 28.524 57.148 C 28.063 57.148 27.66 56.998 27.346 56.715 L 27.346 56.715 C 27.66 56.998 28.064 57.148 28.525 57.148 C 28.565 57.148 28.606 57.147 28.647 57.145 C 28.605 57.147 28.564 57.148 28.524 57.148 M 28.525 56.953 C 28.063 56.954 27.66 56.803 27.346 56.52 L 27.346 56.52 L 27.346 56.519 L 43.865 40.001 L 49.372 45.509 L 49.372 45.509 L 30.018 56.506 C 29.483 56.809 28.975 56.953 28.525 56.953 M 27.342 56.711 C 27.313 56.685 27.284 56.657 27.256 56.628 L 27.342 56.711 Z " fill="rgb(255,255,255)"/></clipPath><g clip-path="url(#_clipPath_aZqauib9sfhKS2u1RQJUh10G66o89qQC)"><g><linearGradient id="_lgradient_2" x1="0.8672522623002215" y1="0.8215232689242253" x2="-0.5047958956056213" y2="-0.5505248889816177" gradientTransform="matrix(22.116,0,0,-17.147,27.256,57.148)" gradientUnits="userSpaceOnUse"><stop offset="0%" stop-opacity="1" style="stop-color:rgb(255,58,68)"/><stop offset="100%" stop-opacity="1" style="stop-color:rgb(195,17,98)"/></linearGradient><path d=" M 28.524 57.148 C 28.063 57.148 27.66 56.998 27.346 56.715 L 27.346 56.715 C 27.66 56.998 28.064 57.148 28.525 57.148 C 28.565 57.148 28.606 57.147 28.647 57.145 C 28.605 57.147 28.564 57.148 28.524 57.148 M 28.525 56.953 C 28.063 56.954 27.66 56.803 27.346 56.52 L 27.346 56.52 L 27.346 56.519 L 43.865 40.001 L 49.372 45.509 L 49.372 45.509 L 30.018 56.506 C 29.483 56.809 28.975 56.953 28.525 56.953 M 27.342 56.711 C 27.313 56.685 27.284 56.657 27.256 56.628 L 27.342 56.711 Z " fill="url(#_lgradient_2)"/></g></g></g><g><clipPath id="_clipPath_MKFCPJeCW5OCCzs9VYqYILtp5zyCkhJG"><path d=" M 43.865 40.001 L 43.865 40.001 L 27.345 23.482 C 27.659 23.199 28.061 23.049 28.522 23.049 C 28.974 23.049 29.482 23.193 30.018 23.497 L 49.371 34.494 L 43.865 40.001 M 49.496 34.369 L 30.018 23.303 C 29.482 22.998 28.974 22.854 28.522 22.854 C 28.52 22.854 28.518 22.854 28.516 22.854 C 28.519 22.854 28.521 22.854 28.524 22.854 C 28.975 22.854 29.482 22.998 30.018 23.302 L 49.496 34.369 M 28.512 22.854 L 28.512 22.854 L 28.512 22.854 Z " fill="rgb(255,255,255)"/></clipPath><g clip-path="url(#_clipPath_MKFCPJeCW5OCCzs9VYqYILtp5zyCkhJG)"><g><linearGradient id="_lgradient_3" x1="-0.19329693679160664" y1="1.541546787763799" x2="0.4184117544377095" y2="0.9298380965344829" gradientTransform="matrix(22.151,0,0,-17.147,27.345,40.001)" gradientUnits="userSpaceOnUse"><stop offset="0%" stop-opacity="1" style="stop-color:rgb(50,160,113)"/><stop offset="6.8500000000000005%" stop-opacity="1" style="stop-color:rgb(45,167,113)"/><stop offset="47.620000000000005%" stop-opacity="1" style="stop-color:rgb(21,207,116)"/><stop offset="80.08999999999999%" stop-opacity="1" style="stop-color:rgb(6,231,117)"/><stop offset="100%" stop-opacity="1" style="stop-color:rgb(0,240,118)"/></linearGradient><path d=" M 43.865 40.001 L 43.865 40.001 L 27.345 23.482 C 27.659 23.199 28.061 23.049 28.522 23.049 C 28.974 23.049 29.482 23.193 30.018 23.497 L 49.371 34.494 L 43.865 40.001 M 49.496 34.369 L 30.018 23.303 C 29.482 22.998 28.974 22.854 28.522 22.854 C 28.52 22.854 28.518 22.854 28.516 22.854 C 28.519 22.854 28.521 22.854 28.524 22.854 C 28.975 22.854 29.482 22.998 30.018 23.302 L 49.496 34.369 M 28.512 22.854 L 28.512 22.854 L 28.512 22.854 Z " fill="url(#_lgradient_3)"/></g></g></g><path d=" M 28.647 57.145 C 29.066 57.121 29.53 56.977 30.018 56.701 L 49.37 45.705 L 49.37 45.705 L 30.018 56.701 C 29.531 56.978 29.066 57.121 28.647 57.145 M 27.346 56.715 L 27.342 56.711 C 27.343 56.713 27.345 56.714 27.346 56.715 L 27.346 56.715 Z  M 27.256 56.628 L 27.247 56.619 L 27.247 56.619 C 27.251 56.622 27.253 56.625 27.256 56.628 Z " fill="rgb(0,0,0)"/><g><clipPath id="_clipPath_4EI5tzlRj0JTGt1nMrgkHHhnje3mCYqS"><path d=" M 49.37 45.705 L 49.37 45.705 L 49.496 45.633 L 49.37 45.705 Z " fill="rgb(255,255,255)"/></clipPath><g clip-path="url(#_clipPath_4EI5tzlRj0JTGt1nMrgkHHhnje3mCYqS)"><g><linearGradient id="_lgradient_4" x1="72.25796178343893" y1="79.94579439251964" x2="-184.61040339702618" y2="79.94579439251962" gradientTransform="matrix(0.126,0,0,-0.071,49.37,45.705)" gradientUnits="userSpaceOnUse"><stop offset="0%" stop-opacity="1" style="stop-color:rgb(204,179,0)"/><stop offset="40.87%" stop-opacity="1" style="stop-color:rgb(204,151,0)"/><stop offset="77.53999999999999%" stop-opacity="1" style="stop-color:rgb(204,132,0)"/><stop offset="100%" stop-opacity="1" style="stop-color:rgb(204,125,0)"/></linearGradient><path d=" M 49.37 45.705 L 49.37 45.705 L 49.496 45.633 L 49.37 45.705 Z " fill="url(#_lgradient_4)"/></g></g></g><g><clipPath id="_clipPath_QLCy4wxlsWRBlhPXilmguF1mWaVQWBbe"><path d=" M 28.525 57.148 C 28.064 57.148 27.66 56.998 27.346 56.715 L 27.346 56.715 C 27.345 56.714 27.343 56.713 27.342 56.711 L 27.256 56.628 C 27.253 56.625 27.251 56.622 27.247 56.619 L 27.346 56.52 C 27.66 56.803 28.063 56.954 28.525 56.953 C 28.975 56.953 29.483 56.809 30.018 56.506 L 49.372 45.509 L 49.496 45.633 L 49.37 45.705 L 30.018 56.701 C 29.53 56.977 29.066 57.121 28.647 57.145 C 28.606 57.147 28.565 57.148 28.525 57.148" fill="rgb(255,255,255)"/></clipPath><g clip-path="url(#_clipPath_QLCy4wxlsWRBlhPXilmguF1mWaVQWBbe)"><g><linearGradient id="_lgradient_5" x1="0.8624688368971136" y1="1.2103146873174255" x2="-0.5014143254386805" y2="-0.1535684750183688" gradientTransform="matrix(22.249,0,0,-11.639,27.247,57.148)" gradientUnits="userSpaceOnUse"><stop offset="0%" stop-opacity="1" style="stop-color:rgb(204,46,54)"/><stop offset="100%" stop-opacity="1" style="stop-color:rgb(156,14,78)"/></linearGradient><path d=" M 28.525 57.148 C 28.064 57.148 27.66 56.998 27.346 56.715 L 27.346 56.715 C 27.345 56.714 27.343 56.713 27.342 56.711 L 27.256 56.628 C 27.253 56.625 27.251 56.622 27.247 56.619 L 27.346 56.52 C 27.66 56.803 28.063 56.954 28.525 56.953 C 28.975 56.953 29.483 56.809 30.018 56.506 L 49.372 45.509 L 49.496 45.633 L 49.37 45.705 L 30.018 56.701 C 29.53 56.977 29.066 57.121 28.647 57.145 C 28.606 57.147 28.565 57.148 28.525 57.148" fill="url(#_lgradient_5)"/></g></g></g><path d=" M 27.247 56.619 C 26.859 56.209 26.63 55.571 26.63 54.746 L 26.63 54.745 C 26.63 55.571 26.859 56.208 27.247 56.619 L 27.247 56.619 L 27.247 56.619 L 27.247 56.619" fill="rgb(0,0,0)"/><g><clipPath id="_clipPath_RVjRwrL3K8yDsw9dG4M9kSy90mXrTqqa"><path d=" M 27.247 56.619 L 27.247 56.619 C 26.859 56.208 26.63 55.571 26.63 54.745 L 26.63 54.551 C 26.63 55.377 26.859 56.014 27.247 56.425 L 27.346 56.519 L 27.247 56.619" fill="rgb(255,255,255)"/></clipPath><g clip-path="url(#_clipPath_RVjRwrL3K8yDsw9dG4M9kSy90mXrTqqa)"><g><linearGradient id="_lgradient_6" x1="22.020294172407453" y1="15.317513541397982" x2="-1.3619257323663696" y2="-8.064706363375844" gradientTransform="matrix(0.716,0,0,-2.068,26.63,56.619)" gradientUnits="userSpaceOnUse"><stop offset="0%" stop-opacity="1" style="stop-color:rgb(0,141,224)"/><stop offset="0.657445%" stop-opacity="1" style="stop-color:rgb(0,141,224)"/><stop offset="26.009999999999998%" stop-opacity="1" style="stop-color:rgb(0,167,224)"/><stop offset="51.22%" stop-opacity="1" style="stop-color:rgb(0,184,224)"/><stop offset="76.03999999999999%" stop-opacity="1" style="stop-color:rgb(0,196,224)"/><stop offset="100%" stop-opacity="1" style="stop-color:rgb(0,199,224)"/></linearGradient><path d=" M 27.247 56.619 L 27.247 56.619 C 26.859 56.208 26.63 55.571 26.63 54.745 L 26.63 54.551 C 26.63 55.377 26.859 56.014 27.247 56.425 L 27.346 56.519 L 27.247 56.619" fill="url(#_lgradient_6)"/></g></g></g><g><clipPath id="_clipPath_nT7aHbajTPiSphRbIjgMhe96gCLzqlLO"><path d=" M 27.247 56.619 L 27.247 56.619 L 27.247 56.619 L 27.346 56.519 L 27.346 56.52 L 27.247 56.619" fill="rgb(255,255,255)"/></clipPath><g clip-path="url(#_clipPath_nT7aHbajTPiSphRbIjgMhe96gCLzqlLO)"><g><linearGradient id="_lgradient_7" x1="193.69448183041857" y1="136.300268096513" x2="-111.99307458722285" y2="-169.38728832112847" gradientTransform="matrix(0.099,0,0,-0.099,27.247,56.619)" gradientUnits="userSpaceOnUse"><stop offset="0%" stop-opacity="1" style="stop-color:rgb(224,51,60)"/><stop offset="100%" stop-opacity="1" style="stop-color:rgb(171,15,86)"/></linearGradient><path d=" M 27.247 56.619 L 27.247 56.619 L 27.247 56.619 L 27.346 56.519 L 27.346 56.52 L 27.247 56.619" fill="url(#_lgradient_7)"/></g></g></g><path d=" M 57.263 40.691 C 57.366 40.466 57.417 40.234 57.417 40.003 C 57.417 40.003 57.417 40.002 57.417 40.002 C 57.417 40.234 57.366 40.465 57.263 40.691 Z " fill="rgb(0,0,0)"/><g><clipPath id="_clipPath_UqZy22x2FRZ55fj0nDtMa6Whw5LKpDBy"><path d=" M 49.496 45.633 L 49.496 45.633 L 49.372 45.509 L 56.02 41.732 C 56.864 41.252 57.338 40.633 57.417 40.003 C 57.417 40.234 57.366 40.466 57.263 40.691 C 57.056 41.144 56.642 41.573 56.02 41.927 L 49.496 45.633 Z " fill="rgb(255,255,255)"/></clipPath><g clip-path="url(#_clipPath_UqZy22x2FRZ55fj0nDtMa6Whw5LKpDBy)"><g><linearGradient id="_lgradient_8" x1="1.1278588001325822" y1="1.0002131337769677" x2="-2.8822505800464047" y2="1.0002131337769673" gradientTransform="matrix(8.045,0,0,-5.63,49.372,45.633)" gradientUnits="userSpaceOnUse"><stop offset="0%" stop-opacity="1" style="stop-color:rgb(224,197,0)"/><stop offset="40.87%" stop-opacity="1" style="stop-color:rgb(224,166,0)"/><stop offset="77.53999999999999%" stop-opacity="1" style="stop-color:rgb(224,145,0)"/><stop offset="100%" stop-opacity="1" style="stop-color:rgb(224,137,0)"/></linearGradient><path d=" M 49.496 45.633 L 49.496 45.633 L 49.372 45.509 L 56.02 41.732 C 56.864 41.252 57.338 40.633 57.417 40.003 C 57.417 40.234 57.366 40.466 57.263 40.691 C 57.056 41.144 56.642 41.573 56.02 41.927 L 49.496 45.633 Z " fill="url(#_lgradient_8)"/></g></g></g><path d=" M 57.417 40.001 L 57.417 40.001 C 57.417 39.303 56.951 38.606 56.02 38.077 L 49.496 34.37 L 49.495 34.37 L 49.496 34.369 L 56.02 38.076 C 56.952 38.605 57.418 39.304 57.417 40.001 Z " fill="rgb(64,64,64)"/><g><clipPath id="_clipPath_dBFTT30GszVUI1AKWnBYtXCEAlS2DVgD"><path d=" M 57.417 40.001 C 57.338 39.369 56.864 38.751 56.02 38.271 L 49.371 34.494 L 49.495 34.37 L 49.496 34.37 L 56.02 38.077 C 56.951 38.606 57.417 39.303 57.417 40.001 Z " fill="rgb(255,255,255)"/></clipPath><g clip-path="url(#_clipPath_dBFTT30GszVUI1AKWnBYtXCEAlS2DVgD)"><g><linearGradient id="_lgradient_9" x1="1.127850324804454" y1="-0.00023679287726974252" x2="-2.8819932387644176" y2="-0.00023679287727023358" gradientTransform="matrix(8.046,0,0,-5.631,49.371,40.001)" gradientUnits="userSpaceOnUse"><stop offset="0%" stop-opacity="1" style="stop-color:rgb(255,232,64)"/><stop offset="40.87%" stop-opacity="1" style="stop-color:rgb(255,206,64)"/><stop offset="77.53999999999999%" stop-opacity="1" style="stop-color:rgb(255,188,64)"/><stop offset="100%" stop-opacity="1" style="stop-color:rgb(255,181,64)"/></linearGradient><path d=" M 57.417 40.001 C 57.338 39.369 56.864 38.751 56.02 38.271 L 49.371 34.494 L 49.495 34.37 L 49.496 34.37 L 56.02 38.077 C 56.951 38.606 57.417 39.303 57.417 40.001 Z " fill="url(#_lgradient_9)"/></g></g></g><path d=" M 26.63 25.251 C 26.63 25.25 26.63 25.249 26.63 25.249 C 26.63 25.249 26.63 25.25 26.63 25.251 Z  M 26.636 25.034 C 26.636 25.033 26.636 25.032 26.636 25.031 C 26.636 25.032 26.636 25.033 26.636 25.034 Z  M 26.636 25.028 C 26.636 25.025 26.636 25.023 26.636 25.021 C 26.636 25.023 26.636 25.025 26.636 25.028 Z  M 26.636 25.02 C 26.714 23.65 27.458 22.859 28.512 22.854 C 28.055 22.857 27.657 23.007 27.346 23.287 L 27.346 23.287 L 27.342 23.291 C 27.309 23.32 27.278 23.352 27.247 23.384 L 27.247 23.384 C 26.897 23.754 26.677 24.309 26.636 25.02 Z " fill="rgb(64,64,64)"/><g><clipPath id="_clipPath_YTxjx06uWJegdsRDCBZ4zGLuGWpmh5J0"><path d=" M 26.63 25.453 L 26.63 25.258 C 26.63 25.255 26.63 25.253 26.63 25.251 C 26.63 25.25 26.63 25.249 26.63 25.249 C 26.63 25.175 26.632 25.104 26.636 25.034 C 26.636 25.033 26.636 25.032 26.636 25.031 C 26.636 25.03 26.636 25.029 26.636 25.028 C 26.636 25.025 26.636 25.023 26.636 25.021 C 26.636 25.021 26.636 25.02 26.636 25.02 C 26.677 24.309 26.897 23.754 27.247 23.384 L 27.247 23.384 L 27.247 23.384 L 27.345 23.482 C 26.897 23.885 26.63 24.559 26.63 25.453 M 27.342 23.291 L 27.346 23.287 C 27.345 23.289 27.343 23.29 27.342 23.291 Z " fill="rgb(255,255,255)"/></clipPath><g clip-path="url(#_clipPath_YTxjx06uWJegdsRDCBZ4zGLuGWpmh5J0)"><g><linearGradient id="_lgradient_10" x1="22.036705794671178" y1="0.23382380102197686" x2="-1.2501293184407167" y2="-23.05301131208992" gradientTransform="matrix(0.716,0,0,-2.166,26.63,25.453)" gradientUnits="userSpaceOnUse"><stop offset="0%" stop-opacity="1" style="stop-color:rgb(64,184,255)"/><stop offset="0.657445%" stop-opacity="1" style="stop-color:rgb(64,185,255)"/><stop offset="26.009999999999998%" stop-opacity="1" style="stop-color:rgb(64,206,255)"/><stop offset="51.22%" stop-opacity="1" style="stop-color:rgb(64,221,255)"/><stop offset="76.03999999999999%" stop-opacity="1" style="stop-color:rgb(64,231,255)"/><stop offset="100%" stop-opacity="1" style="stop-color:rgb(64,234,255)"/></linearGradient><path d=" M 26.63 25.453 L 26.63 25.258 C 26.63 25.255 26.63 25.253 26.63 25.251 C 26.63 25.25 26.63 25.249 26.63 25.249 C 26.63 25.175 26.632 25.104 26.636 25.034 C 26.636 25.033 26.636 25.032 26.636 25.031 C 26.636 25.03 26.636 25.029 26.636 25.028 C 26.636 25.025 26.636 25.023 26.636 25.021 C 26.636 25.021 26.636 25.02 26.636 25.02 C 26.677 24.309 26.897 23.754 27.247 23.384 L 27.247 23.384 L 27.247 23.384 L 27.345 23.482 C 26.897 23.885 26.63 24.559 26.63 25.453 M 27.342 23.291 L 27.346 23.287 C 27.345 23.289 27.343 23.29 27.342 23.291 Z " fill="url(#_lgradient_10)"/></g></g></g><path d=" M 28.512 22.854 C 28.513 22.854 28.515 22.854 28.516 22.854 C 28.515 22.854 28.513 22.854 28.512 22.854 Z " fill="rgb(64,64,64)"/><g><clipPath id="_clipPath_9pd4vDp6zbLm4Vr25JeqgnwfPeXkPDtB"><path d=" M 49.371 34.494 L 30.018 23.497 C 29.482 23.193 28.974 23.049 28.522 23.049 C 28.061 23.049 27.659 23.199 27.345 23.482 L 27.247 23.384 L 27.247 23.384 C 27.278 23.352 27.309 23.32 27.342 23.291 C 27.343 23.29 27.345 23.289 27.346 23.287 C 27.657 23.007 28.055 22.857 28.512 22.854 L 28.512 22.854 C 28.513 22.854 28.515 22.854 28.516 22.854 C 28.518 22.854 28.52 22.854 28.522 22.854 C 28.974 22.854 29.482 22.998 30.018 23.303 L 49.496 34.369 L 49.495 34.37 L 49.371 34.494 Z " fill="rgb(255,255,255)"/></clipPath><g clip-path="url(#_clipPath_9pd4vDp6zbLm4Vr25JeqgnwfPeXkPDtB)"><g><linearGradient id="_lgradient_11" x1="-0.18806932591811276" y1="1.7977822834690773" x2="0.4209595838527185" y2="1.1887533736982463" gradientTransform="matrix(22.249,0,0,-11.64,27.247,34.494)" gradientUnits="userSpaceOnUse"><stop offset="0%" stop-opacity="1" style="stop-color:rgb(101,184,149)"/><stop offset="6.8500000000000005%" stop-opacity="1" style="stop-color:rgb(98,189,149)"/><stop offset="47.620000000000005%" stop-opacity="1" style="stop-color:rgb(80,219,151)"/><stop offset="80.08999999999999%" stop-opacity="1" style="stop-color:rgb(68,237,152)"/><stop offset="100%" stop-opacity="1" style="stop-color:rgb(64,244,152)"/></linearGradient><path d=" M 49.371 34.494 L 30.018 23.497 C 29.482 23.193 28.974 23.049 28.522 23.049 C 28.061 23.049 27.659 23.199 27.345 23.482 L 27.247 23.384 L 27.247 23.384 C 27.278 23.352 27.309 23.32 27.342 23.291 C 27.343 23.29 27.345 23.289 27.346 23.287 C 27.657 23.007 28.055 22.857 28.512 22.854 L 28.512 22.854 C 28.513 22.854 28.515 22.854 28.516 22.854 C 28.518 22.854 28.52 22.854 28.522 22.854 C 28.974 22.854 29.482 22.998 30.018 23.303 L 49.496 34.369 L 49.495 34.37 L 49.371 34.494 Z " fill="url(#_lgradient_11)"/></g></g></g></g></g></svg>