<?xml version="1.0" encoding="UTF-8" standalone="no"?><!-- Generator: Gravit.io --><svg xmlns="http://www.w3.org/2000/svg" xmlns:xlink="http://www.w3.org/1999/xlink" style="isolation:isolate" viewBox="0 0 206.667 80" width="206.667pt" height="80pt"><defs><clipPath id="_clipPath_wPeAqe2yCJsHkeJZxtEtBXQXqf3SrcoY"><rect width="206.667" height="80"/></clipPath></defs><g clip-path="url(#_clipPath_wPeAqe2yCJsHkeJZxtEtBXQXqf3SrcoY)"><g><path d=" M 186.667 66.667 L 20 66.667 C 16.333 66.667 13.333 63.667 13.333 60 L 13.333 20 C 13.333 16.333 16.333 13.333 20 13.333 L 186.667 13.333 C 190.333 13.333 193.333 16.333 193.333 20 L 193.333 60 C 193.333 63.667 190.333 66.667 186.667 66.667 Z " fill="rgb(0,0,0)"/><path d=" M 186.667 13.333 L 20 13.333 C 16.333 13.333 13.333 16.333 13.333 20 L 13.333 60 C 13.333 63.667 16.333 66.667 20 66.667 L 186.667 66.667 C 190.333 66.667 193.333 63.667 193.333 60 L 193.333 20 C 193.333 16.333 190.333 13.333 186.667 13.333 Z  M 186.667 14.4 C 189.755 14.4 192.267 16.913 192.267 20 L 192.267 60 C 192.267 63.088 189.755 65.601 186.667 65.601 L 20 65.601 C 16.913 65.601 14.4 63.088 14.4 60 L 14.4 20 C 14.4 16.913 16.913 14.4 20 14.4 L 186.667 14.4 Z " fill="rgb(166,166,166)"/><path d=" M 155.915 53.333 L 158.403 53.333 L 158.403 36.665 L 155.915 36.665 L 155.915 53.333 Z  M 178.324 42.669 L 175.472 49.896 L 175.387 49.896 L 172.427 42.669 L 169.747 42.669 L 174.185 52.77 L 171.655 58.388 L 174.251 58.388 L 181.091 42.669 L 178.324 42.669 Z  M 164.215 51.44 C 163.399 51.44 162.263 51.033 162.263 50.025 C 162.263 48.738 163.679 48.245 164.9 48.245 C 165.995 48.245 166.508 48.481 167.173 48.803 C 166.98 50.346 165.651 51.44 164.215 51.44 L 164.215 51.44 Z  M 164.515 42.305 C 162.713 42.305 160.848 43.098 160.076 44.857 L 162.284 45.779 C 162.756 44.857 163.635 44.556 164.557 44.556 C 165.844 44.556 167.152 45.329 167.173 46.701 L 167.173 46.872 C 166.723 46.615 165.759 46.229 164.579 46.229 C 162.199 46.229 159.775 47.537 159.775 49.982 C 159.775 52.212 161.727 53.649 163.913 53.649 C 165.587 53.649 166.508 52.898 167.088 52.019 L 167.173 52.019 L 167.173 53.306 L 169.575 53.306 L 169.575 46.915 C 169.575 43.956 167.367 42.305 164.515 42.305 L 164.515 42.305 Z  M 149.139 44.698 L 145.6 44.698 L 145.6 38.985 L 149.139 38.985 C 150.999 38.985 152.055 40.525 152.055 41.842 C 152.055 43.133 150.999 44.698 149.139 44.698 Z  M 149.075 36.665 L 143.113 36.665 L 143.113 53.333 L 145.6 53.333 L 145.6 47.018 L 149.075 47.018 C 151.832 47.018 154.543 45.022 154.543 41.842 C 154.543 38.661 151.832 36.665 149.075 36.665 Z  M 116.567 51.443 C 114.848 51.443 113.409 50.004 113.409 48.028 C 113.409 46.03 114.848 44.569 116.567 44.569 C 118.264 44.569 119.595 46.03 119.595 48.028 C 119.595 50.004 118.264 51.443 116.567 51.443 L 116.567 51.443 Z  M 119.423 43.603 L 119.337 43.603 C 118.779 42.937 117.705 42.335 116.352 42.335 C 113.516 42.335 110.917 44.827 110.917 48.028 C 110.917 51.207 113.516 53.677 116.352 53.677 C 117.705 53.677 118.779 53.075 119.337 52.389 L 119.423 52.389 L 119.423 53.205 C 119.423 55.375 118.264 56.534 116.395 56.534 C 114.87 56.534 113.925 55.439 113.537 54.515 L 111.368 55.417 C 111.991 56.921 113.645 58.768 116.395 58.768 C 119.316 58.768 121.786 57.049 121.786 52.861 L 121.786 42.679 L 119.423 42.679 L 119.423 43.603 Z  M 123.505 53.333 L 125.996 53.333 L 125.996 36.665 L 123.505 36.665 L 123.505 53.333 Z  M 129.67 47.834 C 129.605 45.643 131.367 44.527 132.634 44.527 C 133.623 44.527 134.46 45.02 134.739 45.73 L 129.67 47.834 Z  M 137.403 45.944 C 136.931 44.677 135.491 42.335 132.548 42.335 C 129.627 42.335 127.199 44.634 127.199 48.006 C 127.199 51.185 129.605 53.677 132.827 53.677 C 135.427 53.677 136.931 52.087 137.553 51.164 L 135.62 49.875 C 134.976 50.82 134.095 51.443 132.827 51.443 C 131.56 51.443 130.658 50.863 130.078 49.725 L 137.66 46.589 L 137.403 45.944 Z  M 76.992 44.075 L 76.992 46.481 L 82.748 46.481 C 82.577 47.834 82.125 48.822 81.438 49.51 C 80.601 50.348 79.29 51.271 76.992 51.271 C 73.447 51.271 70.677 48.415 70.677 44.87 C 70.677 41.326 73.447 38.469 76.992 38.469 C 78.904 38.469 80.299 39.221 81.331 40.187 L 83.028 38.491 C 81.589 37.116 79.677 36.063 76.992 36.063 C 72.137 36.063 68.056 40.016 68.056 44.87 C 68.056 49.725 72.137 53.677 76.992 53.677 C 79.613 53.677 81.589 52.818 83.135 51.207 C 84.725 49.617 85.219 47.383 85.219 45.579 C 85.219 45.02 85.176 44.505 85.09 44.075 L 76.992 44.075 Z  M 91.764 51.443 C 90.045 51.443 88.563 50.025 88.563 48.006 C 88.563 45.966 90.045 44.569 91.764 44.569 C 93.482 44.569 94.964 45.966 94.964 48.006 C 94.964 50.025 93.482 51.443 91.764 51.443 L 91.764 51.443 Z  M 91.764 42.335 C 88.627 42.335 86.071 44.72 86.071 48.006 C 86.071 51.271 88.627 53.677 91.764 53.677 C 94.899 53.677 97.456 51.271 97.456 48.006 C 97.456 44.72 94.899 42.335 91.764 42.335 Z  M 104.181 51.443 C 102.463 51.443 100.981 50.025 100.981 48.006 C 100.981 45.966 102.463 44.569 104.181 44.569 C 105.899 44.569 107.382 45.966 107.382 48.006 C 107.382 50.025 105.899 51.443 104.181 51.443 Z  M 104.181 42.335 C 101.045 42.335 98.489 44.72 98.489 48.006 C 98.489 51.271 101.045 53.677 104.181 53.677 C 107.317 53.677 109.873 51.271 109.873 48.006 C 109.873 44.72 107.317 42.335 104.181 42.335 Z " fill="rgb(255,255,255)"/><g><clipPath id="_clipPath_DDWAWvF9oVFfRUxQ5GMwusqz7CYzlmxz"><path d=" M 27.346 56.519 L 27.247 56.425 C 26.859 56.014 26.63 55.377 26.63 54.551 L 26.63 54.745 L 26.63 54.745 L 26.63 25.257 C 26.63 25.255 26.63 25.253 26.63 25.251 C 26.63 25.253 26.63 25.255 26.63 25.258 L 26.63 25.453 C 26.63 24.559 26.897 23.885 27.345 23.482 L 43.865 40.001 L 27.346 56.519 Z  M 26.63 25.249 C 26.63 25.175 26.632 25.104 26.636 25.034 C 26.632 25.104 26.63 25.175 26.63 25.249 Z  M 26.636 25.031 C 26.636 25.03 26.636 25.029 26.636 25.028 C 26.636 25.029 26.636 25.03 26.636 25.031 Z  M 26.636 25.021 C 26.636 25.021 26.636 25.02 26.636 25.02 C 26.636 25.02 26.636 25.021 26.636 25.021 Z " fill="rgb(255,255,255)"/></clipPath><g clip-path="url(#_clipPath_DDWAWvF9oVFfRUxQ5GMwusqz7CYzlmxz)"><g><linearGradient id="_lgradient_12" x1="0.9150065373635474" y1="0.9556707105439463" x2="-0.12049917872697291" y2="-0.0798350055465743" gradientTransform="matrix(17.234,0,0,-33.038,26.63,56.519)" gradientUnits="userSpaceOnUse"><stop offset="0%" stop-opacity="1" style="stop-color:rgb(0,160,255)"/><stop offset="0.657445%" stop-opacity="1" style="stop-color:rgb(0,161,255)"/><stop offset="26.009999999999998%" stop-opacity="1" style="stop-color:rgb(0,190,255)"/><stop offset="51.22%" stop-opacity="1" style="stop-color:rgb(0,210,255)"/><stop offset="76.03999999999999%" stop-opacity="1" style="stop-color:rgb(0,223,255)"/><stop offset="100%" stop-opacity="1" style="stop-color:rgb(0,227,255)"/></linearGradient><path d=" M 27.346 56.519 L 27.247 56.425 C 26.859 56.014 26.63 55.377 26.63 54.551 L 26.63 54.745 L 26.63 54.745 L 26.63 25.257 C 26.63 25.255 26.63 25.253 26.63 25.251 C 26.63 25.253 26.63 25.255 26.63 25.258 L 26.63 25.453 C 26.63 24.559 26.897 23.885 27.345 23.482 L 43.865 40.001 L 27.346 56.519 Z  M 26.63 25.249 C 26.63 25.175 26.632 25.104 26.636 25.034 C 26.632 25.104 26.63 25.175 26.63 25.249 Z  M 26.636 25.031 C 26.636 25.03 26.636 25.029 26.636 25.028 C 26.636 25.029 26.636 25.03 26.636 25.031 Z  M 26.636 25.021 C 26.636 25.021 26.636 25.02 26.636 25.02 C 26.636 25.02 26.636 25.021 26.636 25.021 Z " fill="url(#_lgradient_12)"/></g></g></g><g><clipPath id="_clipPath_0FBvTzGhgZd03JdhwfqijOe7xM4LocFJ"><path d=" M 49.37 45.705 L 49.37 45.705 L 49.496 45.633 L 56.02 41.927 C 56.642 41.573 57.056 41.144 57.263 40.691 C 57.057 41.144 56.642 41.573 56.02 41.927 L 49.496 45.634 L 49.37 45.705 M 49.372 45.509 L 43.865 40.001 L 49.371 34.494 L 56.02 38.271 C 56.864 38.751 57.338 39.369 57.417 40.001 C 57.417 40.001 57.417 40.002 57.417 40.003 C 57.338 40.633 56.864 41.252 56.02 41.732 L 49.372 45.509" fill="rgb(255,255,255)"/></clipPath><g clip-path="url(#_clipPath_0FBvTzGhgZd03JdhwfqijOe7xM4LocFJ)"><g><linearGradient id="_lgradient_13" x1="1.0759014216144425" y1="0.5086820009038799" x2="-1.3046386934920564" y2="0.5086820009038796" gradientTransform="matrix(13.553,0,0,-11.211,43.865,45.705)" gradientUnits="userSpaceOnUse"><stop offset="0%" stop-opacity="1" style="stop-color:rgb(255,224,0)"/><stop offset="40.87%" stop-opacity="1" style="stop-color:rgb(255,189,0)"/><stop offset="77.53999999999999%" stop-opacity="1" style="stop-color:rgb(255,165,0)"/><stop offset="100%" stop-opacity="1" style="stop-color:rgb(255,156,0)"/></linearGradient><path d=" M 49.37 45.705 L 49.37 45.705 L 49.496 45.633 L 56.02 41.927 C 56.642 41.573 57.056 41.144 57.263 40.691 C 57.057 41.144 56.642 41.573 56.02 41.927 L 49.496 45.634 L 49.37 45.705 M 49.372 45.509 L 43.865 40.001 L 49.371 34.494 L 56.02 38.271 C 56.864 38.751 57.338 39.369 57.417 40.001 C 57.417 40.001 57.417 40.002 57.417 40.003 C 57.338 40.633 56.864 41.252 56.02 41.732 L 49.372 45.509" fill="url(#_lgradient_13)"/></g></g></g><g><clipPath id="_clipPath_KL0bUWHzFb30y3FVwydw5VU7H6rXkDOT"><path d=" M 28.524 57.148 C 28.063 57.148 27.66 56.998 27.346 56.715 L 27.346 56.715 C 27.66 56.998 28.064 57.148 28.525 57.148 C 28.565 57.148 28.606 57.147 28.647 57.145 C 28.605 57.147 28.564 57.148 28.524 57.148 M 28.525 56.953 C 28.063 56.954 27.66 56.803 27.346 56.52 L 27.346 56.52 L 27.346 56.519 L 43.865 40.001 L 49.372 45.509 L 49.372 45.509 L 30.018 56.506 C 29.483 56.809 28.975 56.953 28.525 56.953 M 27.342 56.711 C 27.313 56.685 27.284 56.657 27.256 56.628 L 27.342 56.711 Z " fill="rgb(255,255,255)"/></clipPath><g clip-path="url(#_clipPath_KL0bUWHzFb30y3FVwydw5VU7H6rXkDOT)"><g><linearGradient id="_lgradient_14" x1="0.8672522623002215" y1="0.8215232689242253" x2="-0.5047958956056213" y2="-0.5505248889816177" gradientTransform="matrix(22.116,0,0,-17.147,27.256,57.148)" gradientUnits="userSpaceOnUse"><stop offset="0%" stop-opacity="1" style="stop-color:rgb(255,58,68)"/><stop offset="100%" stop-opacity="1" style="stop-color:rgb(195,17,98)"/></linearGradient><path d=" M 28.524 57.148 C 28.063 57.148 27.66 56.998 27.346 56.715 L 27.346 56.715 C 27.66 56.998 28.064 57.148 28.525 57.148 C 28.565 57.148 28.606 57.147 28.647 57.145 C 28.605 57.147 28.564 57.148 28.524 57.148 M 28.525 56.953 C 28.063 56.954 27.66 56.803 27.346 56.52 L 27.346 56.52 L 27.346 56.519 L 43.865 40.001 L 49.372 45.509 L 49.372 45.509 L 30.018 56.506 C 29.483 56.809 28.975 56.953 28.525 56.953 M 27.342 56.711 C 27.313 56.685 27.284 56.657 27.256 56.628 L 27.342 56.711 Z " fill="url(#_lgradient_14)"/></g></g></g><g><clipPath id="_clipPath_EOCxrB8afj4fadeUfMyHqhaxBWH4U0x9"><path d=" M 43.865 40.001 L 43.865 40.001 L 27.345 23.482 C 27.659 23.199 28.061 23.049 28.522 23.049 C 28.974 23.049 29.482 23.193 30.018 23.497 L 49.371 34.494 L 43.865 40.001 M 49.496 34.369 L 30.018 23.303 C 29.482 22.998 28.974 22.854 28.522 22.854 C 28.52 22.854 28.518 22.854 28.516 22.854 C 28.519 22.854 28.521 22.854 28.524 22.854 C 28.975 22.854 29.482 22.998 30.018 23.302 L 49.496 34.369 M 28.512 22.854 L 28.512 22.854 L 28.512 22.854 Z " fill="rgb(255,255,255)"/></clipPath><g clip-path="url(#_clipPath_EOCxrB8afj4fadeUfMyHqhaxBWH4U0x9)"><g><linearGradient id="_lgradient_15" x1="-0.19329693679160664" y1="1.541546787763799" x2="0.4184117544377095" y2="0.9298380965344829" gradientTransform="matrix(22.151,0,0,-17.147,27.345,40.001)" gradientUnits="userSpaceOnUse"><stop offset="0%" stop-opacity="1" style="stop-color:rgb(50,160,113)"/><stop offset="6.8500000000000005%" stop-opacity="1" style="stop-color:rgb(45,167,113)"/><stop offset="47.620000000000005%" stop-opacity="1" style="stop-color:rgb(21,207,116)"/><stop offset="80.08999999999999%" stop-opacity="1" style="stop-color:rgb(6,231,117)"/><stop offset="100%" stop-opacity="1" style="stop-color:rgb(0,240,118)"/></linearGradient><path d=" M 43.865 40.001 L 43.865 40.001 L 27.345 23.482 C 27.659 23.199 28.061 23.049 28.522 23.049 C 28.974 23.049 29.482 23.193 30.018 23.497 L 49.371 34.494 L 43.865 40.001 M 49.496 34.369 L 30.018 23.303 C 29.482 22.998 28.974 22.854 28.522 22.854 C 28.52 22.854 28.518 22.854 28.516 22.854 C 28.519 22.854 28.521 22.854 28.524 22.854 C 28.975 22.854 29.482 22.998 30.018 23.302 L 49.496 34.369 M 28.512 22.854 L 28.512 22.854 L 28.512 22.854 Z " fill="url(#_lgradient_15)"/></g></g></g><path d=" M 28.647 57.145 C 29.066 57.121 29.53 56.977 30.018 56.701 L 49.37 45.705 L 49.37 45.705 L 30.018 56.701 C 29.531 56.978 29.066 57.121 28.647 57.145 M 27.346 56.715 L 27.342 56.711 C 27.343 56.713 27.345 56.714 27.346 56.715 L 27.346 56.715 Z  M 27.256 56.628 L 27.247 56.619 L 27.247 56.619 C 27.251 56.622 27.253 56.625 27.256 56.628 Z " fill="rgb(0,0,0)"/><g><clipPath id="_clipPath_P1iaIfIufUq5kBDoNSV8Gjk0saue8jWL"><path d=" M 49.37 45.705 L 49.37 45.705 L 49.496 45.633 L 49.37 45.705 Z " fill="rgb(255,255,255)"/></clipPath><g clip-path="url(#_clipPath_P1iaIfIufUq5kBDoNSV8Gjk0saue8jWL)"><g><linearGradient id="_lgradient_16" x1="72.25796178343893" y1="79.94579439251964" x2="-184.61040339702618" y2="79.94579439251962" gradientTransform="matrix(0.126,0,0,-0.071,49.37,45.705)" gradientUnits="userSpaceOnUse"><stop offset="0%" stop-opacity="1" style="stop-color:rgb(204,179,0)"/><stop offset="40.87%" stop-opacity="1" style="stop-color:rgb(204,151,0)"/><stop offset="77.53999999999999%" stop-opacity="1" style="stop-color:rgb(204,132,0)"/><stop offset="100%" stop-opacity="1" style="stop-color:rgb(204,125,0)"/></linearGradient><path d=" M 49.37 45.705 L 49.37 45.705 L 49.496 45.633 L 49.37 45.705 Z " fill="url(#_lgradient_16)"/></g></g></g><g><clipPath id="_clipPath_SNLpbyEJRV91gLPNn0PLsT4MiRXmXGEs"><path d=" M 28.525 57.148 C 28.064 57.148 27.66 56.998 27.346 56.715 L 27.346 56.715 C 27.345 56.714 27.343 56.713 27.342 56.711 L 27.256 56.628 C 27.253 56.625 27.251 56.622 27.247 56.619 L 27.346 56.52 C 27.66 56.803 28.063 56.954 28.525 56.953 C 28.975 56.953 29.483 56.809 30.018 56.506 L 49.372 45.509 L 49.496 45.633 L 49.37 45.705 L 30.018 56.701 C 29.53 56.977 29.066 57.121 28.647 57.145 C 28.606 57.147 28.565 57.148 28.525 57.148" fill="rgb(255,255,255)"/></clipPath><g clip-path="url(#_clipPath_SNLpbyEJRV91gLPNn0PLsT4MiRXmXGEs)"><g><linearGradient id="_lgradient_17" x1="0.8624688368971136" y1="1.2103146873174255" x2="-0.5014143254386805" y2="-0.1535684750183688" gradientTransform="matrix(22.249,0,0,-11.639,27.247,57.148)" gradientUnits="userSpaceOnUse"><stop offset="0%" stop-opacity="1" style="stop-color:rgb(204,46,54)"/><stop offset="100%" stop-opacity="1" style="stop-color:rgb(156,14,78)"/></linearGradient><path d=" M 28.525 57.148 C 28.064 57.148 27.66 56.998 27.346 56.715 L 27.346 56.715 C 27.345 56.714 27.343 56.713 27.342 56.711 L 27.256 56.628 C 27.253 56.625 27.251 56.622 27.247 56.619 L 27.346 56.52 C 27.66 56.803 28.063 56.954 28.525 56.953 C 28.975 56.953 29.483 56.809 30.018 56.506 L 49.372 45.509 L 49.496 45.633 L 49.37 45.705 L 30.018 56.701 C 29.53 56.977 29.066 57.121 28.647 57.145 C 28.606 57.147 28.565 57.148 28.525 57.148" fill="url(#_lgradient_17)"/></g></g></g><path d=" M 27.247 56.619 C 26.859 56.209 26.63 55.571 26.63 54.746 L 26.63 54.745 C 26.63 55.571 26.859 56.208 27.247 56.619 L 27.247 56.619 L 27.247 56.619 L 27.247 56.619" fill="rgb(0,0,0)"/><g><clipPath id="_clipPath_0oGz9X3nJ4FGi0VEuumLL49KehPwEotq"><path d=" M 27.247 56.619 L 27.247 56.619 C 26.859 56.208 26.63 55.571 26.63 54.745 L 26.63 54.551 C 26.63 55.377 26.859 56.014 27.247 56.425 L 27.346 56.519 L 27.247 56.619" fill="rgb(255,255,255)"/></clipPath><g clip-path="url(#_clipPath_0oGz9X3nJ4FGi0VEuumLL49KehPwEotq)"><g><linearGradient id="_lgradient_18" x1="22.020294172407453" y1="15.317513541397982" x2="-1.3619257323663696" y2="-8.064706363375844" gradientTransform="matrix(0.716,0,0,-2.068,26.63,56.619)" gradientUnits="userSpaceOnUse"><stop offset="0%" stop-opacity="1" style="stop-color:rgb(0,141,224)"/><stop offset="0.657445%" stop-opacity="1" style="stop-color:rgb(0,141,224)"/><stop offset="26.009999999999998%" stop-opacity="1" style="stop-color:rgb(0,167,224)"/><stop offset="51.22%" stop-opacity="1" style="stop-color:rgb(0,184,224)"/><stop offset="76.03999999999999%" stop-opacity="1" style="stop-color:rgb(0,196,224)"/><stop offset="100%" stop-opacity="1" style="stop-color:rgb(0,199,224)"/></linearGradient><path d=" M 27.247 56.619 L 27.247 56.619 C 26.859 56.208 26.63 55.571 26.63 54.745 L 26.63 54.551 C 26.63 55.377 26.859 56.014 27.247 56.425 L 27.346 56.519 L 27.247 56.619" fill="url(#_lgradient_18)"/></g></g></g><g><clipPath id="_clipPath_jqKfJzGtOyFfO8E5NXxDL1MmCy8ciqoS"><path d=" M 27.247 56.619 L 27.247 56.619 L 27.247 56.619 L 27.346 56.519 L 27.346 56.52 L 27.247 56.619" fill="rgb(255,255,255)"/></clipPath><g clip-path="url(#_clipPath_jqKfJzGtOyFfO8E5NXxDL1MmCy8ciqoS)"><g><linearGradient id="_lgradient_19" x1="193.69448183041857" y1="136.300268096513" x2="-111.99307458722285" y2="-169.38728832112847" gradientTransform="matrix(0.099,0,0,-0.099,27.247,56.619)" gradientUnits="userSpaceOnUse"><stop offset="0%" stop-opacity="1" style="stop-color:rgb(224,51,60)"/><stop offset="100%" stop-opacity="1" style="stop-color:rgb(171,15,86)"/></linearGradient><path d=" M 27.247 56.619 L 27.247 56.619 L 27.247 56.619 L 27.346 56.519 L 27.346 56.52 L 27.247 56.619" fill="url(#_lgradient_19)"/></g></g></g><path d=" M 57.263 40.691 C 57.366 40.466 57.417 40.234 57.417 40.003 C 57.417 40.003 57.417 40.002 57.417 40.002 C 57.417 40.234 57.366 40.465 57.263 40.691 Z " fill="rgb(0,0,0)"/><g><clipPath id="_clipPath_empvcseg4t1D3HbDKQ3IaQP8Qvu965Hc"><path d=" M 49.496 45.633 L 49.496 45.633 L 49.372 45.509 L 56.02 41.732 C 56.864 41.252 57.338 40.633 57.417 40.003 C 57.417 40.234 57.366 40.466 57.263 40.691 C 57.056 41.144 56.642 41.573 56.02 41.927 L 49.496 45.633 Z " fill="rgb(255,255,255)"/></clipPath><g clip-path="url(#_clipPath_empvcseg4t1D3HbDKQ3IaQP8Qvu965Hc)"><g><linearGradient id="_lgradient_20" x1="1.1278588001325822" y1="1.0002131337769677" x2="-2.8822505800464047" y2="1.0002131337769673" gradientTransform="matrix(8.045,0,0,-5.63,49.372,45.633)" gradientUnits="userSpaceOnUse"><stop offset="0%" stop-opacity="1" style="stop-color:rgb(224,197,0)"/><stop offset="40.87%" stop-opacity="1" style="stop-color:rgb(224,166,0)"/><stop offset="77.53999999999999%" stop-opacity="1" style="stop-color:rgb(224,145,0)"/><stop offset="100%" stop-opacity="1" style="stop-color:rgb(224,137,0)"/></linearGradient><path d=" M 49.496 45.633 L 49.496 45.633 L 49.372 45.509 L 56.02 41.732 C 56.864 41.252 57.338 40.633 57.417 40.003 C 57.417 40.234 57.366 40.466 57.263 40.691 C 57.056 41.144 56.642 41.573 56.02 41.927 L 49.496 45.633 Z " fill="url(#_lgradient_20)"/></g></g></g><path d=" M 57.417 40.001 L 57.417 40.001 C 57.417 39.303 56.951 38.606 56.02 38.077 L 49.496 34.37 L 49.495 34.37 L 49.496 34.369 L 56.02 38.076 C 56.952 38.605 57.418 39.304 57.417 40.001 Z " fill="rgb(64,64,64)"/><g><clipPath id="_clipPath_KDqa3pNyPDOcuxbudod9hAVAF36rE3Db"><path d=" M 57.417 40.001 C 57.338 39.369 56.864 38.751 56.02 38.271 L 49.371 34.494 L 49.495 34.37 L 49.496 34.37 L 56.02 38.077 C 56.951 38.606 57.417 39.303 57.417 40.001 Z " fill="rgb(255,255,255)"/></clipPath><g clip-path="url(#_clipPath_KDqa3pNyPDOcuxbudod9hAVAF36rE3Db)"><g><linearGradient id="_lgradient_21" x1="1.127850324804454" y1="-0.00023679287726974252" x2="-2.8819932387644176" y2="-0.00023679287727023358" gradientTransform="matrix(8.046,0,0,-5.631,49.371,40.001)" gradientUnits="userSpaceOnUse"><stop offset="0%" stop-opacity="1" style="stop-color:rgb(255,232,64)"/><stop offset="40.87%" stop-opacity="1" style="stop-color:rgb(255,206,64)"/><stop offset="77.53999999999999%" stop-opacity="1" style="stop-color:rgb(255,188,64)"/><stop offset="100%" stop-opacity="1" style="stop-color:rgb(255,181,64)"/></linearGradient><path d=" M 57.417 40.001 C 57.338 39.369 56.864 38.751 56.02 38.271 L 49.371 34.494 L 49.495 34.37 L 49.496 34.37 L 56.02 38.077 C 56.951 38.606 57.417 39.303 57.417 40.001 Z " fill="url(#_lgradient_21)"/></g></g></g><path d=" M 26.63 25.251 C 26.63 25.25 26.63 25.249 26.63 25.249 C 26.63 25.249 26.63 25.25 26.63 25.251 Z  M 26.636 25.034 C 26.636 25.033 26.636 25.032 26.636 25.031 C 26.636 25.032 26.636 25.033 26.636 25.034 Z  M 26.636 25.028 C 26.636 25.025 26.636 25.023 26.636 25.021 C 26.636 25.023 26.636 25.025 26.636 25.028 Z  M 26.636 25.02 C 26.714 23.65 27.458 22.859 28.512 22.854 C 28.055 22.857 27.657 23.007 27.346 23.287 L 27.346 23.287 L 27.342 23.291 C 27.309 23.32 27.278 23.352 27.247 23.384 L 27.247 23.384 C 26.897 23.754 26.677 24.309 26.636 25.02 Z " fill="rgb(64,64,64)"/><g><clipPath id="_clipPath_Cab3zaaWIXaIqIcOhYyTMLbIna8PABv7"><path d=" M 26.63 25.453 L 26.63 25.258 C 26.63 25.255 26.63 25.253 26.63 25.251 C 26.63 25.25 26.63 25.249 26.63 25.249 C 26.63 25.175 26.632 25.104 26.636 25.034 C 26.636 25.033 26.636 25.032 26.636 25.031 C 26.636 25.03 26.636 25.029 26.636 25.028 C 26.636 25.025 26.636 25.023 26.636 25.021 C 26.636 25.021 26.636 25.02 26.636 25.02 C 26.677 24.309 26.897 23.754 27.247 23.384 L 27.247 23.384 L 27.247 23.384 L 27.345 23.482 C 26.897 23.885 26.63 24.559 26.63 25.453 M 27.342 23.291 L 27.346 23.287 C 27.345 23.289 27.343 23.29 27.342 23.291 Z " fill="rgb(255,255,255)"/></clipPath><g clip-path="url(#_clipPath_Cab3zaaWIXaIqIcOhYyTMLbIna8PABv7)"><g><linearGradient id="_lgradient_22" x1="22.036705794671178" y1="0.23382380102197686" x2="-1.2501293184407167" y2="-23.05301131208992" gradientTransform="matrix(0.716,0,0,-2.166,26.63,25.453)" gradientUnits="userSpaceOnUse"><stop offset="0%" stop-opacity="1" style="stop-color:rgb(64,184,255)"/><stop offset="0.657445%" stop-opacity="1" style="stop-color:rgb(64,185,255)"/><stop offset="26.009999999999998%" stop-opacity="1" style="stop-color:rgb(64,206,255)"/><stop offset="51.22%" stop-opacity="1" style="stop-color:rgb(64,221,255)"/><stop offset="76.03999999999999%" stop-opacity="1" style="stop-color:rgb(64,231,255)"/><stop offset="100%" stop-opacity="1" style="stop-color:rgb(64,234,255)"/></linearGradient><path d=" M 26.63 25.453 L 26.63 25.258 C 26.63 25.255 26.63 25.253 26.63 25.251 C 26.63 25.25 26.63 25.249 26.63 25.249 C 26.63 25.175 26.632 25.104 26.636 25.034 C 26.636 25.033 26.636 25.032 26.636 25.031 C 26.636 25.03 26.636 25.029 26.636 25.028 C 26.636 25.025 26.636 25.023 26.636 25.021 C 26.636 25.021 26.636 25.02 26.636 25.02 C 26.677 24.309 26.897 23.754 27.247 23.384 L 27.247 23.384 L 27.247 23.384 L 27.345 23.482 C 26.897 23.885 26.63 24.559 26.63 25.453 M 27.342 23.291 L 27.346 23.287 C 27.345 23.289 27.343 23.29 27.342 23.291 Z " fill="url(#_lgradient_22)"/></g></g></g><path d=" M 28.512 22.854 C 28.513 22.854 28.515 22.854 28.516 22.854 C 28.515 22.854 28.513 22.854 28.512 22.854 Z " fill="rgb(64,64,64)"/><g><clipPath id="_clipPath_atzzG7kEoRraXYzvJ9cYRjlMdubt4gyJ"><path d=" M 49.371 34.494 L 30.018 23.497 C 29.482 23.193 28.974 23.049 28.522 23.049 C 28.061 23.049 27.659 23.199 27.345 23.482 L 27.247 23.384 L 27.247 23.384 C 27.278 23.352 27.309 23.32 27.342 23.291 C 27.343 23.29 27.345 23.289 27.346 23.287 C 27.657 23.007 28.055 22.857 28.512 22.854 L 28.512 22.854 C 28.513 22.854 28.515 22.854 28.516 22.854 C 28.518 22.854 28.52 22.854 28.522 22.854 C 28.974 22.854 29.482 22.998 30.018 23.303 L 49.496 34.369 L 49.495 34.37 L 49.371 34.494 Z " fill="rgb(255,255,255)"/></clipPath><g clip-path="url(#_clipPath_atzzG7kEoRraXYzvJ9cYRjlMdubt4gyJ)"><g><linearGradient id="_lgradient_23" x1="-0.18806932591811276" y1="1.7977822834690773" x2="0.4209595838527185" y2="1.1887533736982463" gradientTransform="matrix(22.249,0,0,-11.64,27.247,34.494)" gradientUnits="userSpaceOnUse"><stop offset="0%" stop-opacity="1" style="stop-color:rgb(101,184,149)"/><stop offset="6.8500000000000005%" stop-opacity="1" style="stop-color:rgb(98,189,149)"/><stop offset="47.620000000000005%" stop-opacity="1" style="stop-color:rgb(80,219,151)"/><stop offset="80.08999999999999%" stop-opacity="1" style="stop-color:rgb(68,237,152)"/><stop offset="100%" stop-opacity="1" style="stop-color:rgb(64,244,152)"/></linearGradient><path d=" M 49.371 34.494 L 30.018 23.497 C 29.482 23.193 28.974 23.049 28.522 23.049 C 28.061 23.049 27.659 23.199 27.345 23.482 L 27.247 23.384 L 27.247 23.384 C 27.278 23.352 27.309 23.32 27.342 23.291 C 27.343 23.29 27.345 23.289 27.346 23.287 C 27.657 23.007 28.055 22.857 28.512 22.854 L 28.512 22.854 C 28.513 22.854 28.515 22.854 28.516 22.854 C 28.518 22.854 28.52 22.854 28.522 22.854 C 28.974 22.854 29.482 22.998 30.018 23.303 L 49.496 34.369 L 49.495 34.37 L 49.371 34.494 Z " fill="url(#_lgradient_23)"/></g></g></g><path d=" M 69.401 29.684 L 70.82 29.684 C 71.743 29.684 72.475 29.419 73.016 28.89 C 73.556 28.361 73.825 27.62 73.825 26.667 C 73.825 25.721 73.556 24.982 73.016 24.448 C 72.475 23.917 71.743 23.649 70.82 23.649 L 69.401 23.649 L 69.401 29.684 Z  M 68.374 30.667 L 68.374 22.667 L 70.82 22.667 C 72.049 22.667 73.032 23.037 73.771 23.779 C 74.508 24.519 74.876 25.482 74.876 26.667 C 74.876 27.851 74.508 28.814 73.771 29.555 C 73.032 30.296 72.049 30.667 70.82 30.667 L 68.374 30.667 Z " fill="rgb(255,255,255)"/><path d=" M 69.401 29.684 L 69.401 29.817 L 70.82 29.817 C 71.768 29.818 72.541 29.543 73.109 28.985 C 73.68 28.428 73.96 27.644 73.959 26.667 C 73.96 25.697 73.68 24.915 73.109 24.354 L 73.109 24.354 C 72.541 23.793 71.768 23.515 70.82 23.516 L 69.401 23.516 L 69.268 23.516 L 69.268 29.817 L 69.401 29.817 L 69.401 29.684 L 69.534 29.684 L 69.534 23.783 L 70.82 23.783 C 71.719 23.784 72.409 24.04 72.922 24.544 L 72.922 24.543 C 73.432 25.048 73.691 25.745 73.692 26.667 C 73.691 27.596 73.432 28.295 72.922 28.795 C 72.409 29.296 71.719 29.549 70.82 29.551 L 69.401 29.551 L 69.401 29.684 L 69.534 29.684 L 69.401 29.684 Z  M 68.374 30.667 L 68.507 30.667 L 68.507 22.8 L 70.82 22.8 C 72.023 22.801 72.964 23.159 73.677 23.873 C 74.387 24.589 74.742 25.509 74.743 26.667 C 74.742 27.824 74.387 28.745 73.676 29.46 C 72.964 30.175 72.023 30.532 70.82 30.533 L 68.374 30.533 L 68.374 30.667 L 68.507 30.667 L 68.374 30.667 L 68.374 30.8 L 70.82 30.8 C 72.075 30.801 73.101 30.418 73.865 29.649 C 74.629 28.883 75.011 27.878 75.009 26.667 C 75.011 25.455 74.629 24.451 73.865 23.685 C 73.101 22.915 72.075 22.532 70.82 22.533 L 68.241 22.533 L 68.241 30.8 L 68.374 30.8 L 68.374 30.667 Z " fill="rgb(255,255,255)"/><path d=" M 76.319 30.667 L 76.319 22.667 L 77.346 22.667 L 77.346 30.667 L 76.319 30.667 Z " fill="rgb(255,255,255)"/><path d=" M 76.319 30.667 L 76.453 30.667 L 76.453 22.8 L 77.213 22.8 L 77.213 30.533 L 76.319 30.533 L 76.319 30.667 L 76.453 30.667 L 76.319 30.667 L 76.319 30.8 L 77.346 30.8 L 77.48 30.8 L 77.48 22.533 L 76.319 22.533 L 76.186 22.533 L 76.186 30.8 L 76.319 30.8 L 76.319 30.667 Z " fill="rgb(255,255,255)"/><path d=" M 81.435 30.845 C 80.854 30.845 80.286 30.656 79.732 30.276 C 79.175 29.896 78.813 29.364 78.642 28.678 L 79.581 28.298 C 79.693 28.737 79.92 29.108 80.267 29.409 C 80.615 29.711 81.003 29.862 81.435 29.862 C 81.881 29.862 82.264 29.745 82.581 29.51 C 82.897 29.276 83.055 28.957 83.055 28.555 C 83.055 28.108 82.897 27.764 82.581 27.521 C 82.264 27.279 81.763 27.054 81.078 26.845 C 80.37 26.622 79.833 26.333 79.469 25.979 C 79.104 25.625 78.92 25.173 78.92 24.622 C 78.92 24.048 79.148 23.549 79.603 23.125 C 80.057 22.701 80.649 22.487 81.379 22.487 C 82.057 22.487 82.608 22.658 83.032 22.996 C 83.457 23.335 83.733 23.706 83.859 24.108 L 82.922 24.498 C 82.854 24.246 82.689 24.011 82.425 23.795 C 82.16 23.58 81.819 23.471 81.401 23.471 C 81.007 23.471 80.669 23.581 80.391 23.801 C 80.11 24.021 79.971 24.294 79.971 24.622 C 79.971 24.92 80.101 25.171 80.357 25.376 C 80.615 25.581 80.992 25.766 81.491 25.929 C 81.885 26.056 82.215 26.179 82.481 26.298 C 82.745 26.417 83.013 26.575 83.284 26.773 C 83.556 26.97 83.76 27.216 83.898 27.51 C 84.036 27.805 84.106 28.145 84.106 28.532 C 84.106 28.92 84.026 29.266 83.866 29.571 C 83.706 29.878 83.492 30.119 83.228 30.298 C 82.964 30.477 82.68 30.613 82.374 30.706 C 82.068 30.799 81.755 30.845 81.435 30.845" fill="rgb(255,255,255)"/><path d=" M 81.435 30.845 L 81.435 30.712 C 80.884 30.711 80.344 30.533 79.807 30.166 C 79.277 29.803 78.936 29.304 78.771 28.646 L 78.642 28.678 L 78.692 28.802 L 79.631 28.422 L 79.581 28.298 L 79.452 28.331 C 79.569 28.795 79.814 29.193 80.179 29.51 L 80.18 29.51 C 80.547 29.83 80.971 29.996 81.435 29.995 C 81.904 29.996 82.319 29.87 82.66 29.618 C 83.008 29.363 83.191 28.992 83.188 28.555 C 83.191 28.078 83.012 27.681 82.662 27.416 C 82.323 27.157 81.81 26.93 81.117 26.718 L 81.118 26.718 C 80.422 26.499 79.905 26.218 79.561 25.883 C 79.223 25.554 79.055 25.144 79.054 24.622 C 79.055 24.084 79.262 23.628 79.694 23.222 C 80.122 22.823 80.675 22.622 81.379 22.621 C 82.036 22.621 82.553 22.784 82.949 23.101 C 83.359 23.428 83.616 23.777 83.732 24.148 L 83.859 24.108 L 83.808 23.985 L 82.87 24.375 L 82.922 24.498 L 83.051 24.464 C 82.974 24.178 82.789 23.92 82.509 23.692 L 82.509 23.692 C 82.217 23.454 81.841 23.337 81.401 23.338 C 80.982 23.337 80.611 23.456 80.308 23.696 L 80.308 23.696 C 80.002 23.934 79.836 24.255 79.838 24.622 C 79.836 24.959 79.992 25.258 80.273 25.48 L 80.274 25.481 C 80.551 25.7 80.941 25.889 81.449 26.056 L 81.45 26.056 C 81.841 26.182 82.167 26.303 82.425 26.42 L 82.426 26.42 C 82.68 26.534 82.941 26.688 83.205 26.881 L 83.206 26.881 C 83.46 27.066 83.649 27.293 83.778 27.567 C 83.906 27.841 83.972 28.161 83.972 28.532 C 83.972 28.902 83.897 29.225 83.748 29.51 C 83.596 29.798 83.398 30.021 83.153 30.187 L 83.153 30.187 C 82.899 30.359 82.628 30.489 82.335 30.578 C 82.041 30.668 81.742 30.712 81.435 30.712 L 81.435 30.845 L 81.435 30.979 C 81.768 30.979 82.094 30.93 82.413 30.833 C 82.731 30.736 83.028 30.594 83.303 30.409 L 83.303 30.408 C 83.585 30.217 83.815 29.957 83.984 29.633 C 84.155 29.307 84.239 28.938 84.239 28.532 C 84.239 28.13 84.167 27.769 84.019 27.454 C 83.872 27.14 83.652 26.874 83.362 26.665 L 83.363 26.665 C 83.085 26.463 82.809 26.299 82.535 26.177 L 82.534 26.176 L 82.535 26.177 C 82.263 26.054 81.93 25.93 81.532 25.802 L 81.532 25.802 C 81.043 25.642 80.678 25.461 80.44 25.272 L 80.44 25.272 C 80.209 25.084 80.107 24.88 80.105 24.622 C 80.107 24.333 80.219 24.108 80.473 23.906 L 80.473 23.905 C 80.728 23.705 81.031 23.605 81.401 23.605 C 81.797 23.605 82.103 23.705 82.34 23.898 L 82.342 23.899 L 82.34 23.898 C 82.589 24.102 82.734 24.314 82.793 24.533 L 82.832 24.68 L 83.91 24.231 L 84.023 24.184 L 83.986 24.068 C 83.851 23.634 83.555 23.243 83.116 22.892 C 82.664 22.531 82.079 22.354 81.379 22.354 C 80.625 22.353 79.993 22.578 79.512 23.028 C 79.035 23.471 78.786 24.012 78.787 24.622 C 78.786 25.203 78.985 25.698 79.376 26.075 C 79.762 26.449 80.317 26.745 81.038 26.972 L 81.039 26.972 L 81.039 26.972 C 81.716 27.179 82.206 27.402 82.5 27.627 C 82.782 27.846 82.919 28.139 82.921 28.555 C 82.919 28.922 82.786 29.189 82.502 29.403 C 82.209 29.619 81.858 29.728 81.435 29.729 C 81.034 29.728 80.682 29.592 80.354 29.309 L 80.354 29.309 C 80.027 29.023 79.816 28.68 79.71 28.265 L 79.672 28.117 L 78.592 28.554 L 78.484 28.597 L 78.513 28.71 C 78.689 29.423 79.074 29.989 79.657 30.386 C 80.229 30.778 80.825 30.979 81.435 30.979 L 81.435 30.845" fill="rgb(255,255,255)"/><path d=" M 86.608 26.443 L 88.33 26.443 C 88.762 26.443 89.108 26.298 89.369 26.008 C 89.629 25.717 89.759 25.397 89.759 25.047 C 89.759 24.697 89.629 24.376 89.369 24.086 C 89.108 23.795 88.762 23.649 88.33 23.649 L 86.608 23.649 L 86.608 26.443 Z  M 86.608 30.667 L 85.581 30.667 L 85.581 22.667 L 88.307 22.667 C 88.984 22.667 89.571 22.892 90.066 23.342 C 90.563 23.793 90.81 24.361 90.81 25.047 C 90.81 25.732 90.563 26.299 90.066 26.75 C 89.571 27.201 88.984 27.427 88.307 27.427 L 86.608 27.427 L 86.608 30.667 Z " fill="rgb(255,255,255)"/><path d=" M 86.608 26.443 L 86.608 26.576 L 88.33 26.576 C 88.791 26.578 89.183 26.416 89.468 26.097 L 89.468 26.097 C 89.746 25.787 89.893 25.431 89.892 25.047 C 89.893 24.663 89.746 24.306 89.468 23.997 L 89.468 23.997 C 89.183 23.677 88.791 23.515 88.33 23.516 L 86.608 23.516 L 86.475 23.516 L 86.475 26.576 L 86.608 26.576 L 86.608 26.443 L 86.742 26.443 L 86.742 23.783 L 88.33 23.783 C 88.732 23.785 89.033 23.913 89.269 24.175 L 89.269 24.175 C 89.511 24.446 89.625 24.73 89.625 25.047 C 89.625 25.364 89.511 25.646 89.269 25.919 L 89.269 25.919 C 89.033 26.18 88.733 26.308 88.33 26.309 L 86.608 26.309 L 86.608 26.443 L 86.742 26.443 L 86.608 26.443 Z  M 86.608 30.667 L 86.608 30.533 L 85.714 30.533 L 85.714 22.8 L 88.307 22.8 C 88.955 22.801 89.504 23.012 89.977 23.441 L 89.977 23.441 C 90.446 23.87 90.675 24.393 90.677 25.047 C 90.675 25.699 90.446 26.222 89.977 26.652 L 89.977 26.652 C 89.504 27.081 88.955 27.292 88.307 27.293 L 86.608 27.293 L 86.475 27.293 L 86.475 30.667 L 86.608 30.667 L 86.608 30.533 L 86.608 30.667 L 86.742 30.667 L 86.742 27.56 L 88.307 27.56 C 89.014 27.561 89.64 27.321 90.156 26.848 L 90.156 26.848 C 90.679 26.377 90.945 25.764 90.943 25.047 C 90.945 24.329 90.679 23.716 90.156 23.244 L 90.156 23.244 C 89.64 22.772 89.014 22.532 88.307 22.533 L 85.447 22.533 L 85.447 30.8 L 86.608 30.8 L 86.742 30.8 L 86.742 30.667 L 86.608 30.667 Z " fill="rgb(255,255,255)"/><path d=" M 93.541 28.963 C 94.133 29.563 94.857 29.862 95.714 29.862 C 96.57 29.862 97.296 29.563 97.886 28.963 C 98.479 28.364 98.776 27.597 98.776 26.667 C 98.776 25.736 98.479 24.97 97.886 24.37 C 97.296 23.771 96.57 23.471 95.714 23.471 C 94.857 23.471 94.133 23.771 93.541 24.37 C 92.949 24.97 92.653 25.736 92.653 26.667 C 92.653 27.597 92.949 28.364 93.541 28.963 Z  M 98.647 29.633 C 97.86 30.442 96.883 30.845 95.714 30.845 C 94.544 30.845 93.566 30.442 92.781 29.633 C 91.995 28.825 91.603 27.836 91.603 26.667 C 91.603 25.497 91.995 24.508 92.781 23.701 C 93.566 22.892 94.544 22.487 95.714 22.487 C 96.876 22.487 97.852 22.894 98.642 23.706 C 99.431 24.518 99.825 25.505 99.825 26.667 C 99.825 27.836 99.432 28.825 98.647 29.633 Z " fill="rgb(255,255,255)"/><path d=" M 93.541 28.963 L 93.445 29.057 C 94.06 29.68 94.825 29.997 95.714 29.995 C 96.602 29.997 97.369 29.68 97.982 29.057 C 98.599 28.433 98.91 27.625 98.909 26.667 C 98.91 25.708 98.599 24.901 97.982 24.277 L 97.98 24.275 L 97.982 24.277 C 97.369 23.653 96.602 23.336 95.714 23.338 C 94.825 23.336 94.06 23.653 93.445 24.277 L 93.441 24.281 L 93.445 24.277 C 92.829 24.901 92.518 25.708 92.519 26.667 C 92.518 27.625 92.829 28.433 93.445 29.057 L 93.541 28.963 L 93.635 28.869 C 93.07 28.294 92.787 27.57 92.786 26.667 C 92.787 25.764 93.07 25.04 93.635 24.464 L 93.635 24.464 C 94.206 23.889 94.888 23.606 95.714 23.605 C 96.539 23.606 97.222 23.889 97.792 24.464 L 97.792 24.464 C 98.359 25.04 98.642 25.764 98.643 26.667 C 98.642 27.57 98.359 28.294 97.792 28.869 C 97.222 29.445 96.539 29.727 95.714 29.729 C 94.888 29.727 94.206 29.445 93.635 28.869 L 93.541 28.963 Z  M 98.647 29.633 L 98.552 29.54 C 97.787 30.323 96.852 30.71 95.714 30.712 C 94.575 30.71 93.64 30.323 92.877 29.54 L 92.877 29.54 C 92.114 28.754 91.737 27.806 91.736 26.667 C 91.737 25.527 92.114 24.579 92.877 23.793 L 92.877 23.793 C 93.64 23.01 94.575 22.622 95.714 22.621 C 96.845 22.622 97.778 23.011 98.546 23.799 C 99.312 24.589 99.691 25.535 99.692 26.667 C 99.691 27.806 99.313 28.754 98.552 29.54 L 98.647 29.633 L 98.743 29.725 C 99.552 28.895 99.96 27.866 99.959 26.667 C 99.96 25.475 99.55 24.447 98.737 23.613 C 97.925 22.776 96.907 22.353 95.714 22.354 C 94.514 22.353 93.493 22.774 92.685 23.608 L 92.686 23.607 C 91.875 24.438 91.468 25.468 91.469 26.667 C 91.468 27.866 91.875 28.895 92.686 29.726 L 92.689 29.73 L 92.685 29.725 C 93.493 30.559 94.514 30.98 95.714 30.979 C 96.914 30.98 97.934 30.559 98.743 29.725 L 98.647 29.633" fill="rgb(255,255,255)"/><path d=" M 101.268 30.667 L 101.268 22.667 L 102.519 22.667 L 106.408 28.89 L 106.452 28.89 L 106.408 27.348 L 106.408 22.667 L 107.436 22.667 L 107.436 30.667 L 106.364 30.667 L 102.296 24.142 L 102.252 24.142 L 102.296 25.684 L 102.296 30.667 L 101.268 30.667 Z " fill="rgb(255,255,255)"/><path d=" M 101.268 30.667 L 101.402 30.667 L 101.402 22.8 L 102.446 22.8 L 106.334 29.023 L 106.452 29.023 L 106.589 29.023 L 106.541 27.346 L 106.541 22.8 L 107.303 22.8 L 107.303 30.533 L 106.437 30.533 L 102.37 24.008 L 102.252 24.008 L 102.114 24.008 L 102.163 25.685 L 102.163 30.533 L 101.268 30.533 L 101.268 30.667 L 101.402 30.667 L 101.268 30.667 L 101.268 30.8 L 102.296 30.8 L 102.429 30.8 L 102.429 25.682 L 102.384 24.138 L 102.252 24.142 L 102.252 24.275 L 102.296 24.275 L 102.296 24.142 L 102.182 24.213 L 106.29 30.8 L 107.436 30.8 L 107.569 30.8 L 107.569 22.533 L 106.408 22.533 L 106.275 22.533 L 106.275 27.35 L 106.319 28.894 L 106.452 28.89 L 106.452 28.757 L 106.408 28.757 L 106.408 28.89 L 106.521 28.819 L 102.593 22.533 L 101.268 22.533 L 101.135 22.533 L 101.135 30.8 L 101.268 30.8 L 101.268 30.667 Z " fill="rgb(255,255,255)"/><path d=" M 109.268 30.667 L 109.268 22.667 L 110.296 22.667 L 110.296 30.667 L 109.268 30.667 Z " fill="rgb(255,255,255)"/><path d=" M 109.268 30.667 L 109.402 30.667 L 109.402 22.8 L 110.163 22.8 L 110.163 30.533 L 109.268 30.533 L 109.268 30.667 L 109.402 30.667 L 109.268 30.667 L 109.268 30.8 L 110.296 30.8 L 110.429 30.8 L 110.429 22.533 L 109.268 22.533 L 109.135 22.533 L 109.135 30.8 L 109.268 30.8 L 109.268 30.667 Z " fill="rgb(255,255,255)"/><path d=" M 113.155 29.684 L 115.223 29.684 C 115.617 29.684 115.937 29.546 116.184 29.269 C 116.43 28.995 116.552 28.693 116.552 28.365 C 116.552 28.037 116.425 27.737 116.172 27.466 C 115.919 27.194 115.587 27.057 115.177 27.057 L 113.155 27.057 L 113.155 29.684 Z  M 113.155 26.096 L 115.021 26.096 C 115.409 26.096 115.72 25.969 115.954 25.711 C 116.189 25.454 116.306 25.173 116.306 24.868 C 116.306 24.563 116.193 24.282 115.965 24.03 C 115.738 23.777 115.439 23.649 115.066 23.649 L 113.155 23.649 L 113.155 26.096 Z  M 112.128 30.667 L 112.128 22.667 L 115.021 22.667 C 115.647 22.667 116.189 22.874 116.647 23.286 C 117.106 23.701 117.335 24.22 117.335 24.845 C 117.335 25.225 117.236 25.56 117.037 25.851 C 116.841 26.142 116.578 26.361 116.25 26.51 L 116.25 26.555 C 116.645 26.689 116.969 26.92 117.223 27.247 C 117.475 27.575 117.603 27.956 117.603 28.387 C 117.603 29.043 117.362 29.586 116.881 30.018 C 116.401 30.451 115.833 30.667 115.177 30.667 L 112.128 30.667 Z " fill="rgb(255,255,255)"/><path d=" M 113.155 29.684 L 113.155 29.817 L 115.223 29.817 C 115.648 29.819 116.014 29.663 116.283 29.358 L 116.283 29.358 C 116.547 29.065 116.686 28.727 116.685 28.365 C 116.686 28.002 116.542 27.665 116.269 27.375 L 116.269 27.375 C 115.993 27.075 115.616 26.922 115.177 26.924 L 113.021 26.924 L 113.021 29.817 L 113.155 29.817 L 113.155 29.684 L 113.288 29.684 L 113.288 27.191 L 115.177 27.191 C 115.558 27.192 115.846 27.313 116.075 27.556 L 116.075 27.556 C 116.31 27.81 116.418 28.072 116.419 28.365 C 116.418 28.659 116.313 28.925 116.084 29.181 L 116.084 29.181 C 115.861 29.429 115.586 29.548 115.223 29.551 L 113.155 29.551 L 113.155 29.684 L 113.288 29.684 L 113.155 29.684 Z  M 113.155 26.096 L 113.155 26.23 L 115.021 26.23 C 115.437 26.231 115.794 26.087 116.053 25.801 L 116.053 25.801 C 116.305 25.526 116.44 25.208 116.44 24.868 C 116.44 24.529 116.31 24.213 116.064 23.941 L 116.064 23.941 C 115.814 23.659 115.469 23.515 115.066 23.516 L 113.021 23.516 L 113.021 26.23 L 113.155 26.23 L 113.155 26.096 L 113.288 26.096 L 113.288 23.783 L 115.066 23.783 C 115.409 23.785 115.663 23.894 115.866 24.119 L 115.866 24.119 C 116.075 24.353 116.172 24.596 116.173 24.868 C 116.172 25.138 116.072 25.383 115.856 25.621 L 115.856 25.621 C 115.646 25.85 115.38 25.961 115.021 25.963 L 113.155 25.963 L 113.155 26.096 L 113.288 26.096 L 113.155 26.096 Z  M 112.128 30.667 L 112.261 30.667 L 112.261 22.8 L 115.021 22.8 C 115.618 22.801 116.121 22.994 116.558 23.385 L 116.558 23.385 C 116.99 23.778 117.199 24.253 117.202 24.845 C 117.201 25.202 117.11 25.508 116.928 25.776 L 116.927 25.776 C 116.744 26.047 116.503 26.249 116.195 26.389 L 116.117 26.425 L 116.117 26.555 L 116.117 26.65 L 116.207 26.681 C 116.579 26.808 116.878 27.021 117.117 27.329 L 117.117 27.329 C 117.352 27.635 117.469 27.982 117.469 28.387 C 117.468 29.01 117.247 29.509 116.792 29.919 C 116.334 30.33 115.804 30.532 115.177 30.533 L 112.128 30.533 L 112.128 30.667 L 112.261 30.667 L 112.128 30.667 L 112.128 30.8 L 115.177 30.8 C 115.863 30.801 116.468 30.571 116.971 30.117 C 117.477 29.665 117.738 29.075 117.736 28.387 C 117.737 27.93 117.598 27.516 117.328 27.166 L 117.328 27.166 C 117.059 26.819 116.71 26.57 116.293 26.429 L 116.25 26.555 L 116.383 26.555 L 116.383 26.51 L 116.25 26.51 L 116.305 26.632 C 116.654 26.474 116.939 26.237 117.148 25.925 L 117.148 25.926 C 117.361 25.613 117.468 25.248 117.468 24.845 C 117.47 24.187 117.221 23.623 116.736 23.187 L 116.733 23.185 L 116.736 23.187 C 116.256 22.754 115.677 22.532 115.021 22.533 L 111.994 22.533 L 111.994 30.8 L 112.128 30.8 L 112.128 30.667" fill="rgb(255,255,255)"/><path d=" M 118.988 30.667 L 118.988 22.667 L 120.016 22.667 L 120.016 29.684 L 123.479 29.684 L 123.479 30.667 L 118.988 30.667 Z " fill="rgb(255,255,255)"/><path d=" M 118.988 30.667 L 119.121 30.667 L 119.121 22.8 L 119.882 22.8 L 119.882 29.817 L 123.346 29.817 L 123.346 30.533 L 118.988 30.533 L 118.988 30.667 L 119.121 30.667 L 118.988 30.667 L 118.988 30.8 L 123.613 30.8 L 123.613 29.684 L 123.613 29.551 L 120.149 29.551 L 120.149 22.533 L 118.988 22.533 L 118.855 22.533 L 118.855 30.8 L 118.988 30.8 L 118.988 30.667 Z " fill="rgb(255,255,255)"/><path d=" M 129.447 23.649 L 125.803 23.649 L 125.803 26.186 L 129.089 26.186 L 129.089 27.147 L 125.803 27.147 L 125.803 29.684 L 129.447 29.684 L 129.447 30.667 L 124.776 30.667 L 124.776 22.667 L 129.447 22.667 L 129.447 23.649" fill="rgb(255,255,255)"/><path d=" M 129.447 23.649 L 129.447 23.516 L 125.67 23.516 L 125.67 26.319 L 128.955 26.319 L 128.955 27.014 L 125.67 27.014 L 125.67 29.817 L 129.314 29.817 L 129.314 30.533 L 124.909 30.533 L 124.909 22.8 L 129.314 22.8 L 129.314 23.649 L 129.447 23.649 L 129.447 23.516 L 129.447 23.649 L 129.58 23.649 L 129.58 22.667 L 129.58 22.533 L 124.643 22.533 L 124.643 30.8 L 129.58 30.8 L 129.58 29.684 L 129.58 29.551 L 125.936 29.551 L 125.936 27.281 L 129.222 27.281 L 129.222 26.186 L 129.222 26.053 L 125.936 26.053 L 125.936 23.783 L 129.58 23.783 L 129.58 23.649 L 129.447 23.649" fill="rgb(255,255,255)"/><path d=" M 138.408 23.649 L 134.764 23.649 L 134.764 26.186 L 138.049 26.186 L 138.049 27.147 L 134.764 27.147 L 134.764 29.684 L 138.408 29.684 L 138.408 30.667 L 133.737 30.667 L 133.737 22.667 L 138.408 22.667 L 138.408 23.649 Z " fill="rgb(255,255,255)"/><path d=" M 138.408 23.649 L 138.408 23.516 L 134.631 23.516 L 134.631 26.319 L 137.916 26.319 L 137.916 27.014 L 134.631 27.014 L 134.631 29.817 L 138.275 29.817 L 138.275 30.533 L 133.871 30.533 L 133.871 22.8 L 138.275 22.8 L 138.275 23.649 L 138.408 23.649 L 138.408 23.516 L 138.408 23.649 L 138.541 23.649 L 138.541 22.667 L 138.541 22.533 L 133.604 22.533 L 133.604 30.8 L 138.541 30.8 L 138.541 29.684 L 138.541 29.551 L 134.897 29.551 L 134.897 27.281 L 138.183 27.281 L 138.183 26.186 L 138.183 26.053 L 134.897 26.053 L 134.897 23.783 L 138.541 23.783 L 138.541 23.649 L 138.408 23.649" fill="rgb(255,255,255)"/><path d=" M 140.016 30.667 L 140.016 22.667 L 141.267 22.667 L 145.155 28.89 L 145.199 28.89 L 145.155 27.348 L 145.155 22.667 L 146.184 22.667 L 146.184 30.667 L 145.111 30.667 L 141.043 24.142 L 140.999 24.142 L 141.043 25.684 L 141.043 30.667 L 140.016 30.667" fill="rgb(255,255,255)"/><path d=" M 140.016 30.667 L 140.149 30.667 L 140.149 22.8 L 141.193 22.8 L 145.081 29.023 L 145.199 29.023 L 145.336 29.023 L 145.288 27.346 L 145.288 22.8 L 146.051 22.8 L 146.051 30.533 L 145.184 30.533 L 141.117 24.008 L 140.999 24.008 L 140.861 24.008 L 140.909 25.685 L 140.909 30.533 L 140.016 30.533 L 140.016 30.667 L 140.149 30.667 L 140.016 30.667 L 140.016 30.8 L 141.043 30.8 L 141.176 30.8 L 141.176 25.682 L 141.132 24.138 L 140.999 24.142 L 140.999 24.275 L 141.043 24.275 L 141.043 24.142 L 140.929 24.213 L 145.037 30.8 L 146.184 30.8 L 146.317 30.8 L 146.317 22.533 L 145.155 22.533 L 145.021 22.533 L 145.021 27.35 L 145.065 28.894 L 145.199 28.89 L 145.199 28.757 L 145.155 28.757 L 145.155 28.89 L 145.268 28.819 L 141.341 22.533 L 140.016 22.533 L 139.883 22.533 L 139.883 30.8 L 140.016 30.8 L 140.016 30.667" fill="rgb(255,255,255)"/></g></g></svg>