<?xml version="1.0" encoding="UTF-8" standalone="no"?><!-- Generator: Gravit.io --><svg xmlns="http://www.w3.org/2000/svg" xmlns:xlink="http://www.w3.org/1999/xlink" style="isolation:isolate" viewBox="0 0 206.667 80" width="206.667pt" height="80pt"><defs><clipPath id="_clipPath_WYkIv2SL4y17dKrLddNEkC5AxKLKItYg"><rect width="206.667" height="80"/></clipPath></defs><g clip-path="url(#_clipPath_WYkIv2SL4y17dKrLddNEkC5AxKLKItYg)"><g><path d=" M 186.667 66.667 L 20 66.667 C 16.333 66.667 13.333 63.667 13.333 60 L 13.333 20 C 13.333 16.333 16.333 13.333 20 13.333 L 186.667 13.333 C 190.333 13.333 193.333 16.333 193.333 20 L 193.333 60 C 193.333 63.667 190.333 66.667 186.667 66.667 Z " fill="rgb(0,0,0)"/><path d=" M 186.667 13.333 L 20 13.333 C 16.333 13.333 13.333 16.333 13.333 20 L 13.333 60 C 13.333 63.667 16.333 66.667 20 66.667 L 186.667 66.667 C 190.333 66.667 193.333 63.667 193.333 60 L 193.333 20 C 193.333 16.333 190.333 13.333 186.667 13.333 Z  M 186.667 14.4 C 189.755 14.4 192.267 16.913 192.267 20 L 192.267 60 C 192.267 63.088 189.755 65.601 186.667 65.601 L 20 65.601 C 16.913 65.601 14.4 63.088 14.4 60 L 14.4 20 C 14.4 16.913 16.913 14.4 20 14.4 L 186.667 14.4 Z " fill="rgb(166,166,166)"/><path d=" M 155.915 53.333 L 158.403 53.333 L 158.403 36.665 L 155.915 36.665 L 155.915 53.333 Z  M 178.324 42.669 L 175.472 49.896 L 175.387 49.896 L 172.427 42.669 L 169.747 42.669 L 174.185 52.77 L 171.655 58.388 L 174.251 58.388 L 181.091 42.669 L 178.324 42.669 Z  M 164.215 51.44 C 163.399 51.44 162.263 51.033 162.263 50.025 C 162.263 48.738 163.679 48.245 164.9 48.245 C 165.995 48.245 166.508 48.481 167.173 48.803 C 166.98 50.346 165.651 51.44 164.215 51.44 L 164.215 51.44 Z  M 164.515 42.305 C 162.713 42.305 160.848 43.098 160.076 44.857 L 162.284 45.779 C 162.756 44.857 163.635 44.556 164.557 44.556 C 165.844 44.556 167.152 45.329 167.173 46.701 L 167.173 46.872 C 166.723 46.615 165.759 46.229 164.579 46.229 C 162.199 46.229 159.775 47.537 159.775 49.982 C 159.775 52.212 161.727 53.649 163.913 53.649 C 165.587 53.649 166.508 52.898 167.088 52.019 L 167.173 52.019 L 167.173 53.306 L 169.575 53.306 L 169.575 46.915 C 169.575 43.956 167.367 42.305 164.515 42.305 L 164.515 42.305 Z  M 149.139 44.698 L 145.6 44.698 L 145.6 38.985 L 149.139 38.985 C 150.999 38.985 152.055 40.525 152.055 41.842 C 152.055 43.133 150.999 44.698 149.139 44.698 Z  M 149.075 36.665 L 143.113 36.665 L 143.113 53.333 L 145.6 53.333 L 145.6 47.018 L 149.075 47.018 C 151.832 47.018 154.543 45.022 154.543 41.842 C 154.543 38.661 151.832 36.665 149.075 36.665 Z  M 116.567 51.443 C 114.848 51.443 113.409 50.004 113.409 48.028 C 113.409 46.03 114.848 44.569 116.567 44.569 C 118.264 44.569 119.595 46.03 119.595 48.028 C 119.595 50.004 118.264 51.443 116.567 51.443 L 116.567 51.443 Z  M 119.423 43.603 L 119.337 43.603 C 118.779 42.937 117.705 42.335 116.352 42.335 C 113.516 42.335 110.917 44.827 110.917 48.028 C 110.917 51.207 113.516 53.677 116.352 53.677 C 117.705 53.677 118.779 53.075 119.337 52.389 L 119.423 52.389 L 119.423 53.205 C 119.423 55.375 118.264 56.534 116.395 56.534 C 114.87 56.534 113.925 55.439 113.537 54.515 L 111.368 55.417 C 111.991 56.921 113.645 58.768 116.395 58.768 C 119.316 58.768 121.786 57.049 121.786 52.861 L 121.786 42.679 L 119.423 42.679 L 119.423 43.603 Z  M 123.505 53.333 L 125.996 53.333 L 125.996 36.665 L 123.505 36.665 L 123.505 53.333 Z  M 129.67 47.834 C 129.605 45.643 131.367 44.527 132.634 44.527 C 133.623 44.527 134.46 45.02 134.739 45.73 L 129.67 47.834 Z  M 137.403 45.944 C 136.931 44.677 135.491 42.335 132.548 42.335 C 129.627 42.335 127.199 44.634 127.199 48.006 C 127.199 51.185 129.605 53.677 132.827 53.677 C 135.427 53.677 136.931 52.087 137.553 51.164 L 135.62 49.875 C 134.976 50.82 134.095 51.443 132.827 51.443 C 131.56 51.443 130.658 50.863 130.078 49.725 L 137.66 46.589 L 137.403 45.944 Z  M 76.992 44.075 L 76.992 46.481 L 82.748 46.481 C 82.577 47.834 82.125 48.822 81.438 49.51 C 80.601 50.348 79.29 51.271 76.992 51.271 C 73.447 51.271 70.677 48.415 70.677 44.87 C 70.677 41.326 73.447 38.469 76.992 38.469 C 78.904 38.469 80.299 39.221 81.331 40.187 L 83.028 38.491 C 81.589 37.116 79.677 36.063 76.992 36.063 C 72.137 36.063 68.056 40.016 68.056 44.87 C 68.056 49.725 72.137 53.677 76.992 53.677 C 79.613 53.677 81.589 52.818 83.135 51.207 C 84.725 49.617 85.219 47.383 85.219 45.579 C 85.219 45.02 85.176 44.505 85.09 44.075 L 76.992 44.075 Z  M 91.764 51.443 C 90.045 51.443 88.563 50.025 88.563 48.006 C 88.563 45.966 90.045 44.569 91.764 44.569 C 93.482 44.569 94.964 45.966 94.964 48.006 C 94.964 50.025 93.482 51.443 91.764 51.443 L 91.764 51.443 Z  M 91.764 42.335 C 88.627 42.335 86.071 44.72 86.071 48.006 C 86.071 51.271 88.627 53.677 91.764 53.677 C 94.899 53.677 97.456 51.271 97.456 48.006 C 97.456 44.72 94.899 42.335 91.764 42.335 Z  M 104.181 51.443 C 102.463 51.443 100.981 50.025 100.981 48.006 C 100.981 45.966 102.463 44.569 104.181 44.569 C 105.899 44.569 107.382 45.966 107.382 48.006 C 107.382 50.025 105.899 51.443 104.181 51.443 Z  M 104.181 42.335 C 101.045 42.335 98.489 44.72 98.489 48.006 C 98.489 51.271 101.045 53.677 104.181 53.677 C 107.317 53.677 109.873 51.271 109.873 48.006 C 109.873 44.72 107.317 42.335 104.181 42.335 Z " fill="rgb(255,255,255)"/><g><clipPath id="_clipPath_XQ99G1E7pRW3fOfKk4k3bysjvCe674So"><path d=" M 27.346 56.519 L 27.247 56.425 C 26.859 56.014 26.63 55.377 26.63 54.551 L 26.63 54.745 L 26.63 54.745 L 26.63 25.257 C 26.63 25.255 26.63 25.253 26.63 25.251 C 26.63 25.253 26.63 25.255 26.63 25.258 L 26.63 25.453 C 26.63 24.559 26.897 23.885 27.345 23.482 L 43.865 40.001 L 27.346 56.519 Z  M 26.63 25.249 C 26.63 25.175 26.632 25.104 26.636 25.034 C 26.632 25.104 26.63 25.175 26.63 25.249 Z  M 26.636 25.031 C 26.636 25.03 26.636 25.029 26.636 25.028 C 26.636 25.029 26.636 25.03 26.636 25.031 Z  M 26.636 25.021 C 26.636 25.021 26.636 25.02 26.636 25.02 C 26.636 25.02 26.636 25.021 26.636 25.021 Z " fill="rgb(255,255,255)"/></clipPath><g clip-path="url(#_clipPath_XQ99G1E7pRW3fOfKk4k3bysjvCe674So)"><g><linearGradient id="_lgradient_24" x1="0.9150065373635474" y1="0.9556707105439463" x2="-0.12049917872697291" y2="-0.0798350055465743" gradientTransform="matrix(17.234,0,0,-33.038,26.63,56.519)" gradientUnits="userSpaceOnUse"><stop offset="0%" stop-opacity="1" style="stop-color:rgb(0,160,255)"/><stop offset="0.657445%" stop-opacity="1" style="stop-color:rgb(0,161,255)"/><stop offset="26.009999999999998%" stop-opacity="1" style="stop-color:rgb(0,190,255)"/><stop offset="51.22%" stop-opacity="1" style="stop-color:rgb(0,210,255)"/><stop offset="76.03999999999999%" stop-opacity="1" style="stop-color:rgb(0,223,255)"/><stop offset="100%" stop-opacity="1" style="stop-color:rgb(0,227,255)"/></linearGradient><path d=" M 27.346 56.519 L 27.247 56.425 C 26.859 56.014 26.63 55.377 26.63 54.551 L 26.63 54.745 L 26.63 54.745 L 26.63 25.257 C 26.63 25.255 26.63 25.253 26.63 25.251 C 26.63 25.253 26.63 25.255 26.63 25.258 L 26.63 25.453 C 26.63 24.559 26.897 23.885 27.345 23.482 L 43.865 40.001 L 27.346 56.519 Z  M 26.63 25.249 C 26.63 25.175 26.632 25.104 26.636 25.034 C 26.632 25.104 26.63 25.175 26.63 25.249 Z  M 26.636 25.031 C 26.636 25.03 26.636 25.029 26.636 25.028 C 26.636 25.029 26.636 25.03 26.636 25.031 Z  M 26.636 25.021 C 26.636 25.021 26.636 25.02 26.636 25.02 C 26.636 25.02 26.636 25.021 26.636 25.021 Z " fill="url(#_lgradient_24)"/></g></g></g><g><clipPath id="_clipPath_k2QwhG9JTYt2QodbksMdFKnyJQGVlRgf"><path d=" M 49.37 45.705 L 49.37 45.705 L 49.496 45.633 L 56.02 41.927 C 56.642 41.573 57.056 41.144 57.263 40.691 C 57.057 41.144 56.642 41.573 56.02 41.927 L 49.496 45.634 L 49.37 45.705 M 49.372 45.509 L 43.865 40.001 L 49.371 34.494 L 56.02 38.271 C 56.864 38.751 57.338 39.369 57.417 40.001 C 57.417 40.001 57.417 40.002 57.417 40.003 C 57.338 40.633 56.864 41.252 56.02 41.732 L 49.372 45.509" fill="rgb(255,255,255)"/></clipPath><g clip-path="url(#_clipPath_k2QwhG9JTYt2QodbksMdFKnyJQGVlRgf)"><g><linearGradient id="_lgradient_25" x1="1.0759014216144425" y1="0.5086820009038799" x2="-1.3046386934920564" y2="0.5086820009038796" gradientTransform="matrix(13.553,0,0,-11.211,43.865,45.705)" gradientUnits="userSpaceOnUse"><stop offset="0%" stop-opacity="1" style="stop-color:rgb(255,224,0)"/><stop offset="40.87%" stop-opacity="1" style="stop-color:rgb(255,189,0)"/><stop offset="77.53999999999999%" stop-opacity="1" style="stop-color:rgb(255,165,0)"/><stop offset="100%" stop-opacity="1" style="stop-color:rgb(255,156,0)"/></linearGradient><path d=" M 49.37 45.705 L 49.37 45.705 L 49.496 45.633 L 56.02 41.927 C 56.642 41.573 57.056 41.144 57.263 40.691 C 57.057 41.144 56.642 41.573 56.02 41.927 L 49.496 45.634 L 49.37 45.705 M 49.372 45.509 L 43.865 40.001 L 49.371 34.494 L 56.02 38.271 C 56.864 38.751 57.338 39.369 57.417 40.001 C 57.417 40.001 57.417 40.002 57.417 40.003 C 57.338 40.633 56.864 41.252 56.02 41.732 L 49.372 45.509" fill="url(#_lgradient_25)"/></g></g></g><g><clipPath id="_clipPath_1k4ABwHKMzSpRdDtUMe0oYpiq16siNla"><path d=" M 28.524 57.148 C 28.063 57.148 27.66 56.998 27.346 56.715 L 27.346 56.715 C 27.66 56.998 28.064 57.148 28.525 57.148 C 28.565 57.148 28.606 57.147 28.647 57.145 C 28.605 57.147 28.564 57.148 28.524 57.148 M 28.525 56.953 C 28.063 56.954 27.66 56.803 27.346 56.52 L 27.346 56.52 L 27.346 56.519 L 43.865 40.001 L 49.372 45.509 L 49.372 45.509 L 30.018 56.506 C 29.483 56.809 28.975 56.953 28.525 56.953 M 27.342 56.711 C 27.313 56.685 27.284 56.657 27.256 56.628 L 27.342 56.711 Z " fill="rgb(255,255,255)"/></clipPath><g clip-path="url(#_clipPath_1k4ABwHKMzSpRdDtUMe0oYpiq16siNla)"><g><linearGradient id="_lgradient_26" x1="0.8672522623002215" y1="0.8215232689242253" x2="-0.5047958956056213" y2="-0.5505248889816177" gradientTransform="matrix(22.116,0,0,-17.147,27.256,57.148)" gradientUnits="userSpaceOnUse"><stop offset="0%" stop-opacity="1" style="stop-color:rgb(255,58,68)"/><stop offset="100%" stop-opacity="1" style="stop-color:rgb(195,17,98)"/></linearGradient><path d=" M 28.524 57.148 C 28.063 57.148 27.66 56.998 27.346 56.715 L 27.346 56.715 C 27.66 56.998 28.064 57.148 28.525 57.148 C 28.565 57.148 28.606 57.147 28.647 57.145 C 28.605 57.147 28.564 57.148 28.524 57.148 M 28.525 56.953 C 28.063 56.954 27.66 56.803 27.346 56.52 L 27.346 56.52 L 27.346 56.519 L 43.865 40.001 L 49.372 45.509 L 49.372 45.509 L 30.018 56.506 C 29.483 56.809 28.975 56.953 28.525 56.953 M 27.342 56.711 C 27.313 56.685 27.284 56.657 27.256 56.628 L 27.342 56.711 Z " fill="url(#_lgradient_26)"/></g></g></g><g><clipPath id="_clipPath_IsqbHMIAX5qtGnZxEOL4JCdhTw7edRI4"><path d=" M 43.865 40.001 L 43.865 40.001 L 27.345 23.482 C 27.659 23.199 28.061 23.049 28.522 23.049 C 28.974 23.049 29.482 23.193 30.018 23.497 L 49.371 34.494 L 43.865 40.001 M 49.496 34.369 L 30.018 23.303 C 29.482 22.998 28.974 22.854 28.522 22.854 C 28.52 22.854 28.518 22.854 28.516 22.854 C 28.519 22.854 28.521 22.854 28.524 22.854 C 28.975 22.854 29.482 22.998 30.018 23.302 L 49.496 34.369 M 28.512 22.854 L 28.512 22.854 L 28.512 22.854 Z " fill="rgb(255,255,255)"/></clipPath><g clip-path="url(#_clipPath_IsqbHMIAX5qtGnZxEOL4JCdhTw7edRI4)"><g><linearGradient id="_lgradient_27" x1="-0.19329693679160664" y1="1.541546787763799" x2="0.4184117544377095" y2="0.9298380965344829" gradientTransform="matrix(22.151,0,0,-17.147,27.345,40.001)" gradientUnits="userSpaceOnUse"><stop offset="0%" stop-opacity="1" style="stop-color:rgb(50,160,113)"/><stop offset="6.8500000000000005%" stop-opacity="1" style="stop-color:rgb(45,167,113)"/><stop offset="47.620000000000005%" stop-opacity="1" style="stop-color:rgb(21,207,116)"/><stop offset="80.08999999999999%" stop-opacity="1" style="stop-color:rgb(6,231,117)"/><stop offset="100%" stop-opacity="1" style="stop-color:rgb(0,240,118)"/></linearGradient><path d=" M 43.865 40.001 L 43.865 40.001 L 27.345 23.482 C 27.659 23.199 28.061 23.049 28.522 23.049 C 28.974 23.049 29.482 23.193 30.018 23.497 L 49.371 34.494 L 43.865 40.001 M 49.496 34.369 L 30.018 23.303 C 29.482 22.998 28.974 22.854 28.522 22.854 C 28.52 22.854 28.518 22.854 28.516 22.854 C 28.519 22.854 28.521 22.854 28.524 22.854 C 28.975 22.854 29.482 22.998 30.018 23.302 L 49.496 34.369 M 28.512 22.854 L 28.512 22.854 L 28.512 22.854 Z " fill="url(#_lgradient_27)"/></g></g></g><path d=" M 28.647 57.145 C 29.066 57.121 29.53 56.977 30.018 56.701 L 49.37 45.705 L 49.37 45.705 L 30.018 56.701 C 29.531 56.978 29.066 57.121 28.647 57.145 M 27.346 56.715 L 27.342 56.711 C 27.343 56.713 27.345 56.714 27.346 56.715 L 27.346 56.715 Z  M 27.256 56.628 L 27.247 56.619 L 27.247 56.619 C 27.251 56.622 27.253 56.625 27.256 56.628 Z " fill="rgb(0,0,0)"/><g><clipPath id="_clipPath_hwjWtiXORiTqeALNYCQbcd7UWg9vJw6W"><path d=" M 49.37 45.705 L 49.37 45.705 L 49.496 45.633 L 49.37 45.705 Z " fill="rgb(255,255,255)"/></clipPath><g clip-path="url(#_clipPath_hwjWtiXORiTqeALNYCQbcd7UWg9vJw6W)"><g><linearGradient id="_lgradient_28" x1="72.25796178343893" y1="79.94579439251964" x2="-184.61040339702618" y2="79.94579439251962" gradientTransform="matrix(0.126,0,0,-0.071,49.37,45.705)" gradientUnits="userSpaceOnUse"><stop offset="0%" stop-opacity="1" style="stop-color:rgb(204,179,0)"/><stop offset="40.87%" stop-opacity="1" style="stop-color:rgb(204,151,0)"/><stop offset="77.53999999999999%" stop-opacity="1" style="stop-color:rgb(204,132,0)"/><stop offset="100%" stop-opacity="1" style="stop-color:rgb(204,125,0)"/></linearGradient><path d=" M 49.37 45.705 L 49.37 45.705 L 49.496 45.633 L 49.37 45.705 Z " fill="url(#_lgradient_28)"/></g></g></g><g><clipPath id="_clipPath_z4uCGUzARJ6DFMk6CdHadQnFmePTpatw"><path d=" M 28.525 57.148 C 28.064 57.148 27.66 56.998 27.346 56.715 L 27.346 56.715 C 27.345 56.714 27.343 56.713 27.342 56.711 L 27.256 56.628 C 27.253 56.625 27.251 56.622 27.247 56.619 L 27.346 56.52 C 27.66 56.803 28.063 56.954 28.525 56.953 C 28.975 56.953 29.483 56.809 30.018 56.506 L 49.372 45.509 L 49.496 45.633 L 49.37 45.705 L 30.018 56.701 C 29.53 56.977 29.066 57.121 28.647 57.145 C 28.606 57.147 28.565 57.148 28.525 57.148" fill="rgb(255,255,255)"/></clipPath><g clip-path="url(#_clipPath_z4uCGUzARJ6DFMk6CdHadQnFmePTpatw)"><g><linearGradient id="_lgradient_29" x1="0.8624688368971136" y1="1.2103146873174255" x2="-0.5014143254386805" y2="-0.1535684750183688" gradientTransform="matrix(22.249,0,0,-11.639,27.247,57.148)" gradientUnits="userSpaceOnUse"><stop offset="0%" stop-opacity="1" style="stop-color:rgb(204,46,54)"/><stop offset="100%" stop-opacity="1" style="stop-color:rgb(156,14,78)"/></linearGradient><path d=" M 28.525 57.148 C 28.064 57.148 27.66 56.998 27.346 56.715 L 27.346 56.715 C 27.345 56.714 27.343 56.713 27.342 56.711 L 27.256 56.628 C 27.253 56.625 27.251 56.622 27.247 56.619 L 27.346 56.52 C 27.66 56.803 28.063 56.954 28.525 56.953 C 28.975 56.953 29.483 56.809 30.018 56.506 L 49.372 45.509 L 49.496 45.633 L 49.37 45.705 L 30.018 56.701 C 29.53 56.977 29.066 57.121 28.647 57.145 C 28.606 57.147 28.565 57.148 28.525 57.148" fill="url(#_lgradient_29)"/></g></g></g><path d=" M 27.247 56.619 C 26.859 56.209 26.63 55.571 26.63 54.746 L 26.63 54.745 C 26.63 55.571 26.859 56.208 27.247 56.619 L 27.247 56.619 L 27.247 56.619 L 27.247 56.619" fill="rgb(0,0,0)"/><g><clipPath id="_clipPath_Eys3RpcyThfQZocsb7VPiCvBHwVcmrZf"><path d=" M 27.247 56.619 L 27.247 56.619 C 26.859 56.208 26.63 55.571 26.63 54.745 L 26.63 54.551 C 26.63 55.377 26.859 56.014 27.247 56.425 L 27.346 56.519 L 27.247 56.619" fill="rgb(255,255,255)"/></clipPath><g clip-path="url(#_clipPath_Eys3RpcyThfQZocsb7VPiCvBHwVcmrZf)"><g><linearGradient id="_lgradient_30" x1="22.020294172407453" y1="15.317513541397982" x2="-1.3619257323663696" y2="-8.064706363375844" gradientTransform="matrix(0.716,0,0,-2.068,26.63,56.619)" gradientUnits="userSpaceOnUse"><stop offset="0%" stop-opacity="1" style="stop-color:rgb(0,141,224)"/><stop offset="0.657445%" stop-opacity="1" style="stop-color:rgb(0,141,224)"/><stop offset="26.009999999999998%" stop-opacity="1" style="stop-color:rgb(0,167,224)"/><stop offset="51.22%" stop-opacity="1" style="stop-color:rgb(0,184,224)"/><stop offset="76.03999999999999%" stop-opacity="1" style="stop-color:rgb(0,196,224)"/><stop offset="100%" stop-opacity="1" style="stop-color:rgb(0,199,224)"/></linearGradient><path d=" M 27.247 56.619 L 27.247 56.619 C 26.859 56.208 26.63 55.571 26.63 54.745 L 26.63 54.551 C 26.63 55.377 26.859 56.014 27.247 56.425 L 27.346 56.519 L 27.247 56.619" fill="url(#_lgradient_30)"/></g></g></g><g><clipPath id="_clipPath_RavcKmY9nFTG0XstwJvQdMTvgQG0VE2Z"><path d=" M 27.247 56.619 L 27.247 56.619 L 27.247 56.619 L 27.346 56.519 L 27.346 56.52 L 27.247 56.619" fill="rgb(255,255,255)"/></clipPath><g clip-path="url(#_clipPath_RavcKmY9nFTG0XstwJvQdMTvgQG0VE2Z)"><g><linearGradient id="_lgradient_31" x1="193.69448183041857" y1="136.300268096513" x2="-111.99307458722285" y2="-169.38728832112847" gradientTransform="matrix(0.099,0,0,-0.099,27.247,56.619)" gradientUnits="userSpaceOnUse"><stop offset="0%" stop-opacity="1" style="stop-color:rgb(224,51,60)"/><stop offset="100%" stop-opacity="1" style="stop-color:rgb(171,15,86)"/></linearGradient><path d=" M 27.247 56.619 L 27.247 56.619 L 27.247 56.619 L 27.346 56.519 L 27.346 56.52 L 27.247 56.619" fill="url(#_lgradient_31)"/></g></g></g><path d=" M 57.263 40.691 C 57.366 40.466 57.417 40.234 57.417 40.003 C 57.417 40.003 57.417 40.002 57.417 40.002 C 57.417 40.234 57.366 40.465 57.263 40.691 Z " fill="rgb(0,0,0)"/><g><clipPath id="_clipPath_xzGH3e8pKBCO6CI3YyzWmqb26Hgzqdaz"><path d=" M 49.496 45.633 L 49.496 45.633 L 49.372 45.509 L 56.02 41.732 C 56.864 41.252 57.338 40.633 57.417 40.003 C 57.417 40.234 57.366 40.466 57.263 40.691 C 57.056 41.144 56.642 41.573 56.02 41.927 L 49.496 45.633 Z " fill="rgb(255,255,255)"/></clipPath><g clip-path="url(#_clipPath_xzGH3e8pKBCO6CI3YyzWmqb26Hgzqdaz)"><g><linearGradient id="_lgradient_32" x1="1.1278588001325822" y1="1.0002131337769677" x2="-2.8822505800464047" y2="1.0002131337769673" gradientTransform="matrix(8.045,0,0,-5.63,49.372,45.633)" gradientUnits="userSpaceOnUse"><stop offset="0%" stop-opacity="1" style="stop-color:rgb(224,197,0)"/><stop offset="40.87%" stop-opacity="1" style="stop-color:rgb(224,166,0)"/><stop offset="77.53999999999999%" stop-opacity="1" style="stop-color:rgb(224,145,0)"/><stop offset="100%" stop-opacity="1" style="stop-color:rgb(224,137,0)"/></linearGradient><path d=" M 49.496 45.633 L 49.496 45.633 L 49.372 45.509 L 56.02 41.732 C 56.864 41.252 57.338 40.633 57.417 40.003 C 57.417 40.234 57.366 40.466 57.263 40.691 C 57.056 41.144 56.642 41.573 56.02 41.927 L 49.496 45.633 Z " fill="url(#_lgradient_32)"/></g></g></g><path d=" M 57.417 40.001 L 57.417 40.001 C 57.417 39.303 56.951 38.606 56.02 38.077 L 49.496 34.37 L 49.495 34.37 L 49.496 34.369 L 56.02 38.076 C 56.952 38.605 57.418 39.304 57.417 40.001 Z " fill="rgb(64,64,64)"/><g><clipPath id="_clipPath_dLBzn2Ipiqnjq3dgwGh0IkYGGCTzQmol"><path d=" M 57.417 40.001 C 57.338 39.369 56.864 38.751 56.02 38.271 L 49.371 34.494 L 49.495 34.37 L 49.496 34.37 L 56.02 38.077 C 56.951 38.606 57.417 39.303 57.417 40.001 Z " fill="rgb(255,255,255)"/></clipPath><g clip-path="url(#_clipPath_dLBzn2Ipiqnjq3dgwGh0IkYGGCTzQmol)"><g><linearGradient id="_lgradient_33" x1="1.127850324804454" y1="-0.00023679287726974252" x2="-2.8819932387644176" y2="-0.00023679287727023358" gradientTransform="matrix(8.046,0,0,-5.631,49.371,40.001)" gradientUnits="userSpaceOnUse"><stop offset="0%" stop-opacity="1" style="stop-color:rgb(255,232,64)"/><stop offset="40.87%" stop-opacity="1" style="stop-color:rgb(255,206,64)"/><stop offset="77.53999999999999%" stop-opacity="1" style="stop-color:rgb(255,188,64)"/><stop offset="100%" stop-opacity="1" style="stop-color:rgb(255,181,64)"/></linearGradient><path d=" M 57.417 40.001 C 57.338 39.369 56.864 38.751 56.02 38.271 L 49.371 34.494 L 49.495 34.37 L 49.496 34.37 L 56.02 38.077 C 56.951 38.606 57.417 39.303 57.417 40.001 Z " fill="url(#_lgradient_33)"/></g></g></g><path d=" M 26.63 25.251 C 26.63 25.25 26.63 25.249 26.63 25.249 C 26.63 25.249 26.63 25.25 26.63 25.251 Z  M 26.636 25.034 C 26.636 25.033 26.636 25.032 26.636 25.031 C 26.636 25.032 26.636 25.033 26.636 25.034 Z  M 26.636 25.028 C 26.636 25.025 26.636 25.023 26.636 25.021 C 26.636 25.023 26.636 25.025 26.636 25.028 Z  M 26.636 25.02 C 26.714 23.65 27.458 22.859 28.512 22.854 C 28.055 22.857 27.657 23.007 27.346 23.287 L 27.346 23.287 L 27.342 23.291 C 27.309 23.32 27.278 23.352 27.247 23.384 L 27.247 23.384 C 26.897 23.754 26.677 24.309 26.636 25.02 Z " fill="rgb(64,64,64)"/><g><clipPath id="_clipPath_eGTplvKx6Z0Mllo766yed0HaUusUEFiu"><path d=" M 26.63 25.453 L 26.63 25.258 C 26.63 25.255 26.63 25.253 26.63 25.251 C 26.63 25.25 26.63 25.249 26.63 25.249 C 26.63 25.175 26.632 25.104 26.636 25.034 C 26.636 25.033 26.636 25.032 26.636 25.031 C 26.636 25.03 26.636 25.029 26.636 25.028 C 26.636 25.025 26.636 25.023 26.636 25.021 C 26.636 25.021 26.636 25.02 26.636 25.02 C 26.677 24.309 26.897 23.754 27.247 23.384 L 27.247 23.384 L 27.247 23.384 L 27.345 23.482 C 26.897 23.885 26.63 24.559 26.63 25.453 M 27.342 23.291 L 27.346 23.287 C 27.345 23.289 27.343 23.29 27.342 23.291 Z " fill="rgb(255,255,255)"/></clipPath><g clip-path="url(#_clipPath_eGTplvKx6Z0Mllo766yed0HaUusUEFiu)"><g><linearGradient id="_lgradient_34" x1="22.036705794671178" y1="0.23382380102197686" x2="-1.2501293184407167" y2="-23.05301131208992" gradientTransform="matrix(0.716,0,0,-2.166,26.63,25.453)" gradientUnits="userSpaceOnUse"><stop offset="0%" stop-opacity="1" style="stop-color:rgb(64,184,255)"/><stop offset="0.657445%" stop-opacity="1" style="stop-color:rgb(64,185,255)"/><stop offset="26.009999999999998%" stop-opacity="1" style="stop-color:rgb(64,206,255)"/><stop offset="51.22%" stop-opacity="1" style="stop-color:rgb(64,221,255)"/><stop offset="76.03999999999999%" stop-opacity="1" style="stop-color:rgb(64,231,255)"/><stop offset="100%" stop-opacity="1" style="stop-color:rgb(64,234,255)"/></linearGradient><path d=" M 26.63 25.453 L 26.63 25.258 C 26.63 25.255 26.63 25.253 26.63 25.251 C 26.63 25.25 26.63 25.249 26.63 25.249 C 26.63 25.175 26.632 25.104 26.636 25.034 C 26.636 25.033 26.636 25.032 26.636 25.031 C 26.636 25.03 26.636 25.029 26.636 25.028 C 26.636 25.025 26.636 25.023 26.636 25.021 C 26.636 25.021 26.636 25.02 26.636 25.02 C 26.677 24.309 26.897 23.754 27.247 23.384 L 27.247 23.384 L 27.247 23.384 L 27.345 23.482 C 26.897 23.885 26.63 24.559 26.63 25.453 M 27.342 23.291 L 27.346 23.287 C 27.345 23.289 27.343 23.29 27.342 23.291 Z " fill="url(#_lgradient_34)"/></g></g></g><path d=" M 28.512 22.854 C 28.513 22.854 28.515 22.854 28.516 22.854 C 28.515 22.854 28.513 22.854 28.512 22.854 Z " fill="rgb(64,64,64)"/><g><clipPath id="_clipPath_xA4KkuaZfLHsd35Uto8kOq6Q7P2Myh21"><path d=" M 49.371 34.494 L 30.018 23.497 C 29.482 23.193 28.974 23.049 28.522 23.049 C 28.061 23.049 27.659 23.199 27.345 23.482 L 27.247 23.384 L 27.247 23.384 C 27.278 23.352 27.309 23.32 27.342 23.291 C 27.343 23.29 27.345 23.289 27.346 23.287 C 27.657 23.007 28.055 22.857 28.512 22.854 L 28.512 22.854 C 28.513 22.854 28.515 22.854 28.516 22.854 C 28.518 22.854 28.52 22.854 28.522 22.854 C 28.974 22.854 29.482 22.998 30.018 23.303 L 49.496 34.369 L 49.495 34.37 L 49.371 34.494 Z " fill="rgb(255,255,255)"/></clipPath><g clip-path="url(#_clipPath_xA4KkuaZfLHsd35Uto8kOq6Q7P2Myh21)"><g><linearGradient id="_lgradient_35" x1="-0.18806932591811276" y1="1.7977822834690773" x2="0.4209595838527185" y2="1.1887533736982463" gradientTransform="matrix(22.249,0,0,-11.64,27.247,34.494)" gradientUnits="userSpaceOnUse"><stop offset="0%" stop-opacity="1" style="stop-color:rgb(101,184,149)"/><stop offset="6.8500000000000005%" stop-opacity="1" style="stop-color:rgb(98,189,149)"/><stop offset="47.620000000000005%" stop-opacity="1" style="stop-color:rgb(80,219,151)"/><stop offset="80.08999999999999%" stop-opacity="1" style="stop-color:rgb(68,237,152)"/><stop offset="100%" stop-opacity="1" style="stop-color:rgb(64,244,152)"/></linearGradient><path d=" M 49.371 34.494 L 30.018 23.497 C 29.482 23.193 28.974 23.049 28.522 23.049 C 28.061 23.049 27.659 23.199 27.345 23.482 L 27.247 23.384 L 27.247 23.384 C 27.278 23.352 27.309 23.32 27.342 23.291 C 27.343 23.29 27.345 23.289 27.346 23.287 C 27.657 23.007 28.055 22.857 28.512 22.854 L 28.512 22.854 C 28.513 22.854 28.515 22.854 28.516 22.854 C 28.518 22.854 28.52 22.854 28.522 22.854 C 28.974 22.854 29.482 22.998 30.018 23.303 L 49.496 34.369 L 49.495 34.37 L 49.371 34.494 Z " fill="url(#_lgradient_35)"/></g></g></g><path d=" M 69.383 29.684 L 70.802 29.684 C 71.725 29.684 72.457 29.419 72.997 28.89 C 73.537 28.361 73.807 27.62 73.807 26.667 C 73.807 25.721 73.537 24.982 72.997 24.448 C 72.457 23.917 71.725 23.649 70.802 23.649 L 69.383 23.649 L 69.383 29.684 Z  M 68.356 30.667 L 68.356 22.667 L 70.802 22.667 C 72.031 22.667 73.014 23.037 73.753 23.779 C 74.49 24.519 74.858 25.482 74.858 26.667 C 74.858 27.851 74.49 28.814 73.753 29.555 C 73.014 30.296 72.031 30.667 70.802 30.667 L 68.356 30.667 Z " fill="rgb(255,255,255)"/><path d=" M 69.383 29.684 L 69.383 29.817 L 70.802 29.817 C 71.749 29.818 72.523 29.543 73.091 28.985 C 73.661 28.428 73.942 27.644 73.941 26.667 C 73.942 25.697 73.661 24.915 73.091 24.354 L 73.091 24.354 C 72.523 23.793 71.75 23.515 70.802 23.516 L 69.383 23.516 L 69.249 23.516 L 69.249 29.817 L 69.383 29.817 L 69.383 29.684 L 69.516 29.684 L 69.516 23.783 L 70.802 23.783 C 71.701 23.784 72.391 24.04 72.904 24.544 L 72.904 24.543 C 73.414 25.048 73.673 25.745 73.674 26.667 C 73.673 27.596 73.414 28.295 72.904 28.795 C 72.391 29.296 71.701 29.549 70.802 29.551 L 69.383 29.551 L 69.383 29.684 L 69.516 29.684 L 69.383 29.684 Z  M 68.356 30.667 L 68.489 30.667 L 68.489 22.8 L 70.802 22.8 C 72.005 22.801 72.946 23.159 73.658 23.873 C 74.369 24.589 74.723 25.509 74.725 26.667 C 74.723 27.824 74.369 28.745 73.658 29.46 C 72.946 30.175 72.005 30.532 70.802 30.533 L 68.356 30.533 L 68.356 30.667 L 68.489 30.667 L 68.356 30.667 L 68.356 30.8 L 70.802 30.8 C 72.057 30.801 73.082 30.418 73.847 29.649 C 74.61 28.883 74.993 27.878 74.992 26.667 C 74.993 25.455 74.61 24.451 73.847 23.685 C 73.082 22.915 72.057 22.532 70.802 22.533 L 68.222 22.533 L 68.222 30.8 L 68.356 30.8 L 68.356 30.667 Z " fill="rgb(255,255,255)"/><path d=" M 76.301 30.667 L 76.301 22.667 L 77.328 22.667 L 77.328 30.667 L 76.301 30.667 Z " fill="rgb(255,255,255)"/><path d=" M 76.301 30.667 L 76.434 30.667 L 76.434 22.8 L 77.195 22.8 L 77.195 30.533 L 76.301 30.533 L 76.301 30.667 L 76.434 30.667 L 76.301 30.667 L 76.301 30.8 L 77.328 30.8 L 77.461 30.8 L 77.461 22.533 L 76.301 22.533 L 76.168 22.533 L 76.168 30.8 L 76.301 30.8 L 76.301 30.667 Z " fill="rgb(255,255,255)"/><path d=" M 81.417 30.845 C 80.836 30.845 80.268 30.656 79.714 30.276 C 79.158 29.896 78.794 29.364 78.624 28.678 L 79.563 28.298 C 79.675 28.737 79.903 29.108 80.248 29.409 C 80.596 29.711 80.984 29.862 81.417 29.862 C 81.864 29.862 82.246 29.745 82.563 29.51 C 82.879 29.276 83.036 28.957 83.036 28.555 C 83.036 28.108 82.879 27.764 82.563 27.521 C 82.246 27.279 81.745 27.054 81.06 26.845 C 80.352 26.622 79.815 26.333 79.451 25.979 C 79.086 25.625 78.903 25.173 78.903 24.622 C 78.903 24.048 79.13 23.549 79.585 23.125 C 80.039 22.701 80.631 22.487 81.36 22.487 C 82.039 22.487 82.59 22.658 83.014 22.996 C 83.439 23.335 83.715 23.706 83.841 24.108 L 82.904 24.498 C 82.836 24.246 82.67 24.011 82.406 23.795 C 82.142 23.58 81.801 23.471 81.383 23.471 C 80.988 23.471 80.651 23.581 80.372 23.801 C 80.092 24.021 79.953 24.294 79.953 24.622 C 79.953 24.92 80.082 25.171 80.339 25.376 C 80.596 25.581 80.974 25.766 81.473 25.929 C 81.867 26.056 82.197 26.179 82.463 26.298 C 82.727 26.417 82.995 26.575 83.266 26.773 C 83.537 26.97 83.742 27.216 83.88 27.51 C 84.018 27.805 84.087 28.145 84.087 28.532 C 84.087 28.92 84.008 29.266 83.847 29.571 C 83.687 29.878 83.474 30.119 83.209 30.298 C 82.945 30.477 82.661 30.613 82.356 30.706 C 82.049 30.799 81.737 30.845 81.417 30.845" fill="rgb(255,255,255)"/><path d=" M 81.417 30.845 L 81.417 30.712 C 80.866 30.711 80.326 30.533 79.789 30.166 C 79.259 29.803 78.918 29.304 78.753 28.646 L 78.624 28.678 L 78.674 28.802 L 79.613 28.422 L 79.563 28.298 L 79.433 28.331 C 79.551 28.795 79.795 29.193 80.161 29.51 L 80.161 29.51 C 80.529 29.83 80.953 29.996 81.417 29.995 C 81.886 29.996 82.301 29.87 82.642 29.618 C 82.99 29.363 83.172 28.992 83.17 28.555 C 83.172 28.078 82.994 27.681 82.644 27.416 C 82.305 27.157 81.792 26.93 81.099 26.718 L 81.1 26.718 C 80.404 26.499 79.886 26.218 79.543 25.883 C 79.205 25.554 79.037 25.144 79.036 24.622 C 79.037 24.084 79.244 23.628 79.675 23.222 C 80.104 22.823 80.657 22.622 81.36 22.621 C 82.018 22.621 82.534 22.784 82.931 23.101 C 83.341 23.428 83.597 23.777 83.714 24.148 L 83.841 24.108 L 83.79 23.985 L 82.853 24.375 L 82.904 24.498 L 83.032 24.464 C 82.956 24.178 82.77 23.92 82.491 23.692 L 82.491 23.692 C 82.199 23.454 81.823 23.337 81.383 23.338 C 80.964 23.337 80.593 23.456 80.29 23.696 L 80.29 23.696 C 79.984 23.934 79.818 24.255 79.82 24.622 C 79.818 24.959 79.973 25.258 80.255 25.48 L 80.256 25.481 C 80.533 25.7 80.923 25.889 81.431 26.056 L 81.432 26.056 C 81.823 26.182 82.148 26.303 82.407 26.42 L 82.408 26.42 C 82.662 26.534 82.923 26.688 83.187 26.881 L 83.187 26.881 C 83.442 27.066 83.631 27.293 83.759 27.567 C 83.888 27.841 83.954 28.161 83.954 28.532 C 83.954 28.902 83.879 29.225 83.73 29.51 C 83.579 29.798 83.381 30.021 83.135 30.187 L 83.135 30.187 C 82.881 30.359 82.61 30.489 82.317 30.578 C 82.023 30.668 81.724 30.712 81.417 30.712 L 81.417 30.845 L 81.417 30.979 C 81.75 30.979 82.076 30.93 82.394 30.833 C 82.713 30.736 83.009 30.594 83.284 30.409 L 83.284 30.408 C 83.568 30.217 83.797 29.957 83.966 29.633 C 84.137 29.307 84.221 28.938 84.22 28.532 C 84.221 28.13 84.148 27.769 84.001 27.454 C 83.854 27.14 83.633 26.874 83.344 26.665 L 83.344 26.665 C 83.067 26.463 82.791 26.299 82.517 26.177 L 82.517 26.177 C 82.245 26.054 81.911 25.93 81.514 25.802 L 81.514 25.802 C 81.025 25.642 80.66 25.461 80.421 25.272 L 80.422 25.272 C 80.191 25.084 80.089 24.88 80.086 24.622 C 80.089 24.333 80.201 24.108 80.455 23.906 L 80.455 23.905 C 80.709 23.705 81.013 23.605 81.383 23.605 C 81.779 23.605 82.085 23.705 82.322 23.898 L 82.322 23.898 C 82.571 24.102 82.716 24.314 82.775 24.533 L 82.814 24.68 L 83.892 24.231 L 84.005 24.184 L 83.968 24.068 C 83.832 23.634 83.536 23.243 83.097 22.892 C 82.645 22.531 82.06 22.354 81.36 22.354 C 80.606 22.353 79.975 22.578 79.494 23.028 C 79.017 23.471 78.768 24.012 78.769 24.622 C 78.768 25.203 78.967 25.698 79.358 26.075 C 79.744 26.449 80.299 26.745 81.02 26.972 L 81.021 26.972 L 81.021 26.972 C 81.697 27.179 82.187 27.402 82.481 27.627 C 82.764 27.846 82.901 28.139 82.903 28.555 C 82.901 28.922 82.768 29.189 82.483 29.403 C 82.191 29.619 81.841 29.728 81.417 29.729 C 81.016 29.728 80.664 29.592 80.336 29.309 L 80.336 29.309 C 80.009 29.023 79.798 28.68 79.692 28.265 L 79.654 28.117 L 78.574 28.554 L 78.466 28.597 L 78.494 28.71 C 78.671 29.423 79.056 29.989 79.638 30.386 C 80.21 30.778 80.806 30.979 81.417 30.979 L 81.417 30.845" fill="rgb(255,255,255)"/><path d=" M 86.59 26.443 L 88.311 26.443 C 88.743 26.443 89.09 26.298 89.351 26.008 C 89.61 25.717 89.741 25.397 89.741 25.047 C 89.741 24.697 89.61 24.376 89.351 24.086 C 89.09 23.795 88.743 23.649 88.311 23.649 L 86.59 23.649 L 86.59 26.443 Z  M 86.59 30.667 L 85.563 30.667 L 85.563 22.667 L 88.289 22.667 C 88.966 22.667 89.553 22.892 90.048 23.342 C 90.544 23.793 90.792 24.361 90.792 25.047 C 90.792 25.732 90.544 26.299 90.048 26.75 C 89.553 27.201 88.966 27.427 88.289 27.427 L 86.59 27.427 L 86.59 30.667 Z " fill="rgb(255,255,255)"/><path d=" M 86.59 26.443 L 86.59 26.576 L 88.311 26.576 C 88.772 26.578 89.165 26.416 89.449 26.097 L 89.449 26.097 C 89.728 25.787 89.875 25.431 89.875 25.047 C 89.875 24.663 89.728 24.306 89.449 23.997 L 89.449 23.997 C 89.165 23.677 88.773 23.515 88.311 23.516 L 86.59 23.516 L 86.457 23.516 L 86.457 26.576 L 86.59 26.576 L 86.59 26.443 L 86.723 26.443 L 86.723 23.783 L 88.311 23.783 C 88.714 23.785 89.015 23.913 89.251 24.175 L 89.251 24.175 C 89.493 24.446 89.607 24.73 89.608 25.047 C 89.607 25.364 89.493 25.646 89.251 25.919 L 89.251 25.919 C 89.015 26.18 88.715 26.308 88.311 26.309 L 86.59 26.309 L 86.59 26.443 L 86.723 26.443 L 86.59 26.443 Z  M 86.59 30.667 L 86.59 30.533 L 85.696 30.533 L 85.696 22.8 L 88.289 22.8 C 88.936 22.801 89.485 23.012 89.958 23.441 L 89.958 23.441 C 90.428 23.87 90.657 24.393 90.658 25.047 C 90.657 25.699 90.428 26.222 89.958 26.652 L 89.958 26.652 C 89.485 27.081 88.936 27.292 88.289 27.293 L 86.59 27.293 L 86.457 27.293 L 86.457 30.667 L 86.59 30.667 L 86.59 30.533 L 86.59 30.667 L 86.723 30.667 L 86.723 27.56 L 88.289 27.56 C 88.996 27.561 89.621 27.321 90.138 26.848 L 90.138 26.848 C 90.66 26.377 90.927 25.764 90.925 25.047 C 90.927 24.329 90.66 23.716 90.138 23.244 L 90.138 23.244 C 89.621 22.772 88.996 22.532 88.289 22.533 L 85.429 22.533 L 85.429 30.8 L 86.59 30.8 L 86.723 30.8 L 86.723 30.667 L 86.59 30.667 Z " fill="rgb(255,255,255)"/><path d=" M 93.522 28.963 C 94.115 29.563 94.839 29.862 95.695 29.862 C 96.552 29.862 97.277 29.563 97.869 28.963 C 98.461 28.364 98.758 27.597 98.758 26.667 C 98.758 25.736 98.461 24.97 97.869 24.37 C 97.277 23.771 96.552 23.471 95.695 23.471 C 94.839 23.471 94.115 23.771 93.522 24.37 C 92.931 24.97 92.634 25.736 92.634 26.667 C 92.634 27.597 92.931 28.364 93.522 28.963 Z  M 98.629 29.633 C 97.842 30.442 96.865 30.845 95.695 30.845 C 94.526 30.845 93.548 30.442 92.763 29.633 C 91.977 28.825 91.585 27.836 91.585 26.667 C 91.585 25.497 91.977 24.508 92.763 23.701 C 93.548 22.892 94.526 22.487 95.695 22.487 C 96.858 22.487 97.833 22.894 98.624 23.706 C 99.413 24.518 99.807 25.505 99.807 26.667 C 99.807 27.836 99.414 28.825 98.629 29.633 Z " fill="rgb(255,255,255)"/><path d=" M 93.522 28.963 L 93.427 29.057 C 94.042 29.68 94.807 29.997 95.695 29.995 C 96.583 29.997 97.351 29.68 97.964 29.057 C 98.581 28.433 98.892 27.625 98.891 26.667 C 98.892 25.708 98.581 24.901 97.964 24.277 L 97.964 24.277 C 97.351 23.653 96.583 23.336 95.695 23.338 C 94.807 23.336 94.042 23.653 93.427 24.277 L 93.427 24.277 C 92.81 24.901 92.499 25.708 92.501 26.667 C 92.499 27.625 92.81 28.433 93.427 29.057 L 93.522 28.963 L 93.617 28.869 C 93.052 28.294 92.769 27.57 92.768 26.667 C 92.769 25.764 93.052 25.04 93.617 24.464 L 93.617 24.464 C 94.187 23.889 94.87 23.606 95.695 23.605 C 96.521 23.606 97.204 23.889 97.773 24.464 L 97.773 24.464 C 98.341 25.04 98.623 25.764 98.625 26.667 C 98.623 27.57 98.341 28.294 97.773 28.869 C 97.204 29.445 96.521 29.727 95.695 29.729 C 94.87 29.727 94.187 29.445 93.617 28.869 L 93.522 28.963 Z  M 98.629 29.633 L 98.533 29.54 C 97.769 30.323 96.834 30.71 95.695 30.712 C 94.557 30.71 93.621 30.323 92.859 29.54 L 92.855 29.536 L 92.858 29.54 C 92.096 28.754 91.719 27.806 91.718 26.667 C 91.719 25.527 92.096 24.579 92.858 23.793 L 92.859 23.793 C 93.621 23.01 94.557 22.622 95.695 22.621 C 96.827 22.622 97.76 23.011 98.528 23.799 C 99.294 24.589 99.673 25.535 99.674 26.667 C 99.673 27.806 99.295 28.754 98.533 29.54 L 98.629 29.633 L 98.725 29.725 C 99.533 28.895 99.942 27.866 99.941 26.667 C 99.942 25.475 99.532 24.447 98.719 23.613 C 97.907 22.776 96.889 22.353 95.695 22.354 C 94.495 22.353 93.475 22.774 92.667 23.608 L 92.668 23.607 C 91.857 24.438 91.45 25.468 91.452 26.667 C 91.45 27.866 91.857 28.895 92.668 29.726 L 92.671 29.73 L 92.667 29.725 C 93.475 30.559 94.495 30.98 95.695 30.979 C 96.895 30.98 97.916 30.559 98.725 29.725 L 98.629 29.633" fill="rgb(255,255,255)"/><path d=" M 101.25 30.667 L 101.25 22.667 L 102.502 22.667 L 106.39 28.89 L 106.434 28.89 L 106.39 27.348 L 106.39 22.667 L 107.418 22.667 L 107.418 30.667 L 106.345 30.667 L 102.277 24.142 L 102.233 24.142 L 102.277 25.684 L 102.277 30.667 L 101.25 30.667 Z " fill="rgb(255,255,255)"/><path d=" M 101.25 30.667 L 101.383 30.667 L 101.383 22.8 L 102.427 22.8 L 106.315 29.023 L 106.434 29.023 L 106.571 29.023 L 106.523 27.346 L 106.523 22.8 L 107.285 22.8 L 107.285 30.533 L 106.419 30.533 L 102.352 24.008 L 102.233 24.008 L 102.096 24.008 L 102.144 25.686 L 102.144 30.533 L 101.25 30.533 L 101.25 30.667 L 101.383 30.667 L 101.25 30.667 L 101.25 30.8 L 102.277 30.8 L 102.41 30.8 L 102.41 25.682 L 102.367 24.138 L 102.233 24.142 L 102.233 24.275 L 102.277 24.275 L 102.277 24.142 L 102.164 24.213 L 106.271 30.8 L 107.418 30.8 L 107.552 30.8 L 107.552 22.533 L 106.39 22.533 L 106.256 22.533 L 106.256 27.35 L 106.301 28.894 L 106.434 28.89 L 106.434 28.757 L 106.39 28.757 L 106.39 28.89 L 106.503 28.819 L 102.575 22.533 L 101.25 22.533 L 101.117 22.533 L 101.117 30.8 L 101.25 30.8 L 101.25 30.667 Z " fill="rgb(255,255,255)"/><path d=" M 109.25 30.667 L 109.25 22.667 L 110.277 22.667 L 110.277 30.667 L 109.25 30.667 Z " fill="rgb(255,255,255)"/><path d=" M 109.25 30.667 L 109.383 30.667 L 109.383 22.8 L 110.144 22.8 L 110.144 30.533 L 109.25 30.533 L 109.25 30.667 L 109.383 30.667 L 109.25 30.667 L 109.25 30.8 L 110.277 30.8 L 110.41 30.8 L 110.41 22.533 L 109.25 22.533 L 109.117 22.533 L 109.117 30.8 L 109.25 30.8 L 109.25 30.667 Z " fill="rgb(255,255,255)"/><path d=" M 113.136 29.684 L 115.204 29.684 C 115.599 29.684 115.919 29.546 116.165 29.269 C 116.411 28.995 116.534 28.693 116.534 28.365 C 116.534 28.037 116.408 27.737 116.154 27.466 C 115.901 27.194 115.569 27.057 115.159 27.057 L 113.136 27.057 L 113.136 29.684 Z  M 113.136 26.096 L 115.003 26.096 C 115.391 26.096 115.702 25.969 115.936 25.711 C 116.17 25.454 116.287 25.173 116.287 24.868 C 116.287 24.563 116.175 24.282 115.947 24.03 C 115.72 23.777 115.42 23.649 115.048 23.649 L 113.136 23.649 L 113.136 26.096 Z  M 112.109 30.667 L 112.109 22.667 L 115.003 22.667 C 115.629 22.667 116.17 22.874 116.629 23.286 C 117.087 23.701 117.316 24.22 117.316 24.845 C 117.316 25.225 117.218 25.56 117.019 25.851 C 116.823 26.142 116.56 26.361 116.232 26.51 L 116.232 26.555 C 116.626 26.689 116.951 26.92 117.204 27.247 C 117.457 27.575 117.585 27.956 117.585 28.387 C 117.585 29.043 117.344 29.586 116.864 30.018 C 116.383 30.451 115.815 30.667 115.159 30.667 L 112.109 30.667 Z " fill="rgb(255,255,255)"/><path d=" M 113.136 29.684 L 113.136 29.817 L 115.204 29.817 C 115.63 29.819 115.996 29.663 116.265 29.358 L 116.265 29.358 C 116.529 29.065 116.668 28.727 116.667 28.365 C 116.668 28.002 116.523 27.665 116.251 27.375 L 116.251 27.375 C 115.975 27.075 115.598 26.922 115.159 26.924 L 113.003 26.924 L 113.003 29.817 L 113.136 29.817 L 113.136 29.684 L 113.27 29.684 L 113.27 27.191 L 115.159 27.191 C 115.54 27.192 115.828 27.313 116.056 27.556 L 116.056 27.556 C 116.292 27.81 116.399 28.072 116.401 28.365 C 116.399 28.659 116.294 28.925 116.066 29.181 L 116.066 29.181 C 115.843 29.429 115.568 29.548 115.204 29.551 L 113.136 29.551 L 113.136 29.684 L 113.27 29.684 L 113.136 29.684 Z  M 113.136 26.096 L 113.136 26.23 L 115.003 26.23 C 115.419 26.231 115.776 26.087 116.035 25.801 L 116.035 25.801 C 116.287 25.526 116.422 25.208 116.421 24.868 C 116.422 24.529 116.292 24.213 116.046 23.941 L 116.046 23.941 C 115.796 23.659 115.451 23.515 115.048 23.516 L 113.003 23.516 L 113.003 26.23 L 113.136 26.23 L 113.136 26.096 L 113.27 26.096 L 113.27 23.783 L 115.048 23.783 C 115.391 23.785 115.644 23.894 115.847 24.119 L 115.848 24.12 L 115.847 24.119 C 116.057 24.353 116.154 24.596 116.154 24.868 C 116.154 25.138 116.054 25.383 115.837 25.621 L 115.837 25.621 C 115.628 25.85 115.362 25.961 115.003 25.963 L 113.136 25.963 L 113.136 26.096 L 113.27 26.096 L 113.136 26.096 Z  M 112.109 30.667 L 112.243 30.667 L 112.243 22.8 L 115.003 22.8 C 115.599 22.801 116.103 22.994 116.54 23.385 L 116.54 23.385 C 116.972 23.778 117.181 24.253 117.183 24.845 C 117.183 25.202 117.092 25.508 116.909 25.776 L 116.909 25.776 C 116.725 26.047 116.484 26.249 116.177 26.389 L 116.098 26.425 L 116.098 26.555 L 116.098 26.65 L 116.189 26.681 C 116.56 26.808 116.86 27.021 117.099 27.329 L 117.099 27.329 C 117.334 27.635 117.451 27.982 117.452 28.387 C 117.449 29.01 117.229 29.509 116.774 29.919 C 116.316 30.33 115.786 30.532 115.159 30.533 L 112.109 30.533 L 112.109 30.667 L 112.243 30.667 L 112.109 30.667 L 112.109 30.8 L 115.159 30.8 C 115.844 30.801 116.45 30.571 116.953 30.117 C 117.459 29.665 117.72 29.075 117.718 28.387 C 117.719 27.93 117.58 27.516 117.31 27.166 L 117.31 27.166 C 117.041 26.819 116.693 26.57 116.275 26.429 L 116.232 26.555 L 116.365 26.555 L 116.365 26.51 L 116.232 26.51 L 116.287 26.632 C 116.635 26.474 116.92 26.237 117.13 25.925 L 117.13 25.926 C 117.343 25.613 117.45 25.248 117.45 24.845 C 117.452 24.187 117.203 23.623 116.718 23.187 L 116.715 23.185 L 116.718 23.187 C 116.238 22.754 115.658 22.532 115.003 22.533 L 111.976 22.533 L 111.976 30.8 L 112.109 30.8 L 112.109 30.667" fill="rgb(255,255,255)"/><path d=" M 118.97 30.667 L 118.97 22.667 L 119.997 22.667 L 119.997 30.667 L 118.97 30.667 Z " fill="rgb(255,255,255)"/><path d=" M 118.97 30.667 L 119.103 30.667 L 119.103 22.8 L 119.864 22.8 L 119.864 30.533 L 118.97 30.533 L 118.97 30.667 L 119.103 30.667 L 118.97 30.667 L 118.97 30.8 L 119.997 30.8 L 120.131 30.8 L 120.131 22.533 L 118.97 22.533 L 118.836 22.533 L 118.836 30.8 L 118.97 30.8 L 118.97 30.667 Z " fill="rgb(255,255,255)"/><path d=" M 121.831 30.667 L 121.831 22.667 L 122.858 22.667 L 122.858 29.684 L 126.321 29.684 L 126.321 30.667 L 121.831 30.667 Z " fill="rgb(255,255,255)"/><path d=" M 121.831 30.667 L 121.964 30.667 L 121.964 22.8 L 122.725 22.8 L 122.725 29.817 L 126.188 29.817 L 126.188 30.533 L 121.831 30.533 L 121.831 30.667 L 121.964 30.667 L 121.831 30.667 L 121.831 30.8 L 126.455 30.8 L 126.455 29.684 L 126.455 29.551 L 122.991 29.551 L 122.992 22.533 L 121.831 22.533 L 121.697 22.533 L 121.697 30.8 L 121.831 30.8 L 121.831 30.667 Z " fill="rgb(255,255,255)"/><path d=" M 132.287 23.649 L 128.645 23.649 L 128.645 26.186 L 131.93 26.186 L 131.93 27.147 L 128.645 27.147 L 128.645 29.684 L 132.287 29.684 L 132.287 30.667 L 127.617 30.667 L 127.617 22.667 L 132.287 22.667 L 132.287 23.649" fill="rgb(255,255,255)"/><path d=" M 132.287 23.649 L 132.287 23.516 L 128.511 23.516 L 128.511 26.319 L 131.796 26.319 L 131.796 27.014 L 128.511 27.014 L 128.511 29.817 L 132.154 29.817 L 132.154 30.533 L 127.751 30.533 L 127.751 22.8 L 132.154 22.8 L 132.154 23.649 L 132.287 23.649 L 132.287 23.516 L 132.287 23.649 L 132.421 23.649 L 132.421 22.667 L 132.421 22.533 L 127.484 22.533 L 127.484 30.8 L 132.421 30.8 L 132.421 29.684 L 132.421 29.551 L 128.778 29.551 L 128.778 27.281 L 132.063 27.281 L 132.063 26.186 L 132.063 26.053 L 128.778 26.053 L 128.778 23.783 L 132.421 23.783 L 132.421 23.649 L 132.287 23.649" fill="rgb(255,255,255)"/><path d=" M 138.5 30.845 C 137.919 30.845 137.352 30.656 136.797 30.276 C 136.241 29.896 135.877 29.364 135.707 28.678 L 136.645 28.298 C 136.757 28.737 136.985 29.108 137.332 29.409 C 137.68 29.711 138.068 29.862 138.5 29.862 C 138.947 29.862 139.329 29.745 139.645 29.51 C 139.963 29.276 140.12 28.957 140.12 28.555 C 140.12 28.108 139.963 27.764 139.645 27.521 C 139.329 27.279 138.828 27.054 138.143 26.845 C 137.435 26.622 136.899 26.333 136.533 25.979 C 136.169 25.625 135.985 25.173 135.985 24.622 C 135.985 24.048 136.213 23.549 136.668 23.125 C 137.123 22.701 137.715 22.487 138.444 22.487 C 139.123 22.487 139.673 22.658 140.097 22.996 C 140.523 23.335 140.799 23.706 140.924 24.108 L 139.987 24.498 C 139.919 24.246 139.753 24.011 139.489 23.795 C 139.225 23.58 138.884 23.471 138.467 23.471 C 138.072 23.471 137.735 23.581 137.456 23.801 C 137.176 24.021 137.036 24.294 137.036 24.622 C 137.036 24.92 137.165 25.171 137.421 25.376 C 137.68 25.581 138.057 25.766 138.556 25.929 C 138.951 26.056 139.28 26.179 139.545 26.298 C 139.809 26.417 140.079 26.575 140.349 26.773 C 140.621 26.97 140.825 27.216 140.964 27.51 C 141.101 27.805 141.171 28.145 141.171 28.532 C 141.171 28.92 141.091 29.266 140.931 29.571 C 140.771 29.878 140.557 30.119 140.293 30.298 C 140.028 30.477 139.745 30.613 139.439 30.706 C 139.133 30.799 138.82 30.845 138.5 30.845" fill="rgb(255,255,255)"/><path d=" M 138.5 30.845 L 138.5 30.712 C 137.949 30.711 137.409 30.533 136.872 30.166 C 136.343 29.803 136.001 29.304 135.836 28.646 L 135.707 28.678 L 135.757 28.802 L 136.696 28.422 L 136.645 28.298 L 136.516 28.331 C 136.635 28.795 136.879 29.193 137.244 29.51 L 137.247 29.513 L 137.245 29.51 C 137.612 29.83 138.036 29.996 138.5 29.995 C 138.969 29.996 139.384 29.87 139.725 29.618 C 140.073 29.363 140.256 28.992 140.253 28.555 C 140.256 28.078 140.077 27.681 139.727 27.416 C 139.388 27.157 138.875 26.93 138.183 26.718 L 138.183 26.718 C 137.488 26.499 136.969 26.218 136.627 25.883 C 136.288 25.554 136.12 25.144 136.119 24.622 C 136.12 24.084 136.327 23.628 136.759 23.222 C 137.187 22.823 137.74 22.622 138.444 22.621 C 139.101 22.621 139.617 22.784 140.015 23.101 C 140.424 23.428 140.681 23.777 140.797 24.148 L 140.924 24.108 L 140.873 23.985 L 139.936 24.375 L 139.987 24.498 L 140.116 24.464 C 140.039 24.178 139.853 23.92 139.573 23.692 L 139.573 23.692 C 139.283 23.454 138.907 23.337 138.467 23.338 C 138.048 23.337 137.676 23.456 137.373 23.696 L 137.373 23.696 C 137.067 23.934 136.901 24.255 136.903 24.622 C 136.901 24.959 137.057 25.258 137.339 25.48 L 137.339 25.481 C 137.616 25.7 138.007 25.889 138.515 26.056 L 138.515 26.056 C 138.907 26.182 139.232 26.303 139.491 26.42 L 139.491 26.42 C 139.745 26.534 140.005 26.688 140.271 26.881 L 140.271 26.881 C 140.525 27.066 140.713 27.293 140.843 27.567 C 140.971 27.841 141.037 28.161 141.037 28.532 C 141.037 28.902 140.963 29.225 140.813 29.51 C 140.661 29.798 140.464 30.021 140.219 30.187 L 140.215 30.19 L 140.219 30.187 C 139.964 30.359 139.693 30.489 139.4 30.578 C 139.107 30.668 138.808 30.712 138.5 30.712 L 138.5 30.845 L 138.5 30.979 C 138.833 30.979 139.159 30.93 139.477 30.833 C 139.796 30.736 140.092 30.594 140.368 30.409 L 140.368 30.408 C 140.651 30.217 140.88 29.957 141.049 29.633 C 141.22 29.307 141.304 28.938 141.304 28.532 C 141.304 28.13 141.232 27.769 141.084 27.454 C 140.937 27.14 140.716 26.874 140.427 26.665 L 140.428 26.665 C 140.151 26.463 139.875 26.299 139.6 26.177 L 139.6 26.177 C 139.328 26.054 138.995 25.93 138.597 25.802 L 138.597 25.802 C 138.108 25.642 137.744 25.461 137.505 25.272 L 137.505 25.272 C 137.273 25.084 137.172 24.88 137.169 24.622 C 137.172 24.333 137.284 24.108 137.539 23.906 L 137.539 23.905 C 137.793 23.705 138.096 23.605 138.467 23.605 C 138.861 23.605 139.168 23.705 139.405 23.898 L 139.405 23.898 C 139.655 24.102 139.8 24.314 139.859 24.533 L 139.897 24.68 L 140.976 24.231 L 141.088 24.184 L 141.052 24.068 C 140.916 23.634 140.62 23.243 140.181 22.892 C 139.729 22.531 139.144 22.354 138.444 22.354 C 137.689 22.353 137.057 22.578 136.577 23.028 C 136.1 23.471 135.851 24.012 135.852 24.622 C 135.851 25.203 136.051 25.698 136.441 26.075 C 136.827 26.449 137.383 26.745 138.103 26.972 L 138.104 26.972 L 138.104 26.972 C 138.781 27.179 139.271 27.402 139.565 27.627 C 139.847 27.846 139.984 28.139 139.987 28.555 C 139.984 28.922 139.852 29.189 139.567 29.403 C 139.275 29.619 138.924 29.728 138.5 29.729 C 138.099 29.728 137.748 29.592 137.42 29.309 L 137.42 29.309 C 137.092 29.023 136.881 28.68 136.775 28.265 L 136.737 28.117 L 135.657 28.554 L 135.549 28.597 L 135.577 28.71 C 135.755 29.423 136.139 29.989 136.721 30.386 C 137.293 30.778 137.889 30.979 138.5 30.979 L 138.5 30.845" fill="rgb(255,255,255)"/><path d=" M 145.428 30.845 C 144.548 30.845 143.836 30.555 143.288 29.974 C 142.741 29.393 142.468 28.633 142.468 27.695 L 142.468 22.667 L 143.495 22.667 L 143.495 27.74 C 143.495 28.372 143.66 28.884 143.992 29.276 C 144.323 29.667 144.803 29.862 145.428 29.862 C 146.053 29.862 146.532 29.667 146.863 29.276 C 147.195 28.884 147.361 28.372 147.361 27.74 L 147.361 22.667 L 148.389 22.667 L 148.389 27.695 C 148.389 28.641 148.123 29.403 147.589 29.979 C 147.057 30.557 146.336 30.845 145.428 30.845 Z " fill="rgb(255,255,255)"/><path d=" M 145.428 30.845 L 145.428 30.712 C 144.577 30.71 143.909 30.436 143.385 29.882 L 143.385 29.882 C 142.864 29.328 142.601 28.608 142.601 27.695 L 142.601 22.8 L 143.361 22.8 L 143.361 27.74 C 143.361 28.395 143.535 28.943 143.891 29.363 C 144.248 29.787 144.776 29.997 145.428 29.995 C 146.08 29.997 146.607 29.787 146.965 29.362 C 147.321 28.943 147.495 28.395 147.495 27.74 L 147.495 22.8 L 148.256 22.8 L 148.256 27.695 C 148.255 28.616 147.999 29.339 147.492 29.889 C 146.985 30.437 146.309 30.71 145.428 30.712 L 145.428 30.845 L 145.428 30.979 C 146.363 30.98 147.129 30.677 147.688 30.069 C 148.247 29.466 148.524 28.665 148.523 27.695 L 148.523 22.533 L 147.361 22.533 L 147.228 22.533 L 147.228 27.74 C 147.227 28.35 147.069 28.825 146.761 29.19 C 146.459 29.546 146.027 29.727 145.428 29.729 C 144.828 29.727 144.397 29.546 144.093 29.19 C 143.785 28.825 143.629 28.35 143.628 27.74 L 143.628 22.533 L 142.468 22.533 L 142.335 22.533 L 142.335 27.695 C 142.333 28.658 142.617 29.458 143.191 30.065 C 143.763 30.673 144.52 30.98 145.428 30.979 L 145.428 30.845 Z " fill="rgb(255,255,255)"/></g></g></svg>