<?xml version="1.0" encoding="UTF-8" standalone="no"?>
<svg
   xmlns:dc="http://purl.org/dc/elements/1.1/"
   xmlns:cc="http://creativecommons.org/ns#"
   xmlns:rdf="http://www.w3.org/1999/02/22-rdf-syntax-ns#"
   xmlns:svg="http://www.w3.org/2000/svg"
   xmlns="http://www.w3.org/2000/svg"
   viewBox="0 0 206.66667 80"
   height="80"
   width="206.66667"
   xml:space="preserve"
   id="svg2"
   version="1.1"><metadata
     id="metadata8"><rdf:RDF><cc:Work
         rdf:about=""><dc:format>image/svg+xml</dc:format><dc:type
           rdf:resource="http://purl.org/dc/dcmitype/StillImage" /></cc:Work></rdf:RDF></metadata><defs
     id="defs6"><clipPath
       id="clipPath28"
       clipPathUnits="userSpaceOnUse"><path
         id="path26"
         d="m 205.098,176.105 -0.743,0.711 c -2.91,3.079 -4.628,7.86 -4.628,14.051 v -1.457 0 221.16 c 0,0.02 0,0.035 0,0.051 0,-0.019 0,-0.035 0,-0.055 v -1.461 c 0,6.704 2.003,11.754 5.359,14.782 L 328.984,299.992 205.098,176.105 m -5.371,234.528 c 0,0.551 0.015,1.086 0.043,1.613 -0.028,-0.523 -0.043,-1.062 -0.043,-1.613 m 0.043,1.637 c 0,0.007 0,0.015 0.003,0.023 -0.003,-0.008 -0.003,-0.016 -0.003,-0.023 m 0.003,0.07 c 0,0.004 0,0.008 0,0.012 0,-0.004 0,-0.008 0,-0.012" /></clipPath><linearGradient
       id="linearGradient42"
       spreadMethod="pad"
       gradientTransform="matrix(-167.825,-167.825,167.825,-167.825,317.998,412.903)"
       gradientUnits="userSpaceOnUse"
       y2="0"
       x2="1"
       y1="0"
       x1="0"><stop
         id="stop30"
         offset="0"
         style="stop-opacity:1;stop-color:#00a0ff" /><stop
         id="stop32"
         offset="0.00657445"
         style="stop-opacity:1;stop-color:#00a1ff" /><stop
         id="stop34"
         offset="0.2601"
         style="stop-opacity:1;stop-color:#00beff" /><stop
         id="stop36"
         offset="0.5122"
         style="stop-opacity:1;stop-color:#00d2ff" /><stop
         id="stop38"
         offset="0.7604"
         style="stop-opacity:1;stop-color:#00dfff" /><stop
         id="stop40"
         offset="1"
         style="stop-opacity:1;stop-color:#00e3ff" /></linearGradient><clipPath
       id="clipPath52"
       clipPathUnits="userSpaceOnUse"><path
         id="path50"
         d="m 370.277,257.215 v 0 l 0.942,0.535 48.929,27.801 c 4.665,2.652 7.774,5.867 9.325,9.269 -1.547,-3.402 -4.657,-6.621 -9.325,-9.273 l -48.929,-27.801 -0.942,-0.531 m 0.012,1.465 -41.305,41.312 41.301,41.305 49.863,-28.328 c 6.332,-3.598 9.887,-8.235 10.481,-12.973 0,-0.004 0,-0.012 0,-0.019 -0.594,-4.727 -4.149,-9.368 -10.481,-12.965 L 370.289,258.68" /></clipPath><linearGradient
       id="linearGradient62"
       spreadMethod="pad"
       gradientTransform="matrix(-241.97,0,0,-241.97,438.344,299.986)"
       gradientUnits="userSpaceOnUse"
       y2="0"
       x2="1"
       y1="0"
       x1="0"><stop
         id="stop54"
         offset="0"
         style="stop-opacity:1;stop-color:#ffe000" /><stop
         id="stop56"
         offset="0.4087"
         style="stop-opacity:1;stop-color:#ffbd00" /><stop
         id="stop58"
         offset="0.7754"
         style="stop-opacity:1;stop-color:#ffa500" /><stop
         id="stop60"
         offset="1"
         style="stop-opacity:1;stop-color:#ff9c00" /></linearGradient><clipPath
       id="clipPath72"
       clipPathUnits="userSpaceOnUse"><path
         id="path70"
         d="m 213.93,171.387 c -3.461,0 -6.481,1.125 -8.836,3.25 l 0.004,0.004 c 2.355,-2.125 5.379,-3.254 8.84,-3.254 0.3,0 0.605,0.008 0.914,0.023 -0.313,-0.015 -0.622,-0.023 -0.922,-0.023 m 0.004,1.465 c -3.461,-0.004 -6.481,1.125 -8.836,3.25 v 0 0.003 l 123.886,123.887 41.305,-41.312 v 0 L 225.137,176.207 c -4.016,-2.277 -7.821,-3.355 -11.203,-3.355 m -8.871,1.812 c -0.219,0.199 -0.434,0.41 -0.645,0.629 l 0.645,-0.629" /></clipPath><linearGradient
       id="linearGradient78"
       spreadMethod="pad"
       gradientTransform="matrix(-227.583,-227.583,227.583,-227.583,348.27,277.039)"
       gradientUnits="userSpaceOnUse"
       y2="0"
       x2="1"
       y1="0"
       x1="0"><stop
         id="stop74"
         offset="0"
         style="stop-opacity:1;stop-color:#ff3a44" /><stop
         id="stop76"
         offset="1"
         style="stop-opacity:1;stop-color:#c31162" /></linearGradient><clipPath
       id="clipPath88"
       clipPathUnits="userSpaceOnUse"><path
         id="path86"
         d="m 328.984,299.992 v 0 L 205.086,423.887 c 2.355,2.121 5.371,3.246 8.828,3.246 3.391,0 7.199,-1.082 11.223,-3.363 l 145.148,-82.473 -41.301,-41.305 m 42.235,42.238 -146.082,83 c -4.024,2.282 -7.832,3.364 -11.223,3.364 -0.016,0 -0.027,0 -0.043,0 0.02,0 0.035,0 0.059,0 3.383,0 7.187,-1.078 11.207,-3.36 L 371.219,342.23 M 213.84,428.594 v 0 0" /></clipPath><linearGradient
       id="linearGradient100"
       spreadMethod="pad"
       gradientTransform="matrix(101.625,-101.625,101.625,101.625,172.973,498.238)"
       gradientUnits="userSpaceOnUse"
       y2="0"
       x2="1"
       y1="0"
       x1="0"><stop
         id="stop90"
         offset="0"
         style="stop-opacity:1;stop-color:#32a071" /><stop
         id="stop92"
         offset="0.0685"
         style="stop-opacity:1;stop-color:#2da771" /><stop
         id="stop94"
         offset="0.4762"
         style="stop-opacity:1;stop-color:#15cf74" /><stop
         id="stop96"
         offset="0.8009"
         style="stop-opacity:1;stop-color:#06e775" /><stop
         id="stop98"
         offset="1"
         style="stop-opacity:1;stop-color:#00f076" /></linearGradient><clipPath
       id="clipPath112"
       clipPathUnits="userSpaceOnUse"><path
         id="path110"
         d="m 370.277,257.215 v 0 l 0.942,0.535 -0.942,-0.535" /></clipPath><linearGradient
       id="linearGradient122"
       spreadMethod="pad"
       gradientTransform="matrix(-241.97,0,0,-241.97,438.344,299.986)"
       gradientUnits="userSpaceOnUse"
       y2="0"
       x2="1"
       y1="0"
       x1="0"><stop
         id="stop114"
         offset="0"
         style="stop-opacity:1;stop-color:#ccb300" /><stop
         id="stop116"
         offset="0.4087"
         style="stop-opacity:1;stop-color:#cc9700" /><stop
         id="stop118"
         offset="0.7754"
         style="stop-opacity:1;stop-color:#cc8400" /><stop
         id="stop120"
         offset="1"
         style="stop-opacity:1;stop-color:#cc7d00" /></linearGradient><clipPath
       id="clipPath132"
       clipPathUnits="userSpaceOnUse"><path
         id="path130"
         d="m 213.938,171.387 c -3.461,0 -6.485,1.129 -8.84,3.254 l -0.004,-0.004 c -0.008,0.008 -0.02,0.019 -0.031,0.027 l -0.645,0.629 c -0.02,0.02 -0.039,0.043 -0.063,0.066 l 0.743,0.743 c 2.355,-2.125 5.375,-3.254 8.836,-3.25 3.382,0 7.187,1.078 11.203,3.355 l 145.152,82.473 0.93,-0.93 -0.942,-0.535 -145.14,-82.469 c -3.66,-2.074 -7.141,-3.156 -10.285,-3.336 -0.309,-0.015 -0.614,-0.023 -0.914,-0.023" /></clipPath><linearGradient
       id="linearGradient138"
       spreadMethod="pad"
       gradientTransform="matrix(-227.583,-227.583,227.583,-227.583,348.27,277.039)"
       gradientUnits="userSpaceOnUse"
       y2="0"
       x2="1"
       y1="0"
       x1="0"><stop
         id="stop134"
         offset="0"
         style="stop-opacity:1;stop-color:#cc2e36" /><stop
         id="stop136"
         offset="1"
         style="stop-opacity:1;stop-color:#9c0e4e" /></linearGradient><clipPath
       id="clipPath150"
       clipPathUnits="userSpaceOnUse"><path
         id="path148"
         d="m 204.355,175.359 v 0 c -2.91,3.079 -4.628,7.856 -4.628,14.051 v 1.457 c 0,-6.191 1.718,-10.972 4.628,-14.051 l 0.743,-0.711 -0.743,-0.746" /></clipPath><linearGradient
       id="linearGradient164"
       spreadMethod="pad"
       gradientTransform="matrix(-167.825,-167.825,167.825,-167.825,317.998,412.903)"
       gradientUnits="userSpaceOnUse"
       y2="0"
       x2="1"
       y1="0"
       x1="0"><stop
         id="stop152"
         offset="0"
         style="stop-opacity:1;stop-color:#008de0" /><stop
         id="stop154"
         offset="0.00657445"
         style="stop-opacity:1;stop-color:#008de0" /><stop
         id="stop156"
         offset="0.2601"
         style="stop-opacity:1;stop-color:#00a7e0" /><stop
         id="stop158"
         offset="0.5122"
         style="stop-opacity:1;stop-color:#00b8e0" /><stop
         id="stop160"
         offset="0.7604"
         style="stop-opacity:1;stop-color:#00c4e0" /><stop
         id="stop162"
         offset="1"
         style="stop-opacity:1;stop-color:#00c7e0" /></linearGradient><clipPath
       id="clipPath174"
       clipPathUnits="userSpaceOnUse"><path
         id="path172"
         d="m 204.355,175.359 v 0 0 l 0.743,0.746 v -0.003 l -0.743,-0.743" /></clipPath><linearGradient
       id="linearGradient180"
       spreadMethod="pad"
       gradientTransform="matrix(-227.583,-227.583,227.583,-227.583,348.27,277.039)"
       gradientUnits="userSpaceOnUse"
       y2="0"
       x2="1"
       y1="0"
       x1="0"><stop
         id="stop176"
         offset="0"
         style="stop-opacity:1;stop-color:#e0333c" /><stop
         id="stop178"
         offset="1"
         style="stop-opacity:1;stop-color:#ab0f56" /></linearGradient><clipPath
       id="clipPath192"
       clipPathUnits="userSpaceOnUse"><path
         id="path190"
         d="m 371.219,257.75 v 0 l -0.93,0.93 49.859,28.332 c 6.332,3.597 9.887,8.238 10.481,12.965 0,-1.735 -0.387,-3.469 -1.156,-5.157 -1.551,-3.402 -4.66,-6.617 -9.325,-9.269 L 371.219,257.75" /></clipPath><linearGradient
       id="linearGradient202"
       spreadMethod="pad"
       gradientTransform="matrix(-241.97,0,0,-241.97,438.344,299.986)"
       gradientUnits="userSpaceOnUse"
       y2="0"
       x2="1"
       y1="0"
       x1="0"><stop
         id="stop194"
         offset="0"
         style="stop-opacity:1;stop-color:#e0c500" /><stop
         id="stop196"
         offset="0.4087"
         style="stop-opacity:1;stop-color:#e0a600" /><stop
         id="stop198"
         offset="0.7754"
         style="stop-opacity:1;stop-color:#e09100" /><stop
         id="stop200"
         offset="1"
         style="stop-opacity:1;stop-color:#e08900" /></linearGradient><clipPath
       id="clipPath214"
       clipPathUnits="userSpaceOnUse"><path
         id="path212"
         d="m 430.629,299.996 c -0.594,4.738 -4.149,9.375 -10.481,12.973 l -49.863,28.328 0.93,0.93 h 0.004 l 48.929,-27.801 c 6.981,-3.969 10.477,-9.199 10.481,-14.43" /></clipPath><linearGradient
       id="linearGradient224"
       spreadMethod="pad"
       gradientTransform="matrix(-241.97,0,0,-241.97,438.344,299.986)"
       gradientUnits="userSpaceOnUse"
       y2="0"
       x2="1"
       y1="0"
       x1="0"><stop
         id="stop216"
         offset="0"
         style="stop-opacity:1;stop-color:#ffe840" /><stop
         id="stop218"
         offset="0.4087"
         style="stop-opacity:1;stop-color:#ffce40" /><stop
         id="stop220"
         offset="0.7754"
         style="stop-opacity:1;stop-color:#ffbc40" /><stop
         id="stop222"
         offset="1"
         style="stop-opacity:1;stop-color:#ffb540" /></linearGradient><clipPath
       id="clipPath236"
       clipPathUnits="userSpaceOnUse"><path
         id="path234"
         d="m 199.727,409.105 v 1.461 c 0,0.02 0,0.036 0,0.055 0,0.004 0,0.008 0,0.012 0,0.551 0.015,1.09 0.043,1.613 0,0.008 0,0.016 0,0.024 0,0.007 0,0.015 0.003,0.023 0,0.016 0,0.031 0,0.047 0,0.004 0,0.008 0,0.012 0.301,5.332 1.957,9.492 4.582,12.269 v 0 0 l 0.731,-0.734 c -3.356,-3.028 -5.359,-8.078 -5.359,-14.782 m 5.339,16.215 0.028,0.028 c -0.008,-0.012 -0.02,-0.02 -0.028,-0.028" /></clipPath><linearGradient
       id="linearGradient250"
       spreadMethod="pad"
       gradientTransform="matrix(-167.825,-167.825,167.825,-167.825,317.998,412.903)"
       gradientUnits="userSpaceOnUse"
       y2="0"
       x2="1"
       y1="0"
       x1="0"><stop
         id="stop238"
         offset="0"
         style="stop-opacity:1;stop-color:#40b8ff" /><stop
         id="stop240"
         offset="0.00657445"
         style="stop-opacity:1;stop-color:#40b9ff" /><stop
         id="stop242"
         offset="0.2601"
         style="stop-opacity:1;stop-color:#40ceff" /><stop
         id="stop244"
         offset="0.5122"
         style="stop-opacity:1;stop-color:#40ddff" /><stop
         id="stop246"
         offset="0.7604"
         style="stop-opacity:1;stop-color:#40e7ff" /><stop
         id="stop248"
         offset="1"
         style="stop-opacity:1;stop-color:#40eaff" /></linearGradient><clipPath
       id="clipPath262"
       clipPathUnits="userSpaceOnUse"><path
         id="path260"
         d="M 370.285,341.297 225.137,423.77 c -4.024,2.281 -7.832,3.363 -11.223,3.363 -3.457,0 -6.473,-1.125 -8.828,-3.246 l -0.731,0.734 v 0 c 0.231,0.242 0.465,0.477 0.711,0.699 0.008,0.008 0.02,0.016 0.028,0.024 2.336,2.105 5.32,3.23 8.746,3.25 v 0 c 0.008,0 0.019,0 0.031,0 0.016,0 0.027,0 0.043,0 3.391,0 7.199,-1.082 11.223,-3.364 l 146.082,-83 -0.004,-0.003 -0.93,-0.93" /></clipPath><linearGradient
       id="linearGradient274"
       spreadMethod="pad"
       gradientTransform="matrix(101.625,-101.625,101.625,101.625,172.973,498.238)"
       gradientUnits="userSpaceOnUse"
       y2="0"
       x2="1"
       y1="0"
       x1="0"><stop
         id="stop264"
         offset="0"
         style="stop-opacity:1;stop-color:#65b895" /><stop
         id="stop266"
         offset="0.0685"
         style="stop-opacity:1;stop-color:#62bd95" /><stop
         id="stop268"
         offset="0.4762"
         style="stop-opacity:1;stop-color:#50db97" /><stop
         id="stop270"
         offset="0.8009"
         style="stop-opacity:1;stop-color:#44ed98" /><stop
         id="stop272"
         offset="1"
         style="stop-opacity:1;stop-color:#40f498" /></linearGradient></defs><g
     transform="matrix(1.3333333,0,0,-1.3333333,0,80)"
     id="g10"><g
       transform="scale(0.1)"
       id="g12"><path
         id="path14"
         style="fill:#ffffff;fill-opacity:1;fill-rule:nonzero;stroke:none"
         d="M 1550,0 H 0 V 600 H 1550 V 0 M 100,150 v 0 c 0,-27.5 22.5,-50 50,-50 h 1250 c 27.5,0 50,22.5 50,50 v 300 0 0 c 0,27.5 -22.5,50 -50,50 H 150 c -27.5,0 -50,-22.5 -50,-50 v -300 0" /><path
         id="path16"
         style="fill:#000000;fill-opacity:1;fill-rule:nonzero;stroke:none"
         d="M 1400,100 H 150 c -27.5,0 -50,22.5 -50,50 v 300 c 0,27.5 22.5,50 50,50 h 1250 c 27.5,0 50,-22.5 50,-50 V 150 c 0,-27.5 -22.5,-50 -50,-50" /><path
         id="path18"
         style="fill:#a6a6a6;fill-opacity:1;fill-rule:nonzero;stroke:none"
         d="M 1400,500 H 150 c -27.5,0 -50,-22.5 -50,-50 V 150 c 0,-27.5 22.5,-50 50,-50 h 1250 c 27.5,0 50,22.5 50,50 v 300 c 0,27.5 -22.5,50 -50,50 m 0,-8 c 23.16,0 42,-18.844 42,-42 V 150 c 0,-23.16 -18.84,-42.004 -42,-42.004 H 150 c -23.156,0 -42,18.844 -42,42.004 v 300 c 0,23.156 18.844,42 42,42 h 1250" /><path
         id="path20"
         style="fill:#ffffff;fill-opacity:1;fill-rule:nonzero;stroke:none"
         d="m 1169.36,200 h 18.66 v 125.012 h -18.66 z m 168.07,79.98 -21.39,-54.199 h -0.64 l -22.2,54.199 h -20.1 l 33.29,-75.753 -18.98,-42.137 h 19.47 l 51.3,117.89 z m -105.82,-65.781 c -6.12,0 -14.64,3.055 -14.64,10.617 0,9.649 10.62,13.348 19.78,13.348 8.21,0 12.06,-1.769 17.05,-4.184 -1.45,-11.578 -11.42,-19.781 -22.19,-19.781 z m 2.25,68.516 c -13.51,0 -27.5,-5.953 -33.29,-19.141 l 16.56,-6.914 c 3.54,6.914 10.13,9.168 17.05,9.168 9.65,0 19.46,-5.793 19.62,-16.086 v -1.285 c -3.38,1.93 -10.61,4.824 -19.46,4.824 -17.85,0 -36.03,-9.808 -36.03,-28.144 0,-16.727 14.64,-27.504 31.04,-27.504 12.55,0 19.46,5.629 23.81,12.222 h 0.64 v -9.648 h 18.01 v 47.93 c 0,22.191 -16.56,34.578 -37.95,34.578 z M 1118.54,264.762 H 1092 v 42.851 h 26.54 c 13.95,0 21.87,-11.55 21.87,-21.425 0,-9.688 -7.92,-21.426 -21.87,-21.426 z m -0.48,60.25 h -44.71 V 200 H 1092 v 47.363 h 26.06 c 20.68,0 41.01,14.973 41.01,38.825 0,23.851 -20.33,38.824 -41.01,38.824 z M 874.25,214.176 c -12.891,0 -23.684,10.793 -23.684,25.617 0,14.98 10.793,25.937 23.684,25.937 12.727,0 22.715,-10.957 22.715,-25.937 0,-14.824 -9.988,-25.617 -22.715,-25.617 z m 21.426,58.804 h -0.645 c -4.187,4.993 -12.246,9.504 -22.394,9.504 -21.266,0 -40.758,-18.687 -40.758,-42.691 0,-23.844 19.492,-42.371 40.758,-42.371 10.148,0 18.207,4.512 22.394,9.664 h 0.645 v -6.121 c 0,-16.274 -8.699,-24.973 -22.715,-24.973 -11.438,0 -18.527,8.219 -21.43,15.145 l -16.269,-6.766 c 4.672,-11.277 17.078,-25.133 37.699,-25.133 21.91,0 40.437,12.891 40.437,44.305 v 76.363 H 895.676 Z M 926.285,200 h 18.688 v 125.016 h -18.688 z m 46.238,41.242 c -0.484,16.434 12.727,24.809 22.231,24.809 7.416,0 13.696,-3.703 15.786,-9.024 z m 57.997,14.176 c -3.54,9.508 -14.34,27.066 -36.411,27.066 -21.91,0 -40.113,-17.238 -40.113,-42.531 0,-23.844 18.043,-42.531 42.207,-42.531 19.497,0 30.777,11.922 35.447,18.848 l -14.5,9.668 c -4.83,-7.09 -11.44,-11.762 -20.947,-11.762 -9.504,0 -16.269,4.351 -20.621,12.887 l 56.868,23.523 z m -453.082,14.016 v -18.043 h 43.175 c -1.289,-10.149 -4.672,-17.559 -9.828,-22.715 -6.281,-6.285 -16.109,-13.211 -33.347,-13.211 -26.583,0 -47.364,21.426 -47.364,48.008 0,26.582 20.781,48.011 47.364,48.011 14.339,0 24.808,-5.64 32.542,-12.89 l 12.727,12.726 c -10.793,10.313 -25.133,18.207 -45.269,18.207 -36.411,0 -67.02,-29.644 -67.02,-66.054 0,-36.41 30.609,-66.051 67.02,-66.051 19.656,0 34.476,6.441 46.074,18.527 11.922,11.922 15.629,28.676 15.629,42.207 0,4.192 -0.321,8.055 -0.969,11.278 z m 110.789,-55.258 c -12.891,0 -24.008,10.633 -24.008,25.777 0,15.305 11.117,25.777 24.008,25.777 12.886,0 24.003,-10.472 24.003,-25.777 0,-15.144 -11.117,-25.777 -24.003,-25.777 z m 0,68.308 c -23.524,0 -42.696,-17.882 -42.696,-42.531 0,-24.488 19.172,-42.531 42.696,-42.531 23.519,0 42.691,18.043 42.691,42.531 0,24.649 -19.172,42.531 -42.691,42.531 z m 93.132,-68.308 c -12.886,0 -24.004,10.633 -24.004,25.777 0,15.305 11.118,25.777 24.004,25.777 12.887,0 24.004,-10.472 24.004,-25.777 0,-15.144 -11.117,-25.777 -24.004,-25.777 z m 0,68.308 c -23.523,0 -42.691,-17.882 -42.691,-42.531 0,-24.488 19.168,-42.531 42.691,-42.531 23.52,0 42.692,18.043 42.692,42.531 0,24.649 -19.172,42.531 -42.692,42.531" /><g
         id="g22"><g
           clip-path="url(#clipPath28)"
           id="g24"><path
             id="path44"
             style="fill:url(#linearGradient42);fill-opacity:1;fill-rule:nonzero;stroke:none"
             d="m 205.098,176.105 -0.743,0.711 c -2.91,3.079 -4.628,7.86 -4.628,14.051 v -1.457 0 221.16 c 0,0.02 0,0.035 0,0.051 0,-0.019 0,-0.035 0,-0.055 v -1.461 c 0,6.704 2.003,11.754 5.359,14.782 L 328.984,299.992 205.098,176.105 m -5.371,234.528 c 0,0.551 0.015,1.086 0.043,1.613 -0.028,-0.523 -0.043,-1.062 -0.043,-1.613 m 0.043,1.637 c 0,0.007 0,0.015 0.003,0.023 -0.003,-0.008 -0.003,-0.016 -0.003,-0.023 m 0.003,0.07 c 0,0.004 0,0.008 0,0.012 0,-0.004 0,-0.008 0,-0.012" /></g></g><g
         id="g46"><g
           clip-path="url(#clipPath52)"
           id="g48"><path
             id="path64"
             style="fill:url(#linearGradient62);fill-opacity:1;fill-rule:nonzero;stroke:none"
             d="m 370.277,257.215 v 0 l 0.942,0.535 48.929,27.801 c 4.665,2.652 7.774,5.867 9.325,9.269 -1.547,-3.402 -4.657,-6.621 -9.325,-9.273 l -48.929,-27.801 -0.942,-0.531 m 0.012,1.465 -41.305,41.312 41.301,41.305 49.863,-28.328 c 6.332,-3.598 9.887,-8.235 10.481,-12.973 0,-0.004 0,-0.012 0,-0.019 -0.594,-4.727 -4.149,-9.368 -10.481,-12.965 L 370.289,258.68" /></g></g><g
         id="g66"><g
           clip-path="url(#clipPath72)"
           id="g68"><path
             id="path80"
             style="fill:url(#linearGradient78);fill-opacity:1;fill-rule:nonzero;stroke:none"
             d="m 213.93,171.387 c -3.461,0 -6.481,1.125 -8.836,3.25 l 0.004,0.004 c 2.355,-2.125 5.379,-3.254 8.84,-3.254 0.3,0 0.605,0.008 0.914,0.023 -0.313,-0.015 -0.622,-0.023 -0.922,-0.023 m 0.004,1.465 c -3.461,-0.004 -6.481,1.125 -8.836,3.25 v 0 0.003 l 123.886,123.887 41.305,-41.312 v 0 L 225.137,176.207 c -4.016,-2.277 -7.821,-3.355 -11.203,-3.355 m -8.871,1.812 c -0.219,0.199 -0.434,0.41 -0.645,0.629 l 0.645,-0.629" /></g></g><g
         id="g82"><g
           clip-path="url(#clipPath88)"
           id="g84"><path
             id="path102"
             style="fill:url(#linearGradient100);fill-opacity:1;fill-rule:nonzero;stroke:none"
             d="m 328.984,299.992 v 0 L 205.086,423.887 c 2.355,2.121 5.371,3.246 8.828,3.246 3.391,0 7.199,-1.082 11.223,-3.363 l 145.148,-82.473 -41.301,-41.305 m 42.235,42.238 -146.082,83 c -4.024,2.282 -7.832,3.364 -11.223,3.364 -0.016,0 -0.027,0 -0.043,0 0.02,0 0.035,0 0.059,0 3.383,0 7.187,-1.078 11.207,-3.36 L 371.219,342.23 M 213.84,428.594 v 0 0" /></g></g><path
         id="path104"
         style="fill:#000000;fill-opacity:1;fill-rule:nonzero;stroke:none"
         d="m 214.852,171.41 c 3.144,0.18 6.625,1.262 10.285,3.336 l 145.14,82.469 v 0 l -145.14,-82.469 c -3.657,-2.078 -7.141,-3.156 -10.285,-3.336 m -9.758,3.227 -0.031,0.027 c 0.011,-0.008 0.023,-0.019 0.031,-0.027 v 0 m -0.676,0.656 -0.063,0.062 v 0.004 c 0.024,-0.023 0.043,-0.046 0.063,-0.066" /><g
         id="g106"><g
           clip-path="url(#clipPath112)"
           id="g108"><path
             id="path124"
             style="fill:url(#linearGradient122);fill-opacity:1;fill-rule:nonzero;stroke:none"
             d="m 370.277,257.215 v 0 l 0.942,0.535 -0.942,-0.535" /></g></g><g
         id="g126"><g
           clip-path="url(#clipPath132)"
           id="g128"><path
             id="path140"
             style="fill:url(#linearGradient138);fill-opacity:1;fill-rule:nonzero;stroke:none"
             d="m 213.938,171.387 c -3.461,0 -6.485,1.129 -8.84,3.254 l -0.004,-0.004 c -0.008,0.008 -0.02,0.019 -0.031,0.027 l -0.645,0.629 c -0.02,0.02 -0.039,0.043 -0.063,0.066 l 0.743,0.743 c 2.355,-2.125 5.375,-3.254 8.836,-3.25 3.382,0 7.187,1.078 11.203,3.355 l 145.152,82.473 0.93,-0.93 -0.942,-0.535 -145.14,-82.469 c -3.66,-2.074 -7.141,-3.156 -10.285,-3.336 -0.309,-0.015 -0.614,-0.023 -0.914,-0.023" /></g></g><path
         id="path142"
         style="fill:#000000;fill-opacity:1;fill-rule:nonzero;stroke:none"
         d="m 204.355,175.355 c -2.91,3.079 -4.628,7.86 -4.628,14.051 v 0.004 c 0,-6.195 1.718,-10.972 4.628,-14.051 v 0 0 -0.004" /><g
         id="g144"><g
           clip-path="url(#clipPath150)"
           id="g146"><path
             id="path166"
             style="fill:url(#linearGradient164);fill-opacity:1;fill-rule:nonzero;stroke:none"
             d="m 204.355,175.359 v 0 c -2.91,3.079 -4.628,7.856 -4.628,14.051 v 1.457 c 0,-6.191 1.718,-10.972 4.628,-14.051 l 0.743,-0.711 -0.743,-0.746" /></g></g><g
         id="g168"><g
           clip-path="url(#clipPath174)"
           id="g170"><path
             id="path182"
             style="fill:url(#linearGradient180);fill-opacity:1;fill-rule:nonzero;stroke:none"
             d="m 204.355,175.359 v 0 0 l 0.743,0.746 v -0.003 l -0.743,-0.743" /></g></g><path
         id="path184"
         style="fill:#000000;fill-opacity:1;fill-rule:nonzero;stroke:none"
         d="m 429.473,294.82 c 0.769,1.688 1.156,3.422 1.156,5.157 0,0.003 0,0.007 0,0.007 0,-1.738 -0.387,-3.472 -1.156,-5.164" /><g
         id="g186"><g
           clip-path="url(#clipPath192)"
           id="g188"><path
             id="path204"
             style="fill:url(#linearGradient202);fill-opacity:1;fill-rule:nonzero;stroke:none"
             d="m 371.219,257.75 v 0 l -0.93,0.93 49.859,28.332 c 6.332,3.597 9.887,8.238 10.481,12.965 0,-1.735 -0.387,-3.469 -1.156,-5.157 -1.551,-3.402 -4.66,-6.617 -9.325,-9.269 L 371.219,257.75" /></g></g><path
         id="path206"
         style="fill:#404040;fill-opacity:1;fill-rule:nonzero;stroke:none"
         d="m 430.629,299.992 v 0.004 c -0.004,5.231 -3.5,10.461 -10.481,14.43 l -48.929,27.801 h -0.004 l 0.004,0.003 48.929,-27.8 c 6.989,-3.969 10.489,-9.207 10.481,-14.438" /><g
         id="g208"><g
           clip-path="url(#clipPath214)"
           id="g210"><path
             id="path226"
             style="fill:url(#linearGradient224);fill-opacity:1;fill-rule:nonzero;stroke:none"
             d="m 430.629,299.996 c -0.594,4.738 -4.149,9.375 -10.481,12.973 l -49.863,28.328 0.93,0.93 h 0.004 l 48.929,-27.801 c 6.981,-3.969 10.477,-9.199 10.481,-14.43" /></g></g><path
         id="path228"
         style="fill:#404040;fill-opacity:1;fill-rule:nonzero;stroke:none"
         d="m 199.727,410.621 c 0,0.004 0,0.008 0,0.012 0,-0.004 0,-0.008 0,-0.012 m 0.043,1.625 c 0,0.008 0,0.016 0,0.024 0,-0.008 0,-0.016 0,-0.024 m 0.003,0.047 c 0,0.016 0,0.031 0,0.047 0,-0.016 0,-0.031 0,-0.047 m 0,0.059 c 0.579,10.273 6.165,16.207 14.067,16.242 -3.426,-0.02 -6.41,-1.145 -8.746,-3.25 v 0.004 l -0.028,-0.028 c -0.246,-0.222 -0.48,-0.457 -0.711,-0.699 v 0 c -2.625,-2.777 -4.281,-6.937 -4.582,-12.269" /><g
         id="g230"><g
           clip-path="url(#clipPath236)"
           id="g232"><path
             id="path252"
             style="fill:url(#linearGradient250);fill-opacity:1;fill-rule:nonzero;stroke:none"
             d="m 199.727,409.105 v 1.461 c 0,0.02 0,0.036 0,0.055 0,0.004 0,0.008 0,0.012 0,0.551 0.015,1.09 0.043,1.613 0,0.008 0,0.016 0,0.024 0,0.007 0,0.015 0.003,0.023 0,0.016 0,0.031 0,0.047 0,0.004 0,0.008 0,0.012 0.301,5.332 1.957,9.492 4.582,12.269 v 0 0 l 0.731,-0.734 c -3.356,-3.028 -5.359,-8.078 -5.359,-14.782 m 5.339,16.215 0.028,0.028 c -0.008,-0.012 -0.02,-0.02 -0.028,-0.028" /></g></g><path
         id="path254"
         style="fill:#404040;fill-opacity:1;fill-rule:nonzero;stroke:none"
         d="m 213.84,428.594 c 0.008,0 0.019,0 0.031,0 -0.012,0 -0.023,0 -0.031,0" /><g
         id="g256"><g
           clip-path="url(#clipPath262)"
           id="g258"><path
             id="path276"
             style="fill:url(#linearGradient274);fill-opacity:1;fill-rule:nonzero;stroke:none"
             d="M 370.285,341.297 225.137,423.77 c -4.024,2.281 -7.832,3.363 -11.223,3.363 -3.457,0 -6.473,-1.125 -8.828,-3.246 l -0.731,0.734 v 0 c 0.231,0.242 0.465,0.477 0.711,0.699 0.008,0.008 0.02,0.016 0.028,0.024 2.336,2.105 5.32,3.23 8.746,3.25 v 0 c 0.008,0 0.019,0 0.031,0 0.016,0 0.027,0 0.043,0 3.391,0 7.199,-1.082 11.223,-3.364 l 146.082,-83 -0.004,-0.003 -0.93,-0.93" /></g></g><path
         id="path278"
         style="fill:#ffffff;fill-opacity:1;fill-rule:nonzero;stroke:none"
         d="m 520.371,377.371 h 10.645 c 6.922,0 12.414,1.984 16.464,5.953 4.051,3.965 6.075,9.528 6.075,16.676 0,7.094 -2.024,12.637 -6.075,16.637 -4.05,3.988 -9.542,5.992 -16.464,5.992 H 520.371 Z M 512.668,370 v 60 h 18.348 c 9.218,0 16.589,-2.777 22.129,-8.34 5.527,-5.555 8.293,-12.773 8.293,-21.66 0,-8.883 -2.766,-16.105 -8.293,-21.66 -5.54,-5.563 -12.911,-8.34 -22.129,-8.34 h -18.348" /><path
         id="path280"
         style="fill:#ffffff;fill-opacity:1;fill-rule:nonzero;stroke:none"
         d="m 520.371,377.371 v -1 h 10.645 c 7.105,-0.008 12.906,2.059 17.164,6.238 4.281,4.184 6.383,10.063 6.375,17.391 0.008,7.273 -2.094,13.137 -6.371,17.348 v 0 c -4.258,4.203 -10.059,6.289 -17.168,6.281 h -10.645 -1 v -47.258 h 1 v 1 h 1 v 44.258 h 9.645 c 6.738,-0.012 11.918,-1.93 15.761,-5.707 v 0.004 c 3.828,-3.789 5.77,-9.012 5.778,-15.926 -0.008,-6.969 -1.95,-12.211 -5.774,-15.961 -3.847,-3.758 -9.023,-5.656 -15.765,-5.668 h -10.645 v -1 h 1 z M 512.668,370 h 1 v 59 h 17.348 c 9.023,-0.008 16.082,-2.691 21.422,-8.047 5.328,-5.367 7.988,-12.269 8,-20.953 -0.012,-8.68 -2.672,-15.586 -8,-20.953 -5.34,-5.356 -12.399,-8.039 -21.422,-8.047 h -18.348 v -1 h 1 -1 v -1 h 18.348 c 9.414,-0.008 17.101,2.863 22.836,8.633 5.726,5.746 8.593,13.285 8.586,22.367 0.007,9.09 -2.86,16.621 -8.586,22.363 -5.735,5.774 -13.422,8.645 -22.836,8.637 h -19.352 v -62 h 1.004 v 1" /><path
         id="path282"
         style="fill:#ffffff;fill-opacity:1;fill-rule:nonzero;stroke:none"
         d="m 572.258,370 v 60 h 7.703 v -60 h -7.703" /><path
         id="path284"
         style="fill:#ffffff;fill-opacity:1;fill-rule:nonzero;stroke:none"
         d="m 572.258,370 h 1 v 59 h 5.703 v -58 h -6.703 v -1 h 1 -1 v -1 h 7.703 1 v 62 h -8.703 -1 v -62 h 1 v 1" /><path
         id="path286"
         style="fill:#ffffff;fill-opacity:1;fill-rule:nonzero;stroke:none"
         d="m 610.625,368.66 c -4.355,0 -8.613,1.422 -12.773,4.27 -4.168,2.851 -6.895,6.843 -8.172,11.988 l 7.039,2.848 c 0.84,-3.297 2.551,-6.078 5.144,-8.336 2.61,-2.262 5.52,-3.395 8.762,-3.395 3.352,0 6.223,0.879 8.594,2.637 2.375,1.758 3.554,4.148 3.554,7.168 0,3.348 -1.179,5.933 -3.554,7.75 -2.371,1.816 -6.133,3.504 -11.27,5.07 -5.312,1.672 -9.336,3.84 -12.07,6.496 -2.734,2.653 -4.109,6.043 -4.109,10.18 0,4.305 1.707,8.043 5.117,11.227 3.406,3.183 7.847,4.781 13.316,4.781 5.09,0 9.223,-1.278 12.402,-3.817 3.188,-2.543 5.254,-5.32 6.204,-8.339 l -7.032,-2.926 c -0.507,1.89 -1.75,3.656 -3.73,5.277 -1.984,1.613 -4.539,2.426 -7.676,2.426 -2.961,0 -5.488,-0.82 -7.578,-2.473 -2.102,-1.648 -3.145,-3.699 -3.145,-6.156 0,-2.234 0.965,-4.121 2.891,-5.656 1.934,-1.535 4.766,-2.922 8.508,-4.149 2.957,-0.953 5.43,-1.871 7.422,-2.765 1.98,-0.891 3.992,-2.082 6.023,-3.563 2.039,-1.476 3.574,-3.324 4.61,-5.531 1.035,-2.207 1.55,-4.762 1.55,-7.664 0,-2.906 -0.593,-5.504 -1.797,-7.793 -1.199,-2.297 -2.8,-4.11 -4.785,-5.449 -1.98,-1.34 -4.109,-2.36 -6.402,-3.059 -2.297,-0.699 -4.641,-1.047 -7.043,-1.047" /><path
         id="path288"
         style="fill:#ffffff;fill-opacity:1;fill-rule:nonzero;stroke:none"
         d="m 610.625,368.66 v 1 c -4.133,0.004 -8.18,1.34 -12.207,4.094 -3.973,2.726 -6.535,6.469 -7.77,11.402 l -0.968,-0.238 0.375,-0.93 7.039,2.848 -0.375,0.93 -0.969,-0.25 c 0.883,-3.481 2.715,-6.461 5.461,-8.84 v -0.004 c 2.754,-2.395 5.937,-3.645 9.414,-3.637 3.523,-0.004 6.633,0.938 9.188,2.832 2.609,1.91 3.98,4.696 3.96,7.973 0.02,3.578 -1.32,6.551 -3.945,8.543 -2.543,1.937 -6.387,3.644 -11.586,5.234 h 0.008 c -5.219,1.637 -9.102,3.75 -11.676,6.258 -2.539,2.473 -3.797,5.547 -3.804,9.461 0.007,4.031 1.558,7.453 4.796,10.496 3.211,2.992 7.36,4.504 12.637,4.512 4.93,-0.004 8.805,-1.227 11.781,-3.598 3.075,-2.457 4.996,-5.074 5.871,-7.855 l 0.954,0.297 -0.383,0.925 -7.031,-2.929 0.382,-0.922 0.965,0.258 c -0.574,2.144 -1.965,4.082 -4.062,5.793 v 0 c -2.188,1.785 -5.008,2.656 -8.309,2.652 -3.141,0.004 -5.926,-0.887 -8.199,-2.688 l 0.004,0.004 c -2.297,-1.785 -3.543,-4.195 -3.528,-6.945 -0.015,-2.531 1.153,-4.77 3.266,-6.438 l 0.004,-0.003 c 2.078,-1.645 5.008,-3.063 8.816,-4.313 l 0.004,-0.004 c 2.934,-0.941 5.375,-1.851 7.317,-2.726 h 0.004 c 1.906,-0.856 3.863,-2.012 5.843,-3.457 h 0.004 c 1.91,-1.387 3.324,-3.09 4.289,-5.149 0.965,-2.051 1.457,-4.453 1.457,-7.238 0,-2.774 -0.562,-5.195 -1.679,-7.332 -1.133,-2.16 -2.618,-3.836 -4.461,-5.082 v 0 c -1.903,-1.285 -3.938,-2.262 -6.137,-2.93 -2.203,-0.672 -4.445,-1.004 -6.75,-1.004 v -1 -1 c 2.5,0 4.945,0.363 7.332,1.09 2.391,0.727 4.613,1.793 6.676,3.184 v 0.004 c 2.125,1.433 3.844,3.382 5.109,5.812 1.285,2.445 1.914,5.215 1.91,8.258 0.004,3.019 -0.539,5.726 -1.644,8.09 -1.106,2.355 -2.762,4.347 -4.93,5.918 l 0.004,-0.004 c -2.078,1.515 -4.148,2.742 -6.207,3.664 h 0.004 c -2.043,0.922 -4.543,1.847 -7.527,2.808 h 0.003 c -3.667,1.2 -6.406,2.555 -8.195,3.977 h 0.004 c -1.734,1.406 -2.5,2.937 -2.516,4.875 0.016,2.164 0.86,3.855 2.762,5.371 l 0.004,0.004 c 1.906,1.5 4.18,2.25 6.957,2.254 2.969,-0.004 5.266,-0.754 7.043,-2.203 v 0.004 c 1.867,-1.532 2.957,-3.121 3.399,-4.766 l 0.292,-1.102 8.086,3.368 0.844,0.351 -0.273,0.871 c -1.02,3.254 -3.239,6.192 -6.532,8.825 -3.39,2.707 -7.777,4.035 -13.027,4.031 -5.656,0.008 -10.394,-1.676 -14,-5.051 -3.578,-3.324 -5.445,-7.383 -5.433,-11.957 -0.012,-4.356 1.484,-8.07 4.414,-10.898 2.894,-2.805 7.058,-5.028 12.464,-6.731 h 0.008 v 0 c 5.074,-1.547 8.75,-3.219 10.953,-4.91 2.121,-1.645 3.145,-3.836 3.164,-6.957 -0.019,-2.758 -1.011,-4.758 -3.148,-6.363 -2.191,-1.622 -4.82,-2.438 -8,-2.442 -3.008,0.008 -5.645,1.024 -8.105,3.149 h 0.003 c -2.453,2.14 -4.039,4.714 -4.835,7.828 l -0.282,1.109 -8.101,-3.277 -0.809,-0.324 0.211,-0.844 c 1.324,-5.348 4.211,-9.594 8.578,-12.571 4.293,-2.941 8.762,-4.445 13.34,-4.445 v 1" /><path
         id="path290"
         style="fill:#ffffff;fill-opacity:1;fill-rule:nonzero;stroke:none"
         d="m 649.426,401.68 h 12.91 c 3.238,0 5.84,1.086 7.793,3.261 1.949,2.184 2.93,4.579 2.93,7.207 0,2.625 -0.981,5.032 -2.93,7.207 -1.953,2.184 -4.555,3.274 -7.793,3.274 h -12.91 z m 0,-31.68 h -7.707 v 60 h 20.449 c 5.078,0 9.48,-1.687 13.191,-5.066 3.723,-3.379 5.579,-7.645 5.579,-12.786 0,-5.136 -1.856,-9.394 -5.579,-12.773 -3.711,-3.383 -8.113,-5.074 -13.191,-5.074 H 649.426 V 370" /><path
         id="path292"
         style="fill:#ffffff;fill-opacity:1;fill-rule:nonzero;stroke:none"
         d="m 649.426,401.68 v -1 h 12.91 c 3.457,-0.012 6.402,1.199 8.535,3.593 v 0 c 2.09,2.325 3.192,4.997 3.188,7.875 0.004,2.879 -1.098,5.555 -3.188,7.875 v 0 c -2.133,2.403 -5.074,3.618 -8.535,3.606 h -12.91 -1 V 400.68 h 1 v 1 h 1 v 19.949 h 11.91 c 3.019,-0.016 5.273,-0.977 7.047,-2.941 v 0 c 1.816,-2.036 2.668,-4.165 2.676,-6.54 -0.008,-2.375 -0.86,-4.496 -2.676,-6.539 v 0 c -1.774,-1.961 -4.024,-2.918 -7.047,-2.929 h -12.91 v -1 h 1 z m 0,-31.68 v 1 h -6.707 v 58 h 19.449 c 4.855,-0.008 8.973,-1.59 12.52,-4.809 v 0 c 3.523,-3.214 5.238,-7.14 5.25,-12.043 -0.012,-4.894 -1.727,-8.816 -5.25,-12.035 v 0 c -3.547,-3.222 -7.665,-4.804 -12.52,-4.812 h -12.742 -1 V 370 h 1 v 1 -1 h 1 v 23.301 h 11.742 c 5.301,-0.008 9.992,1.793 13.867,5.336 v 0 c 3.918,3.539 5.914,8.133 5.903,13.511 0.011,5.383 -1.985,9.981 -5.903,13.524 v 0 c -3.875,3.539 -8.566,5.336 -13.867,5.328 h -21.449 v -62 h 8.707 1 v 1 h -1" /><path
         id="path294"
         style="fill:#ffffff;fill-opacity:1;fill-rule:nonzero;stroke:none"
         d="m 701.418,382.777 c 4.441,-4.496 9.871,-6.742 16.297,-6.742 6.426,0 11.863,2.246 16.301,6.742 4.441,4.496 6.668,10.243 6.668,17.223 0,6.98 -2.227,12.727 -6.668,17.223 -4.438,4.496 -9.875,6.742 -16.301,6.742 -6.426,0 -11.856,-2.246 -16.297,-6.742 -4.438,-4.496 -6.66,-10.243 -6.66,-17.223 0,-6.98 2.222,-12.727 6.66,-17.223 z m 38.301,-5.023 c -5.903,-6.066 -13.235,-9.094 -22.004,-9.094 -8.77,0 -16.106,3.028 -21.992,9.094 -5.899,6.059 -8.836,13.476 -8.836,22.246 0,8.77 2.937,16.188 8.836,22.246 5.886,6.067 13.222,9.098 21.992,9.098 8.723,0 16.035,-3.047 21.965,-9.137 5.918,-6.09 8.875,-13.492 8.875,-22.207 0,-8.77 -2.95,-16.187 -8.836,-22.246" /><path
         id="path296"
         style="fill:#ffffff;fill-opacity:1;fill-rule:nonzero;stroke:none"
         d="m 701.418,382.777 -0.715,-0.703 c 4.61,-4.676 10.352,-7.051 17.012,-7.039 6.66,-0.012 12.414,2.363 17.012,7.039 4.632,4.68 6.964,10.735 6.957,17.926 0.007,7.191 -2.325,13.246 -6.957,17.926 v 0 c -4.598,4.676 -10.352,7.051 -17.012,7.039 -6.66,0.012 -12.402,-2.363 -17.012,-7.039 v 0 c -4.625,-4.68 -6.957,-10.735 -6.945,-17.926 -0.012,-7.191 2.32,-13.246 6.945,-17.926 l 0.715,0.703 0.711,0.703 c -4.242,4.317 -6.363,9.747 -6.371,16.52 0.008,6.773 2.129,12.203 6.371,16.52 v 0 c 4.277,4.316 9.394,6.433 15.586,6.445 6.191,-0.012 11.316,-2.129 15.586,-6.445 v 0 c 4.254,-4.317 6.375,-9.747 6.383,-16.52 -0.008,-6.773 -2.129,-12.203 -6.383,-16.52 -4.27,-4.316 -9.395,-6.433 -15.586,-6.445 -6.192,0.012 -11.309,2.129 -15.586,6.445 z m 38.301,-5.023 -0.719,0.695 c -5.73,-5.875 -12.746,-8.777 -21.285,-8.789 -8.539,0.012 -15.555,2.914 -21.274,8.789 l -0.031,0.031 0.028,-0.031 c -5.719,5.895 -8.543,13.004 -8.551,21.551 0.008,8.547 2.832,15.656 8.551,21.551 h 0.003 c 5.719,5.875 12.735,8.781 21.274,8.793 8.488,-0.012 15.484,-2.93 21.246,-8.836 5.742,-5.922 8.586,-13.02 8.594,-21.508 -0.008,-8.547 -2.844,-15.656 -8.555,-21.551 l 0.719,-0.695 0.715,-0.695 c 6.066,6.226 9.129,13.949 9.121,22.941 0.008,8.941 -3.067,16.648 -9.16,22.902 -6.094,6.278 -13.727,9.453 -22.68,9.442 -9,0.011 -16.652,-3.149 -22.711,-9.403 l 0.004,0.004 c -6.078,-6.23 -9.133,-13.953 -9.121,-22.945 -0.012,-8.992 3.043,-16.715 9.121,-22.945 l 0.023,-0.028 -0.027,0.032 c 6.059,-6.254 13.711,-9.407 22.711,-9.399 9,-0.008 16.652,3.145 22.719,9.399 l -0.715,0.695" /><path
         id="path298"
         style="fill:#ffffff;fill-opacity:1;fill-rule:nonzero;stroke:none"
         d="m 759.375,370 v 60 h 9.387 l 29.16,-46.676 h 0.332 l -0.332,11.563 V 430 h 7.715 v -60 h -8.047 l -30.512,48.938 h -0.332 l 0.332,-11.567 V 370 h -7.703" /><path
         id="path300"
         style="fill:#ffffff;fill-opacity:1;fill-rule:nonzero;stroke:none"
         d="m 759.375,370 h 1 v 59 h 7.828 l 29.16,-46.676 h 0.891 1.027 l -0.359,12.578 V 429 h 5.715 v -58 h -6.492 l -30.508,48.938 h -0.891 -1.027 l 0.359,-12.583 V 371 h -6.703 v -1 h 1 -1 v -1 h 7.703 1 v 38.387 l -0.328,11.578 -1.004,-0.027 v -1 h 0.332 v 1 L 766.23,418.406 797.031,369 h 8.606 1 v 62 h -8.715 -1 v -36.125 l 0.332,-11.578 1,0.027 v 1 h -0.332 v -1 l 0.848,0.531 L 769.313,431 h -9.938 -1 v -62 h 1 v 1" /><path
         id="path302"
         style="fill:#ffffff;fill-opacity:1;fill-rule:nonzero;stroke:none"
         d="m 819.375,370 v 60 h 7.703 v -60 h -7.703" /><path
         id="path304"
         style="fill:#ffffff;fill-opacity:1;fill-rule:nonzero;stroke:none"
         d="m 819.375,370 h 1 v 59 h 5.703 v -58 h -6.703 v -1 h 1 -1 v -1 h 7.703 1 v 62 h -8.703 -1 v -62 h 1 v 1" /><path
         id="path306"
         style="fill:#ffffff;fill-opacity:1;fill-rule:nonzero;stroke:none"
         d="m 848.523,377.371 h 15.508 c 2.961,0 5.364,1.035 7.207,3.109 1.848,2.059 2.766,4.325 2.766,6.786 0,2.457 -0.945,4.703 -2.852,6.742 -1.894,2.039 -4.382,3.062 -7.461,3.062 h -15.168 z m 0,26.906 h 13.997 c 2.91,0 5.246,0.957 7,2.891 1.757,1.926 2.636,4.031 2.636,6.324 0,2.289 -0.847,4.391 -2.554,6.281 -1.704,1.903 -3.95,2.856 -6.743,2.856 H 848.523 Z M 840.82,370 v 60 h 21.7 c 4.699,0 8.757,-1.555 12.199,-4.648 3.433,-3.106 5.152,-7 5.152,-11.692 0,-2.847 -0.738,-5.363 -2.226,-7.543 -1.473,-2.179 -3.446,-3.828 -5.907,-4.945 v -0.332 c 2.957,-1.004 5.391,-2.738 7.293,-5.195 1.899,-2.461 2.856,-5.313 2.856,-8.551 0,-4.914 -1.809,-8.992 -5.41,-12.231 C 872.871,371.621 868.613,370 863.691,370 H 840.82" /><path
         id="path308"
         style="fill:#ffffff;fill-opacity:1;fill-rule:nonzero;stroke:none"
         d="m 848.523,377.371 v -1 h 15.508 c 3.192,-0.012 5.938,1.16 7.957,3.442 h -0.004 c 1.985,2.199 3.028,4.738 3.02,7.453 0.008,2.718 -1.078,5.246 -3.121,7.425 v 0 c -2.074,2.247 -4.899,3.391 -8.192,3.379 h -16.168 v -21.699 h 1 v 1 h 1 v 18.699 h 14.168 c 2.86,-0.011 5.016,-0.918 6.731,-2.742 v 0 c 1.766,-1.906 2.574,-3.871 2.582,-6.062 -0.008,-2.207 -0.801,-4.2 -2.508,-6.121 h -0.004 c -1.672,-1.86 -3.73,-2.758 -6.461,-2.774 h -15.508 v -1 h 1 z m 0,26.906 v -1 h 13.997 c 3.125,-0.011 5.8,1.067 7.742,3.219 v -0.004 c 1.89,2.063 2.902,4.446 2.894,7 0.008,2.539 -0.965,4.914 -2.812,6.953 v -0.004 c -1.875,2.118 -4.465,3.2 -7.485,3.188 h -15.336 v -20.352 h 1 v 1 h 1 v 17.352 h 13.336 c 2.571,-0.016 4.473,-0.836 5.996,-2.52 l 0.008,-0.007 -0.008,0.003 c 1.571,-1.75 2.297,-3.578 2.301,-5.613 -0.004,-2.027 -0.75,-3.863 -2.375,-5.648 v -0.004 c -1.574,-1.715 -3.566,-2.551 -6.261,-2.563 h -13.997 v -1 h 1 z M 840.82,370 h 1 v 59 h 20.7 c 4.476,-0.008 8.253,-1.453 11.527,-4.391 v 0 c 3.242,-2.945 4.812,-6.504 4.824,-10.949 0,-2.676 -0.683,-4.969 -2.051,-6.98 h -0.004 c -1.375,-2.032 -3.183,-3.547 -5.492,-4.598 l -0.586,-0.266 v -0.976 -0.715 l 0.68,-0.23 c 2.781,-0.954 5.031,-2.555 6.824,-4.864 v 0.004 c 1.762,-2.297 2.637,-4.898 2.645,-7.941 -0.016,-4.672 -1.672,-8.41 -5.082,-11.489 -3.438,-3.082 -7.41,-4.597 -12.114,-4.605 H 840.82 v -1 h 1 -1 v -1 h 22.871 c 5.141,-0.008 9.684,1.719 13.454,5.121 3.796,3.395 5.753,7.813 5.742,12.973 0.004,3.433 -1.035,6.535 -3.063,9.16 v 0.004 c -2.015,2.601 -4.629,4.469 -7.765,5.527 l -0.321,-0.945 h 1 v 0.332 h -1 l 0.414,-0.91 c 2.614,1.183 4.75,2.961 6.325,5.297 l -0.004,-0.004 c 1.601,2.347 2.402,5.086 2.402,8.105 0.012,4.934 -1.855,9.168 -5.488,12.434 l -0.024,0.019 0.024,-0.019 c -3.602,3.254 -7.949,4.914 -12.867,4.906 h -22.7 v -62 h 1 v 1" /><path
         id="path310"
         style="fill:#ffffff;fill-opacity:1;fill-rule:nonzero;stroke:none"
         d="m 892.273,370 v 60 h 7.707 v -60 h -7.707" /><path
         id="path312"
         style="fill:#ffffff;fill-opacity:1;fill-rule:nonzero;stroke:none"
         d="m 892.273,370 h 1 v 59 h 5.707 v -58 h -6.707 v -1 h 1 -1 v -1 h 7.707 1 v 62 h -8.707 -1 v -62 h 1 v 1" /><path
         id="path314"
         style="fill:#ffffff;fill-opacity:1;fill-rule:nonzero;stroke:none"
         d="m 913.73,370 v 60 h 7.708 V 377.371 H 947.41 V 370 h -33.68" /><path
         id="path316"
         style="fill:#ffffff;fill-opacity:1;fill-rule:nonzero;stroke:none"
         d="m 913.73,370 h 1 v 59 h 5.704 V 376.371 H 946.41 V 371 h -32.68 v -1 h 1 -1 v -1 h 34.68 v 8.371 1 H 922.434 L 922.438,431 h -8.708 -1 v -62 h 1 v 1" /><path
         id="path318"
         style="fill:#ffffff;fill-opacity:1;fill-rule:nonzero;stroke:none"
         d="m 992.156,422.629 h -27.32 v -19.024 h 24.637 v -7.21 h -24.637 v -19.024 h 27.32 V 370 h -35.027 v 60 h 35.027 v -7.371" /><path
         id="path320"
         style="fill:#ffffff;fill-opacity:1;fill-rule:nonzero;stroke:none"
         d="m 992.156,422.629 v 1 h -28.32 v -21.024 h 24.637 v -5.207 l -24.637,-0.003 v -21.024 h 27.32 V 371 h -33.027 v 58 h 33.027 v -6.371 h 1 v 1 -1 h 1 v 7.371 1 h -37.027 v -62 h 37.027 v 8.371 1 h -27.32 v 17.024 h 24.637 v 8.21 1 h -24.637 v 17.024 h 27.32 v 1 h -1" /><path
         id="path322"
         style="fill:#ffffff;fill-opacity:1;fill-rule:nonzero;stroke:none"
         d="m 1038.75,368.66 c -4.36,0 -8.61,1.422 -12.77,4.27 -4.17,2.851 -6.9,6.843 -8.18,11.988 l 7.04,2.848 c 0.84,-3.297 2.55,-6.078 5.15,-8.336 2.61,-2.262 5.52,-3.395 8.76,-3.395 3.35,0 6.22,0.879 8.59,2.637 2.38,1.758 3.56,4.148 3.56,7.168 0,3.348 -1.18,5.933 -3.56,7.75 -2.37,1.816 -6.13,3.504 -11.27,5.07 -5.31,1.672 -9.33,3.84 -12.07,6.496 -2.73,2.653 -4.11,6.043 -4.11,10.18 0,4.305 1.71,8.043 5.12,11.227 3.41,3.183 7.85,4.781 13.32,4.781 5.09,0 9.22,-1.278 12.4,-3.817 3.19,-2.543 5.26,-5.32 6.2,-8.339 l -7.03,-2.926 c -0.51,1.89 -1.75,3.656 -3.73,5.277 -1.98,1.613 -4.54,2.426 -7.67,2.426 -2.96,0 -5.49,-0.82 -7.58,-2.473 -2.1,-1.648 -3.15,-3.699 -3.15,-6.156 0,-2.234 0.97,-4.121 2.89,-5.656 1.94,-1.535 4.77,-2.922 8.51,-4.149 2.96,-0.953 5.43,-1.871 7.42,-2.765 1.98,-0.891 4,-2.082 6.03,-3.563 2.04,-1.476 3.57,-3.324 4.61,-5.531 1.03,-2.207 1.55,-4.762 1.55,-7.664 0,-2.906 -0.6,-5.504 -1.8,-7.793 -1.2,-2.297 -2.8,-4.11 -4.78,-5.449 -1.99,-1.34 -4.11,-2.36 -6.41,-3.059 -2.29,-0.699 -4.64,-1.047 -7.04,-1.047" /><path
         id="path324"
         style="fill:#ffffff;fill-opacity:1;fill-rule:nonzero;stroke:none"
         d="m 1038.75,368.66 v 1 c -4.13,0.004 -8.18,1.34 -12.21,4.094 -3.97,2.726 -6.53,6.469 -7.77,11.402 l -0.97,-0.238 0.38,-0.93 7.04,2.848 -0.38,0.93 -0.97,-0.25 c 0.89,-3.481 2.72,-6.461 5.46,-8.84 l 0.02,-0.02 -0.01,0.016 c 2.75,-2.395 5.93,-3.645 9.41,-3.637 3.52,-0.004 6.63,0.938 9.19,2.832 2.61,1.91 3.98,4.696 3.96,7.973 0.02,3.578 -1.32,6.551 -3.95,8.543 -2.54,1.937 -6.39,3.644 -11.58,5.234 v 0 c -5.21,1.637 -9.1,3.75 -11.67,6.258 -2.54,2.473 -3.8,5.547 -3.81,9.461 0.01,4.031 1.56,7.453 4.8,10.496 3.21,2.992 7.36,4.504 12.64,4.512 4.93,-0.004 8.8,-1.227 11.78,-3.598 3.07,-2.457 5,-5.074 5.87,-7.855 l 0.95,0.297 -0.38,0.925 -7.03,-2.929 0.38,-0.922 0.97,0.258 c -0.58,2.144 -1.97,4.082 -4.07,5.793 v 0 c -2.18,1.785 -5,2.656 -8.3,2.652 -3.14,0.004 -5.93,-0.887 -8.2,-2.688 v 0.004 c -2.3,-1.785 -3.54,-4.195 -3.53,-6.945 -0.01,-2.531 1.16,-4.77 3.27,-6.438 v -0.003 c 2.08,-1.645 5.01,-3.063 8.82,-4.313 v -0.004 c 2.94,-0.941 5.38,-1.851 7.32,-2.726 v 0 c 1.91,-0.856 3.86,-2.012 5.85,-3.457 v 0 c 1.91,-1.387 3.32,-3.09 4.29,-5.149 0.96,-2.051 1.46,-4.453 1.46,-7.238 0,-2.774 -0.56,-5.195 -1.68,-7.332 -1.14,-2.16 -2.62,-3.836 -4.46,-5.082 l -0.03,-0.02 0.03,0.02 c -1.91,-1.285 -3.94,-2.262 -6.14,-2.93 -2.2,-0.672 -4.44,-1.004 -6.75,-1.004 v -1 -1 c 2.5,0 4.94,0.363 7.33,1.09 2.39,0.727 4.61,1.793 6.68,3.184 v 0.004 c 2.12,1.433 3.84,3.382 5.11,5.812 1.28,2.445 1.91,5.215 1.91,8.258 0,3.019 -0.54,5.726 -1.65,8.09 -1.1,2.355 -2.76,4.347 -4.93,5.918 l 0.01,-0.004 c -2.08,1.515 -4.15,2.742 -6.21,3.664 v 0 c -2.04,0.922 -4.54,1.847 -7.52,2.808 v 0 c -3.67,1.2 -6.4,2.555 -8.19,3.977 v 0 c -1.74,1.406 -2.5,2.937 -2.52,4.875 0.02,2.164 0.86,3.855 2.77,5.371 v 0.004 c 1.91,1.5 4.18,2.25 6.96,2.254 2.96,-0.004 5.26,-0.754 7.04,-2.203 v 0.004 c 1.87,-1.532 2.96,-3.121 3.4,-4.766 l 0.29,-1.102 8.09,3.368 0.84,0.351 -0.27,0.871 c -1.02,3.254 -3.24,6.192 -6.53,8.825 -3.39,2.707 -7.78,4.035 -13.03,4.031 -5.66,0.008 -10.4,-1.676 -14,-5.051 -3.58,-3.324 -5.45,-7.383 -5.44,-11.957 -0.01,-4.356 1.49,-8.07 4.42,-10.898 2.89,-2.805 7.06,-5.028 12.46,-6.731 h 0.01 v 0 c 5.08,-1.547 8.75,-3.219 10.96,-4.91 2.11,-1.645 3.14,-3.836 3.16,-6.957 -0.02,-2.758 -1.01,-4.758 -3.15,-6.363 -2.19,-1.622 -4.82,-2.438 -8,-2.442 -3.01,0.008 -5.64,1.024 -8.1,3.149 v 0 c -2.46,2.14 -4.04,4.714 -4.84,7.828 l -0.28,1.109 -8.1,-3.277 -0.81,-0.324 0.21,-0.844 c 1.33,-5.348 4.21,-9.594 8.58,-12.571 4.29,-2.941 8.76,-4.445 13.34,-4.445 v 1" /><path
         id="path326"
         style="fill:#ffffff;fill-opacity:1;fill-rule:nonzero;stroke:none"
         d="m 1090.71,368.66 c -6.6,0 -11.94,2.18 -16.05,6.535 -4.1,4.356 -6.15,10.059 -6.15,17.094 V 430 h 7.7 v -38.047 c 0,-4.746 1.24,-8.586 3.73,-11.523 2.48,-2.93 6.08,-4.395 10.77,-4.395 4.69,0 8.28,1.465 10.76,4.395 2.49,2.937 3.74,6.777 3.74,11.523 V 430 h 7.71 v -37.711 c 0,-7.094 -2,-12.809 -6,-17.133 -3.99,-4.336 -9.4,-6.496 -16.21,-6.496" /><path
         id="path328"
         style="fill:#ffffff;fill-opacity:1;fill-rule:nonzero;stroke:none"
         d="m 1090.71,368.66 v 1 c -6.38,0.016 -11.39,2.07 -15.32,6.223 v 0 c -3.91,4.156 -5.88,9.558 -5.88,16.406 V 429 h 5.7 v -37.047 c 0,-4.914 1.3,-9.023 3.97,-12.172 2.68,-3.183 6.64,-4.758 11.53,-4.746 4.89,-0.012 8.84,1.563 11.53,4.75 2.67,3.145 3.97,7.254 3.97,12.168 V 429 h 5.71 v -36.711 c -0.01,-6.91 -1.93,-12.332 -5.73,-16.453 -3.8,-4.113 -8.87,-6.164 -15.48,-6.176 v -1 -1 c 7.01,-0.008 12.76,2.262 16.95,6.82 4.19,4.528 6.27,10.536 6.26,17.809 V 431 h -8.71 -1 v -39.047 c -0.01,-4.578 -1.19,-8.144 -3.5,-10.879 -2.27,-2.672 -5.51,-4.027 -10,-4.039 -4.5,0.012 -7.73,1.367 -10.01,4.039 -2.31,2.735 -3.48,6.301 -3.49,10.879 V 431 h -8.7 -1 v -38.711 c -0.01,-7.223 2.12,-13.226 6.42,-17.777 4.29,-4.563 9.97,-6.86 16.78,-6.852 v 1" /></g></g></svg>