<?xml version="1.0" encoding="UTF-8" standalone="no"?>
<svg
   xmlns:dc="http://purl.org/dc/elements/1.1/"
   xmlns:cc="http://creativecommons.org/ns#"
   xmlns:rdf="http://www.w3.org/1999/02/22-rdf-syntax-ns#"
   xmlns:svg="http://www.w3.org/2000/svg"
   xmlns="http://www.w3.org/2000/svg"
   viewBox="0 0 206.66667 80"
   height="80"
   width="206.66667"
   xml:space="preserve"
   id="svg2"
   version="1.1"><metadata
     id="metadata8"><rdf:RDF><cc:Work
         rdf:about=""><dc:format>image/svg+xml</dc:format><dc:type
           rdf:resource="http://purl.org/dc/dcmitype/StillImage" /></cc:Work></rdf:RDF></metadata><defs
     id="defs6"><clipPath
       id="clipPath28"
       clipPathUnits="userSpaceOnUse"><path
         id="path26"
         d="m 205.098,176.105 -0.743,0.711 c -2.91,3.079 -4.628,7.86 -4.628,14.051 v -1.457 0 221.16 c 0,0.02 0,0.035 0,0.051 0,-0.019 0,-0.035 0,-0.055 v -1.461 c 0,6.704 2.003,11.754 5.359,14.782 L 328.984,299.992 205.098,176.105 m -5.371,234.528 c 0,0.551 0.015,1.086 0.043,1.613 -0.028,-0.523 -0.043,-1.062 -0.043,-1.613 m 0.043,1.637 c 0,0.007 0,0.015 0.003,0.023 -0.003,-0.008 -0.003,-0.016 -0.003,-0.023 m 0.003,0.07 c 0,0.004 0,0.008 0,0.012 0,-0.004 0,-0.008 0,-0.012" /></clipPath><linearGradient
       id="linearGradient42"
       spreadMethod="pad"
       gradientTransform="matrix(-167.825,-167.825,167.825,-167.825,317.998,412.903)"
       gradientUnits="userSpaceOnUse"
       y2="0"
       x2="1"
       y1="0"
       x1="0"><stop
         id="stop30"
         offset="0"
         style="stop-opacity:1;stop-color:#00a0ff" /><stop
         id="stop32"
         offset="0.00657445"
         style="stop-opacity:1;stop-color:#00a1ff" /><stop
         id="stop34"
         offset="0.2601"
         style="stop-opacity:1;stop-color:#00beff" /><stop
         id="stop36"
         offset="0.5122"
         style="stop-opacity:1;stop-color:#00d2ff" /><stop
         id="stop38"
         offset="0.7604"
         style="stop-opacity:1;stop-color:#00dfff" /><stop
         id="stop40"
         offset="1"
         style="stop-opacity:1;stop-color:#00e3ff" /></linearGradient><clipPath
       id="clipPath52"
       clipPathUnits="userSpaceOnUse"><path
         id="path50"
         d="m 370.277,257.215 v 0 l 0.942,0.535 48.929,27.801 c 4.665,2.652 7.774,5.867 9.325,9.269 -1.547,-3.402 -4.657,-6.621 -9.325,-9.273 l -48.929,-27.801 -0.942,-0.531 m 0.012,1.465 -41.305,41.312 41.301,41.305 49.863,-28.328 c 6.332,-3.598 9.887,-8.235 10.481,-12.973 0,-0.004 0,-0.012 0,-0.019 -0.594,-4.727 -4.149,-9.368 -10.481,-12.965 L 370.289,258.68" /></clipPath><linearGradient
       id="linearGradient62"
       spreadMethod="pad"
       gradientTransform="matrix(-241.97,0,0,-241.97,438.344,299.986)"
       gradientUnits="userSpaceOnUse"
       y2="0"
       x2="1"
       y1="0"
       x1="0"><stop
         id="stop54"
         offset="0"
         style="stop-opacity:1;stop-color:#ffe000" /><stop
         id="stop56"
         offset="0.4087"
         style="stop-opacity:1;stop-color:#ffbd00" /><stop
         id="stop58"
         offset="0.7754"
         style="stop-opacity:1;stop-color:#ffa500" /><stop
         id="stop60"
         offset="1"
         style="stop-opacity:1;stop-color:#ff9c00" /></linearGradient><clipPath
       id="clipPath72"
       clipPathUnits="userSpaceOnUse"><path
         id="path70"
         d="m 213.93,171.387 c -3.461,0 -6.481,1.125 -8.836,3.25 l 0.004,0.004 c 2.355,-2.125 5.379,-3.254 8.84,-3.254 0.3,0 0.605,0.008 0.914,0.023 -0.313,-0.015 -0.622,-0.023 -0.922,-0.023 m 0.004,1.465 c -3.461,-0.004 -6.481,1.125 -8.836,3.25 v 0 0.003 l 123.886,123.887 41.305,-41.312 v 0 L 225.137,176.207 c -4.016,-2.277 -7.821,-3.355 -11.203,-3.355 m -8.871,1.812 c -0.219,0.199 -0.434,0.41 -0.645,0.629 l 0.645,-0.629" /></clipPath><linearGradient
       id="linearGradient78"
       spreadMethod="pad"
       gradientTransform="matrix(-227.583,-227.583,227.583,-227.583,348.27,277.039)"
       gradientUnits="userSpaceOnUse"
       y2="0"
       x2="1"
       y1="0"
       x1="0"><stop
         id="stop74"
         offset="0"
         style="stop-opacity:1;stop-color:#ff3a44" /><stop
         id="stop76"
         offset="1"
         style="stop-opacity:1;stop-color:#c31162" /></linearGradient><clipPath
       id="clipPath88"
       clipPathUnits="userSpaceOnUse"><path
         id="path86"
         d="m 328.984,299.992 v 0 L 205.086,423.887 c 2.355,2.121 5.371,3.246 8.828,3.246 3.391,0 7.199,-1.082 11.223,-3.363 l 145.148,-82.473 -41.301,-41.305 m 42.235,42.238 -146.082,83 c -4.024,2.282 -7.832,3.364 -11.223,3.364 -0.016,0 -0.027,0 -0.043,0 0.02,0 0.035,0 0.059,0 3.383,0 7.187,-1.078 11.207,-3.36 L 371.219,342.23 M 213.84,428.594 v 0 0" /></clipPath><linearGradient
       id="linearGradient100"
       spreadMethod="pad"
       gradientTransform="matrix(101.625,-101.625,101.625,101.625,172.973,498.238)"
       gradientUnits="userSpaceOnUse"
       y2="0"
       x2="1"
       y1="0"
       x1="0"><stop
         id="stop90"
         offset="0"
         style="stop-opacity:1;stop-color:#32a071" /><stop
         id="stop92"
         offset="0.0685"
         style="stop-opacity:1;stop-color:#2da771" /><stop
         id="stop94"
         offset="0.4762"
         style="stop-opacity:1;stop-color:#15cf74" /><stop
         id="stop96"
         offset="0.8009"
         style="stop-opacity:1;stop-color:#06e775" /><stop
         id="stop98"
         offset="1"
         style="stop-opacity:1;stop-color:#00f076" /></linearGradient><clipPath
       id="clipPath112"
       clipPathUnits="userSpaceOnUse"><path
         id="path110"
         d="m 370.277,257.215 v 0 l 0.942,0.535 -0.942,-0.535" /></clipPath><linearGradient
       id="linearGradient122"
       spreadMethod="pad"
       gradientTransform="matrix(-241.97,0,0,-241.97,438.344,299.986)"
       gradientUnits="userSpaceOnUse"
       y2="0"
       x2="1"
       y1="0"
       x1="0"><stop
         id="stop114"
         offset="0"
         style="stop-opacity:1;stop-color:#ccb300" /><stop
         id="stop116"
         offset="0.4087"
         style="stop-opacity:1;stop-color:#cc9700" /><stop
         id="stop118"
         offset="0.7754"
         style="stop-opacity:1;stop-color:#cc8400" /><stop
         id="stop120"
         offset="1"
         style="stop-opacity:1;stop-color:#cc7d00" /></linearGradient><clipPath
       id="clipPath132"
       clipPathUnits="userSpaceOnUse"><path
         id="path130"
         d="m 213.938,171.387 c -3.461,0 -6.485,1.129 -8.84,3.254 l -0.004,-0.004 c -0.008,0.008 -0.02,0.019 -0.031,0.027 l -0.645,0.629 c -0.02,0.02 -0.039,0.043 -0.063,0.066 l 0.743,0.743 c 2.355,-2.125 5.375,-3.254 8.836,-3.25 3.382,0 7.187,1.078 11.203,3.355 l 145.152,82.473 0.93,-0.93 -0.942,-0.535 -145.14,-82.469 c -3.66,-2.074 -7.141,-3.156 -10.285,-3.336 -0.309,-0.015 -0.614,-0.023 -0.914,-0.023" /></clipPath><linearGradient
       id="linearGradient138"
       spreadMethod="pad"
       gradientTransform="matrix(-227.583,-227.583,227.583,-227.583,348.27,277.039)"
       gradientUnits="userSpaceOnUse"
       y2="0"
       x2="1"
       y1="0"
       x1="0"><stop
         id="stop134"
         offset="0"
         style="stop-opacity:1;stop-color:#cc2e36" /><stop
         id="stop136"
         offset="1"
         style="stop-opacity:1;stop-color:#9c0e4e" /></linearGradient><clipPath
       id="clipPath150"
       clipPathUnits="userSpaceOnUse"><path
         id="path148"
         d="m 204.355,175.359 v 0 c -2.91,3.079 -4.628,7.856 -4.628,14.051 v 1.457 c 0,-6.191 1.718,-10.972 4.628,-14.051 l 0.743,-0.711 -0.743,-0.746" /></clipPath><linearGradient
       id="linearGradient164"
       spreadMethod="pad"
       gradientTransform="matrix(-167.825,-167.825,167.825,-167.825,317.998,412.903)"
       gradientUnits="userSpaceOnUse"
       y2="0"
       x2="1"
       y1="0"
       x1="0"><stop
         id="stop152"
         offset="0"
         style="stop-opacity:1;stop-color:#008de0" /><stop
         id="stop154"
         offset="0.00657445"
         style="stop-opacity:1;stop-color:#008de0" /><stop
         id="stop156"
         offset="0.2601"
         style="stop-opacity:1;stop-color:#00a7e0" /><stop
         id="stop158"
         offset="0.5122"
         style="stop-opacity:1;stop-color:#00b8e0" /><stop
         id="stop160"
         offset="0.7604"
         style="stop-opacity:1;stop-color:#00c4e0" /><stop
         id="stop162"
         offset="1"
         style="stop-opacity:1;stop-color:#00c7e0" /></linearGradient><clipPath
       id="clipPath174"
       clipPathUnits="userSpaceOnUse"><path
         id="path172"
         d="m 204.355,175.359 v 0 0 l 0.743,0.746 v -0.003 l -0.743,-0.743" /></clipPath><linearGradient
       id="linearGradient180"
       spreadMethod="pad"
       gradientTransform="matrix(-227.583,-227.583,227.583,-227.583,348.27,277.039)"
       gradientUnits="userSpaceOnUse"
       y2="0"
       x2="1"
       y1="0"
       x1="0"><stop
         id="stop176"
         offset="0"
         style="stop-opacity:1;stop-color:#e0333c" /><stop
         id="stop178"
         offset="1"
         style="stop-opacity:1;stop-color:#ab0f56" /></linearGradient><clipPath
       id="clipPath192"
       clipPathUnits="userSpaceOnUse"><path
         id="path190"
         d="m 371.219,257.75 v 0 l -0.93,0.93 49.859,28.332 c 6.332,3.597 9.887,8.238 10.481,12.965 0,-1.735 -0.387,-3.469 -1.156,-5.157 -1.551,-3.402 -4.66,-6.617 -9.325,-9.269 L 371.219,257.75" /></clipPath><linearGradient
       id="linearGradient202"
       spreadMethod="pad"
       gradientTransform="matrix(-241.97,0,0,-241.97,438.344,299.986)"
       gradientUnits="userSpaceOnUse"
       y2="0"
       x2="1"
       y1="0"
       x1="0"><stop
         id="stop194"
         offset="0"
         style="stop-opacity:1;stop-color:#e0c500" /><stop
         id="stop196"
         offset="0.4087"
         style="stop-opacity:1;stop-color:#e0a600" /><stop
         id="stop198"
         offset="0.7754"
         style="stop-opacity:1;stop-color:#e09100" /><stop
         id="stop200"
         offset="1"
         style="stop-opacity:1;stop-color:#e08900" /></linearGradient><clipPath
       id="clipPath214"
       clipPathUnits="userSpaceOnUse"><path
         id="path212"
         d="m 430.629,299.996 c -0.594,4.738 -4.149,9.375 -10.481,12.973 l -49.863,28.328 0.93,0.93 h 0.004 l 48.929,-27.801 c 6.981,-3.969 10.477,-9.199 10.481,-14.43" /></clipPath><linearGradient
       id="linearGradient224"
       spreadMethod="pad"
       gradientTransform="matrix(-241.97,0,0,-241.97,438.344,299.986)"
       gradientUnits="userSpaceOnUse"
       y2="0"
       x2="1"
       y1="0"
       x1="0"><stop
         id="stop216"
         offset="0"
         style="stop-opacity:1;stop-color:#ffe840" /><stop
         id="stop218"
         offset="0.4087"
         style="stop-opacity:1;stop-color:#ffce40" /><stop
         id="stop220"
         offset="0.7754"
         style="stop-opacity:1;stop-color:#ffbc40" /><stop
         id="stop222"
         offset="1"
         style="stop-opacity:1;stop-color:#ffb540" /></linearGradient><clipPath
       id="clipPath236"
       clipPathUnits="userSpaceOnUse"><path
         id="path234"
         d="m 199.727,409.105 v 1.461 c 0,0.02 0,0.036 0,0.055 0,0.004 0,0.008 0,0.012 0,0.551 0.015,1.09 0.043,1.613 0,0.008 0,0.016 0,0.024 0,0.007 0,0.015 0.003,0.023 0,0.016 0,0.031 0,0.047 0,0.004 0,0.008 0,0.012 0.301,5.332 1.957,9.492 4.582,12.269 v 0 0 l 0.731,-0.734 c -3.356,-3.028 -5.359,-8.078 -5.359,-14.782 m 5.339,16.215 0.028,0.028 c -0.008,-0.012 -0.02,-0.02 -0.028,-0.028" /></clipPath><linearGradient
       id="linearGradient250"
       spreadMethod="pad"
       gradientTransform="matrix(-167.825,-167.825,167.825,-167.825,317.998,412.903)"
       gradientUnits="userSpaceOnUse"
       y2="0"
       x2="1"
       y1="0"
       x1="0"><stop
         id="stop238"
         offset="0"
         style="stop-opacity:1;stop-color:#40b8ff" /><stop
         id="stop240"
         offset="0.00657445"
         style="stop-opacity:1;stop-color:#40b9ff" /><stop
         id="stop242"
         offset="0.2601"
         style="stop-opacity:1;stop-color:#40ceff" /><stop
         id="stop244"
         offset="0.5122"
         style="stop-opacity:1;stop-color:#40ddff" /><stop
         id="stop246"
         offset="0.7604"
         style="stop-opacity:1;stop-color:#40e7ff" /><stop
         id="stop248"
         offset="1"
         style="stop-opacity:1;stop-color:#40eaff" /></linearGradient><clipPath
       id="clipPath262"
       clipPathUnits="userSpaceOnUse"><path
         id="path260"
         d="M 370.285,341.297 225.137,423.77 c -4.024,2.281 -7.832,3.363 -11.223,3.363 -3.457,0 -6.473,-1.125 -8.828,-3.246 l -0.731,0.734 v 0 c 0.231,0.242 0.465,0.477 0.711,0.699 0.008,0.008 0.02,0.016 0.028,0.024 2.336,2.105 5.32,3.23 8.746,3.25 v 0 c 0.008,0 0.019,0 0.031,0 0.016,0 0.027,0 0.043,0 3.391,0 7.199,-1.082 11.223,-3.364 l 146.082,-83 -0.004,-0.003 -0.93,-0.93" /></clipPath><linearGradient
       id="linearGradient274"
       spreadMethod="pad"
       gradientTransform="matrix(101.625,-101.625,101.625,101.625,172.973,498.238)"
       gradientUnits="userSpaceOnUse"
       y2="0"
       x2="1"
       y1="0"
       x1="0"><stop
         id="stop264"
         offset="0"
         style="stop-opacity:1;stop-color:#65b895" /><stop
         id="stop266"
         offset="0.0685"
         style="stop-opacity:1;stop-color:#62bd95" /><stop
         id="stop268"
         offset="0.4762"
         style="stop-opacity:1;stop-color:#50db97" /><stop
         id="stop270"
         offset="0.8009"
         style="stop-opacity:1;stop-color:#44ed98" /><stop
         id="stop272"
         offset="1"
         style="stop-opacity:1;stop-color:#40f498" /></linearGradient></defs><g
     transform="matrix(1.3333333,0,0,-1.3333333,0,80)"
     id="g10"><g
       transform="scale(0.1)"
       id="g12"><path
         id="path14"
         style="fill:#ffffff;fill-opacity:1;fill-rule:nonzero;stroke:none"
         d="M 1550,0 H 0 V 600 H 1550 V 0 M 100,150 v 0 c 0,-27.5 22.5,-50 50,-50 h 1250 c 27.5,0 50,22.5 50,50 v 300 0 0 c 0,27.5 -22.5,50 -50,50 H 150 c -27.5,0 -50,-22.5 -50,-50 v -300 0" /><path
         id="path16"
         style="fill:#000000;fill-opacity:1;fill-rule:nonzero;stroke:none"
         d="M 1400,100 H 150 c -27.5,0 -50,22.5 -50,50 v 300 c 0,27.5 22.5,50 50,50 h 1250 c 27.5,0 50,-22.5 50,-50 V 150 c 0,-27.5 -22.5,-50 -50,-50" /><path
         id="path18"
         style="fill:#a6a6a6;fill-opacity:1;fill-rule:nonzero;stroke:none"
         d="M 1400,500 H 150 c -27.5,0 -50,-22.5 -50,-50 V 150 c 0,-27.5 22.5,-50 50,-50 h 1250 c 27.5,0 50,22.5 50,50 v 300 c 0,27.5 -22.5,50 -50,50 m 0,-8 c 23.16,0 42,-18.844 42,-42 V 150 c 0,-23.16 -18.84,-42.004 -42,-42.004 H 150 c -23.156,0 -42,18.844 -42,42.004 v 300 c 0,23.156 18.844,42 42,42 h 1250" /><path
         id="path20"
         style="fill:#ffffff;fill-opacity:1;fill-rule:nonzero;stroke:none"
         d="m 1169.36,200 h 18.66 v 125.012 h -18.66 z m 168.07,79.98 -21.39,-54.199 h -0.64 l -22.2,54.199 h -20.1 l 33.29,-75.753 -18.98,-42.137 h 19.47 l 51.3,117.89 z m -105.82,-65.781 c -6.12,0 -14.64,3.055 -14.64,10.617 0,9.649 10.62,13.348 19.78,13.348 8.21,0 12.06,-1.769 17.05,-4.184 -1.45,-11.578 -11.42,-19.781 -22.19,-19.781 z m 2.25,68.516 c -13.51,0 -27.5,-5.953 -33.29,-19.141 l 16.56,-6.914 c 3.54,6.914 10.13,9.168 17.05,9.168 9.65,0 19.46,-5.793 19.62,-16.086 v -1.285 c -3.38,1.93 -10.61,4.824 -19.46,4.824 -17.85,0 -36.03,-9.808 -36.03,-28.144 0,-16.727 14.64,-27.504 31.04,-27.504 12.55,0 19.46,5.629 23.81,12.222 h 0.64 v -9.648 h 18.01 v 47.93 c 0,22.191 -16.56,34.578 -37.95,34.578 z M 1118.54,264.762 H 1092 v 42.851 h 26.54 c 13.95,0 21.87,-11.55 21.87,-21.425 0,-9.688 -7.92,-21.426 -21.87,-21.426 z m -0.48,60.25 h -44.71 V 200 H 1092 v 47.363 h 26.06 c 20.68,0 41.01,14.973 41.01,38.825 0,23.851 -20.33,38.824 -41.01,38.824 z M 874.25,214.176 c -12.891,0 -23.684,10.793 -23.684,25.617 0,14.98 10.793,25.937 23.684,25.937 12.727,0 22.715,-10.957 22.715,-25.937 0,-14.824 -9.988,-25.617 -22.715,-25.617 z m 21.426,58.804 h -0.645 c -4.187,4.993 -12.246,9.504 -22.394,9.504 -21.266,0 -40.758,-18.687 -40.758,-42.691 0,-23.844 19.492,-42.371 40.758,-42.371 10.148,0 18.207,4.512 22.394,9.664 h 0.645 v -6.121 c 0,-16.274 -8.699,-24.973 -22.715,-24.973 -11.438,0 -18.527,8.219 -21.43,15.145 l -16.269,-6.766 c 4.672,-11.277 17.078,-25.133 37.699,-25.133 21.91,0 40.437,12.891 40.437,44.305 v 76.363 H 895.676 Z M 926.285,200 h 18.688 v 125.016 h -18.688 z m 46.238,41.242 c -0.484,16.434 12.727,24.809 22.231,24.809 7.416,0 13.696,-3.703 15.786,-9.024 z m 57.997,14.176 c -3.54,9.508 -14.34,27.066 -36.411,27.066 -21.91,0 -40.113,-17.238 -40.113,-42.531 0,-23.844 18.043,-42.531 42.207,-42.531 19.497,0 30.777,11.922 35.447,18.848 l -14.5,9.668 c -4.83,-7.09 -11.44,-11.762 -20.947,-11.762 -9.504,0 -16.269,4.351 -20.621,12.887 l 56.868,23.523 z m -453.082,14.016 v -18.043 h 43.175 c -1.289,-10.149 -4.672,-17.559 -9.828,-22.715 -6.281,-6.285 -16.109,-13.211 -33.347,-13.211 -26.583,0 -47.364,21.426 -47.364,48.008 0,26.582 20.781,48.011 47.364,48.011 14.339,0 24.808,-5.64 32.542,-12.89 l 12.727,12.726 c -10.793,10.313 -25.133,18.207 -45.269,18.207 -36.411,0 -67.02,-29.644 -67.02,-66.054 0,-36.41 30.609,-66.051 67.02,-66.051 19.656,0 34.476,6.441 46.074,18.527 11.922,11.922 15.629,28.676 15.629,42.207 0,4.192 -0.321,8.055 -0.969,11.278 z m 110.789,-55.258 c -12.891,0 -24.008,10.633 -24.008,25.777 0,15.305 11.117,25.777 24.008,25.777 12.886,0 24.003,-10.472 24.003,-25.777 0,-15.144 -11.117,-25.777 -24.003,-25.777 z m 0,68.308 c -23.524,0 -42.696,-17.882 -42.696,-42.531 0,-24.488 19.172,-42.531 42.696,-42.531 23.519,0 42.691,18.043 42.691,42.531 0,24.649 -19.172,42.531 -42.691,42.531 z m 93.132,-68.308 c -12.886,0 -24.004,10.633 -24.004,25.777 0,15.305 11.118,25.777 24.004,25.777 12.887,0 24.004,-10.472 24.004,-25.777 0,-15.144 -11.117,-25.777 -24.004,-25.777 z m 0,68.308 c -23.523,0 -42.691,-17.882 -42.691,-42.531 0,-24.488 19.168,-42.531 42.691,-42.531 23.52,0 42.692,18.043 42.692,42.531 0,24.649 -19.172,42.531 -42.692,42.531" /><g
         id="g22"><g
           clip-path="url(#clipPath28)"
           id="g24"><path
             id="path44"
             style="fill:url(#linearGradient42);fill-opacity:1;fill-rule:nonzero;stroke:none"
             d="m 205.098,176.105 -0.743,0.711 c -2.91,3.079 -4.628,7.86 -4.628,14.051 v -1.457 0 221.16 c 0,0.02 0,0.035 0,0.051 0,-0.019 0,-0.035 0,-0.055 v -1.461 c 0,6.704 2.003,11.754 5.359,14.782 L 328.984,299.992 205.098,176.105 m -5.371,234.528 c 0,0.551 0.015,1.086 0.043,1.613 -0.028,-0.523 -0.043,-1.062 -0.043,-1.613 m 0.043,1.637 c 0,0.007 0,0.015 0.003,0.023 -0.003,-0.008 -0.003,-0.016 -0.003,-0.023 m 0.003,0.07 c 0,0.004 0,0.008 0,0.012 0,-0.004 0,-0.008 0,-0.012" /></g></g><g
         id="g46"><g
           clip-path="url(#clipPath52)"
           id="g48"><path
             id="path64"
             style="fill:url(#linearGradient62);fill-opacity:1;fill-rule:nonzero;stroke:none"
             d="m 370.277,257.215 v 0 l 0.942,0.535 48.929,27.801 c 4.665,2.652 7.774,5.867 9.325,9.269 -1.547,-3.402 -4.657,-6.621 -9.325,-9.273 l -48.929,-27.801 -0.942,-0.531 m 0.012,1.465 -41.305,41.312 41.301,41.305 49.863,-28.328 c 6.332,-3.598 9.887,-8.235 10.481,-12.973 0,-0.004 0,-0.012 0,-0.019 -0.594,-4.727 -4.149,-9.368 -10.481,-12.965 L 370.289,258.68" /></g></g><g
         id="g66"><g
           clip-path="url(#clipPath72)"
           id="g68"><path
             id="path80"
             style="fill:url(#linearGradient78);fill-opacity:1;fill-rule:nonzero;stroke:none"
             d="m 213.93,171.387 c -3.461,0 -6.481,1.125 -8.836,3.25 l 0.004,0.004 c 2.355,-2.125 5.379,-3.254 8.84,-3.254 0.3,0 0.605,0.008 0.914,0.023 -0.313,-0.015 -0.622,-0.023 -0.922,-0.023 m 0.004,1.465 c -3.461,-0.004 -6.481,1.125 -8.836,3.25 v 0 0.003 l 123.886,123.887 41.305,-41.312 v 0 L 225.137,176.207 c -4.016,-2.277 -7.821,-3.355 -11.203,-3.355 m -8.871,1.812 c -0.219,0.199 -0.434,0.41 -0.645,0.629 l 0.645,-0.629" /></g></g><g
         id="g82"><g
           clip-path="url(#clipPath88)"
           id="g84"><path
             id="path102"
             style="fill:url(#linearGradient100);fill-opacity:1;fill-rule:nonzero;stroke:none"
             d="m 328.984,299.992 v 0 L 205.086,423.887 c 2.355,2.121 5.371,3.246 8.828,3.246 3.391,0 7.199,-1.082 11.223,-3.363 l 145.148,-82.473 -41.301,-41.305 m 42.235,42.238 -146.082,83 c -4.024,2.282 -7.832,3.364 -11.223,3.364 -0.016,0 -0.027,0 -0.043,0 0.02,0 0.035,0 0.059,0 3.383,0 7.187,-1.078 11.207,-3.36 L 371.219,342.23 M 213.84,428.594 v 0 0" /></g></g><path
         id="path104"
         style="fill:#000000;fill-opacity:1;fill-rule:nonzero;stroke:none"
         d="m 214.852,171.41 c 3.144,0.18 6.625,1.262 10.285,3.336 l 145.14,82.469 v 0 l -145.14,-82.469 c -3.657,-2.078 -7.141,-3.156 -10.285,-3.336 m -9.758,3.227 -0.031,0.027 c 0.011,-0.008 0.023,-0.019 0.031,-0.027 v 0 m -0.676,0.656 -0.063,0.062 v 0.004 c 0.024,-0.023 0.043,-0.046 0.063,-0.066" /><g
         id="g106"><g
           clip-path="url(#clipPath112)"
           id="g108"><path
             id="path124"
             style="fill:url(#linearGradient122);fill-opacity:1;fill-rule:nonzero;stroke:none"
             d="m 370.277,257.215 v 0 l 0.942,0.535 -0.942,-0.535" /></g></g><g
         id="g126"><g
           clip-path="url(#clipPath132)"
           id="g128"><path
             id="path140"
             style="fill:url(#linearGradient138);fill-opacity:1;fill-rule:nonzero;stroke:none"
             d="m 213.938,171.387 c -3.461,0 -6.485,1.129 -8.84,3.254 l -0.004,-0.004 c -0.008,0.008 -0.02,0.019 -0.031,0.027 l -0.645,0.629 c -0.02,0.02 -0.039,0.043 -0.063,0.066 l 0.743,0.743 c 2.355,-2.125 5.375,-3.254 8.836,-3.25 3.382,0 7.187,1.078 11.203,3.355 l 145.152,82.473 0.93,-0.93 -0.942,-0.535 -145.14,-82.469 c -3.66,-2.074 -7.141,-3.156 -10.285,-3.336 -0.309,-0.015 -0.614,-0.023 -0.914,-0.023" /></g></g><path
         id="path142"
         style="fill:#000000;fill-opacity:1;fill-rule:nonzero;stroke:none"
         d="m 204.355,175.355 c -2.91,3.079 -4.628,7.86 -4.628,14.051 v 0.004 c 0,-6.195 1.718,-10.972 4.628,-14.051 v 0 0 -0.004" /><g
         id="g144"><g
           clip-path="url(#clipPath150)"
           id="g146"><path
             id="path166"
             style="fill:url(#linearGradient164);fill-opacity:1;fill-rule:nonzero;stroke:none"
             d="m 204.355,175.359 v 0 c -2.91,3.079 -4.628,7.856 -4.628,14.051 v 1.457 c 0,-6.191 1.718,-10.972 4.628,-14.051 l 0.743,-0.711 -0.743,-0.746" /></g></g><g
         id="g168"><g
           clip-path="url(#clipPath174)"
           id="g170"><path
             id="path182"
             style="fill:url(#linearGradient180);fill-opacity:1;fill-rule:nonzero;stroke:none"
             d="m 204.355,175.359 v 0 0 l 0.743,0.746 v -0.003 l -0.743,-0.743" /></g></g><path
         id="path184"
         style="fill:#000000;fill-opacity:1;fill-rule:nonzero;stroke:none"
         d="m 429.473,294.82 c 0.769,1.688 1.156,3.422 1.156,5.157 0,0.003 0,0.007 0,0.007 0,-1.738 -0.387,-3.472 -1.156,-5.164" /><g
         id="g186"><g
           clip-path="url(#clipPath192)"
           id="g188"><path
             id="path204"
             style="fill:url(#linearGradient202);fill-opacity:1;fill-rule:nonzero;stroke:none"
             d="m 371.219,257.75 v 0 l -0.93,0.93 49.859,28.332 c 6.332,3.597 9.887,8.238 10.481,12.965 0,-1.735 -0.387,-3.469 -1.156,-5.157 -1.551,-3.402 -4.66,-6.617 -9.325,-9.269 L 371.219,257.75" /></g></g><path
         id="path206"
         style="fill:#404040;fill-opacity:1;fill-rule:nonzero;stroke:none"
         d="m 430.629,299.992 v 0.004 c -0.004,5.231 -3.5,10.461 -10.481,14.43 l -48.929,27.801 h -0.004 l 0.004,0.003 48.929,-27.8 c 6.989,-3.969 10.489,-9.207 10.481,-14.438" /><g
         id="g208"><g
           clip-path="url(#clipPath214)"
           id="g210"><path
             id="path226"
             style="fill:url(#linearGradient224);fill-opacity:1;fill-rule:nonzero;stroke:none"
             d="m 430.629,299.996 c -0.594,4.738 -4.149,9.375 -10.481,12.973 l -49.863,28.328 0.93,0.93 h 0.004 l 48.929,-27.801 c 6.981,-3.969 10.477,-9.199 10.481,-14.43" /></g></g><path
         id="path228"
         style="fill:#404040;fill-opacity:1;fill-rule:nonzero;stroke:none"
         d="m 199.727,410.621 c 0,0.004 0,0.008 0,0.012 0,-0.004 0,-0.008 0,-0.012 m 0.043,1.625 c 0,0.008 0,0.016 0,0.024 0,-0.008 0,-0.016 0,-0.024 m 0.003,0.047 c 0,0.016 0,0.031 0,0.047 0,-0.016 0,-0.031 0,-0.047 m 0,0.059 c 0.579,10.273 6.165,16.207 14.067,16.242 -3.426,-0.02 -6.41,-1.145 -8.746,-3.25 v 0.004 l -0.028,-0.028 c -0.246,-0.222 -0.48,-0.457 -0.711,-0.699 v 0 c -2.625,-2.777 -4.281,-6.937 -4.582,-12.269" /><g
         id="g230"><g
           clip-path="url(#clipPath236)"
           id="g232"><path
             id="path252"
             style="fill:url(#linearGradient250);fill-opacity:1;fill-rule:nonzero;stroke:none"
             d="m 199.727,409.105 v 1.461 c 0,0.02 0,0.036 0,0.055 0,0.004 0,0.008 0,0.012 0,0.551 0.015,1.09 0.043,1.613 0,0.008 0,0.016 0,0.024 0,0.007 0,0.015 0.003,0.023 0,0.016 0,0.031 0,0.047 0,0.004 0,0.008 0,0.012 0.301,5.332 1.957,9.492 4.582,12.269 v 0 0 l 0.731,-0.734 c -3.356,-3.028 -5.359,-8.078 -5.359,-14.782 m 5.339,16.215 0.028,0.028 c -0.008,-0.012 -0.02,-0.02 -0.028,-0.028" /></g></g><path
         id="path254"
         style="fill:#404040;fill-opacity:1;fill-rule:nonzero;stroke:none"
         d="m 213.84,428.594 c 0.008,0 0.019,0 0.031,0 -0.012,0 -0.023,0 -0.031,0" /><g
         id="g256"><g
           clip-path="url(#clipPath262)"
           id="g258"><path
             id="path276"
             style="fill:url(#linearGradient274);fill-opacity:1;fill-rule:nonzero;stroke:none"
             d="M 370.285,341.297 225.137,423.77 c -4.024,2.281 -7.832,3.363 -11.223,3.363 -3.457,0 -6.473,-1.125 -8.828,-3.246 l -0.731,0.734 v 0 c 0.231,0.242 0.465,0.477 0.711,0.699 0.008,0.008 0.02,0.016 0.028,0.024 2.336,2.105 5.32,3.23 8.746,3.25 v 0 c 0.008,0 0.019,0 0.031,0 0.016,0 0.027,0 0.043,0 3.391,0 7.199,-1.082 11.223,-3.364 l 146.082,-83 -0.004,-0.003 -0.93,-0.93" /></g></g><path
         id="path278"
         style="fill:#ffffff;fill-opacity:1;fill-rule:nonzero;stroke:none"
         d="m 534.965,400.332 c 0.117,-9.492 -1.785,-17.148 -5.692,-22.961 h 30.332 v 45.258 h -24.64 z m -13.828,-43.066 h -7.371 v 20.105 h 5.867 c 5.195,4.477 7.734,12.125 7.629,22.961 V 430 h 40.058 v -52.629 h 6.7 v -20.105 h -7.375 V 370 h -45.508 v -12.734" /><path
         id="path280"
         style="fill:#ffffff;fill-opacity:1;fill-rule:nonzero;stroke:none"
         d="m 534.965,400.332 -1,-0.012 0.008,-0.808 c -0.004,-8.981 -1.879,-16.153 -5.532,-21.582 l -1.046,-1.559 h 33.21 v 47.258 h -26.64 v -23.305 -0.004 l 1,0.012 h 1 v 21.297 h 22.64 v -43.258 h -29.332 v -1 l 0.829,-0.555 c 3.933,5.852 5.871,13.446 5.871,22.696 l -0.008,0.832 -1,-0.012 h 1 z m -13.828,-43.066 v 1 h -6.371 v 18.105 h 4.867 0.371 l 0.281,0.242 c 5.406,4.664 7.981,12.434 7.981,23.063 l -0.004,0.664 V 400.332 429 h 38.058 v -52.629 h 6.7 v -18.105 h -5.375 V 370 v 1 h -47.508 v -13.734 h 1 v 1 -1 h 1 V 369 h 43.508 v -11.734 -1 h 8.375 1 v 22.105 h -6.7 V 431 h -42.058 v -30.672 -0.004 l 0.004,-0.648 c -0.004,-10.348 -2.512,-17.446 -7.286,-21.543 l 0.653,-0.762 v 1 h -5.867 -1 v -22.105 h 8.371 1 v 1 h -1" /><path
         id="path282"
         style="fill:#ffffff;fill-opacity:1;fill-rule:nonzero;stroke:none"
         d="m 595.844,382.777 c 4.445,-4.496 9.875,-6.742 16.301,-6.742 6.425,0 11.863,2.246 16.296,6.742 4.446,4.496 6.672,10.243 6.672,17.223 0,6.98 -2.226,12.727 -6.672,17.223 -4.433,4.496 -9.871,6.742 -16.296,6.742 -6.426,0 -11.856,-2.246 -16.301,-6.742 -4.434,-4.496 -6.66,-10.243 -6.66,-17.223 0,-6.98 2.226,-12.727 6.66,-17.223 z m 38.301,-5.023 c -5.899,-6.066 -13.231,-9.094 -22,-9.094 -8.77,0 -16.106,3.028 -21.993,9.094 -5.898,6.059 -8.839,13.476 -8.839,22.246 0,8.77 2.941,16.188 8.839,22.246 5.887,6.067 13.223,9.098 21.993,9.098 8.718,0 16.035,-3.047 21.96,-9.137 5.918,-6.09 8.879,-13.492 8.879,-22.207 0,-8.77 -2.949,-16.187 -8.839,-22.246" /><path
         id="path284"
         style="fill:#ffffff;fill-opacity:1;fill-rule:nonzero;stroke:none"
         d="m 595.844,382.777 -0.711,-0.703 c 4.605,-4.676 10.351,-7.051 17.012,-7.039 6.656,-0.012 12.414,2.363 17.007,7.039 4.637,4.68 6.969,10.735 6.961,17.926 0.008,7.191 -2.324,13.246 -6.961,17.926 v 0 c -4.593,4.676 -10.351,7.051 -17.007,7.039 -6.661,0.012 -12.407,-2.363 -17.012,-7.039 v 0 c -4.625,-4.68 -6.957,-10.735 -6.949,-17.926 -0.008,-7.191 2.324,-13.246 6.949,-17.926 l 0.711,0.703 0.715,0.703 c -4.243,4.317 -6.364,9.747 -6.375,16.52 0.011,6.773 2.132,12.203 6.375,16.52 h -0.004 c 4.281,4.316 9.394,6.433 15.59,6.445 6.191,-0.012 11.316,-2.129 15.585,-6.445 l 0.016,-0.016 -0.016,0.016 c 4.254,-4.317 6.372,-9.747 6.383,-16.52 -0.011,-6.773 -2.129,-12.203 -6.383,-16.52 -4.269,-4.316 -9.394,-6.433 -15.585,-6.445 -6.196,0.012 -11.309,2.129 -15.59,6.445 z m 38.301,-5.023 -0.715,0.695 c -5.731,-5.875 -12.746,-8.777 -21.285,-8.789 -8.543,0.012 -15.555,2.914 -21.278,8.789 v 0 c -5.719,5.895 -8.543,13.004 -8.554,21.551 0.011,8.547 2.835,15.656 8.554,21.551 v 0 c 5.723,5.875 12.735,8.781 21.278,8.793 8.488,-0.012 15.484,-2.93 21.246,-8.836 5.742,-5.922 8.582,-13.02 8.593,-21.508 -0.011,-8.547 -2.843,-15.656 -8.554,-21.551 l 0.715,-0.695 0.718,-0.695 c 6.063,6.226 9.129,13.949 9.121,22.941 0.008,8.941 -3.066,16.648 -9.16,22.902 -6.094,6.278 -13.726,9.453 -22.679,9.442 -9,0.011 -16.657,-3.149 -22.711,-9.403 v 0.004 c -6.075,-6.23 -9.129,-13.953 -9.121,-22.945 -0.008,-8.992 3.046,-16.715 9.121,-22.945 v 0.004 c 6.054,-6.254 13.711,-9.407 22.711,-9.399 8.996,-0.008 16.652,3.145 22.718,9.399 l -0.718,0.695" /><path
         id="path286"
         style="fill:#ffffff;fill-opacity:1;fill-rule:nonzero;stroke:none"
         d="m 681.793,368.66 c -8.828,0 -16.23,2.988 -22.207,8.969 -5.988,5.976 -8.965,13.434 -8.965,22.371 0,8.938 2.977,16.395 8.965,22.371 5.977,5.981 13.379,8.973 22.207,8.973 9.043,0 16.395,-3.27 22.039,-9.805 l -5.371,-5.199 c -4.07,5.086 -9.637,7.625 -16.668,7.625 -6.543,0 -12.063,-2.207 -16.555,-6.621 -4.5,-4.414 -6.746,-10.196 -6.746,-17.344 0,-7.148 2.246,-12.934 6.746,-17.344 4.492,-4.414 10.012,-6.621 16.555,-6.621 7.207,0 13.348,2.903 18.437,8.711 l 5.36,-5.359 c -2.742,-3.297 -6.172,-5.91 -10.313,-7.832 -4.129,-1.93 -8.632,-2.895 -13.484,-2.895" /><path
         id="path288"
         style="fill:#ffffff;fill-opacity:1;fill-rule:nonzero;stroke:none"
         d="m 681.793,368.66 v 1 c -8.605,0.012 -15.695,2.883 -21.5,8.676 -5.801,5.801 -8.664,12.949 -8.672,21.664 0.008,8.715 2.871,15.863 8.672,21.664 5.805,5.797 12.895,8.668 21.5,8.68 8.805,-0.016 15.805,-3.133 21.281,-9.457 l 0.758,0.652 -0.695,0.719 -5.371,-5.203 0.695,-0.715 0.781,0.625 c -4.242,5.32 -10.183,8.015 -17.449,8 -6.77,0.008 -12.594,-2.317 -17.254,-6.906 v 0 c -4.707,-4.606 -7.059,-10.707 -7.047,-18.059 -0.012,-7.352 2.34,-13.461 7.047,-18.059 v 0 c 4.66,-4.589 10.484,-6.914 17.254,-6.906 7.48,-0.012 13.961,3.059 19.187,9.051 l -0.75,0.66 -0.707,-0.707 5.36,-5.359 0.707,0.707 -0.77,0.636 c -2.648,-3.179 -5.945,-5.695 -9.965,-7.562 -3.996,-1.867 -8.339,-2.797 -13.062,-2.801 v -1 -1 c 4.984,0 9.641,0.992 13.906,2.988 4.266,1.977 7.821,4.684 10.66,8.098 l 0.582,0.699 -6.003,6.008 -0.758,0.758 -0.703,-0.805 c -4.946,-5.629 -10.75,-8.359 -17.684,-8.371 -6.32,0.012 -11.527,2.098 -15.852,6.336 h -0.003 c -4.297,4.219 -6.438,9.684 -6.446,16.629 0.008,6.945 2.149,12.402 6.446,16.629 h 0.003 c 4.325,4.238 9.532,6.324 15.852,6.336 6.793,-0.016 11.984,-2.399 15.887,-7.25 l 0.687,-0.86 6.16,5.965 0.68,0.657 -0.617,0.714 c -5.809,6.75 -13.516,10.164 -22.797,10.153 -9.055,0.008 -16.77,-3.106 -22.914,-9.266 -6.176,-6.148 -9.27,-13.922 -9.258,-23.078 -0.012,-9.156 3.082,-16.93 9.258,-23.082 6.144,-6.156 13.859,-9.266 22.914,-9.258 v 1" /><path
         id="path290"
         style="fill:#ffffff;fill-opacity:1;fill-rule:nonzero;stroke:none"
         d="m 736.773,370 h -7.714 v 52.629 H 712.301 V 430 h 41.23 v -7.371 H 736.773 V 370" /><path
         id="path292"
         style="fill:#ffffff;fill-opacity:1;fill-rule:nonzero;stroke:none"
         d="m 736.773,370 v 1 h -6.714 v 52.629 H 713.301 V 429 h 39.23 v -5.371 H 735.773 V 370 h 1 v 1 -1 h 1 v 51.629 h 16.758 v 8.371 1 h -43.23 v -8.371 -1 h 16.758 V 369 h 8.714 1 v 1 h -1" /><path
         id="path294"
         style="fill:#ffffff;fill-opacity:1;fill-rule:nonzero;stroke:none"
         d="m 806.465,430 -22.703,-50.613 c -3.137,-7.153 -7.789,-10.727 -13.992,-10.727 -1.844,0 -3.829,0.445 -5.957,1.34 l 2.011,7.125 c 1.289,-0.73 2.629,-1.09 4.024,-1.09 1.789,0 3.175,0.348 4.152,1.043 0.977,0.699 1.883,1.977 2.723,3.817 l 2.179,4.781 L 758.707,430 h 9.051 l 14.832,-34.441 h 0.332 L 797.41,430 h 9.055" /><path
         id="path296"
         style="fill:#ffffff;fill-opacity:1;fill-rule:nonzero;stroke:none"
         d="m 806.465,430 -0.914,0.41 -22.703,-50.617 -0.004,-0.008 c -3.086,-6.933 -7.301,-10.09 -13.074,-10.125 -1.684,0 -3.536,0.406 -5.571,1.262 l -0.386,-0.922 0.964,-0.273 2.008,7.125 -0.961,0.273 -0.488,-0.871 c 1.422,-0.805 2.941,-1.223 4.512,-1.219 1.91,0 3.511,0.363 4.734,1.231 1.203,0.871 2.168,2.289 3.051,4.211 l 2.18,4.781 L 780,385.676 760.262,429 h 6.84 l 14.828,-34.441 h 0.992 0.664 L 798.074,429 h 8.391 v 1 l -0.914,0.41 0.914,-0.41 v 1 h -9.055 -0.664 l -14.75,-35.055 0.926,-0.386 v 1 h -0.332 v -1 l 0.918,0.394 -15.09,35.047 h -9.711 -1.555 l 20.649,-45.324 -1.988,-4.367 c -0.793,-1.754 -1.645,-2.887 -2.395,-3.414 -0.73,-0.528 -1.906,-0.864 -3.57,-0.86 -1.223,0 -2.375,0.309 -3.532,0.961 l -1.109,0.625 -2.355,-8.348 -0.243,-0.851 0.817,-0.344 c 2.222,-0.933 4.336,-1.418 6.344,-1.418 6.628,-0.031 11.722,3.961 14.906,11.324 l -0.004,-0.007 23.336,52.023 h -1.543 v -1" /><path
         id="path298"
         style="fill:#ffffff;fill-opacity:1;fill-rule:nonzero;stroke:none"
         d="m 815.195,370 v 60 h 43.41 v -60 h -7.714 v 52.629 H 822.898 V 370 h -7.703" /><path
         id="path300"
         style="fill:#ffffff;fill-opacity:1;fill-rule:nonzero;stroke:none"
         d="m 815.195,370 h 1 v 59 h 41.407 v -58 h -5.711 v 52.629 H 821.898 V 371 h -6.703 v -1 h 1 -1 v -1 h 7.703 1 v 52.629 h 25.993 V 369 h 8.714 1 v 62 h -45.41 v -62 h 1 v 1" /><path
         id="path302"
         style="fill:#ffffff;fill-opacity:1;fill-rule:nonzero;stroke:none"
         d="m 872.344,370 v 60 h 7.707 v -25.723 h 30 V 430 h 7.715 v -60 h -7.715 v 27.07 h -30 V 370 h -7.707" /><path
         id="path304"
         style="fill:#ffffff;fill-opacity:1;fill-rule:nonzero;stroke:none"
         d="m 872.344,370 h 1 v 59 h 5.707 v -25.723 h 32 V 429 h 5.715 v -58 h -5.715 v 27.07 h -32 V 371 h -6.707 v -1 h 1 -1 v -1 h 7.707 1 v 27.07 h 28 V 369 h 8.715 1 v 62 h -8.715 -1 v -25.723 h -28 V 431 h -8.707 -1 v -62 h 1 v 1" /><path
         id="path306"
         style="fill:#ffffff;fill-opacity:1;fill-rule:nonzero;stroke:none"
         d="m 942.273,382.777 c 4.446,-4.496 9.875,-6.742 16.301,-6.742 6.426,0 11.864,2.246 16.297,6.742 4.445,4.496 6.672,10.243 6.672,17.223 0,6.98 -2.227,12.727 -6.672,17.223 -4.433,4.496 -9.871,6.742 -16.297,6.742 -6.426,0 -11.855,-2.246 -16.301,-6.742 -4.429,-4.496 -6.66,-10.243 -6.66,-17.223 0,-6.98 2.231,-12.727 6.66,-17.223 z m 38.301,-5.023 c -5.894,-6.066 -13.23,-9.094 -22,-9.094 -8.769,0 -16.101,3.028 -21.992,9.094 -5.898,6.059 -8.84,13.476 -8.84,22.246 0,8.77 2.942,16.188 8.84,22.246 5.891,6.067 13.223,9.098 21.992,9.098 8.723,0 16.035,-3.047 21.961,-9.137 5.918,-6.09 8.879,-13.492 8.879,-22.207 0,-8.77 -2.949,-16.187 -8.84,-22.246" /><path
         id="path308"
         style="fill:#ffffff;fill-opacity:1;fill-rule:nonzero;stroke:none"
         d="m 942.273,382.777 -0.71,-0.703 c 4.609,-4.676 10.351,-7.051 17.011,-7.039 6.66,-0.012 12.414,2.363 17.012,7.039 4.633,4.68 6.965,10.735 6.957,17.926 0.008,7.191 -2.324,13.246 -6.957,17.926 v 0 c -4.598,4.676 -10.352,7.051 -17.012,7.039 -6.66,0.012 -12.402,-2.363 -17.011,-7.039 v 0 c -4.625,-4.68 -6.958,-10.735 -6.95,-17.926 -0.008,-7.191 2.325,-13.246 6.95,-17.926 l 0.71,0.703 0.715,0.703 c -4.242,4.317 -6.363,9.747 -6.375,16.52 0.012,6.773 2.133,12.203 6.375,16.52 v 0 c 4.278,4.316 9.395,6.433 15.586,6.445 6.192,-0.012 11.317,-2.129 15.586,-6.445 l 0.031,-0.032 -0.031,0.032 c 4.254,-4.317 6.375,-9.747 6.383,-16.52 -0.008,-6.773 -2.129,-12.203 -6.383,-16.52 -4.269,-4.316 -9.394,-6.433 -15.586,-6.445 -6.191,0.012 -11.308,2.129 -15.586,6.445 z m 38.301,-5.023 -0.715,0.695 c -5.73,-5.875 -12.746,-8.777 -21.285,-8.789 -8.539,0.012 -15.554,2.914 -21.273,8.789 l -0.031,0.031 0.031,-0.031 c -5.723,5.895 -8.547,13.004 -8.559,21.551 0.012,8.547 2.836,15.656 8.559,21.551 v 0 c 5.719,5.875 12.734,8.781 21.273,8.793 8.489,-0.012 15.485,-2.93 21.246,-8.836 5.743,-5.922 8.586,-13.02 8.594,-21.508 -0.008,-8.547 -2.844,-15.656 -8.555,-21.551 l 0.715,-0.695 0.719,-0.695 c 6.066,6.226 9.129,13.949 9.121,22.941 0.008,8.941 -3.066,16.648 -9.16,22.902 -6.094,6.278 -13.727,9.453 -22.68,9.442 -9,0.011 -16.652,-3.149 -22.711,-9.403 v 0.004 c -6.074,-6.23 -9.129,-13.953 -9.121,-22.945 -0.008,-8.992 3.047,-16.715 9.121,-22.945 v 0.004 c 6.059,-6.254 13.711,-9.407 22.711,-9.399 9,-0.008 16.653,3.145 22.719,9.399 l -0.719,0.695" /><path
         id="path310"
         style="fill:#ffffff;fill-opacity:1;fill-rule:nonzero;stroke:none"
         d="m 1028.64,377.371 h 15.51 c 2.96,0 5.36,1.035 7.21,3.109 1.84,2.059 2.76,4.325 2.76,6.786 0,2.457 -0.95,4.703 -2.85,6.742 -1.89,2.039 -4.39,3.062 -7.46,3.062 h -15.17 z m 0,26.906 h 14 c 2.91,0 5.24,0.957 7,2.891 1.76,1.926 2.64,4.031 2.64,6.324 0,2.289 -0.85,4.391 -2.56,6.281 -1.7,1.903 -3.95,2.856 -6.74,2.856 h -14.34 z M 1020.94,370 v 60 h 21.7 c 4.69,0 8.76,-1.555 12.19,-4.648 3.44,-3.106 5.16,-7 5.16,-11.692 0,-2.847 -0.74,-5.363 -2.23,-7.543 -1.47,-2.179 -3.44,-3.828 -5.9,-4.945 v -0.332 c 2.95,-1.004 5.39,-2.738 7.29,-5.195 1.89,-2.461 2.85,-5.313 2.85,-8.551 0,-4.914 -1.8,-8.992 -5.41,-12.231 -3.6,-3.242 -7.86,-4.863 -12.78,-4.863 h -22.87" /><path
         id="path312"
         style="fill:#ffffff;fill-opacity:1;fill-rule:nonzero;stroke:none"
         d="m 1028.64,377.371 v -1 h 15.51 c 3.19,-0.012 5.94,1.16 7.95,3.442 v 0 c 1.98,2.199 3.03,4.738 3.02,7.453 0.01,2.718 -1.08,5.246 -3.12,7.425 v 0 c -2.07,2.247 -4.9,3.391 -8.19,3.379 h -16.17 v -21.699 h 1 v 1 h 1 v 18.699 h 14.17 c 2.86,-0.011 5.01,-0.918 6.73,-2.742 v 0 c 1.76,-1.906 2.57,-3.871 2.58,-6.062 -0.01,-2.207 -0.8,-4.2 -2.51,-6.121 v 0 c -1.67,-1.86 -3.73,-2.758 -6.46,-2.774 h -15.51 v -1 h 1 z m 0,26.906 v -1 h 14 c 3.12,-0.011 5.8,1.067 7.74,3.219 v -0.004 c 1.89,2.063 2.9,4.446 2.9,7 0,2.539 -0.97,4.914 -2.82,6.953 v -0.004 c -1.87,2.118 -4.47,3.2 -7.48,3.188 h -15.34 v -20.352 h 1 v 1 h 1 v 17.352 h 13.34 c 2.57,-0.016 4.47,-0.836 5.99,-2.52 l 0.01,-0.007 -0.01,0.003 c 1.57,-1.75 2.3,-3.578 2.31,-5.613 -0.01,-2.027 -0.76,-3.863 -2.38,-5.648 v -0.004 c -1.58,-1.715 -3.57,-2.551 -6.26,-2.563 h -14 v -1 h 1 z M 1020.94,370 h 1 v 59 h 20.7 c 4.47,-0.008 8.25,-1.453 11.52,-4.391 v 0 c 3.25,-2.945 4.82,-6.504 4.83,-10.949 0,-2.676 -0.69,-4.969 -2.05,-6.98 v 0 c -1.38,-2.032 -3.19,-3.547 -5.5,-4.598 l -0.58,-0.266 v -0.976 -0.715 l 0.67,-0.23 c 2.79,-0.954 5.04,-2.555 6.83,-4.864 l 0.01,-0.011 -0.01,0.015 c 1.76,-2.297 2.64,-4.898 2.64,-7.941 -0.01,-4.672 -1.67,-8.41 -5.08,-11.489 -3.44,-3.082 -7.41,-4.597 -12.11,-4.605 h -22.87 v -1 h 1 -1 v -1 h 22.87 c 5.14,-0.008 9.68,1.719 13.45,5.121 3.8,3.395 5.75,7.813 5.74,12.973 0.01,3.433 -1.03,6.535 -3.06,9.16 l -0.01,0.012 0.01,-0.008 c -2.01,2.601 -4.63,4.469 -7.76,5.527 l -0.32,-0.945 h 1 v 0.332 h -1 l 0.41,-0.91 c 2.61,1.183 4.75,2.961 6.32,5.297 v -0.004 c 1.6,2.347 2.4,5.086 2.4,8.105 0.01,4.934 -1.85,9.168 -5.49,12.434 l -0.02,0.019 0.02,-0.019 c -3.6,3.254 -7.95,4.914 -12.86,4.906 h -22.7 v -62 h 1 v 1" /></g></g></svg>