<?xml version="1.0" encoding="UTF-8" standalone="no"?><!-- Generator: Gravit.io --><svg xmlns="http://www.w3.org/2000/svg" xmlns:xlink="http://www.w3.org/1999/xlink" style="isolation:isolate" viewBox="0 0 206.667 80" width="206.667pt" height="80pt"><defs><clipPath id="_clipPath_x0ebHhz2XU1mLXcg8YFEYX59QnxmQpO2"><rect width="206.667" height="80"/></clipPath></defs><g clip-path="url(#_clipPath_x0ebHhz2XU1mLXcg8YFEYX59QnxmQpO2)"><g><path d=" M 186.667 66.667 L 20 66.667 C 16.333 66.667 13.333 63.667 13.333 60 L 13.333 20 C 13.333 16.333 16.333 13.333 20 13.333 L 186.667 13.333 C 190.333 13.333 193.333 16.333 193.333 20 L 193.333 60 C 193.333 63.667 190.333 66.667 186.667 66.667 Z " fill="rgb(0,0,0)"/><path d=" M 186.667 13.333 L 20 13.333 C 16.333 13.333 13.333 16.333 13.333 20 L 13.333 60 C 13.333 63.667 16.333 66.667 20 66.667 L 186.667 66.667 C 190.333 66.667 193.333 63.667 193.333 60 L 193.333 20 C 193.333 16.333 190.333 13.333 186.667 13.333 Z  M 186.667 14.4 C 189.755 14.4 192.267 16.913 192.267 20 L 192.267 60 C 192.267 63.088 189.755 65.601 186.667 65.601 L 20 65.601 C 16.913 65.601 14.4 63.088 14.4 60 L 14.4 20 C 14.4 16.913 16.913 14.4 20 14.4 L 186.667 14.4 Z " fill="rgb(166,166,166)"/><path d=" M 155.915 53.333 L 158.403 53.333 L 158.403 36.665 L 155.915 36.665 L 155.915 53.333 Z  M 178.324 42.669 L 175.472 49.896 L 175.387 49.896 L 172.427 42.669 L 169.747 42.669 L 174.185 52.77 L 171.655 58.388 L 174.251 58.388 L 181.091 42.669 L 178.324 42.669 Z  M 164.215 51.44 C 163.399 51.44 162.263 51.033 162.263 50.025 C 162.263 48.738 163.679 48.245 164.9 48.245 C 165.995 48.245 166.508 48.481 167.173 48.803 C 166.98 50.346 165.651 51.44 164.215 51.44 L 164.215 51.44 Z  M 164.515 42.305 C 162.713 42.305 160.848 43.098 160.076 44.857 L 162.284 45.779 C 162.756 44.857 163.635 44.556 164.557 44.556 C 165.844 44.556 167.152 45.329 167.173 46.701 L 167.173 46.872 C 166.723 46.615 165.759 46.229 164.579 46.229 C 162.199 46.229 159.775 47.537 159.775 49.982 C 159.775 52.212 161.727 53.649 163.913 53.649 C 165.587 53.649 166.508 52.898 167.088 52.019 L 167.173 52.019 L 167.173 53.306 L 169.575 53.306 L 169.575 46.915 C 169.575 43.956 167.367 42.305 164.515 42.305 L 164.515 42.305 Z  M 149.139 44.698 L 145.6 44.698 L 145.6 38.985 L 149.139 38.985 C 150.999 38.985 152.055 40.525 152.055 41.842 C 152.055 43.133 150.999 44.698 149.139 44.698 Z  M 149.075 36.665 L 143.113 36.665 L 143.113 53.333 L 145.6 53.333 L 145.6 47.018 L 149.075 47.018 C 151.832 47.018 154.543 45.022 154.543 41.842 C 154.543 38.661 151.832 36.665 149.075 36.665 Z  M 116.567 51.443 C 114.848 51.443 113.409 50.004 113.409 48.028 C 113.409 46.03 114.848 44.569 116.567 44.569 C 118.264 44.569 119.595 46.03 119.595 48.028 C 119.595 50.004 118.264 51.443 116.567 51.443 L 116.567 51.443 Z  M 119.423 43.603 L 119.337 43.603 C 118.779 42.937 117.705 42.335 116.352 42.335 C 113.516 42.335 110.917 44.827 110.917 48.028 C 110.917 51.207 113.516 53.677 116.352 53.677 C 117.705 53.677 118.779 53.075 119.337 52.389 L 119.423 52.389 L 119.423 53.205 C 119.423 55.375 118.264 56.534 116.395 56.534 C 114.87 56.534 113.925 55.439 113.537 54.515 L 111.368 55.417 C 111.991 56.921 113.645 58.768 116.395 58.768 C 119.316 58.768 121.786 57.049 121.786 52.861 L 121.786 42.679 L 119.423 42.679 L 119.423 43.603 Z  M 123.505 53.333 L 125.996 53.333 L 125.996 36.665 L 123.505 36.665 L 123.505 53.333 Z  M 129.67 47.834 C 129.605 45.643 131.367 44.527 132.634 44.527 C 133.623 44.527 134.46 45.02 134.739 45.73 L 129.67 47.834 Z  M 137.403 45.944 C 136.931 44.677 135.491 42.335 132.548 42.335 C 129.627 42.335 127.199 44.634 127.199 48.006 C 127.199 51.185 129.605 53.677 132.827 53.677 C 135.427 53.677 136.931 52.087 137.553 51.164 L 135.62 49.875 C 134.976 50.82 134.095 51.443 132.827 51.443 C 131.56 51.443 130.658 50.863 130.078 49.725 L 137.66 46.589 L 137.403 45.944 Z  M 76.992 44.075 L 76.992 46.481 L 82.748 46.481 C 82.577 47.834 82.125 48.822 81.438 49.51 C 80.601 50.348 79.29 51.271 76.992 51.271 C 73.447 51.271 70.677 48.415 70.677 44.87 C 70.677 41.326 73.447 38.469 76.992 38.469 C 78.904 38.469 80.299 39.221 81.331 40.187 L 83.028 38.491 C 81.589 37.116 79.677 36.063 76.992 36.063 C 72.137 36.063 68.056 40.016 68.056 44.87 C 68.056 49.725 72.137 53.677 76.992 53.677 C 79.613 53.677 81.589 52.818 83.135 51.207 C 84.725 49.617 85.219 47.383 85.219 45.579 C 85.219 45.02 85.176 44.505 85.09 44.075 L 76.992 44.075 Z  M 91.764 51.443 C 90.045 51.443 88.563 50.025 88.563 48.006 C 88.563 45.966 90.045 44.569 91.764 44.569 C 93.482 44.569 94.964 45.966 94.964 48.006 C 94.964 50.025 93.482 51.443 91.764 51.443 L 91.764 51.443 Z  M 91.764 42.335 C 88.627 42.335 86.071 44.72 86.071 48.006 C 86.071 51.271 88.627 53.677 91.764 53.677 C 94.899 53.677 97.456 51.271 97.456 48.006 C 97.456 44.72 94.899 42.335 91.764 42.335 Z  M 104.181 51.443 C 102.463 51.443 100.981 50.025 100.981 48.006 C 100.981 45.966 102.463 44.569 104.181 44.569 C 105.899 44.569 107.382 45.966 107.382 48.006 C 107.382 50.025 105.899 51.443 104.181 51.443 Z  M 104.181 42.335 C 101.045 42.335 98.489 44.72 98.489 48.006 C 98.489 51.271 101.045 53.677 104.181 53.677 C 107.317 53.677 109.873 51.271 109.873 48.006 C 109.873 44.72 107.317 42.335 104.181 42.335 Z " fill="rgb(255,255,255)"/><g><clipPath id="_clipPath_nRKc2CSPqP2NQl0YhbGH4csTN22zgQo9"><path d=" M 27.346 56.519 L 27.247 56.425 C 26.859 56.014 26.63 55.377 26.63 54.551 L 26.63 54.745 L 26.63 54.745 L 26.63 25.257 C 26.63 25.255 26.63 25.253 26.63 25.251 C 26.63 25.253 26.63 25.255 26.63 25.258 L 26.63 25.453 C 26.63 24.559 26.897 23.885 27.345 23.482 L 43.865 40.001 L 27.346 56.519 Z  M 26.63 25.249 C 26.63 25.175 26.632 25.104 26.636 25.034 C 26.632 25.104 26.63 25.175 26.63 25.249 Z  M 26.636 25.031 C 26.636 25.03 26.636 25.029 26.636 25.028 C 26.636 25.029 26.636 25.03 26.636 25.031 Z  M 26.636 25.021 C 26.636 25.021 26.636 25.02 26.636 25.02 C 26.636 25.02 26.636 25.021 26.636 25.021 Z " fill="rgb(255,255,255)"/></clipPath><g clip-path="url(#_clipPath_nRKc2CSPqP2NQl0YhbGH4csTN22zgQo9)"><g><linearGradient id="_lgradient_36" x1="0.9150065373635474" y1="0.9556707105439463" x2="-0.12049917872697291" y2="-0.0798350055465743" gradientTransform="matrix(17.234,0,0,-33.038,26.63,56.519)" gradientUnits="userSpaceOnUse"><stop offset="0%" stop-opacity="1" style="stop-color:rgb(0,160,255)"/><stop offset="0.657445%" stop-opacity="1" style="stop-color:rgb(0,161,255)"/><stop offset="26.009999999999998%" stop-opacity="1" style="stop-color:rgb(0,190,255)"/><stop offset="51.22%" stop-opacity="1" style="stop-color:rgb(0,210,255)"/><stop offset="76.03999999999999%" stop-opacity="1" style="stop-color:rgb(0,223,255)"/><stop offset="100%" stop-opacity="1" style="stop-color:rgb(0,227,255)"/></linearGradient><path d=" M 27.346 56.519 L 27.247 56.425 C 26.859 56.014 26.63 55.377 26.63 54.551 L 26.63 54.745 L 26.63 54.745 L 26.63 25.257 C 26.63 25.255 26.63 25.253 26.63 25.251 C 26.63 25.253 26.63 25.255 26.63 25.258 L 26.63 25.453 C 26.63 24.559 26.897 23.885 27.345 23.482 L 43.865 40.001 L 27.346 56.519 Z  M 26.63 25.249 C 26.63 25.175 26.632 25.104 26.636 25.034 C 26.632 25.104 26.63 25.175 26.63 25.249 Z  M 26.636 25.031 C 26.636 25.03 26.636 25.029 26.636 25.028 C 26.636 25.029 26.636 25.03 26.636 25.031 Z  M 26.636 25.021 C 26.636 25.021 26.636 25.02 26.636 25.02 C 26.636 25.02 26.636 25.021 26.636 25.021 Z " fill="url(#_lgradient_36)"/></g></g></g><g><clipPath id="_clipPath_n6cOpAIdpT37IEpppIsqR7JfFykkHp7B"><path d=" M 49.37 45.705 L 49.37 45.705 L 49.496 45.633 L 56.02 41.927 C 56.642 41.573 57.056 41.144 57.263 40.691 C 57.057 41.144 56.642 41.573 56.02 41.927 L 49.496 45.634 L 49.37 45.705 M 49.372 45.509 L 43.865 40.001 L 49.371 34.494 L 56.02 38.271 C 56.864 38.751 57.338 39.369 57.417 40.001 C 57.417 40.001 57.417 40.002 57.417 40.003 C 57.338 40.633 56.864 41.252 56.02 41.732 L 49.372 45.509" fill="rgb(255,255,255)"/></clipPath><g clip-path="url(#_clipPath_n6cOpAIdpT37IEpppIsqR7JfFykkHp7B)"><g><linearGradient id="_lgradient_37" x1="1.0759014216144425" y1="0.5086820009038799" x2="-1.3046386934920564" y2="0.5086820009038796" gradientTransform="matrix(13.553,0,0,-11.211,43.865,45.705)" gradientUnits="userSpaceOnUse"><stop offset="0%" stop-opacity="1" style="stop-color:rgb(255,224,0)"/><stop offset="40.87%" stop-opacity="1" style="stop-color:rgb(255,189,0)"/><stop offset="77.53999999999999%" stop-opacity="1" style="stop-color:rgb(255,165,0)"/><stop offset="100%" stop-opacity="1" style="stop-color:rgb(255,156,0)"/></linearGradient><path d=" M 49.37 45.705 L 49.37 45.705 L 49.496 45.633 L 56.02 41.927 C 56.642 41.573 57.056 41.144 57.263 40.691 C 57.057 41.144 56.642 41.573 56.02 41.927 L 49.496 45.634 L 49.37 45.705 M 49.372 45.509 L 43.865 40.001 L 49.371 34.494 L 56.02 38.271 C 56.864 38.751 57.338 39.369 57.417 40.001 C 57.417 40.001 57.417 40.002 57.417 40.003 C 57.338 40.633 56.864 41.252 56.02 41.732 L 49.372 45.509" fill="url(#_lgradient_37)"/></g></g></g><g><clipPath id="_clipPath_OGhYlHdi1FBbCbc1EItUabIqZBBV1mdG"><path d=" M 28.524 57.148 C 28.063 57.148 27.66 56.998 27.346 56.715 L 27.346 56.715 C 27.66 56.998 28.064 57.148 28.525 57.148 C 28.565 57.148 28.606 57.147 28.647 57.145 C 28.605 57.147 28.564 57.148 28.524 57.148 M 28.525 56.953 C 28.063 56.954 27.66 56.803 27.346 56.52 L 27.346 56.52 L 27.346 56.519 L 43.865 40.001 L 49.372 45.509 L 49.372 45.509 L 30.018 56.506 C 29.483 56.809 28.975 56.953 28.525 56.953 M 27.342 56.711 C 27.313 56.685 27.284 56.657 27.256 56.628 L 27.342 56.711 Z " fill="rgb(255,255,255)"/></clipPath><g clip-path="url(#_clipPath_OGhYlHdi1FBbCbc1EItUabIqZBBV1mdG)"><g><linearGradient id="_lgradient_38" x1="0.8672522623002215" y1="0.8215232689242253" x2="-0.5047958956056213" y2="-0.5505248889816177" gradientTransform="matrix(22.116,0,0,-17.147,27.256,57.148)" gradientUnits="userSpaceOnUse"><stop offset="0%" stop-opacity="1" style="stop-color:rgb(255,58,68)"/><stop offset="100%" stop-opacity="1" style="stop-color:rgb(195,17,98)"/></linearGradient><path d=" M 28.524 57.148 C 28.063 57.148 27.66 56.998 27.346 56.715 L 27.346 56.715 C 27.66 56.998 28.064 57.148 28.525 57.148 C 28.565 57.148 28.606 57.147 28.647 57.145 C 28.605 57.147 28.564 57.148 28.524 57.148 M 28.525 56.953 C 28.063 56.954 27.66 56.803 27.346 56.52 L 27.346 56.52 L 27.346 56.519 L 43.865 40.001 L 49.372 45.509 L 49.372 45.509 L 30.018 56.506 C 29.483 56.809 28.975 56.953 28.525 56.953 M 27.342 56.711 C 27.313 56.685 27.284 56.657 27.256 56.628 L 27.342 56.711 Z " fill="url(#_lgradient_38)"/></g></g></g><g><clipPath id="_clipPath_tQtJVCeLW7zM0uSC894OqBdXFSwVfAAR"><path d=" M 43.865 40.001 L 43.865 40.001 L 27.345 23.482 C 27.659 23.199 28.061 23.049 28.522 23.049 C 28.974 23.049 29.482 23.193 30.018 23.497 L 49.371 34.494 L 43.865 40.001 M 49.496 34.369 L 30.018 23.303 C 29.482 22.998 28.974 22.854 28.522 22.854 C 28.52 22.854 28.518 22.854 28.516 22.854 C 28.519 22.854 28.521 22.854 28.524 22.854 C 28.975 22.854 29.482 22.998 30.018 23.302 L 49.496 34.369 M 28.512 22.854 L 28.512 22.854 L 28.512 22.854 Z " fill="rgb(255,255,255)"/></clipPath><g clip-path="url(#_clipPath_tQtJVCeLW7zM0uSC894OqBdXFSwVfAAR)"><g><linearGradient id="_lgradient_39" x1="-0.19329693679160664" y1="1.541546787763799" x2="0.4184117544377095" y2="0.9298380965344829" gradientTransform="matrix(22.151,0,0,-17.147,27.345,40.001)" gradientUnits="userSpaceOnUse"><stop offset="0%" stop-opacity="1" style="stop-color:rgb(50,160,113)"/><stop offset="6.8500000000000005%" stop-opacity="1" style="stop-color:rgb(45,167,113)"/><stop offset="47.620000000000005%" stop-opacity="1" style="stop-color:rgb(21,207,116)"/><stop offset="80.08999999999999%" stop-opacity="1" style="stop-color:rgb(6,231,117)"/><stop offset="100%" stop-opacity="1" style="stop-color:rgb(0,240,118)"/></linearGradient><path d=" M 43.865 40.001 L 43.865 40.001 L 27.345 23.482 C 27.659 23.199 28.061 23.049 28.522 23.049 C 28.974 23.049 29.482 23.193 30.018 23.497 L 49.371 34.494 L 43.865 40.001 M 49.496 34.369 L 30.018 23.303 C 29.482 22.998 28.974 22.854 28.522 22.854 C 28.52 22.854 28.518 22.854 28.516 22.854 C 28.519 22.854 28.521 22.854 28.524 22.854 C 28.975 22.854 29.482 22.998 30.018 23.302 L 49.496 34.369 M 28.512 22.854 L 28.512 22.854 L 28.512 22.854 Z " fill="url(#_lgradient_39)"/></g></g></g><path d=" M 28.647 57.145 C 29.066 57.121 29.53 56.977 30.018 56.701 L 49.37 45.705 L 49.37 45.705 L 30.018 56.701 C 29.531 56.978 29.066 57.121 28.647 57.145 M 27.346 56.715 L 27.342 56.711 C 27.343 56.713 27.345 56.714 27.346 56.715 L 27.346 56.715 Z  M 27.256 56.628 L 27.247 56.619 L 27.247 56.619 C 27.251 56.622 27.253 56.625 27.256 56.628 Z " fill="rgb(0,0,0)"/><g><clipPath id="_clipPath_IFt6hqsrOSfHFGiObLGwDnL8KI8Lperh"><path d=" M 49.37 45.705 L 49.37 45.705 L 49.496 45.633 L 49.37 45.705 Z " fill="rgb(255,255,255)"/></clipPath><g clip-path="url(#_clipPath_IFt6hqsrOSfHFGiObLGwDnL8KI8Lperh)"><g><linearGradient id="_lgradient_40" x1="72.25796178343893" y1="79.94579439251964" x2="-184.61040339702618" y2="79.94579439251962" gradientTransform="matrix(0.126,0,0,-0.071,49.37,45.705)" gradientUnits="userSpaceOnUse"><stop offset="0%" stop-opacity="1" style="stop-color:rgb(204,179,0)"/><stop offset="40.87%" stop-opacity="1" style="stop-color:rgb(204,151,0)"/><stop offset="77.53999999999999%" stop-opacity="1" style="stop-color:rgb(204,132,0)"/><stop offset="100%" stop-opacity="1" style="stop-color:rgb(204,125,0)"/></linearGradient><path d=" M 49.37 45.705 L 49.37 45.705 L 49.496 45.633 L 49.37 45.705 Z " fill="url(#_lgradient_40)"/></g></g></g><g><clipPath id="_clipPath_N2Q9NoxbUz7k7zFSqk6YsOLv5sg1zwYC"><path d=" M 28.525 57.148 C 28.064 57.148 27.66 56.998 27.346 56.715 L 27.346 56.715 C 27.345 56.714 27.343 56.713 27.342 56.711 L 27.256 56.628 C 27.253 56.625 27.251 56.622 27.247 56.619 L 27.346 56.52 C 27.66 56.803 28.063 56.954 28.525 56.953 C 28.975 56.953 29.483 56.809 30.018 56.506 L 49.372 45.509 L 49.496 45.633 L 49.37 45.705 L 30.018 56.701 C 29.53 56.977 29.066 57.121 28.647 57.145 C 28.606 57.147 28.565 57.148 28.525 57.148" fill="rgb(255,255,255)"/></clipPath><g clip-path="url(#_clipPath_N2Q9NoxbUz7k7zFSqk6YsOLv5sg1zwYC)"><g><linearGradient id="_lgradient_41" x1="0.8624688368971136" y1="1.2103146873174255" x2="-0.5014143254386805" y2="-0.1535684750183688" gradientTransform="matrix(22.249,0,0,-11.639,27.247,57.148)" gradientUnits="userSpaceOnUse"><stop offset="0%" stop-opacity="1" style="stop-color:rgb(204,46,54)"/><stop offset="100%" stop-opacity="1" style="stop-color:rgb(156,14,78)"/></linearGradient><path d=" M 28.525 57.148 C 28.064 57.148 27.66 56.998 27.346 56.715 L 27.346 56.715 C 27.345 56.714 27.343 56.713 27.342 56.711 L 27.256 56.628 C 27.253 56.625 27.251 56.622 27.247 56.619 L 27.346 56.52 C 27.66 56.803 28.063 56.954 28.525 56.953 C 28.975 56.953 29.483 56.809 30.018 56.506 L 49.372 45.509 L 49.496 45.633 L 49.37 45.705 L 30.018 56.701 C 29.53 56.977 29.066 57.121 28.647 57.145 C 28.606 57.147 28.565 57.148 28.525 57.148" fill="url(#_lgradient_41)"/></g></g></g><path d=" M 27.247 56.619 C 26.859 56.209 26.63 55.571 26.63 54.746 L 26.63 54.745 C 26.63 55.571 26.859 56.208 27.247 56.619 L 27.247 56.619 L 27.247 56.619 L 27.247 56.619" fill="rgb(0,0,0)"/><g><clipPath id="_clipPath_PEjndc2eyLjrdFZZ1cqJSNt9MIj8MKbK"><path d=" M 27.247 56.619 L 27.247 56.619 C 26.859 56.208 26.63 55.571 26.63 54.745 L 26.63 54.551 C 26.63 55.377 26.859 56.014 27.247 56.425 L 27.346 56.519 L 27.247 56.619" fill="rgb(255,255,255)"/></clipPath><g clip-path="url(#_clipPath_PEjndc2eyLjrdFZZ1cqJSNt9MIj8MKbK)"><g><linearGradient id="_lgradient_42" x1="22.020294172407453" y1="15.317513541397982" x2="-1.3619257323663696" y2="-8.064706363375844" gradientTransform="matrix(0.716,0,0,-2.068,26.63,56.619)" gradientUnits="userSpaceOnUse"><stop offset="0%" stop-opacity="1" style="stop-color:rgb(0,141,224)"/><stop offset="0.657445%" stop-opacity="1" style="stop-color:rgb(0,141,224)"/><stop offset="26.009999999999998%" stop-opacity="1" style="stop-color:rgb(0,167,224)"/><stop offset="51.22%" stop-opacity="1" style="stop-color:rgb(0,184,224)"/><stop offset="76.03999999999999%" stop-opacity="1" style="stop-color:rgb(0,196,224)"/><stop offset="100%" stop-opacity="1" style="stop-color:rgb(0,199,224)"/></linearGradient><path d=" M 27.247 56.619 L 27.247 56.619 C 26.859 56.208 26.63 55.571 26.63 54.745 L 26.63 54.551 C 26.63 55.377 26.859 56.014 27.247 56.425 L 27.346 56.519 L 27.247 56.619" fill="url(#_lgradient_42)"/></g></g></g><g><clipPath id="_clipPath_mqYoCJWknfT0ogQLpJQ8yGtgDiMoWxR4"><path d=" M 27.247 56.619 L 27.247 56.619 L 27.247 56.619 L 27.346 56.519 L 27.346 56.52 L 27.247 56.619" fill="rgb(255,255,255)"/></clipPath><g clip-path="url(#_clipPath_mqYoCJWknfT0ogQLpJQ8yGtgDiMoWxR4)"><g><linearGradient id="_lgradient_43" x1="193.69448183041857" y1="136.300268096513" x2="-111.99307458722285" y2="-169.38728832112847" gradientTransform="matrix(0.099,0,0,-0.099,27.247,56.619)" gradientUnits="userSpaceOnUse"><stop offset="0%" stop-opacity="1" style="stop-color:rgb(224,51,60)"/><stop offset="100%" stop-opacity="1" style="stop-color:rgb(171,15,86)"/></linearGradient><path d=" M 27.247 56.619 L 27.247 56.619 L 27.247 56.619 L 27.346 56.519 L 27.346 56.52 L 27.247 56.619" fill="url(#_lgradient_43)"/></g></g></g><path d=" M 57.263 40.691 C 57.366 40.466 57.417 40.234 57.417 40.003 C 57.417 40.003 57.417 40.002 57.417 40.002 C 57.417 40.234 57.366 40.465 57.263 40.691 Z " fill="rgb(0,0,0)"/><g><clipPath id="_clipPath_x4nlmAhDFP8Q4ANgzjgk5ZQ5UW2gCpXX"><path d=" M 49.496 45.633 L 49.496 45.633 L 49.372 45.509 L 56.02 41.732 C 56.864 41.252 57.338 40.633 57.417 40.003 C 57.417 40.234 57.366 40.466 57.263 40.691 C 57.056 41.144 56.642 41.573 56.02 41.927 L 49.496 45.633 Z " fill="rgb(255,255,255)"/></clipPath><g clip-path="url(#_clipPath_x4nlmAhDFP8Q4ANgzjgk5ZQ5UW2gCpXX)"><g><linearGradient id="_lgradient_44" x1="1.1278588001325822" y1="1.0002131337769677" x2="-2.8822505800464047" y2="1.0002131337769673" gradientTransform="matrix(8.045,0,0,-5.63,49.372,45.633)" gradientUnits="userSpaceOnUse"><stop offset="0%" stop-opacity="1" style="stop-color:rgb(224,197,0)"/><stop offset="40.87%" stop-opacity="1" style="stop-color:rgb(224,166,0)"/><stop offset="77.53999999999999%" stop-opacity="1" style="stop-color:rgb(224,145,0)"/><stop offset="100%" stop-opacity="1" style="stop-color:rgb(224,137,0)"/></linearGradient><path d=" M 49.496 45.633 L 49.496 45.633 L 49.372 45.509 L 56.02 41.732 C 56.864 41.252 57.338 40.633 57.417 40.003 C 57.417 40.234 57.366 40.466 57.263 40.691 C 57.056 41.144 56.642 41.573 56.02 41.927 L 49.496 45.633 Z " fill="url(#_lgradient_44)"/></g></g></g><path d=" M 57.417 40.001 L 57.417 40.001 C 57.417 39.303 56.951 38.606 56.02 38.077 L 49.496 34.37 L 49.495 34.37 L 49.496 34.369 L 56.02 38.076 C 56.952 38.605 57.418 39.304 57.417 40.001 Z " fill="rgb(64,64,64)"/><g><clipPath id="_clipPath_GveCH5z8JqBysj9j8gUAdQRZ1agsBnmg"><path d=" M 57.417 40.001 C 57.338 39.369 56.864 38.751 56.02 38.271 L 49.371 34.494 L 49.495 34.37 L 49.496 34.37 L 56.02 38.077 C 56.951 38.606 57.417 39.303 57.417 40.001 Z " fill="rgb(255,255,255)"/></clipPath><g clip-path="url(#_clipPath_GveCH5z8JqBysj9j8gUAdQRZ1agsBnmg)"><g><linearGradient id="_lgradient_45" x1="1.127850324804454" y1="-0.00023679287726974252" x2="-2.8819932387644176" y2="-0.00023679287727023358" gradientTransform="matrix(8.046,0,0,-5.631,49.371,40.001)" gradientUnits="userSpaceOnUse"><stop offset="0%" stop-opacity="1" style="stop-color:rgb(255,232,64)"/><stop offset="40.87%" stop-opacity="1" style="stop-color:rgb(255,206,64)"/><stop offset="77.53999999999999%" stop-opacity="1" style="stop-color:rgb(255,188,64)"/><stop offset="100%" stop-opacity="1" style="stop-color:rgb(255,181,64)"/></linearGradient><path d=" M 57.417 40.001 C 57.338 39.369 56.864 38.751 56.02 38.271 L 49.371 34.494 L 49.495 34.37 L 49.496 34.37 L 56.02 38.077 C 56.951 38.606 57.417 39.303 57.417 40.001 Z " fill="url(#_lgradient_45)"/></g></g></g><path d=" M 26.63 25.251 C 26.63 25.25 26.63 25.249 26.63 25.249 C 26.63 25.249 26.63 25.25 26.63 25.251 Z  M 26.636 25.034 C 26.636 25.033 26.636 25.032 26.636 25.031 C 26.636 25.032 26.636 25.033 26.636 25.034 Z  M 26.636 25.028 C 26.636 25.025 26.636 25.023 26.636 25.021 C 26.636 25.023 26.636 25.025 26.636 25.028 Z  M 26.636 25.02 C 26.714 23.65 27.458 22.859 28.512 22.854 C 28.055 22.857 27.657 23.007 27.346 23.287 L 27.346 23.287 L 27.342 23.291 C 27.309 23.32 27.278 23.352 27.247 23.384 L 27.247 23.384 C 26.897 23.754 26.677 24.309 26.636 25.02 Z " fill="rgb(64,64,64)"/><g><clipPath id="_clipPath_CtZolJJB9i8mzeZVnXRLhL6nSKYwEYoz"><path d=" M 26.63 25.453 L 26.63 25.258 C 26.63 25.255 26.63 25.253 26.63 25.251 C 26.63 25.25 26.63 25.249 26.63 25.249 C 26.63 25.175 26.632 25.104 26.636 25.034 C 26.636 25.033 26.636 25.032 26.636 25.031 C 26.636 25.03 26.636 25.029 26.636 25.028 C 26.636 25.025 26.636 25.023 26.636 25.021 C 26.636 25.021 26.636 25.02 26.636 25.02 C 26.677 24.309 26.897 23.754 27.247 23.384 L 27.247 23.384 L 27.247 23.384 L 27.345 23.482 C 26.897 23.885 26.63 24.559 26.63 25.453 M 27.342 23.291 L 27.346 23.287 C 27.345 23.289 27.343 23.29 27.342 23.291 Z " fill="rgb(255,255,255)"/></clipPath><g clip-path="url(#_clipPath_CtZolJJB9i8mzeZVnXRLhL6nSKYwEYoz)"><g><linearGradient id="_lgradient_46" x1="22.036705794671178" y1="0.23382380102197686" x2="-1.2501293184407167" y2="-23.05301131208992" gradientTransform="matrix(0.716,0,0,-2.166,26.63,25.453)" gradientUnits="userSpaceOnUse"><stop offset="0%" stop-opacity="1" style="stop-color:rgb(64,184,255)"/><stop offset="0.657445%" stop-opacity="1" style="stop-color:rgb(64,185,255)"/><stop offset="26.009999999999998%" stop-opacity="1" style="stop-color:rgb(64,206,255)"/><stop offset="51.22%" stop-opacity="1" style="stop-color:rgb(64,221,255)"/><stop offset="76.03999999999999%" stop-opacity="1" style="stop-color:rgb(64,231,255)"/><stop offset="100%" stop-opacity="1" style="stop-color:rgb(64,234,255)"/></linearGradient><path d=" M 26.63 25.453 L 26.63 25.258 C 26.63 25.255 26.63 25.253 26.63 25.251 C 26.63 25.25 26.63 25.249 26.63 25.249 C 26.63 25.175 26.632 25.104 26.636 25.034 C 26.636 25.033 26.636 25.032 26.636 25.031 C 26.636 25.03 26.636 25.029 26.636 25.028 C 26.636 25.025 26.636 25.023 26.636 25.021 C 26.636 25.021 26.636 25.02 26.636 25.02 C 26.677 24.309 26.897 23.754 27.247 23.384 L 27.247 23.384 L 27.247 23.384 L 27.345 23.482 C 26.897 23.885 26.63 24.559 26.63 25.453 M 27.342 23.291 L 27.346 23.287 C 27.345 23.289 27.343 23.29 27.342 23.291 Z " fill="url(#_lgradient_46)"/></g></g></g><path d=" M 28.512 22.854 C 28.513 22.854 28.515 22.854 28.516 22.854 C 28.515 22.854 28.513 22.854 28.512 22.854 Z " fill="rgb(64,64,64)"/><g><clipPath id="_clipPath_pnHoaAcMqkKQEiZ7HihZxxcOJ4EyZCrt"><path d=" M 49.371 34.494 L 30.018 23.497 C 29.482 23.193 28.974 23.049 28.522 23.049 C 28.061 23.049 27.659 23.199 27.345 23.482 L 27.247 23.384 L 27.247 23.384 C 27.278 23.352 27.309 23.32 27.342 23.291 C 27.343 23.29 27.345 23.289 27.346 23.287 C 27.657 23.007 28.055 22.857 28.512 22.854 L 28.512 22.854 C 28.513 22.854 28.515 22.854 28.516 22.854 C 28.518 22.854 28.52 22.854 28.522 22.854 C 28.974 22.854 29.482 22.998 30.018 23.303 L 49.496 34.369 L 49.495 34.37 L 49.371 34.494 Z " fill="rgb(255,255,255)"/></clipPath><g clip-path="url(#_clipPath_pnHoaAcMqkKQEiZ7HihZxxcOJ4EyZCrt)"><g><linearGradient id="_lgradient_47" x1="-0.18806932591811276" y1="1.7977822834690773" x2="0.4209595838527185" y2="1.1887533736982463" gradientTransform="matrix(22.249,0,0,-11.64,27.247,34.494)" gradientUnits="userSpaceOnUse"><stop offset="0%" stop-opacity="1" style="stop-color:rgb(101,184,149)"/><stop offset="6.8500000000000005%" stop-opacity="1" style="stop-color:rgb(98,189,149)"/><stop offset="47.620000000000005%" stop-opacity="1" style="stop-color:rgb(80,219,151)"/><stop offset="80.08999999999999%" stop-opacity="1" style="stop-color:rgb(68,237,152)"/><stop offset="100%" stop-opacity="1" style="stop-color:rgb(64,244,152)"/></linearGradient><path d=" M 49.371 34.494 L 30.018 23.497 C 29.482 23.193 28.974 23.049 28.522 23.049 C 28.061 23.049 27.659 23.199 27.345 23.482 L 27.247 23.384 L 27.247 23.384 C 27.278 23.352 27.309 23.32 27.342 23.291 C 27.343 23.29 27.345 23.289 27.346 23.287 C 27.657 23.007 28.055 22.857 28.512 22.854 L 28.512 22.854 C 28.513 22.854 28.515 22.854 28.516 22.854 C 28.518 22.854 28.52 22.854 28.522 22.854 C 28.974 22.854 29.482 22.998 30.018 23.303 L 49.496 34.369 L 49.495 34.37 L 49.371 34.494 Z " fill="url(#_lgradient_47)"/></g></g></g><path d=" M 71.329 26.622 C 71.344 27.888 71.091 28.909 70.57 29.684 L 74.614 29.684 L 74.614 23.649 L 71.329 23.649 L 71.329 26.622 Z  M 69.485 32.365 L 68.502 32.365 L 68.502 29.684 L 69.284 29.684 C 69.977 29.087 70.316 28.067 70.302 26.622 L 70.302 22.667 L 75.643 22.667 L 75.643 29.684 L 76.536 29.684 L 76.536 32.365 L 75.553 32.365 L 75.553 30.667 L 69.485 30.667 L 69.485 32.365" fill="rgb(255,255,255)"/><path d=" M 71.329 26.622 L 71.195 26.624 L 71.196 26.732 C 71.196 27.929 70.946 28.885 70.459 29.609 L 70.319 29.817 L 74.747 29.817 L 74.747 23.516 L 71.195 23.516 L 71.195 26.623 L 71.195 26.624 L 71.329 26.622 L 71.462 26.622 L 71.462 23.783 L 74.481 23.783 L 74.481 29.551 L 70.57 29.551 L 70.57 29.684 L 70.68 29.758 C 71.205 28.978 71.463 27.965 71.463 26.732 L 71.462 26.621 L 71.329 26.622 L 71.462 26.622 L 71.329 26.622 Z  M 69.485 32.365 L 69.485 32.231 L 68.635 32.231 L 68.635 29.817 L 69.284 29.817 L 69.334 29.817 L 69.371 29.785 C 70.092 29.163 70.435 28.127 70.435 26.71 L 70.435 26.621 L 70.435 26.622 L 70.435 22.8 L 75.509 22.8 L 75.509 29.817 L 76.403 29.817 L 76.403 32.231 L 75.686 32.231 L 75.686 30.667 L 75.686 30.533 L 69.352 30.533 L 69.352 32.365 L 69.485 32.365 L 69.485 32.231 L 69.485 32.365 L 69.618 32.365 L 69.618 30.8 L 75.419 30.8 L 75.419 32.365 L 75.419 32.498 L 76.536 32.498 L 76.669 32.498 L 76.669 29.551 L 75.776 29.551 L 75.776 22.533 L 70.168 22.533 L 70.168 26.623 L 70.168 26.623 L 70.169 26.71 C 70.168 28.09 69.834 29.036 69.197 29.582 L 69.284 29.684 L 69.284 29.551 L 68.502 29.551 L 68.369 29.551 L 68.369 32.498 L 69.485 32.498 L 69.618 32.498 L 69.618 32.365 L 69.485 32.365" fill="rgb(255,255,255)"/><path d=" M 79.446 28.963 C 80.039 29.563 80.763 29.862 81.619 29.862 C 82.476 29.862 83.201 29.563 83.792 28.963 C 84.385 28.364 84.682 27.597 84.682 26.667 C 84.682 25.736 84.385 24.97 83.792 24.37 C 83.201 23.771 82.476 23.471 81.619 23.471 C 80.763 23.471 80.039 23.771 79.446 24.37 C 78.855 24.97 78.558 25.736 78.558 26.667 C 78.558 27.597 78.855 28.364 79.446 28.963 Z  M 84.553 29.633 C 83.766 30.442 82.789 30.845 81.619 30.845 C 80.45 30.845 79.472 30.442 78.687 29.633 C 77.901 28.825 77.508 27.836 77.508 26.667 C 77.508 25.497 77.901 24.508 78.687 23.701 C 79.472 22.892 80.45 22.487 81.619 22.487 C 82.782 22.487 83.757 22.894 84.547 23.706 C 85.336 24.518 85.731 25.505 85.731 26.667 C 85.731 27.836 85.338 28.825 84.553 29.633 Z " fill="rgb(255,255,255)"/><path d=" M 79.446 28.963 L 79.351 29.057 C 79.965 29.68 80.731 29.997 81.619 29.995 C 82.507 29.997 83.275 29.68 83.887 29.057 C 84.505 28.433 84.816 27.625 84.815 26.667 C 84.816 25.708 84.505 24.901 83.887 24.277 L 83.887 24.277 C 83.275 23.653 82.507 23.336 81.619 23.338 C 80.731 23.336 79.965 23.653 79.351 24.277 L 79.351 24.277 C 78.734 24.901 78.423 25.708 78.425 26.667 C 78.423 27.625 78.734 28.433 79.351 29.057 L 79.446 28.963 L 79.541 28.869 C 78.975 28.294 78.693 27.57 78.691 26.667 C 78.693 25.764 78.975 25.04 79.541 24.464 L 79.541 24.464 C 80.111 23.889 80.793 23.606 81.619 23.605 C 82.445 23.606 83.128 23.889 83.697 24.464 L 83.699 24.466 L 83.697 24.464 C 84.265 25.04 84.547 25.764 84.548 26.667 C 84.547 27.57 84.265 28.294 83.697 28.869 C 83.128 29.445 82.445 29.727 81.619 29.729 C 80.793 29.727 80.111 29.445 79.541 28.869 L 79.446 28.963 Z  M 84.553 29.633 L 84.457 29.54 C 83.693 30.323 82.758 30.71 81.619 30.712 C 80.48 30.71 79.545 30.323 78.782 29.54 L 78.782 29.54 C 78.02 28.754 77.643 27.806 77.642 26.667 C 77.643 25.527 78.02 24.579 78.782 23.793 L 78.782 23.793 C 79.545 23.01 80.48 22.622 81.619 22.621 C 82.751 22.622 83.684 23.011 84.452 23.799 C 85.218 24.589 85.596 25.535 85.598 26.667 C 85.596 27.806 85.219 28.754 84.457 29.54 L 84.553 29.633 L 84.648 29.725 C 85.457 28.895 85.866 27.866 85.865 26.667 C 85.866 25.475 85.456 24.447 84.643 23.613 C 83.831 22.776 82.813 22.353 81.619 22.354 C 80.419 22.353 79.398 22.774 78.591 23.608 L 78.591 23.607 C 77.781 24.438 77.374 25.468 77.375 26.667 C 77.374 27.866 77.781 28.895 78.591 29.726 L 78.591 29.725 C 79.398 30.559 80.419 30.98 81.619 30.979 C 82.819 30.98 83.84 30.559 84.648 29.725 L 84.553 29.633 Z " fill="rgb(255,255,255)"/><path d=" M 90.906 30.845 C 89.729 30.845 88.742 30.447 87.945 29.649 C 87.146 28.853 86.749 27.858 86.749 26.667 C 86.749 25.475 87.146 24.481 87.945 23.684 C 88.742 22.886 89.729 22.487 90.906 22.487 C 92.111 22.487 93.092 22.923 93.844 23.795 L 93.128 24.488 C 92.585 23.81 91.843 23.471 90.906 23.471 C 90.033 23.471 89.297 23.766 88.698 24.354 C 88.098 24.943 87.799 25.714 87.799 26.667 C 87.799 27.62 88.098 28.391 88.698 28.979 C 89.297 29.568 90.033 29.862 90.906 29.862 C 91.867 29.862 92.685 29.475 93.364 28.701 L 94.079 29.415 C 93.713 29.855 93.256 30.203 92.704 30.459 C 92.153 30.717 91.553 30.845 90.906 30.845" fill="rgb(255,255,255)"/><path d=" M 90.906 30.845 L 90.906 30.712 C 89.758 30.71 88.813 30.328 88.039 29.555 C 87.266 28.782 86.884 27.829 86.883 26.667 C 86.884 25.505 87.266 24.552 88.039 23.778 C 88.813 23.005 89.758 22.622 90.906 22.621 C 92.08 22.623 93.013 23.039 93.743 23.882 L 93.844 23.795 L 93.752 23.699 L 93.035 24.393 L 93.128 24.488 L 93.232 24.405 C 92.667 23.695 91.875 23.336 90.906 23.338 C 90.003 23.337 89.227 23.647 88.605 24.259 L 88.605 24.259 C 87.978 24.873 87.664 25.686 87.666 26.667 C 87.664 27.647 87.978 28.461 88.605 29.075 L 88.605 29.075 C 89.227 29.686 90.003 29.996 90.906 29.995 C 91.903 29.997 92.767 29.587 93.464 28.789 L 93.364 28.701 L 93.27 28.795 L 93.984 29.509 L 94.079 29.415 L 93.976 29.33 C 93.623 29.754 93.183 30.09 92.647 30.339 C 92.115 30.587 91.535 30.711 90.906 30.712 L 90.906 30.845 L 90.906 30.979 C 91.57 30.979 92.191 30.846 92.76 30.58 C 93.329 30.317 93.803 29.956 94.181 29.501 L 94.259 29.407 L 93.458 28.606 L 93.357 28.505 L 93.264 28.613 C 92.604 29.363 91.83 29.727 90.906 29.729 C 90.063 29.727 89.369 29.449 88.792 28.884 L 88.792 28.884 C 88.219 28.321 87.933 27.593 87.932 26.667 C 87.933 25.741 88.219 25.013 88.792 24.449 L 88.792 24.449 C 89.369 23.884 90.063 23.606 90.906 23.605 C 91.811 23.607 92.504 23.925 93.024 24.571 L 93.116 24.686 L 93.937 23.891 L 94.028 23.803 L 93.945 23.708 C 93.171 22.808 92.143 22.353 90.906 22.354 C 89.698 22.353 88.67 22.768 87.851 23.59 C 87.027 24.409 86.615 25.446 86.616 26.667 C 86.615 27.887 87.027 28.924 87.851 29.744 C 88.67 30.565 89.698 30.98 90.906 30.979 L 90.906 30.845" fill="rgb(255,255,255)"/><path d=" M 98.236 30.667 L 97.208 30.667 L 97.208 23.649 L 94.973 23.649 L 94.973 22.667 L 100.471 22.667 L 100.471 23.649 L 98.236 23.649 L 98.236 30.667 Z " fill="rgb(255,255,255)"/><path d=" M 98.236 30.667 L 98.236 30.533 L 97.341 30.533 L 97.341 23.516 L 95.107 23.516 L 95.107 22.8 L 100.337 22.8 L 100.337 23.516 L 98.103 23.516 L 98.103 30.667 L 98.236 30.667 L 98.236 30.533 L 98.236 30.667 L 98.37 30.667 L 98.37 23.783 L 100.604 23.783 L 100.604 22.667 L 100.604 22.533 L 94.84 22.533 L 94.84 23.649 L 94.84 23.783 L 97.075 23.783 L 97.075 30.8 L 98.236 30.8 L 98.37 30.8 L 98.37 30.667 L 98.236 30.667" fill="rgb(255,255,255)"/><path d=" M 107.529 22.667 L 104.502 29.415 C 104.083 30.369 103.463 30.845 102.636 30.845 C 102.39 30.845 102.125 30.786 101.842 30.667 L 102.11 29.717 C 102.282 29.814 102.46 29.862 102.646 29.862 C 102.885 29.862 103.07 29.816 103.2 29.723 C 103.33 29.63 103.451 29.459 103.563 29.214 L 103.854 28.577 L 101.161 22.667 L 102.368 22.667 L 104.345 27.259 L 104.39 27.259 L 106.321 22.667 L 107.529 22.667" fill="rgb(255,255,255)"/><path d=" M 107.529 22.667 L 107.407 22.612 L 104.38 29.361 L 104.379 29.362 C 103.968 30.286 103.406 30.707 102.636 30.712 C 102.411 30.712 102.165 30.658 101.893 30.544 L 101.842 30.667 L 101.97 30.703 L 102.238 29.753 L 102.11 29.717 L 102.045 29.833 C 102.234 29.94 102.437 29.996 102.646 29.995 C 102.901 29.995 103.115 29.947 103.278 29.831 C 103.438 29.715 103.567 29.526 103.684 29.27 L 103.975 28.632 L 104 28.577 L 101.368 22.8 L 102.28 22.8 L 104.257 27.392 L 104.39 27.392 L 104.478 27.392 L 106.41 22.8 L 107.529 22.8 L 107.529 22.667 L 107.407 22.612 L 107.529 22.667 L 107.529 22.533 L 106.321 22.533 L 106.233 22.533 L 104.266 27.207 L 104.39 27.259 L 104.39 27.125 L 104.345 27.125 L 104.345 27.259 L 104.468 27.206 L 102.456 22.533 L 101.161 22.533 L 100.954 22.533 L 103.707 28.577 L 103.442 29.159 C 103.336 29.393 103.222 29.544 103.122 29.614 C 103.025 29.684 102.868 29.729 102.646 29.729 C 102.483 29.729 102.33 29.687 102.175 29.601 L 102.028 29.517 L 101.714 30.63 L 101.681 30.744 L 101.79 30.79 C 102.086 30.914 102.368 30.979 102.636 30.979 C 103.52 30.983 104.199 30.451 104.623 29.469 L 104.623 29.47 L 107.734 22.533 L 107.529 22.533 L 107.529 22.667" fill="rgb(255,255,255)"/><path d=" M 108.693 30.667 L 108.693 22.667 L 114.481 22.667 L 114.481 30.667 L 113.452 30.667 L 113.452 23.649 L 109.72 23.649 L 109.72 30.667 L 108.693 30.667 Z " fill="rgb(255,255,255)"/><path d=" M 108.693 30.667 L 108.826 30.667 L 108.826 22.8 L 114.347 22.8 L 114.347 30.533 L 113.585 30.533 L 113.585 23.516 L 109.586 23.516 L 109.586 30.533 L 108.693 30.533 L 108.693 30.667 L 108.826 30.667 L 108.693 30.667 L 108.693 30.8 L 109.72 30.8 L 109.853 30.8 L 109.853 23.783 L 113.319 23.783 L 113.319 30.8 L 114.481 30.8 L 114.614 30.8 L 114.614 22.533 L 108.559 22.533 L 108.559 30.8 L 108.693 30.8 L 108.693 30.667" fill="rgb(255,255,255)"/><path d=" M 116.313 30.667 L 116.313 22.667 L 117.34 22.667 L 117.34 26.096 L 121.34 26.096 L 121.34 22.667 L 122.369 22.667 L 122.369 30.667 L 121.34 30.667 L 121.34 27.057 L 117.34 27.057 L 117.34 30.667 L 116.313 30.667 Z " fill="rgb(255,255,255)"/><path d=" M 116.313 30.667 L 116.446 30.667 L 116.446 22.8 L 117.207 22.8 L 117.207 26.23 L 121.473 26.23 L 121.473 22.8 L 122.235 22.8 L 122.235 30.533 L 121.473 30.533 L 121.473 26.924 L 117.207 26.924 L 117.207 30.533 L 116.313 30.533 L 116.313 30.667 L 116.446 30.667 L 116.313 30.667 L 116.313 30.8 L 117.34 30.8 L 117.473 30.8 L 117.473 27.191 L 121.207 27.191 L 121.207 30.8 L 122.369 30.8 L 122.502 30.8 L 122.502 22.533 L 121.34 22.533 L 121.207 22.533 L 121.207 25.963 L 117.473 25.963 L 117.473 22.533 L 116.313 22.533 L 116.179 22.533 L 116.179 30.8 L 116.313 30.8 L 116.313 30.667 Z " fill="rgb(255,255,255)"/><path d=" M 125.636 28.963 C 126.229 29.563 126.953 29.862 127.81 29.862 C 128.667 29.862 129.392 29.563 129.983 28.963 C 130.575 28.364 130.872 27.597 130.872 26.667 C 130.872 25.736 130.575 24.97 129.983 24.37 C 129.392 23.771 128.667 23.471 127.81 23.471 C 126.953 23.471 126.229 23.771 125.636 24.37 C 125.046 24.97 124.748 25.736 124.748 26.667 C 124.748 27.597 125.046 28.364 125.636 28.963 Z  M 130.743 29.633 C 129.957 30.442 128.979 30.845 127.81 30.845 C 126.641 30.845 125.663 30.442 124.878 29.633 C 124.091 28.825 123.699 27.836 123.699 26.667 C 123.699 25.497 124.091 24.508 124.878 23.701 C 125.663 22.892 126.641 22.487 127.81 22.487 C 128.973 22.487 129.948 22.894 130.738 23.706 C 131.527 24.518 131.922 25.505 131.922 26.667 C 131.922 27.836 131.529 28.825 130.743 29.633 Z " fill="rgb(255,255,255)"/><path d=" M 125.636 28.963 L 125.542 29.057 C 126.156 29.68 126.922 29.997 127.81 29.995 C 128.698 29.997 129.465 29.68 130.078 29.057 C 130.696 28.433 131.007 27.625 131.006 26.667 C 131.007 25.708 130.696 24.901 130.078 24.277 L 130.078 24.277 C 129.465 23.653 128.698 23.336 127.81 23.338 C 126.922 23.336 126.156 23.653 125.542 24.277 L 125.542 24.277 C 124.925 24.901 124.614 25.708 124.615 26.667 C 124.614 27.625 124.925 28.433 125.542 29.057 L 125.636 28.963 L 125.732 28.869 C 125.166 28.294 124.883 27.57 124.882 26.667 C 124.883 25.764 125.166 25.04 125.732 24.464 L 125.732 24.464 C 126.302 23.889 126.984 23.606 127.81 23.605 C 128.635 23.606 129.319 23.889 129.888 24.464 L 129.892 24.468 L 129.888 24.464 C 130.455 25.04 130.738 25.764 130.739 26.667 C 130.738 27.57 130.455 28.294 129.888 28.869 C 129.319 29.445 128.635 29.727 127.81 29.729 C 126.984 29.727 126.302 29.445 125.732 28.869 L 125.636 28.963 Z  M 130.743 29.633 L 130.648 29.54 C 129.884 30.323 128.948 30.71 127.81 30.712 C 126.671 30.71 125.736 30.323 124.973 29.54 L 124.969 29.536 L 124.973 29.54 C 124.21 28.754 123.834 27.806 123.832 26.667 C 123.834 25.527 124.21 24.579 124.973 23.793 L 124.973 23.793 C 125.736 23.01 126.671 22.622 127.81 22.621 C 128.942 22.622 129.875 23.011 130.643 23.799 C 131.408 24.589 131.787 25.535 131.789 26.667 C 131.787 27.806 131.409 28.754 130.648 29.54 L 130.743 29.633 L 130.839 29.725 C 131.648 28.895 132.056 27.866 132.055 26.667 C 132.056 25.475 131.646 24.447 130.834 23.613 C 130.021 22.776 129.004 22.353 127.81 22.354 C 126.61 22.353 125.59 22.774 124.782 23.608 L 124.782 23.607 C 123.972 24.438 123.565 25.468 123.566 26.667 C 123.565 27.866 123.972 28.895 124.782 29.726 L 124.782 29.725 C 125.59 30.559 126.61 30.98 127.81 30.979 C 129.01 30.98 130.03 30.559 130.839 29.725 L 130.743 29.633" fill="rgb(255,255,255)"/><path d=" M 137.152 29.684 L 139.22 29.684 C 139.615 29.684 139.935 29.546 140.181 29.269 C 140.427 28.995 140.549 28.693 140.549 28.365 C 140.549 28.037 140.423 27.737 140.169 27.466 C 139.917 27.194 139.584 27.057 139.175 27.057 L 137.152 27.057 L 137.152 29.684 Z  M 137.152 26.096 L 139.019 26.096 C 139.407 26.096 139.717 25.969 139.952 25.711 C 140.187 25.454 140.304 25.173 140.304 24.868 C 140.304 24.563 140.191 24.282 139.963 24.03 C 139.736 23.777 139.436 23.649 139.064 23.649 L 137.152 23.649 L 137.152 26.096 Z  M 136.125 30.667 L 136.125 22.667 L 139.019 22.667 C 139.644 22.667 140.187 22.874 140.644 23.286 C 141.103 23.701 141.332 24.22 141.332 24.845 C 141.332 25.225 141.233 25.56 141.035 25.851 C 140.839 26.142 140.576 26.361 140.248 26.51 L 140.248 26.555 C 140.641 26.689 140.967 26.92 141.22 27.247 C 141.472 27.575 141.6 27.956 141.6 28.387 C 141.6 29.043 141.36 29.586 140.879 30.018 C 140.399 30.451 139.831 30.667 139.175 30.667 L 136.125 30.667" fill="rgb(255,255,255)"/><path d=" M 137.152 29.684 L 137.152 29.817 L 139.22 29.817 C 139.645 29.819 140.012 29.663 140.28 29.358 L 140.28 29.358 C 140.544 29.065 140.684 28.727 140.683 28.365 C 140.684 28.002 140.539 27.665 140.267 27.375 L 140.267 27.375 C 139.991 27.075 139.613 26.922 139.175 26.924 L 137.019 26.924 L 137.019 29.817 L 137.152 29.817 L 137.152 29.684 L 137.285 29.684 L 137.285 27.191 L 139.175 27.191 C 139.556 27.192 139.843 27.313 140.072 27.556 L 140.072 27.556 C 140.307 27.81 140.415 28.072 140.416 28.365 C 140.415 28.659 140.309 28.925 140.081 29.181 L 140.081 29.181 C 139.859 29.429 139.584 29.548 139.22 29.551 L 137.152 29.551 L 137.152 29.684 L 137.285 29.684 L 137.152 29.684 Z  M 137.152 26.096 L 137.152 26.23 L 139.019 26.23 C 139.435 26.231 139.792 26.087 140.051 25.801 L 140.051 25.801 C 140.303 25.526 140.437 25.208 140.437 24.868 C 140.437 24.529 140.308 24.213 140.061 23.941 L 140.061 23.941 C 139.812 23.659 139.465 23.515 139.064 23.516 L 137.019 23.516 L 137.019 26.23 L 137.152 26.23 L 137.152 26.096 L 137.285 26.096 L 137.285 23.783 L 139.064 23.783 C 139.407 23.785 139.66 23.894 139.863 24.119 L 139.864 24.12 L 139.863 24.119 C 140.072 24.353 140.169 24.596 140.171 24.868 C 140.169 25.138 140.069 25.383 139.853 25.621 L 139.853 25.621 C 139.643 25.85 139.377 25.961 139.019 25.963 L 137.152 25.963 L 137.152 26.096 L 137.285 26.096 L 137.152 26.096 Z  M 136.125 30.667 L 136.259 30.667 L 136.259 22.8 L 139.019 22.8 C 139.615 22.801 140.119 22.994 140.555 23.385 L 140.555 23.385 C 140.988 23.778 141.197 24.253 141.199 24.845 C 141.199 25.202 141.107 25.508 140.925 25.776 L 140.925 25.776 C 140.741 26.047 140.5 26.249 140.192 26.389 L 140.115 26.425 L 140.115 26.555 L 140.115 26.65 L 140.204 26.681 C 140.576 26.808 140.876 27.021 141.115 27.329 L 141.116 27.331 L 141.115 27.329 C 141.349 27.635 141.467 27.982 141.467 28.387 C 141.465 29.01 141.244 29.509 140.789 29.919 C 140.331 30.33 139.801 30.532 139.175 30.533 L 136.125 30.533 L 136.125 30.667 L 136.259 30.667 L 136.125 30.667 L 136.125 30.8 L 139.175 30.8 C 139.86 30.801 140.465 30.571 140.968 30.117 C 141.475 29.665 141.735 29.075 141.733 28.387 C 141.735 27.93 141.596 27.516 141.325 27.166 L 141.324 27.165 L 141.325 27.166 C 141.057 26.819 140.708 26.57 140.291 26.429 L 140.248 26.555 L 140.381 26.555 L 140.381 26.51 L 140.248 26.51 L 140.303 26.632 C 140.651 26.474 140.936 26.237 141.145 25.925 L 141.145 25.926 C 141.359 25.613 141.465 25.248 141.465 24.845 C 141.467 24.187 141.219 23.623 140.733 23.187 L 140.731 23.185 L 140.733 23.187 C 140.253 22.754 139.673 22.532 139.019 22.533 L 135.992 22.533 L 135.992 30.8 L 136.125 30.8 L 136.125 30.667" fill="rgb(255,255,255)"/></g></g></svg>