<?xml version="1.0" encoding="UTF-8" standalone="no"?>
<svg
   xmlns:dc="http://purl.org/dc/elements/1.1/"
   xmlns:cc="http://creativecommons.org/ns#"
   xmlns:rdf="http://www.w3.org/1999/02/22-rdf-syntax-ns#"
   xmlns:svg="http://www.w3.org/2000/svg"
   xmlns="http://www.w3.org/2000/svg"
   viewBox="0 0 206.66667 80"
   height="80"
   width="206.66667"
   xml:space="preserve"
   id="svg2"
   version="1.1"><metadata
     id="metadata8"><rdf:RDF><cc:Work
         rdf:about=""><dc:format>image/svg+xml</dc:format><dc:type
           rdf:resource="http://purl.org/dc/dcmitype/StillImage" /></cc:Work></rdf:RDF></metadata><defs
     id="defs6"><clipPath
       id="clipPath28"
       clipPathUnits="userSpaceOnUse"><path
         id="path26"
         d="m 205.098,176.105 -0.743,0.711 c -2.91,3.079 -4.628,7.86 -4.628,14.051 v -1.457 0 221.16 c 0,0.02 0,0.035 0,0.051 0,-0.019 0,-0.035 0,-0.055 v -1.461 c 0,6.704 2.003,11.754 5.359,14.782 L 328.984,299.992 205.098,176.105 m -5.371,234.528 c 0,0.551 0.015,1.086 0.043,1.613 -0.028,-0.523 -0.043,-1.062 -0.043,-1.613 m 0.043,1.637 c 0,0.007 0,0.015 0.003,0.023 -0.003,-0.008 -0.003,-0.016 -0.003,-0.023 m 0.003,0.07 c 0,0.004 0,0.008 0,0.012 0,-0.004 0,-0.008 0,-0.012" /></clipPath><linearGradient
       id="linearGradient42"
       spreadMethod="pad"
       gradientTransform="matrix(-167.825,-167.825,167.825,-167.825,317.998,412.903)"
       gradientUnits="userSpaceOnUse"
       y2="0"
       x2="1"
       y1="0"
       x1="0"><stop
         id="stop30"
         offset="0"
         style="stop-opacity:1;stop-color:#00a0ff" /><stop
         id="stop32"
         offset="0.00657445"
         style="stop-opacity:1;stop-color:#00a1ff" /><stop
         id="stop34"
         offset="0.2601"
         style="stop-opacity:1;stop-color:#00beff" /><stop
         id="stop36"
         offset="0.5122"
         style="stop-opacity:1;stop-color:#00d2ff" /><stop
         id="stop38"
         offset="0.7604"
         style="stop-opacity:1;stop-color:#00dfff" /><stop
         id="stop40"
         offset="1"
         style="stop-opacity:1;stop-color:#00e3ff" /></linearGradient><clipPath
       id="clipPath52"
       clipPathUnits="userSpaceOnUse"><path
         id="path50"
         d="m 370.277,257.215 v 0 l 0.942,0.535 48.929,27.801 c 4.665,2.652 7.774,5.867 9.325,9.269 -1.547,-3.402 -4.657,-6.621 -9.325,-9.273 l -48.929,-27.801 -0.942,-0.531 m 0.012,1.465 -41.305,41.312 41.301,41.305 49.863,-28.328 c 6.332,-3.598 9.887,-8.235 10.481,-12.973 0,-0.004 0,-0.012 0,-0.019 -0.594,-4.727 -4.149,-9.368 -10.481,-12.965 L 370.289,258.68" /></clipPath><linearGradient
       id="linearGradient62"
       spreadMethod="pad"
       gradientTransform="matrix(-241.97,0,0,-241.97,438.344,299.986)"
       gradientUnits="userSpaceOnUse"
       y2="0"
       x2="1"
       y1="0"
       x1="0"><stop
         id="stop54"
         offset="0"
         style="stop-opacity:1;stop-color:#ffe000" /><stop
         id="stop56"
         offset="0.4087"
         style="stop-opacity:1;stop-color:#ffbd00" /><stop
         id="stop58"
         offset="0.7754"
         style="stop-opacity:1;stop-color:#ffa500" /><stop
         id="stop60"
         offset="1"
         style="stop-opacity:1;stop-color:#ff9c00" /></linearGradient><clipPath
       id="clipPath72"
       clipPathUnits="userSpaceOnUse"><path
         id="path70"
         d="m 213.93,171.387 c -3.461,0 -6.481,1.125 -8.836,3.25 l 0.004,0.004 c 2.355,-2.125 5.379,-3.254 8.84,-3.254 0.3,0 0.605,0.008 0.914,0.023 -0.313,-0.015 -0.622,-0.023 -0.922,-0.023 m 0.004,1.465 c -3.461,-0.004 -6.481,1.125 -8.836,3.25 v 0 0.003 l 123.886,123.887 41.305,-41.312 v 0 L 225.137,176.207 c -4.016,-2.277 -7.821,-3.355 -11.203,-3.355 m -8.871,1.812 c -0.219,0.199 -0.434,0.41 -0.645,0.629 l 0.645,-0.629" /></clipPath><linearGradient
       id="linearGradient78"
       spreadMethod="pad"
       gradientTransform="matrix(-227.583,-227.583,227.583,-227.583,348.27,277.039)"
       gradientUnits="userSpaceOnUse"
       y2="0"
       x2="1"
       y1="0"
       x1="0"><stop
         id="stop74"
         offset="0"
         style="stop-opacity:1;stop-color:#ff3a44" /><stop
         id="stop76"
         offset="1"
         style="stop-opacity:1;stop-color:#c31162" /></linearGradient><clipPath
       id="clipPath88"
       clipPathUnits="userSpaceOnUse"><path
         id="path86"
         d="m 328.984,299.992 v 0 L 205.086,423.887 c 2.355,2.121 5.371,3.246 8.828,3.246 3.391,0 7.199,-1.082 11.223,-3.363 l 145.148,-82.473 -41.301,-41.305 m 42.235,42.238 -146.082,83 c -4.024,2.282 -7.832,3.364 -11.223,3.364 -0.016,0 -0.027,0 -0.043,0 0.02,0 0.035,0 0.059,0 3.383,0 7.187,-1.078 11.207,-3.36 L 371.219,342.23 M 213.84,428.594 v 0 0" /></clipPath><linearGradient
       id="linearGradient100"
       spreadMethod="pad"
       gradientTransform="matrix(101.625,-101.625,101.625,101.625,172.973,498.238)"
       gradientUnits="userSpaceOnUse"
       y2="0"
       x2="1"
       y1="0"
       x1="0"><stop
         id="stop90"
         offset="0"
         style="stop-opacity:1;stop-color:#32a071" /><stop
         id="stop92"
         offset="0.0685"
         style="stop-opacity:1;stop-color:#2da771" /><stop
         id="stop94"
         offset="0.4762"
         style="stop-opacity:1;stop-color:#15cf74" /><stop
         id="stop96"
         offset="0.8009"
         style="stop-opacity:1;stop-color:#06e775" /><stop
         id="stop98"
         offset="1"
         style="stop-opacity:1;stop-color:#00f076" /></linearGradient><clipPath
       id="clipPath112"
       clipPathUnits="userSpaceOnUse"><path
         id="path110"
         d="m 370.277,257.215 v 0 l 0.942,0.535 -0.942,-0.535" /></clipPath><linearGradient
       id="linearGradient122"
       spreadMethod="pad"
       gradientTransform="matrix(-241.97,0,0,-241.97,438.344,299.986)"
       gradientUnits="userSpaceOnUse"
       y2="0"
       x2="1"
       y1="0"
       x1="0"><stop
         id="stop114"
         offset="0"
         style="stop-opacity:1;stop-color:#ccb300" /><stop
         id="stop116"
         offset="0.4087"
         style="stop-opacity:1;stop-color:#cc9700" /><stop
         id="stop118"
         offset="0.7754"
         style="stop-opacity:1;stop-color:#cc8400" /><stop
         id="stop120"
         offset="1"
         style="stop-opacity:1;stop-color:#cc7d00" /></linearGradient><clipPath
       id="clipPath132"
       clipPathUnits="userSpaceOnUse"><path
         id="path130"
         d="m 213.938,171.387 c -3.461,0 -6.485,1.129 -8.84,3.254 l -0.004,-0.004 c -0.008,0.008 -0.02,0.019 -0.031,0.027 l -0.645,0.629 c -0.02,0.02 -0.039,0.043 -0.063,0.066 l 0.743,0.743 c 2.355,-2.125 5.375,-3.254 8.836,-3.25 3.382,0 7.187,1.078 11.203,3.355 l 145.152,82.473 0.93,-0.93 -0.942,-0.535 -145.14,-82.469 c -3.66,-2.074 -7.141,-3.156 -10.285,-3.336 -0.309,-0.015 -0.614,-0.023 -0.914,-0.023" /></clipPath><linearGradient
       id="linearGradient138"
       spreadMethod="pad"
       gradientTransform="matrix(-227.583,-227.583,227.583,-227.583,348.27,277.039)"
       gradientUnits="userSpaceOnUse"
       y2="0"
       x2="1"
       y1="0"
       x1="0"><stop
         id="stop134"
         offset="0"
         style="stop-opacity:1;stop-color:#cc2e36" /><stop
         id="stop136"
         offset="1"
         style="stop-opacity:1;stop-color:#9c0e4e" /></linearGradient><clipPath
       id="clipPath150"
       clipPathUnits="userSpaceOnUse"><path
         id="path148"
         d="m 204.355,175.359 v 0 c -2.91,3.079 -4.628,7.856 -4.628,14.051 v 1.457 c 0,-6.191 1.718,-10.972 4.628,-14.051 l 0.743,-0.711 -0.743,-0.746" /></clipPath><linearGradient
       id="linearGradient164"
       spreadMethod="pad"
       gradientTransform="matrix(-167.825,-167.825,167.825,-167.825,317.998,412.903)"
       gradientUnits="userSpaceOnUse"
       y2="0"
       x2="1"
       y1="0"
       x1="0"><stop
         id="stop152"
         offset="0"
         style="stop-opacity:1;stop-color:#008de0" /><stop
         id="stop154"
         offset="0.00657445"
         style="stop-opacity:1;stop-color:#008de0" /><stop
         id="stop156"
         offset="0.2601"
         style="stop-opacity:1;stop-color:#00a7e0" /><stop
         id="stop158"
         offset="0.5122"
         style="stop-opacity:1;stop-color:#00b8e0" /><stop
         id="stop160"
         offset="0.7604"
         style="stop-opacity:1;stop-color:#00c4e0" /><stop
         id="stop162"
         offset="1"
         style="stop-opacity:1;stop-color:#00c7e0" /></linearGradient><clipPath
       id="clipPath174"
       clipPathUnits="userSpaceOnUse"><path
         id="path172"
         d="m 204.355,175.359 v 0 0 l 0.743,0.746 v -0.003 l -0.743,-0.743" /></clipPath><linearGradient
       id="linearGradient180"
       spreadMethod="pad"
       gradientTransform="matrix(-227.583,-227.583,227.583,-227.583,348.27,277.039)"
       gradientUnits="userSpaceOnUse"
       y2="0"
       x2="1"
       y1="0"
       x1="0"><stop
         id="stop176"
         offset="0"
         style="stop-opacity:1;stop-color:#e0333c" /><stop
         id="stop178"
         offset="1"
         style="stop-opacity:1;stop-color:#ab0f56" /></linearGradient><clipPath
       id="clipPath192"
       clipPathUnits="userSpaceOnUse"><path
         id="path190"
         d="m 371.219,257.75 v 0 l -0.93,0.93 49.859,28.332 c 6.332,3.597 9.887,8.238 10.481,12.965 0,-1.735 -0.387,-3.469 -1.156,-5.157 -1.551,-3.402 -4.66,-6.617 -9.325,-9.269 L 371.219,257.75" /></clipPath><linearGradient
       id="linearGradient202"
       spreadMethod="pad"
       gradientTransform="matrix(-241.97,0,0,-241.97,438.344,299.986)"
       gradientUnits="userSpaceOnUse"
       y2="0"
       x2="1"
       y1="0"
       x1="0"><stop
         id="stop194"
         offset="0"
         style="stop-opacity:1;stop-color:#e0c500" /><stop
         id="stop196"
         offset="0.4087"
         style="stop-opacity:1;stop-color:#e0a600" /><stop
         id="stop198"
         offset="0.7754"
         style="stop-opacity:1;stop-color:#e09100" /><stop
         id="stop200"
         offset="1"
         style="stop-opacity:1;stop-color:#e08900" /></linearGradient><clipPath
       id="clipPath214"
       clipPathUnits="userSpaceOnUse"><path
         id="path212"
         d="m 430.629,299.996 c -0.594,4.738 -4.149,9.375 -10.481,12.973 l -49.863,28.328 0.93,0.93 h 0.004 l 48.929,-27.801 c 6.981,-3.969 10.477,-9.199 10.481,-14.43" /></clipPath><linearGradient
       id="linearGradient224"
       spreadMethod="pad"
       gradientTransform="matrix(-241.97,0,0,-241.97,438.344,299.986)"
       gradientUnits="userSpaceOnUse"
       y2="0"
       x2="1"
       y1="0"
       x1="0"><stop
         id="stop216"
         offset="0"
         style="stop-opacity:1;stop-color:#ffe840" /><stop
         id="stop218"
         offset="0.4087"
         style="stop-opacity:1;stop-color:#ffce40" /><stop
         id="stop220"
         offset="0.7754"
         style="stop-opacity:1;stop-color:#ffbc40" /><stop
         id="stop222"
         offset="1"
         style="stop-opacity:1;stop-color:#ffb540" /></linearGradient><clipPath
       id="clipPath236"
       clipPathUnits="userSpaceOnUse"><path
         id="path234"
         d="m 199.727,409.105 v 1.461 c 0,0.02 0,0.036 0,0.055 0,0.004 0,0.008 0,0.012 0,0.551 0.015,1.09 0.043,1.613 0,0.008 0,0.016 0,0.024 0,0.007 0,0.015 0.003,0.023 0,0.016 0,0.031 0,0.047 0,0.004 0,0.008 0,0.012 0.301,5.332 1.957,9.492 4.582,12.269 v 0 0 l 0.731,-0.734 c -3.356,-3.028 -5.359,-8.078 -5.359,-14.782 m 5.339,16.215 0.028,0.028 c -0.008,-0.012 -0.02,-0.02 -0.028,-0.028" /></clipPath><linearGradient
       id="linearGradient250"
       spreadMethod="pad"
       gradientTransform="matrix(-167.825,-167.825,167.825,-167.825,317.998,412.903)"
       gradientUnits="userSpaceOnUse"
       y2="0"
       x2="1"
       y1="0"
       x1="0"><stop
         id="stop238"
         offset="0"
         style="stop-opacity:1;stop-color:#40b8ff" /><stop
         id="stop240"
         offset="0.00657445"
         style="stop-opacity:1;stop-color:#40b9ff" /><stop
         id="stop242"
         offset="0.2601"
         style="stop-opacity:1;stop-color:#40ceff" /><stop
         id="stop244"
         offset="0.5122"
         style="stop-opacity:1;stop-color:#40ddff" /><stop
         id="stop246"
         offset="0.7604"
         style="stop-opacity:1;stop-color:#40e7ff" /><stop
         id="stop248"
         offset="1"
         style="stop-opacity:1;stop-color:#40eaff" /></linearGradient><clipPath
       id="clipPath262"
       clipPathUnits="userSpaceOnUse"><path
         id="path260"
         d="M 370.285,341.297 225.137,423.77 c -4.024,2.281 -7.832,3.363 -11.223,3.363 -3.457,0 -6.473,-1.125 -8.828,-3.246 l -0.731,0.734 v 0 c 0.231,0.242 0.465,0.477 0.711,0.699 0.008,0.008 0.02,0.016 0.028,0.024 2.336,2.105 5.32,3.23 8.746,3.25 v 0 c 0.008,0 0.019,0 0.031,0 0.016,0 0.027,0 0.043,0 3.391,0 7.199,-1.082 11.223,-3.364 l 146.082,-83 -0.004,-0.003 -0.93,-0.93" /></clipPath><linearGradient
       id="linearGradient274"
       spreadMethod="pad"
       gradientTransform="matrix(101.625,-101.625,101.625,101.625,172.973,498.238)"
       gradientUnits="userSpaceOnUse"
       y2="0"
       x2="1"
       y1="0"
       x1="0"><stop
         id="stop264"
         offset="0"
         style="stop-opacity:1;stop-color:#65b895" /><stop
         id="stop266"
         offset="0.0685"
         style="stop-opacity:1;stop-color:#62bd95" /><stop
         id="stop268"
         offset="0.4762"
         style="stop-opacity:1;stop-color:#50db97" /><stop
         id="stop270"
         offset="0.8009"
         style="stop-opacity:1;stop-color:#44ed98" /><stop
         id="stop272"
         offset="1"
         style="stop-opacity:1;stop-color:#40f498" /></linearGradient></defs><g
     transform="matrix(1.3333333,0,0,-1.3333333,0,80)"
     id="g10"><g
       transform="scale(0.1)"
       id="g12"><path
         id="path14"
         style="fill:#ffffff;fill-opacity:1;fill-rule:nonzero;stroke:none"
         d="M 1550,0 H 0 V 600 H 1550 V 0 M 100,150 v 0 c 0,-27.5 22.5,-50 50,-50 h 1250 c 27.5,0 50,22.5 50,50 v 300 0 0 c 0,27.5 -22.5,50 -50,50 H 150 c -27.5,0 -50,-22.5 -50,-50 v -300 0" /><path
         id="path16"
         style="fill:#000000;fill-opacity:1;fill-rule:nonzero;stroke:none"
         d="M 1400,100 H 150 c -27.5,0 -50,22.5 -50,50 v 300 c 0,27.5 22.5,50 50,50 h 1250 c 27.5,0 50,-22.5 50,-50 V 150 c 0,-27.5 -22.5,-50 -50,-50" /><path
         id="path18"
         style="fill:#a6a6a6;fill-opacity:1;fill-rule:nonzero;stroke:none"
         d="M 1400,500 H 150 c -27.5,0 -50,-22.5 -50,-50 V 150 c 0,-27.5 22.5,-50 50,-50 h 1250 c 27.5,0 50,22.5 50,50 v 300 c 0,27.5 -22.5,50 -50,50 m 0,-8 c 23.16,0 42,-18.844 42,-42 V 150 c 0,-23.16 -18.84,-42.004 -42,-42.004 H 150 c -23.156,0 -42,18.844 -42,42.004 v 300 c 0,23.156 18.844,42 42,42 h 1250" /><path
         id="path20"
         style="fill:#ffffff;fill-opacity:1;fill-rule:nonzero;stroke:none"
         d="m 1169.36,200 h 18.66 v 125.012 h -18.66 z m 168.07,79.98 -21.39,-54.199 h -0.64 l -22.2,54.199 h -20.1 l 33.29,-75.753 -18.98,-42.137 h 19.47 l 51.3,117.89 z m -105.82,-65.781 c -6.12,0 -14.64,3.055 -14.64,10.617 0,9.649 10.62,13.348 19.78,13.348 8.21,0 12.06,-1.769 17.05,-4.184 -1.45,-11.578 -11.42,-19.781 -22.19,-19.781 z m 2.25,68.516 c -13.51,0 -27.5,-5.953 -33.29,-19.141 l 16.56,-6.914 c 3.54,6.914 10.13,9.168 17.05,9.168 9.65,0 19.46,-5.793 19.62,-16.086 v -1.285 c -3.38,1.93 -10.61,4.824 -19.46,4.824 -17.85,0 -36.03,-9.808 -36.03,-28.144 0,-16.727 14.64,-27.504 31.04,-27.504 12.55,0 19.46,5.629 23.81,12.222 h 0.64 v -9.648 h 18.01 v 47.93 c 0,22.191 -16.56,34.578 -37.95,34.578 z M 1118.54,264.762 H 1092 v 42.851 h 26.54 c 13.95,0 21.87,-11.55 21.87,-21.425 0,-9.688 -7.92,-21.426 -21.87,-21.426 z m -0.48,60.25 h -44.71 V 200 H 1092 v 47.363 h 26.06 c 20.68,0 41.01,14.973 41.01,38.825 0,23.851 -20.33,38.824 -41.01,38.824 z M 874.25,214.176 c -12.891,0 -23.684,10.793 -23.684,25.617 0,14.98 10.793,25.937 23.684,25.937 12.727,0 22.715,-10.957 22.715,-25.937 0,-14.824 -9.988,-25.617 -22.715,-25.617 z m 21.426,58.804 h -0.645 c -4.187,4.993 -12.246,9.504 -22.394,9.504 -21.266,0 -40.758,-18.687 -40.758,-42.691 0,-23.844 19.492,-42.371 40.758,-42.371 10.148,0 18.207,4.512 22.394,9.664 h 0.645 v -6.121 c 0,-16.274 -8.699,-24.973 -22.715,-24.973 -11.438,0 -18.527,8.219 -21.43,15.145 l -16.269,-6.766 c 4.672,-11.277 17.078,-25.133 37.699,-25.133 21.91,0 40.437,12.891 40.437,44.305 v 76.363 H 895.676 Z M 926.285,200 h 18.688 v 125.016 h -18.688 z m 46.238,41.242 c -0.484,16.434 12.727,24.809 22.231,24.809 7.416,0 13.696,-3.703 15.786,-9.024 z m 57.997,14.176 c -3.54,9.508 -14.34,27.066 -36.411,27.066 -21.91,0 -40.113,-17.238 -40.113,-42.531 0,-23.844 18.043,-42.531 42.207,-42.531 19.497,0 30.777,11.922 35.447,18.848 l -14.5,9.668 c -4.83,-7.09 -11.44,-11.762 -20.947,-11.762 -9.504,0 -16.269,4.351 -20.621,12.887 l 56.868,23.523 z m -453.082,14.016 v -18.043 h 43.175 c -1.289,-10.149 -4.672,-17.559 -9.828,-22.715 -6.281,-6.285 -16.109,-13.211 -33.347,-13.211 -26.583,0 -47.364,21.426 -47.364,48.008 0,26.582 20.781,48.011 47.364,48.011 14.339,0 24.808,-5.64 32.542,-12.89 l 12.727,12.726 c -10.793,10.313 -25.133,18.207 -45.269,18.207 -36.411,0 -67.02,-29.644 -67.02,-66.054 0,-36.41 30.609,-66.051 67.02,-66.051 19.656,0 34.476,6.441 46.074,18.527 11.922,11.922 15.629,28.676 15.629,42.207 0,4.192 -0.321,8.055 -0.969,11.278 z m 110.789,-55.258 c -12.891,0 -24.008,10.633 -24.008,25.777 0,15.305 11.117,25.777 24.008,25.777 12.886,0 24.003,-10.472 24.003,-25.777 0,-15.144 -11.117,-25.777 -24.003,-25.777 z m 0,68.308 c -23.524,0 -42.696,-17.882 -42.696,-42.531 0,-24.488 19.172,-42.531 42.696,-42.531 23.519,0 42.691,18.043 42.691,42.531 0,24.649 -19.172,42.531 -42.691,42.531 z m 93.132,-68.308 c -12.886,0 -24.004,10.633 -24.004,25.777 0,15.305 11.118,25.777 24.004,25.777 12.887,0 24.004,-10.472 24.004,-25.777 0,-15.144 -11.117,-25.777 -24.004,-25.777 z m 0,68.308 c -23.523,0 -42.691,-17.882 -42.691,-42.531 0,-24.488 19.168,-42.531 42.691,-42.531 23.52,0 42.692,18.043 42.692,42.531 0,24.649 -19.172,42.531 -42.692,42.531" /><g
         id="g22"><g
           clip-path="url(#clipPath28)"
           id="g24"><path
             id="path44"
             style="fill:url(#linearGradient42);fill-opacity:1;fill-rule:nonzero;stroke:none"
             d="m 205.098,176.105 -0.743,0.711 c -2.91,3.079 -4.628,7.86 -4.628,14.051 v -1.457 0 221.16 c 0,0.02 0,0.035 0,0.051 0,-0.019 0,-0.035 0,-0.055 v -1.461 c 0,6.704 2.003,11.754 5.359,14.782 L 328.984,299.992 205.098,176.105 m -5.371,234.528 c 0,0.551 0.015,1.086 0.043,1.613 -0.028,-0.523 -0.043,-1.062 -0.043,-1.613 m 0.043,1.637 c 0,0.007 0,0.015 0.003,0.023 -0.003,-0.008 -0.003,-0.016 -0.003,-0.023 m 0.003,0.07 c 0,0.004 0,0.008 0,0.012 0,-0.004 0,-0.008 0,-0.012" /></g></g><g
         id="g46"><g
           clip-path="url(#clipPath52)"
           id="g48"><path
             id="path64"
             style="fill:url(#linearGradient62);fill-opacity:1;fill-rule:nonzero;stroke:none"
             d="m 370.277,257.215 v 0 l 0.942,0.535 48.929,27.801 c 4.665,2.652 7.774,5.867 9.325,9.269 -1.547,-3.402 -4.657,-6.621 -9.325,-9.273 l -48.929,-27.801 -0.942,-0.531 m 0.012,1.465 -41.305,41.312 41.301,41.305 49.863,-28.328 c 6.332,-3.598 9.887,-8.235 10.481,-12.973 0,-0.004 0,-0.012 0,-0.019 -0.594,-4.727 -4.149,-9.368 -10.481,-12.965 L 370.289,258.68" /></g></g><g
         id="g66"><g
           clip-path="url(#clipPath72)"
           id="g68"><path
             id="path80"
             style="fill:url(#linearGradient78);fill-opacity:1;fill-rule:nonzero;stroke:none"
             d="m 213.93,171.387 c -3.461,0 -6.481,1.125 -8.836,3.25 l 0.004,0.004 c 2.355,-2.125 5.379,-3.254 8.84,-3.254 0.3,0 0.605,0.008 0.914,0.023 -0.313,-0.015 -0.622,-0.023 -0.922,-0.023 m 0.004,1.465 c -3.461,-0.004 -6.481,1.125 -8.836,3.25 v 0 0.003 l 123.886,123.887 41.305,-41.312 v 0 L 225.137,176.207 c -4.016,-2.277 -7.821,-3.355 -11.203,-3.355 m -8.871,1.812 c -0.219,0.199 -0.434,0.41 -0.645,0.629 l 0.645,-0.629" /></g></g><g
         id="g82"><g
           clip-path="url(#clipPath88)"
           id="g84"><path
             id="path102"
             style="fill:url(#linearGradient100);fill-opacity:1;fill-rule:nonzero;stroke:none"
             d="m 328.984,299.992 v 0 L 205.086,423.887 c 2.355,2.121 5.371,3.246 8.828,3.246 3.391,0 7.199,-1.082 11.223,-3.363 l 145.148,-82.473 -41.301,-41.305 m 42.235,42.238 -146.082,83 c -4.024,2.282 -7.832,3.364 -11.223,3.364 -0.016,0 -0.027,0 -0.043,0 0.02,0 0.035,0 0.059,0 3.383,0 7.187,-1.078 11.207,-3.36 L 371.219,342.23 M 213.84,428.594 v 0 0" /></g></g><path
         id="path104"
         style="fill:#000000;fill-opacity:1;fill-rule:nonzero;stroke:none"
         d="m 214.852,171.41 c 3.144,0.18 6.625,1.262 10.285,3.336 l 145.14,82.469 v 0 l -145.14,-82.469 c -3.657,-2.078 -7.141,-3.156 -10.285,-3.336 m -9.758,3.227 -0.031,0.027 c 0.011,-0.008 0.023,-0.019 0.031,-0.027 v 0 m -0.676,0.656 -0.063,0.062 v 0.004 c 0.024,-0.023 0.043,-0.046 0.063,-0.066" /><g
         id="g106"><g
           clip-path="url(#clipPath112)"
           id="g108"><path
             id="path124"
             style="fill:url(#linearGradient122);fill-opacity:1;fill-rule:nonzero;stroke:none"
             d="m 370.277,257.215 v 0 l 0.942,0.535 -0.942,-0.535" /></g></g><g
         id="g126"><g
           clip-path="url(#clipPath132)"
           id="g128"><path
             id="path140"
             style="fill:url(#linearGradient138);fill-opacity:1;fill-rule:nonzero;stroke:none"
             d="m 213.938,171.387 c -3.461,0 -6.485,1.129 -8.84,3.254 l -0.004,-0.004 c -0.008,0.008 -0.02,0.019 -0.031,0.027 l -0.645,0.629 c -0.02,0.02 -0.039,0.043 -0.063,0.066 l 0.743,0.743 c 2.355,-2.125 5.375,-3.254 8.836,-3.25 3.382,0 7.187,1.078 11.203,3.355 l 145.152,82.473 0.93,-0.93 -0.942,-0.535 -145.14,-82.469 c -3.66,-2.074 -7.141,-3.156 -10.285,-3.336 -0.309,-0.015 -0.614,-0.023 -0.914,-0.023" /></g></g><path
         id="path142"
         style="fill:#000000;fill-opacity:1;fill-rule:nonzero;stroke:none"
         d="m 204.355,175.355 c -2.91,3.079 -4.628,7.86 -4.628,14.051 v 0.004 c 0,-6.195 1.718,-10.972 4.628,-14.051 v 0 0 -0.004" /><g
         id="g144"><g
           clip-path="url(#clipPath150)"
           id="g146"><path
             id="path166"
             style="fill:url(#linearGradient164);fill-opacity:1;fill-rule:nonzero;stroke:none"
             d="m 204.355,175.359 v 0 c -2.91,3.079 -4.628,7.856 -4.628,14.051 v 1.457 c 0,-6.191 1.718,-10.972 4.628,-14.051 l 0.743,-0.711 -0.743,-0.746" /></g></g><g
         id="g168"><g
           clip-path="url(#clipPath174)"
           id="g170"><path
             id="path182"
             style="fill:url(#linearGradient180);fill-opacity:1;fill-rule:nonzero;stroke:none"
             d="m 204.355,175.359 v 0 0 l 0.743,0.746 v -0.003 l -0.743,-0.743" /></g></g><path
         id="path184"
         style="fill:#000000;fill-opacity:1;fill-rule:nonzero;stroke:none"
         d="m 429.473,294.82 c 0.769,1.688 1.156,3.422 1.156,5.157 0,0.003 0,0.007 0,0.007 0,-1.738 -0.387,-3.472 -1.156,-5.164" /><g
         id="g186"><g
           clip-path="url(#clipPath192)"
           id="g188"><path
             id="path204"
             style="fill:url(#linearGradient202);fill-opacity:1;fill-rule:nonzero;stroke:none"
             d="m 371.219,257.75 v 0 l -0.93,0.93 49.859,28.332 c 6.332,3.597 9.887,8.238 10.481,12.965 0,-1.735 -0.387,-3.469 -1.156,-5.157 -1.551,-3.402 -4.66,-6.617 -9.325,-9.269 L 371.219,257.75" /></g></g><path
         id="path206"
         style="fill:#404040;fill-opacity:1;fill-rule:nonzero;stroke:none"
         d="m 430.629,299.992 v 0.004 c -0.004,5.231 -3.5,10.461 -10.481,14.43 l -48.929,27.801 h -0.004 l 0.004,0.003 48.929,-27.8 c 6.989,-3.969 10.489,-9.207 10.481,-14.438" /><g
         id="g208"><g
           clip-path="url(#clipPath214)"
           id="g210"><path
             id="path226"
             style="fill:url(#linearGradient224);fill-opacity:1;fill-rule:nonzero;stroke:none"
             d="m 430.629,299.996 c -0.594,4.738 -4.149,9.375 -10.481,12.973 l -49.863,28.328 0.93,0.93 h 0.004 l 48.929,-27.801 c 6.981,-3.969 10.477,-9.199 10.481,-14.43" /></g></g><path
         id="path228"
         style="fill:#404040;fill-opacity:1;fill-rule:nonzero;stroke:none"
         d="m 199.727,410.621 c 0,0.004 0,0.008 0,0.012 0,-0.004 0,-0.008 0,-0.012 m 0.043,1.625 c 0,0.008 0,0.016 0,0.024 0,-0.008 0,-0.016 0,-0.024 m 0.003,0.047 c 0,0.016 0,0.031 0,0.047 0,-0.016 0,-0.031 0,-0.047 m 0,0.059 c 0.579,10.273 6.165,16.207 14.067,16.242 -3.426,-0.02 -6.41,-1.145 -8.746,-3.25 v 0.004 l -0.028,-0.028 c -0.246,-0.222 -0.48,-0.457 -0.711,-0.699 v 0 c -2.625,-2.777 -4.281,-6.937 -4.582,-12.269" /><g
         id="g230"><g
           clip-path="url(#clipPath236)"
           id="g232"><path
             id="path252"
             style="fill:url(#linearGradient250);fill-opacity:1;fill-rule:nonzero;stroke:none"
             d="m 199.727,409.105 v 1.461 c 0,0.02 0,0.036 0,0.055 0,0.004 0,0.008 0,0.012 0,0.551 0.015,1.09 0.043,1.613 0,0.008 0,0.016 0,0.024 0,0.007 0,0.015 0.003,0.023 0,0.016 0,0.031 0,0.047 0,0.004 0,0.008 0,0.012 0.301,5.332 1.957,9.492 4.582,12.269 v 0 0 l 0.731,-0.734 c -3.356,-3.028 -5.359,-8.078 -5.359,-14.782 m 5.339,16.215 0.028,0.028 c -0.008,-0.012 -0.02,-0.02 -0.028,-0.028" /></g></g><path
         id="path254"
         style="fill:#404040;fill-opacity:1;fill-rule:nonzero;stroke:none"
         d="m 213.84,428.594 c 0.008,0 0.019,0 0.031,0 -0.012,0 -0.023,0 -0.031,0" /><g
         id="g256"><g
           clip-path="url(#clipPath262)"
           id="g258"><path
             id="path276"
             style="fill:url(#linearGradient274);fill-opacity:1;fill-rule:nonzero;stroke:none"
             d="M 370.285,341.297 225.137,423.77 c -4.024,2.281 -7.832,3.363 -11.223,3.363 -3.457,0 -6.473,-1.125 -8.828,-3.246 l -0.731,0.734 v 0 c 0.231,0.242 0.465,0.477 0.711,0.699 0.008,0.008 0.02,0.016 0.028,0.024 2.336,2.105 5.32,3.23 8.746,3.25 v 0 c 0.008,0 0.019,0 0.031,0 0.016,0 0.027,0 0.043,0 3.391,0 7.199,-1.082 11.223,-3.364 l 146.082,-83 -0.004,-0.003 -0.93,-0.93" /></g></g><path
         id="path278"
         style="fill:#ffffff;fill-opacity:1;fill-rule:nonzero;stroke:none"
         d="m 533.176,368.34 c -4.035,0 -7.942,1.262 -11.731,3.765 -3.789,2.504 -6.418,6.239 -7.871,11.196 l 7.344,3.066 c 0.937,-3.269 2.48,-5.804 4.641,-7.613 2.156,-1.813 4.695,-2.715 7.617,-2.715 3.262,0 6.07,1.024 8.433,3.063 2.368,2.043 3.547,4.582 3.547,7.617 0,2.972 -1.211,5.476 -3.633,7.519 -2.421,2.039 -5.324,3.067 -8.703,3.067 h -5.164 v 7.523 h 4.551 c 3.152,0 5.762,0.875 7.832,2.621 2.07,1.754 3.106,4.082 3.106,7.004 0,2.742 -1.004,4.902 -3.016,6.477 -2.016,1.574 -4.516,2.363 -7.484,2.363 -5.133,0 -8.602,-2.602 -10.411,-7.789 l -7.437,3.148 c 1.16,3.207 3.238,6.067 6.211,8.575 2.976,2.507 6.851,3.765 11.637,3.765 5.363,0 9.828,-1.562 13.39,-4.683 3.555,-3.121 5.332,-7.071 5.332,-11.856 0,-5.769 -2.683,-10.058 -8.047,-12.859 v -0.356 c 2.918,-1.218 5.325,-3.09 7.215,-5.593 1.899,-2.508 2.844,-5.489 2.844,-8.926 0,-5.313 -1.953,-9.703 -5.859,-13.172 -3.907,-3.469 -8.692,-5.207 -14.344,-5.207" /><path
         id="path280"
         style="fill:#ffffff;fill-opacity:1;fill-rule:nonzero;stroke:none"
         d="m 533.176,368.34 v 1 c -3.824,0.004 -7.524,1.183 -11.18,3.598 -3.578,2.371 -6.055,5.867 -7.461,10.644 l -0.961,-0.281 0.387,-0.922 7.344,3.066 -0.387,0.922 -0.961,-0.273 c 0.977,-3.418 2.621,-6.153 4.957,-8.106 l 0.008,-0.008 -0.008,0.008 c 2.324,-1.961 5.137,-2.953 8.262,-2.949 3.469,-0.008 6.554,1.109 9.09,3.305 2.558,2.191 3.906,5.074 3.89,8.375 0.016,3.25 -1.375,6.101 -3.988,8.285 -2.594,2.191 -5.766,3.309 -9.348,3.301 h -4.164 v 5.523 h 3.551 c 3.336,-0.004 6.215,0.942 8.477,2.86 v 0 c 2.293,1.921 3.476,4.613 3.461,7.765 0.015,2.985 -1.153,5.524 -3.403,7.262 v 0 c -2.199,1.73 -4.953,2.582 -8.097,2.578 -5.493,0.055 -9.508,-2.98 -11.352,-8.461 l 0.941,-0.328 0.391,0.922 -7.441,3.148 -0.387,-0.922 0.937,-0.339 c 1.098,3.023 3.059,5.73 5.918,8.152 l -0.004,-0.004 c 2.778,2.332 6.383,3.523 10.997,3.531 5.171,-0.008 9.355,-1.488 12.73,-4.437 v 0.004 c 3.355,-2.965 4.977,-6.571 4.992,-11.106 -0.035,-5.449 -2.414,-9.269 -7.512,-11.976 l -0.535,-0.282 v -0.957 -0.664 l 0.614,-0.258 c 2.765,-1.156 5.011,-2.906 6.804,-5.273 1.758,-2.336 2.637,-5.066 2.641,-8.324 -0.016,-5.067 -1.816,-9.114 -5.524,-12.426 -3.726,-3.301 -8.23,-4.945 -13.679,-4.953 v -1 -1 c 5.855,-0.008 10.926,1.824 15.008,5.457 4.105,3.633 6.207,8.363 6.195,13.922 0.004,3.621 -1.012,6.844 -3.043,9.527 -1.996,2.641 -4.555,4.633 -7.629,5.918 l -0.387,-0.926 h 1 v 0.356 h -1 l 0.465,-0.887 c 5.625,2.898 8.617,7.652 8.582,13.746 0.016,5.031 -1.918,9.328 -5.672,12.606 l -0.015,0.011 0.015,-0.007 c -3.754,3.289 -8.496,4.933 -14.05,4.929 -4.954,0.004 -9.098,-1.312 -12.286,-4 v -0.004 c -3.078,-2.597 -5.277,-5.605 -6.504,-8.996 l -0.324,-0.89 8.317,-3.52 0.98,-0.418 0.352,1.012 c 1.769,4.898 4.687,7.058 9.465,7.113 2.796,-0.004 5.046,-0.726 6.867,-2.148 v 0 c 1.773,-1.407 2.617,-3.184 2.633,-5.688 -0.016,-2.687 -0.903,-4.656 -2.75,-6.238 v 0 c -1.879,-1.578 -4.215,-2.379 -7.188,-2.387 h -4.551 -1 v -8.523 -1 h 6.164 c 3.18,-0.008 5.809,-0.946 8.059,-2.832 2.23,-1.899 3.262,-4.059 3.277,-6.754 -0.015,-2.774 -1.031,-4.969 -3.199,-6.86 -2.191,-1.886 -4.73,-2.812 -7.781,-2.82 -2.715,0.008 -4.985,0.82 -6.977,2.481 v 0.003 c -1.98,1.661 -3.422,3.993 -4.32,7.122 l -0.309,1.078 -8.382,-3.5 -0.825,-0.344 0.25,-0.859 c 1.504,-5.137 4.282,-9.11 8.282,-11.75 3.921,-2.594 8.035,-3.934 12.281,-3.93 v 1" /><path
         id="path282"
         style="fill:#ffffff;fill-opacity:1;fill-rule:nonzero;stroke:none"
         d="m 576.133,394.238 h 20.832 l -10.235,28.266 h -0.351 z m -17.754,-24.496 23.625,62.653 h 9.101 l 23.622,-62.653 h -8.926 l -6.035,16.977 H 573.43 l -6.133,-16.977 h -8.918" /><path
         id="path284"
         style="fill:#ffffff;fill-opacity:1;fill-rule:nonzero;stroke:none"
         d="m 576.133,394.238 v -1 h 22.258 l -10.961,30.266 h -1.051 -0.703 l -10.969,-30.266 h 1.426 v 1 l 0.941,-0.34 10.242,28.266 -0.937,0.34 v -1 h 0.351 v 1 l -0.941,-0.34 9.746,-26.926 h -19.402 v -1 l 0.941,-0.34 z m -17.754,-24.496 0.937,-0.355 23.379,62.008 h 7.715 l 22.871,-60.653 h -6.773 l -6.035,16.977 h -27.746 l -6.133,-16.977 h -8.215 v -1 l 0.937,-0.355 -0.937,0.355 v -1 h 8.918 0.699 l 6.133,16.977 h 24.93 l 6.035,-16.977 h 9.633 1.445 l -24.375,64.653 h -9.793 -0.695 l -24.375,-64.653 h 1.445 v 1" /><path
         id="path286"
         style="fill:#ffffff;fill-opacity:1;fill-rule:nonzero;stroke:none"
         d="m 630.852,377.441 h 16.191 c 3.094,0 5.594,1.079 7.527,3.239 1.922,2.156 2.879,4.515 2.879,7.086 0,2.566 -0.984,4.914 -2.969,7.043 -1.98,2.129 -4.578,3.195 -7.792,3.195 h -15.836 z m 0,28.086 h 14.617 c 3.027,0 5.469,1.004 7.304,3.02 1.836,2.012 2.754,4.219 2.754,6.609 0,2.387 -0.886,4.574 -2.668,6.563 -1.773,1.98 -4.129,2.972 -7.039,2.972 h -14.968 z m -8.047,-35.785 v 62.653 h 22.664 c 4.902,0 9.14,-1.625 12.722,-4.86 3.594,-3.238 5.383,-7.305 5.383,-12.203 0,-2.977 -0.769,-5.605 -2.312,-7.883 -1.543,-2.273 -3.606,-3.992 -6.172,-5.16 v -0.348 c 3.094,-1.05 5.633,-2.859 7.613,-5.425 1.985,-2.571 2.981,-5.539 2.981,-8.926 0,-5.129 -1.883,-9.391 -5.645,-12.777 -3.769,-3.375 -8.215,-5.071 -13.351,-5.071 h -23.883" /><path
         id="path288"
         style="fill:#ffffff;fill-opacity:1;fill-rule:nonzero;stroke:none"
         d="m 630.852,377.441 v -1 h 16.191 c 3.324,-0.011 6.168,1.204 8.273,3.571 v 0 c 2.059,2.301 3.141,4.929 3.133,7.754 0.008,2.828 -1.113,5.457 -3.234,7.726 -2.164,2.336 -5.098,3.524 -8.527,3.512 h -16.836 v -22.563 h 1 v 1 h 1 v 19.563 h 14.836 c 3,-0.012 5.261,-0.957 7.062,-2.875 1.844,-1.992 2.695,-4.059 2.699,-6.363 -0.004,-2.317 -0.836,-4.403 -2.625,-6.422 v 0.004 c -1.761,-1.953 -3.918,-2.895 -6.781,-2.907 h -16.191 v -1 h 1 z m 0,28.086 v -1 h 14.617 c 3.242,-0.011 6.023,1.118 8.043,3.344 1.972,2.149 3.023,4.633 3.015,7.285 0.008,2.641 -1.007,5.102 -2.922,7.231 v 0 c -1.957,2.199 -4.652,3.316 -7.785,3.304 h -15.968 v -21.164 h 1 v 1 h 1 v 18.164 h 13.968 c 2.688,-0.011 4.7,-0.875 6.297,-2.64 v 0 c 1.641,-1.844 2.403,-3.762 2.41,-5.895 -0.007,-2.129 -0.793,-4.062 -2.492,-5.937 -1.652,-1.793 -3.754,-2.68 -6.566,-2.692 h -14.617 v -1 h 1 z m -8.047,-35.785 h 1 v 61.653 h 21.664 c 4.683,-0.008 8.633,-1.524 12.054,-4.602 v 0 c 3.399,-3.078 5.04,-6.809 5.051,-11.461 -0.004,-2.809 -0.715,-5.211 -2.14,-7.32 -1.446,-2.125 -3.344,-3.711 -5.758,-4.813 l -0.586,-0.265 v -0.993 -0.714 l 0.676,-0.231 c 2.922,-1 5.277,-2.676 7.148,-5.094 1.848,-2.402 2.766,-5.121 2.77,-8.312 -0.012,-4.883 -1.75,-8.809 -5.313,-12.031 l -0.019,-0.016 0.019,0.016 c -3.605,-3.223 -7.766,-4.809 -12.683,-4.817 h -23.883 v -1 h 1 -1 v -1 h 23.883 c 5.359,-0.008 10.085,1.793 14.019,5.328 v 0 c 3.957,3.543 5.988,8.145 5.977,13.52 0.004,3.582 -1.071,6.801 -3.188,9.535 -2.094,2.719 -4.816,4.656 -8.086,5.766 l -0.32,-0.95 h 1 v 0.348 h -1 l 0.414,-0.91 c 2.719,1.234 4.941,3.086 6.582,5.512 1.664,2.441 2.492,5.293 2.488,8.441 0.012,5.141 -1.922,9.547 -5.711,12.945 v 0 c -3.746,3.395 -8.269,5.121 -13.394,5.118 h -23.664 v -64.653 h 1 v 1" /><path
         id="path290"
         style="fill:#ffffff;fill-opacity:1;fill-rule:nonzero;stroke:none"
         d="m 687.441,394.238 h 20.829 l -10.235,28.266 h -0.347 z m -17.753,-24.496 23.625,62.653 h 9.097 l 23.625,-62.653 h -8.926 l -6.035,16.977 h -26.34 l -6.129,-16.977 h -8.917" /><path
         id="path292"
         style="fill:#ffffff;fill-opacity:1;fill-rule:nonzero;stroke:none"
         d="m 687.441,394.238 v -1 h 22.254 l -10.957,30.266 h -1.05 -0.704 l -10.968,-30.266 h 1.425 v 1 l 0.942,-0.34 10.242,28.266 -0.937,0.34 v -1 h 0.347 v 1 l -0.937,-0.34 9.75,-26.926 h -19.407 v -1 l 0.942,-0.34 z m -17.753,-24.496 0.937,-0.355 23.379,62.008 h 7.715 l 22.871,-60.653 h -6.774 l -6.035,16.977 h -27.746 l -6.133,-16.977 h -8.214 v -1 l 0.937,-0.355 -0.937,0.355 v -1 h 8.917 0.7 l 6.133,16.977 h 24.929 l 6.035,-16.977 h 9.633 1.445 l -24.375,64.653 h -9.792 -0.696 l -24.375,-64.653 h 1.446 v 1" /><path
         id="path294"
         style="fill:#ffffff;fill-opacity:1;fill-rule:nonzero;stroke:none"
         d="m 734.121,369.742 v 62.653 h 8.047 v -26.868 h 31.328 v 26.868 h 8.047 v -62.653 h -8.047 v 28.262 h -31.328 v -28.262 h -8.047" /><path
         id="path296"
         style="fill:#ffffff;fill-opacity:1;fill-rule:nonzero;stroke:none"
         d="m 734.121,369.742 h 1 v 61.653 h 6.047 v -26.868 h 33.328 v 26.868 h 6.047 v -60.653 h -6.047 v 28.262 h -33.328 v -28.262 h -7.047 v -1 h 1 -1 v -1 h 8.047 1 v 28.262 h 29.328 v -28.262 h 9.047 1 v 64.653 h -9.047 -1 v -26.868 h -29.328 v 26.868 h -9.047 -1 v -64.653 h 1 v 1" /><path
         id="path298"
         style="fill:#ffffff;fill-opacity:1;fill-rule:nonzero;stroke:none"
         d="m 815.723,369.742 h -8.047 v 54.949 h -17.5 v 7.704 h 43.047 v -7.704 h -17.5 v -54.949" /><path
         id="path300"
         style="fill:#ffffff;fill-opacity:1;fill-rule:nonzero;stroke:none"
         d="m 815.723,369.742 v 1 h -7.047 v 54.949 h -17.5 v 5.704 h 41.047 v -5.704 h -17.5 v -55.949 h 1 v 1 -1 h 1 v 53.949 h 17.5 v 8.704 1 h -45.047 v -8.704 -1 h 17.5 v -54.949 h 9.047 1 v 1 h -1" /><path
         id="path302"
         style="fill:#ffffff;fill-opacity:1;fill-rule:nonzero;stroke:none"
         d="m 848.848,394.238 h 20.832 l -10.239,28.266 h -0.347 z m -17.754,-24.496 23.625,62.653 h 9.097 l 23.625,-62.653 h -8.925 l -6.036,16.977 h -26.335 l -6.133,-16.977 h -8.918" /><path
         id="path304"
         style="fill:#ffffff;fill-opacity:1;fill-rule:nonzero;stroke:none"
         d="m 848.848,394.238 v -1 h 22.254 l -10.957,30.266 h -1.051 -0.703 l -10.969,-30.266 h 1.426 v 1 l 0.941,-0.34 10.242,28.266 -0.937,0.34 v -1 h 0.347 v 1 l -0.937,-0.34 9.75,-26.926 h -19.406 v -1 l 0.941,-0.34 z m -17.754,-24.496 0.933,-0.355 23.379,62.008 h 7.723 l 22.867,-60.653 h -6.773 l -6.035,16.977 h -27.747 l -6.132,-16.977 h -8.215 v -1 l 0.933,-0.355 -0.933,0.355 v -1 h 8.918 0.699 l 6.133,16.977 h 24.929 l 6.036,-16.977 h 9.632 1.446 l -24.375,64.653 h -9.793 -0.696 l -24.375,-64.653 h 1.446 v 1" /><path
         id="path306"
         style="fill:#ffffff;fill-opacity:1;fill-rule:nonzero;stroke:none"
         d="m 935.52,398.441 v -28.699 h -8.047 v 28.699 h -0.356 l -24.324,-28.699 h -10.496 v 0.348 l 26.426,30.277 -25.383,31.676 v 0.352 h 9.805 l 23.972,-30.454 h 0.356 v 30.454 h 8.047 v -30.454 h 0.347 l 23.977,30.454 h 9.804 v -0.352 L 944.27,400.367 970.691,370.09 v -0.348 h -10.496 l -24.328,28.699 h -0.347" /><path
         id="path308"
         style="fill:#ffffff;fill-opacity:1;fill-rule:nonzero;stroke:none"
         d="m 935.52,398.441 h -1 v -27.699 h -6.047 v 28.699 h -1.356 -0.461 l -24.328,-28.699 h -10.031 v -1 h 1 v 0.348 h -1 l 0.75,-0.66 26.976,30.91 -25.683,32.051 v 0.004 h -1 v -1 h 9.32 l 23.973,-30.454 h 0.84 1 v 30.454 h 6.047 v -30.454 h 1.347 0.488 l 23.973,30.454 h 9.32 v 1 h -1 v -0.004 l -25.683,-32.051 26.976,-30.91 0.75,0.66 h -1 v -0.348 h 1 v 1 h -10.035 l -24.324,28.699 h -0.812 -1 v -1 h 1 v -1 h 0.347 v 1 l -0.762,-0.644 24.625,-29.055 h 10.961 1 v 1.348 0.375 l -26.121,29.93 25.078,31.296 v 0.704 1 h -10.804 -0.485 l -24.277,-30.832 0.785,-0.622 v 1 h -0.347 v -1 h 1 v 31.454 h -9.047 -1 v -31.454 h 1 v 1 h -0.356 v -1 l 0.789,0.622 -24.277,30.832 h -10.289 -1 v -1.352 -0.352 l 25.078,-31.296 -26.121,-29.93 v -0.723 -1 h 11.496 0.465 l 24.625,29.055 -0.766,0.644 v -1 h 0.356 v 1 h -1 v -29.699 h 9.047 1 v 29.699 h -1 v -1 1" /><path
         id="path310"
         style="fill:#ffffff;fill-opacity:1;fill-rule:nonzero;stroke:none"
         d="m 1026.66,432.395 v -62.653 h -8.05 v 39.028 l 0.35,12.07 h -0.35 l -31.852,-51.098 h -8.399 v 62.653 h 8.047 v -36.668 l -0.343,-12.075 h 0.343 l 30.464,48.743 h 9.79" /><path
         id="path312"
         style="fill:#ffffff;fill-opacity:1;fill-rule:nonzero;stroke:none"
         d="m 1026.66,432.395 h -1 v -61.653 h -6.05 v 38.016 l 0.35,12.055 0.03,1.027 h -1.38 -0.55 l -31.857,-51.098 h -6.844 v 60.653 h 6.047 v -35.661 l -0.34,-12.054 -0.031,-1.028 h 1.371 0.555 l 30.459,48.743 h 9.24 v 1 h -1 1 v 1 h -9.79 -0.56 l -30.751,-49.211 0.847,-0.532 v 1 h -0.343 v -1 l 1,-0.027 0.343,12.074 v 0.016 37.68 h -9.047 -1 v -64.653 h 9.399 0.555 l 32.147,51.571 -0.85,0.527 v -1 h 0.35 v 1 l -0.99,0.027 -0.36,-12.066 v -0.02 -40.039 h 9.05 1 v 64.653 h -1 v -1" /><path
         id="path314"
         style="fill:#ffffff;fill-opacity:1;fill-rule:nonzero;stroke:none"
         d="m 1060.84,369.742 h -8.05 v 54.949 h -17.5 v 7.704 h 43.05 v -7.704 h -17.5 v -54.949" /><path
         id="path316"
         style="fill:#ffffff;fill-opacity:1;fill-rule:nonzero;stroke:none"
         d="m 1060.84,369.742 v 1 h -7.05 v 54.949 h -17.5 v 5.704 h 41.05 v -5.704 h -17.5 v -55.949 h 1 v 1 -1 h 1 v 53.949 h 17.5 v 8.704 1 h -45.05 v -8.704 -1 h 17.5 v -54.949 h 9.05 1 v 1 h -1" /><path
         id="path318"
         style="fill:#ffffff;fill-opacity:1;fill-rule:nonzero;stroke:none"
         d="m 1135.57,432.395 v -62.653 h -8.05 v 39.028 l 0.35,12.07 h -0.35 l -31.86,-51.098 h -8.39 v 62.653 h 8.04 v -36.668 l -0.34,-12.075 h 0.34 l 30.46,48.743 h 9.8" /><path
         id="path320"
         style="fill:#ffffff;fill-opacity:1;fill-rule:nonzero;stroke:none"
         d="m 1135.57,432.395 h -1 v -61.653 h -6.05 v 38.016 l 0.35,12.055 0.03,1.027 h -1.38 -0.56 l -31.85,-51.098 h -6.84 v 60.653 h 6.04 v -35.661 l -0.34,-12.054 -0.03,-1.028 h 1.37 0.56 l 30.46,48.743 h 9.24 v 1 h -1 1 v 1 h -9.8 -0.55 l -30.76,-49.211 0.85,-0.532 v 1 h -0.34 v -1 l 1,-0.027 0.34,12.074 v 0.016 37.68 h -9.04 -1 v -64.653 h 9.39 0.56 l 32.15,51.571 -0.85,0.527 v -1 h 0.35 v 1 l -1,0.027 -0.35,-12.066 v -0.02 -40.039 h 9.05 1 v 64.653 h -1 v -1" /><path
         id="path322"
         style="fill:#ffffff;fill-opacity:1;fill-rule:nonzero;stroke:none"
         d="m 1183.87,368.34 c -4.04,0 -7.94,1.262 -11.73,3.765 -3.79,2.504 -6.42,6.239 -7.87,11.196 l 7.34,3.066 c 0.94,-3.269 2.48,-5.804 4.64,-7.613 2.16,-1.813 4.7,-2.715 7.62,-2.715 3.26,0 6.07,1.024 8.43,3.063 2.37,2.043 3.55,4.582 3.55,7.617 0,2.972 -1.21,5.476 -3.63,7.519 -2.43,2.039 -5.33,3.067 -8.7,3.067 h -5.17 v 7.523 h 4.55 c 3.15,0 5.76,0.875 7.83,2.621 2.07,1.754 3.11,4.082 3.11,7.004 0,2.742 -1.01,4.902 -3.02,6.477 -2.01,1.574 -4.51,2.363 -7.48,2.363 -5.14,0 -8.6,-2.602 -10.41,-7.789 l -7.44,3.148 c 1.16,3.207 3.24,6.067 6.21,8.575 2.98,2.507 6.85,3.765 11.64,3.765 5.36,0 9.82,-1.562 13.39,-4.683 3.55,-3.121 5.33,-7.071 5.33,-11.856 0,-5.769 -2.68,-10.058 -8.05,-12.859 v -0.356 c 2.92,-1.218 5.33,-3.09 7.22,-5.593 1.9,-2.508 2.84,-5.489 2.84,-8.926 0,-5.313 -1.95,-9.703 -5.86,-13.172 -3.9,-3.469 -8.69,-5.207 -14.34,-5.207" /><path
         id="path324"
         style="fill:#ffffff;fill-opacity:1;fill-rule:nonzero;stroke:none"
         d="m 1183.87,368.34 v 1 c -3.82,0.004 -7.52,1.183 -11.18,3.598 -3.58,2.371 -6.05,5.867 -7.46,10.644 l -0.96,-0.281 0.38,-0.922 7.35,3.066 -0.39,0.922 -0.96,-0.273 c 0.98,-3.418 2.62,-6.153 4.96,-8.106 v 0 c 2.32,-1.961 5.13,-2.953 8.26,-2.949 3.47,-0.008 6.56,1.109 9.09,3.305 2.56,2.191 3.9,5.074 3.89,8.375 0.01,3.25 -1.38,6.101 -3.99,8.285 -2.59,2.191 -5.76,3.309 -9.34,3.301 h -4.17 v 5.523 h 3.55 c 3.33,-0.004 6.21,0.942 8.48,2.86 v 0 c 2.29,1.921 3.47,4.613 3.46,7.765 0.02,2.985 -1.15,5.524 -3.4,7.262 l -0.03,0.019 0.03,-0.019 c -2.21,1.73 -4.96,2.582 -8.1,2.578 -5.5,0.055 -9.51,-2.98 -11.35,-8.461 l 0.94,-0.328 0.39,0.922 -7.44,3.148 -0.39,-0.922 0.94,-0.339 c 1.1,3.023 3.06,5.73 5.91,8.152 v -0.004 c 2.78,2.332 6.38,3.523 11,3.531 5.17,-0.008 9.35,-1.488 12.73,-4.437 v 0.004 c 3.35,-2.965 4.98,-6.571 4.99,-11.106 -0.03,-5.449 -2.41,-9.269 -7.51,-11.976 l -0.54,-0.282 v -0.957 -0.664 l 0.62,-0.258 c 2.76,-1.156 5.01,-2.906 6.8,-5.273 1.76,-2.336 2.64,-5.066 2.64,-8.324 -0.01,-5.067 -1.81,-9.114 -5.52,-12.426 -3.73,-3.301 -8.23,-4.945 -13.68,-4.953 v -1 -1 c 5.85,-0.008 10.92,1.824 15.01,5.457 4.1,3.633 6.21,8.363 6.19,13.922 0.01,3.621 -1.01,6.844 -3.04,9.527 -2,2.641 -4.55,4.633 -7.63,5.918 l -0.39,-0.926 h 1 v 0.356 h -1 l 0.47,-0.887 c 5.62,2.898 8.62,7.652 8.58,13.746 0.01,5.031 -1.92,9.328 -5.67,12.606 v 0.004 c -3.75,3.289 -8.5,4.933 -14.05,4.929 -4.95,0.004 -9.1,-1.312 -12.29,-4 v -0.004 c -3.07,-2.597 -5.27,-5.605 -6.5,-8.996 l -0.33,-0.89 8.32,-3.52 0.98,-0.418 0.35,1.012 c 1.77,4.898 4.69,7.058 9.47,7.113 2.8,-0.004 5.04,-0.726 6.86,-2.148 v 0 c 1.78,-1.407 2.62,-3.184 2.64,-5.688 -0.02,-2.687 -0.91,-4.656 -2.75,-6.238 v 0 c -1.88,-1.578 -4.22,-2.379 -7.19,-2.387 h -4.55 -1 v -8.523 -1 h 6.17 c 3.17,-0.008 5.8,-0.946 8.05,-2.832 2.23,-1.899 3.27,-4.059 3.28,-6.754 -0.01,-2.774 -1.03,-4.969 -3.2,-6.86 -2.19,-1.886 -4.73,-2.812 -7.78,-2.82 -2.72,0.008 -4.99,0.82 -6.98,2.481 v 0.003 c -1.98,1.661 -3.42,3.993 -4.32,7.122 l -0.31,1.078 -8.38,-3.5 -0.82,-0.344 0.25,-0.859 c 1.5,-5.137 4.28,-9.11 8.28,-11.75 3.92,-2.594 8.03,-3.934 12.28,-3.93 v 1" /></g></g></svg>