<?xml version="1.0" encoding="UTF-8" standalone="no"?><!-- Generator: Gravit.io --><svg xmlns="http://www.w3.org/2000/svg" xmlns:xlink="http://www.w3.org/1999/xlink" style="isolation:isolate" viewBox="0 0 206.667 80" width="206.667pt" height="80pt"><defs><clipPath id="_clipPath_a5agpT5mN7xfwodoOYfwElEIitujgTz7"><rect width="206.667" height="80"/></clipPath></defs><g clip-path="url(#_clipPath_a5agpT5mN7xfwodoOYfwElEIitujgTz7)"><g><path d=" M 186.667 66.667 L 20 66.667 C 16.333 66.667 13.333 63.667 13.333 60 L 13.333 20 C 13.333 16.333 16.333 13.333 20 13.333 L 186.667 13.333 C 190.333 13.333 193.333 16.333 193.333 20 L 193.333 60 C 193.333 63.667 190.333 66.667 186.667 66.667 Z " fill="rgb(0,0,0)"/><path d=" M 186.667 13.333 L 20 13.333 C 16.333 13.333 13.333 16.333 13.333 20 L 13.333 60 C 13.333 63.667 16.333 66.667 20 66.667 L 186.667 66.667 C 190.333 66.667 193.333 63.667 193.333 60 L 193.333 20 C 193.333 16.333 190.333 13.333 186.667 13.333 Z  M 186.667 14.4 C 189.755 14.4 192.267 16.913 192.267 20 L 192.267 60 C 192.267 63.088 189.755 65.601 186.667 65.601 L 20 65.601 C 16.913 65.601 14.4 63.088 14.4 60 L 14.4 20 C 14.4 16.913 16.913 14.4 20 14.4 L 186.667 14.4 Z " fill="rgb(166,166,166)"/><path d=" M 155.915 53.333 L 158.403 53.333 L 158.403 36.665 L 155.915 36.665 L 155.915 53.333 Z  M 178.324 42.669 L 175.472 49.896 L 175.387 49.896 L 172.427 42.669 L 169.747 42.669 L 174.185 52.77 L 171.655 58.388 L 174.251 58.388 L 181.091 42.669 L 178.324 42.669 Z  M 164.215 51.44 C 163.399 51.44 162.263 51.033 162.263 50.025 C 162.263 48.738 163.679 48.245 164.9 48.245 C 165.995 48.245 166.508 48.481 167.173 48.803 C 166.98 50.346 165.651 51.44 164.215 51.44 L 164.215 51.44 Z  M 164.515 42.305 C 162.713 42.305 160.848 43.098 160.076 44.857 L 162.284 45.779 C 162.756 44.857 163.635 44.556 164.557 44.556 C 165.844 44.556 167.152 45.329 167.173 46.701 L 167.173 46.872 C 166.723 46.615 165.759 46.229 164.579 46.229 C 162.199 46.229 159.775 47.537 159.775 49.982 C 159.775 52.212 161.727 53.649 163.913 53.649 C 165.587 53.649 166.508 52.898 167.088 52.019 L 167.173 52.019 L 167.173 53.306 L 169.575 53.306 L 169.575 46.915 C 169.575 43.956 167.367 42.305 164.515 42.305 L 164.515 42.305 Z  M 149.139 44.698 L 145.6 44.698 L 145.6 38.985 L 149.139 38.985 C 150.999 38.985 152.055 40.525 152.055 41.842 C 152.055 43.133 150.999 44.698 149.139 44.698 Z  M 149.075 36.665 L 143.113 36.665 L 143.113 53.333 L 145.6 53.333 L 145.6 47.018 L 149.075 47.018 C 151.832 47.018 154.543 45.022 154.543 41.842 C 154.543 38.661 151.832 36.665 149.075 36.665 Z  M 116.567 51.443 C 114.848 51.443 113.409 50.004 113.409 48.028 C 113.409 46.03 114.848 44.569 116.567 44.569 C 118.264 44.569 119.595 46.03 119.595 48.028 C 119.595 50.004 118.264 51.443 116.567 51.443 L 116.567 51.443 Z  M 119.423 43.603 L 119.337 43.603 C 118.779 42.937 117.705 42.335 116.352 42.335 C 113.516 42.335 110.917 44.827 110.917 48.028 C 110.917 51.207 113.516 53.677 116.352 53.677 C 117.705 53.677 118.779 53.075 119.337 52.389 L 119.423 52.389 L 119.423 53.205 C 119.423 55.375 118.264 56.534 116.395 56.534 C 114.87 56.534 113.925 55.439 113.537 54.515 L 111.368 55.417 C 111.991 56.921 113.645 58.768 116.395 58.768 C 119.316 58.768 121.786 57.049 121.786 52.861 L 121.786 42.679 L 119.423 42.679 L 119.423 43.603 Z  M 123.505 53.333 L 125.996 53.333 L 125.996 36.665 L 123.505 36.665 L 123.505 53.333 Z  M 129.67 47.834 C 129.605 45.643 131.367 44.527 132.634 44.527 C 133.623 44.527 134.46 45.02 134.739 45.73 L 129.67 47.834 Z  M 137.403 45.944 C 136.931 44.677 135.491 42.335 132.548 42.335 C 129.627 42.335 127.199 44.634 127.199 48.006 C 127.199 51.185 129.605 53.677 132.827 53.677 C 135.427 53.677 136.931 52.087 137.553 51.164 L 135.62 49.875 C 134.976 50.82 134.095 51.443 132.827 51.443 C 131.56 51.443 130.658 50.863 130.078 49.725 L 137.66 46.589 L 137.403 45.944 Z  M 76.992 44.075 L 76.992 46.481 L 82.748 46.481 C 82.577 47.834 82.125 48.822 81.438 49.51 C 80.601 50.348 79.29 51.271 76.992 51.271 C 73.447 51.271 70.677 48.415 70.677 44.87 C 70.677 41.326 73.447 38.469 76.992 38.469 C 78.904 38.469 80.299 39.221 81.331 40.187 L 83.028 38.491 C 81.589 37.116 79.677 36.063 76.992 36.063 C 72.137 36.063 68.056 40.016 68.056 44.87 C 68.056 49.725 72.137 53.677 76.992 53.677 C 79.613 53.677 81.589 52.818 83.135 51.207 C 84.725 49.617 85.219 47.383 85.219 45.579 C 85.219 45.02 85.176 44.505 85.09 44.075 L 76.992 44.075 Z  M 91.764 51.443 C 90.045 51.443 88.563 50.025 88.563 48.006 C 88.563 45.966 90.045 44.569 91.764 44.569 C 93.482 44.569 94.964 45.966 94.964 48.006 C 94.964 50.025 93.482 51.443 91.764 51.443 L 91.764 51.443 Z  M 91.764 42.335 C 88.627 42.335 86.071 44.72 86.071 48.006 C 86.071 51.271 88.627 53.677 91.764 53.677 C 94.899 53.677 97.456 51.271 97.456 48.006 C 97.456 44.72 94.899 42.335 91.764 42.335 Z  M 104.181 51.443 C 102.463 51.443 100.981 50.025 100.981 48.006 C 100.981 45.966 102.463 44.569 104.181 44.569 C 105.899 44.569 107.382 45.966 107.382 48.006 C 107.382 50.025 105.899 51.443 104.181 51.443 Z  M 104.181 42.335 C 101.045 42.335 98.489 44.72 98.489 48.006 C 98.489 51.271 101.045 53.677 104.181 53.677 C 107.317 53.677 109.873 51.271 109.873 48.006 C 109.873 44.72 107.317 42.335 104.181 42.335 Z " fill="rgb(255,255,255)"/><g><clipPath id="_clipPath_vE3KZOflZ8wMHTDdxJrIdXtedwNO2bnS"><path d=" M 27.346 56.519 L 27.247 56.425 C 26.859 56.014 26.63 55.377 26.63 54.551 L 26.63 54.745 L 26.63 54.745 L 26.63 25.257 C 26.63 25.255 26.63 25.253 26.63 25.251 C 26.63 25.253 26.63 25.255 26.63 25.258 L 26.63 25.453 C 26.63 24.559 26.897 23.885 27.345 23.482 L 43.865 40.001 L 27.346 56.519 Z  M 26.63 25.249 C 26.63 25.175 26.632 25.104 26.636 25.034 C 26.632 25.104 26.63 25.175 26.63 25.249 Z  M 26.636 25.031 C 26.636 25.03 26.636 25.029 26.636 25.028 C 26.636 25.029 26.636 25.03 26.636 25.031 Z  M 26.636 25.021 C 26.636 25.021 26.636 25.02 26.636 25.02 C 26.636 25.02 26.636 25.021 26.636 25.021 Z " fill="rgb(255,255,255)"/></clipPath><g clip-path="url(#_clipPath_vE3KZOflZ8wMHTDdxJrIdXtedwNO2bnS)"><g><linearGradient id="_lgradient_48" x1="0.9150065373635474" y1="0.9556707105439463" x2="-0.12049917872697291" y2="-0.0798350055465743" gradientTransform="matrix(17.234,0,0,-33.038,26.63,56.519)" gradientUnits="userSpaceOnUse"><stop offset="0%" stop-opacity="1" style="stop-color:rgb(0,160,255)"/><stop offset="0.657445%" stop-opacity="1" style="stop-color:rgb(0,161,255)"/><stop offset="26.009999999999998%" stop-opacity="1" style="stop-color:rgb(0,190,255)"/><stop offset="51.22%" stop-opacity="1" style="stop-color:rgb(0,210,255)"/><stop offset="76.03999999999999%" stop-opacity="1" style="stop-color:rgb(0,223,255)"/><stop offset="100%" stop-opacity="1" style="stop-color:rgb(0,227,255)"/></linearGradient><path d=" M 27.346 56.519 L 27.247 56.425 C 26.859 56.014 26.63 55.377 26.63 54.551 L 26.63 54.745 L 26.63 54.745 L 26.63 25.257 C 26.63 25.255 26.63 25.253 26.63 25.251 C 26.63 25.253 26.63 25.255 26.63 25.258 L 26.63 25.453 C 26.63 24.559 26.897 23.885 27.345 23.482 L 43.865 40.001 L 27.346 56.519 Z  M 26.63 25.249 C 26.63 25.175 26.632 25.104 26.636 25.034 C 26.632 25.104 26.63 25.175 26.63 25.249 Z  M 26.636 25.031 C 26.636 25.03 26.636 25.029 26.636 25.028 C 26.636 25.029 26.636 25.03 26.636 25.031 Z  M 26.636 25.021 C 26.636 25.021 26.636 25.02 26.636 25.02 C 26.636 25.02 26.636 25.021 26.636 25.021 Z " fill="url(#_lgradient_48)"/></g></g></g><g><clipPath id="_clipPath_6M7iwvuaPWsLPNyzoRxZ5sNURgJQWDWs"><path d=" M 49.37 45.705 L 49.37 45.705 L 49.496 45.633 L 56.02 41.927 C 56.642 41.573 57.056 41.144 57.263 40.691 C 57.057 41.144 56.642 41.573 56.02 41.927 L 49.496 45.634 L 49.37 45.705 M 49.372 45.509 L 43.865 40.001 L 49.371 34.494 L 56.02 38.271 C 56.864 38.751 57.338 39.369 57.417 40.001 C 57.417 40.001 57.417 40.002 57.417 40.003 C 57.338 40.633 56.864 41.252 56.02 41.732 L 49.372 45.509" fill="rgb(255,255,255)"/></clipPath><g clip-path="url(#_clipPath_6M7iwvuaPWsLPNyzoRxZ5sNURgJQWDWs)"><g><linearGradient id="_lgradient_49" x1="1.0759014216144425" y1="0.5086820009038799" x2="-1.3046386934920564" y2="0.5086820009038796" gradientTransform="matrix(13.553,0,0,-11.211,43.865,45.705)" gradientUnits="userSpaceOnUse"><stop offset="0%" stop-opacity="1" style="stop-color:rgb(255,224,0)"/><stop offset="40.87%" stop-opacity="1" style="stop-color:rgb(255,189,0)"/><stop offset="77.53999999999999%" stop-opacity="1" style="stop-color:rgb(255,165,0)"/><stop offset="100%" stop-opacity="1" style="stop-color:rgb(255,156,0)"/></linearGradient><path d=" M 49.37 45.705 L 49.37 45.705 L 49.496 45.633 L 56.02 41.927 C 56.642 41.573 57.056 41.144 57.263 40.691 C 57.057 41.144 56.642 41.573 56.02 41.927 L 49.496 45.634 L 49.37 45.705 M 49.372 45.509 L 43.865 40.001 L 49.371 34.494 L 56.02 38.271 C 56.864 38.751 57.338 39.369 57.417 40.001 C 57.417 40.001 57.417 40.002 57.417 40.003 C 57.338 40.633 56.864 41.252 56.02 41.732 L 49.372 45.509" fill="url(#_lgradient_49)"/></g></g></g><g><clipPath id="_clipPath_cJx3PN7pD2uxsMS3VxX0aTcdkqucENkb"><path d=" M 28.524 57.148 C 28.063 57.148 27.66 56.998 27.346 56.715 L 27.346 56.715 C 27.66 56.998 28.064 57.148 28.525 57.148 C 28.565 57.148 28.606 57.147 28.647 57.145 C 28.605 57.147 28.564 57.148 28.524 57.148 M 28.525 56.953 C 28.063 56.954 27.66 56.803 27.346 56.52 L 27.346 56.52 L 27.346 56.519 L 43.865 40.001 L 49.372 45.509 L 49.372 45.509 L 30.018 56.506 C 29.483 56.809 28.975 56.953 28.525 56.953 M 27.342 56.711 C 27.313 56.685 27.284 56.657 27.256 56.628 L 27.342 56.711 Z " fill="rgb(255,255,255)"/></clipPath><g clip-path="url(#_clipPath_cJx3PN7pD2uxsMS3VxX0aTcdkqucENkb)"><g><linearGradient id="_lgradient_50" x1="0.8672522623002215" y1="0.8215232689242253" x2="-0.5047958956056213" y2="-0.5505248889816177" gradientTransform="matrix(22.116,0,0,-17.147,27.256,57.148)" gradientUnits="userSpaceOnUse"><stop offset="0%" stop-opacity="1" style="stop-color:rgb(255,58,68)"/><stop offset="100%" stop-opacity="1" style="stop-color:rgb(195,17,98)"/></linearGradient><path d=" M 28.524 57.148 C 28.063 57.148 27.66 56.998 27.346 56.715 L 27.346 56.715 C 27.66 56.998 28.064 57.148 28.525 57.148 C 28.565 57.148 28.606 57.147 28.647 57.145 C 28.605 57.147 28.564 57.148 28.524 57.148 M 28.525 56.953 C 28.063 56.954 27.66 56.803 27.346 56.52 L 27.346 56.52 L 27.346 56.519 L 43.865 40.001 L 49.372 45.509 L 49.372 45.509 L 30.018 56.506 C 29.483 56.809 28.975 56.953 28.525 56.953 M 27.342 56.711 C 27.313 56.685 27.284 56.657 27.256 56.628 L 27.342 56.711 Z " fill="url(#_lgradient_50)"/></g></g></g><g><clipPath id="_clipPath_hmJIvmNHzUq2TCMF4IAi25R5nDOJA9mo"><path d=" M 43.865 40.001 L 43.865 40.001 L 27.345 23.482 C 27.659 23.199 28.061 23.049 28.522 23.049 C 28.974 23.049 29.482 23.193 30.018 23.497 L 49.371 34.494 L 43.865 40.001 M 49.496 34.369 L 30.018 23.303 C 29.482 22.998 28.974 22.854 28.522 22.854 C 28.52 22.854 28.518 22.854 28.516 22.854 C 28.519 22.854 28.521 22.854 28.524 22.854 C 28.975 22.854 29.482 22.998 30.018 23.302 L 49.496 34.369 M 28.512 22.854 L 28.512 22.854 L 28.512 22.854 Z " fill="rgb(255,255,255)"/></clipPath><g clip-path="url(#_clipPath_hmJIvmNHzUq2TCMF4IAi25R5nDOJA9mo)"><g><linearGradient id="_lgradient_51" x1="-0.19329693679160664" y1="1.541546787763799" x2="0.4184117544377095" y2="0.9298380965344829" gradientTransform="matrix(22.151,0,0,-17.147,27.345,40.001)" gradientUnits="userSpaceOnUse"><stop offset="0%" stop-opacity="1" style="stop-color:rgb(50,160,113)"/><stop offset="6.8500000000000005%" stop-opacity="1" style="stop-color:rgb(45,167,113)"/><stop offset="47.620000000000005%" stop-opacity="1" style="stop-color:rgb(21,207,116)"/><stop offset="80.08999999999999%" stop-opacity="1" style="stop-color:rgb(6,231,117)"/><stop offset="100%" stop-opacity="1" style="stop-color:rgb(0,240,118)"/></linearGradient><path d=" M 43.865 40.001 L 43.865 40.001 L 27.345 23.482 C 27.659 23.199 28.061 23.049 28.522 23.049 C 28.974 23.049 29.482 23.193 30.018 23.497 L 49.371 34.494 L 43.865 40.001 M 49.496 34.369 L 30.018 23.303 C 29.482 22.998 28.974 22.854 28.522 22.854 C 28.52 22.854 28.518 22.854 28.516 22.854 C 28.519 22.854 28.521 22.854 28.524 22.854 C 28.975 22.854 29.482 22.998 30.018 23.302 L 49.496 34.369 M 28.512 22.854 L 28.512 22.854 L 28.512 22.854 Z " fill="url(#_lgradient_51)"/></g></g></g><path d=" M 28.647 57.145 C 29.066 57.121 29.53 56.977 30.018 56.701 L 49.37 45.705 L 49.37 45.705 L 30.018 56.701 C 29.531 56.978 29.066 57.121 28.647 57.145 M 27.346 56.715 L 27.342 56.711 C 27.343 56.713 27.345 56.714 27.346 56.715 L 27.346 56.715 Z  M 27.256 56.628 L 27.247 56.619 L 27.247 56.619 C 27.251 56.622 27.253 56.625 27.256 56.628 Z " fill="rgb(0,0,0)"/><g><clipPath id="_clipPath_zkbGWGaEDTgP65LAEVmLGe5yv2cD5b84"><path d=" M 49.37 45.705 L 49.37 45.705 L 49.496 45.633 L 49.37 45.705 Z " fill="rgb(255,255,255)"/></clipPath><g clip-path="url(#_clipPath_zkbGWGaEDTgP65LAEVmLGe5yv2cD5b84)"><g><linearGradient id="_lgradient_52" x1="72.25796178343893" y1="79.94579439251964" x2="-184.61040339702618" y2="79.94579439251962" gradientTransform="matrix(0.126,0,0,-0.071,49.37,45.705)" gradientUnits="userSpaceOnUse"><stop offset="0%" stop-opacity="1" style="stop-color:rgb(204,179,0)"/><stop offset="40.87%" stop-opacity="1" style="stop-color:rgb(204,151,0)"/><stop offset="77.53999999999999%" stop-opacity="1" style="stop-color:rgb(204,132,0)"/><stop offset="100%" stop-opacity="1" style="stop-color:rgb(204,125,0)"/></linearGradient><path d=" M 49.37 45.705 L 49.37 45.705 L 49.496 45.633 L 49.37 45.705 Z " fill="url(#_lgradient_52)"/></g></g></g><g><clipPath id="_clipPath_EErtUibDfqwrZdLKln5YXfBgYVyzAQsA"><path d=" M 28.525 57.148 C 28.064 57.148 27.66 56.998 27.346 56.715 L 27.346 56.715 C 27.345 56.714 27.343 56.713 27.342 56.711 L 27.256 56.628 C 27.253 56.625 27.251 56.622 27.247 56.619 L 27.346 56.52 C 27.66 56.803 28.063 56.954 28.525 56.953 C 28.975 56.953 29.483 56.809 30.018 56.506 L 49.372 45.509 L 49.496 45.633 L 49.37 45.705 L 30.018 56.701 C 29.53 56.977 29.066 57.121 28.647 57.145 C 28.606 57.147 28.565 57.148 28.525 57.148" fill="rgb(255,255,255)"/></clipPath><g clip-path="url(#_clipPath_EErtUibDfqwrZdLKln5YXfBgYVyzAQsA)"><g><linearGradient id="_lgradient_53" x1="0.8624688368971136" y1="1.2103146873174255" x2="-0.5014143254386805" y2="-0.1535684750183688" gradientTransform="matrix(22.249,0,0,-11.639,27.247,57.148)" gradientUnits="userSpaceOnUse"><stop offset="0%" stop-opacity="1" style="stop-color:rgb(204,46,54)"/><stop offset="100%" stop-opacity="1" style="stop-color:rgb(156,14,78)"/></linearGradient><path d=" M 28.525 57.148 C 28.064 57.148 27.66 56.998 27.346 56.715 L 27.346 56.715 C 27.345 56.714 27.343 56.713 27.342 56.711 L 27.256 56.628 C 27.253 56.625 27.251 56.622 27.247 56.619 L 27.346 56.52 C 27.66 56.803 28.063 56.954 28.525 56.953 C 28.975 56.953 29.483 56.809 30.018 56.506 L 49.372 45.509 L 49.496 45.633 L 49.37 45.705 L 30.018 56.701 C 29.53 56.977 29.066 57.121 28.647 57.145 C 28.606 57.147 28.565 57.148 28.525 57.148" fill="url(#_lgradient_53)"/></g></g></g><path d=" M 27.247 56.619 C 26.859 56.209 26.63 55.571 26.63 54.746 L 26.63 54.745 C 26.63 55.571 26.859 56.208 27.247 56.619 L 27.247 56.619 L 27.247 56.619 L 27.247 56.619" fill="rgb(0,0,0)"/><g><clipPath id="_clipPath_YDi84WlcpNST6mTefJadvfP7fD5xXRIS"><path d=" M 27.247 56.619 L 27.247 56.619 C 26.859 56.208 26.63 55.571 26.63 54.745 L 26.63 54.551 C 26.63 55.377 26.859 56.014 27.247 56.425 L 27.346 56.519 L 27.247 56.619" fill="rgb(255,255,255)"/></clipPath><g clip-path="url(#_clipPath_YDi84WlcpNST6mTefJadvfP7fD5xXRIS)"><g><linearGradient id="_lgradient_54" x1="22.020294172407453" y1="15.317513541397982" x2="-1.3619257323663696" y2="-8.064706363375844" gradientTransform="matrix(0.716,0,0,-2.068,26.63,56.619)" gradientUnits="userSpaceOnUse"><stop offset="0%" stop-opacity="1" style="stop-color:rgb(0,141,224)"/><stop offset="0.657445%" stop-opacity="1" style="stop-color:rgb(0,141,224)"/><stop offset="26.009999999999998%" stop-opacity="1" style="stop-color:rgb(0,167,224)"/><stop offset="51.22%" stop-opacity="1" style="stop-color:rgb(0,184,224)"/><stop offset="76.03999999999999%" stop-opacity="1" style="stop-color:rgb(0,196,224)"/><stop offset="100%" stop-opacity="1" style="stop-color:rgb(0,199,224)"/></linearGradient><path d=" M 27.247 56.619 L 27.247 56.619 C 26.859 56.208 26.63 55.571 26.63 54.745 L 26.63 54.551 C 26.63 55.377 26.859 56.014 27.247 56.425 L 27.346 56.519 L 27.247 56.619" fill="url(#_lgradient_54)"/></g></g></g><g><clipPath id="_clipPath_9rUD4fLE0JU5VFIqsBStp8HtTVDmf168"><path d=" M 27.247 56.619 L 27.247 56.619 L 27.247 56.619 L 27.346 56.519 L 27.346 56.52 L 27.247 56.619" fill="rgb(255,255,255)"/></clipPath><g clip-path="url(#_clipPath_9rUD4fLE0JU5VFIqsBStp8HtTVDmf168)"><g><linearGradient id="_lgradient_55" x1="193.69448183041857" y1="136.300268096513" x2="-111.99307458722285" y2="-169.38728832112847" gradientTransform="matrix(0.099,0,0,-0.099,27.247,56.619)" gradientUnits="userSpaceOnUse"><stop offset="0%" stop-opacity="1" style="stop-color:rgb(224,51,60)"/><stop offset="100%" stop-opacity="1" style="stop-color:rgb(171,15,86)"/></linearGradient><path d=" M 27.247 56.619 L 27.247 56.619 L 27.247 56.619 L 27.346 56.519 L 27.346 56.52 L 27.247 56.619" fill="url(#_lgradient_55)"/></g></g></g><path d=" M 57.263 40.691 C 57.366 40.466 57.417 40.234 57.417 40.003 C 57.417 40.003 57.417 40.002 57.417 40.002 C 57.417 40.234 57.366 40.465 57.263 40.691 Z " fill="rgb(0,0,0)"/><g><clipPath id="_clipPath_RUZMIGlZf7CvORUudQy4unadu3jvQdbA"><path d=" M 49.496 45.633 L 49.496 45.633 L 49.372 45.509 L 56.02 41.732 C 56.864 41.252 57.338 40.633 57.417 40.003 C 57.417 40.234 57.366 40.466 57.263 40.691 C 57.056 41.144 56.642 41.573 56.02 41.927 L 49.496 45.633 Z " fill="rgb(255,255,255)"/></clipPath><g clip-path="url(#_clipPath_RUZMIGlZf7CvORUudQy4unadu3jvQdbA)"><g><linearGradient id="_lgradient_56" x1="1.1278588001325822" y1="1.0002131337769677" x2="-2.8822505800464047" y2="1.0002131337769673" gradientTransform="matrix(8.045,0,0,-5.63,49.372,45.633)" gradientUnits="userSpaceOnUse"><stop offset="0%" stop-opacity="1" style="stop-color:rgb(224,197,0)"/><stop offset="40.87%" stop-opacity="1" style="stop-color:rgb(224,166,0)"/><stop offset="77.53999999999999%" stop-opacity="1" style="stop-color:rgb(224,145,0)"/><stop offset="100%" stop-opacity="1" style="stop-color:rgb(224,137,0)"/></linearGradient><path d=" M 49.496 45.633 L 49.496 45.633 L 49.372 45.509 L 56.02 41.732 C 56.864 41.252 57.338 40.633 57.417 40.003 C 57.417 40.234 57.366 40.466 57.263 40.691 C 57.056 41.144 56.642 41.573 56.02 41.927 L 49.496 45.633 Z " fill="url(#_lgradient_56)"/></g></g></g><path d=" M 57.417 40.001 L 57.417 40.001 C 57.417 39.303 56.951 38.606 56.02 38.077 L 49.496 34.37 L 49.495 34.37 L 49.496 34.369 L 56.02 38.076 C 56.952 38.605 57.418 39.304 57.417 40.001 Z " fill="rgb(64,64,64)"/><g><clipPath id="_clipPath_2r7rD5dtvlIjArwdhGVWbb1cgp5ybpua"><path d=" M 57.417 40.001 C 57.338 39.369 56.864 38.751 56.02 38.271 L 49.371 34.494 L 49.495 34.37 L 49.496 34.37 L 56.02 38.077 C 56.951 38.606 57.417 39.303 57.417 40.001 Z " fill="rgb(255,255,255)"/></clipPath><g clip-path="url(#_clipPath_2r7rD5dtvlIjArwdhGVWbb1cgp5ybpua)"><g><linearGradient id="_lgradient_57" x1="1.127850324804454" y1="-0.00023679287726974252" x2="-2.8819932387644176" y2="-0.00023679287727023358" gradientTransform="matrix(8.046,0,0,-5.631,49.371,40.001)" gradientUnits="userSpaceOnUse"><stop offset="0%" stop-opacity="1" style="stop-color:rgb(255,232,64)"/><stop offset="40.87%" stop-opacity="1" style="stop-color:rgb(255,206,64)"/><stop offset="77.53999999999999%" stop-opacity="1" style="stop-color:rgb(255,188,64)"/><stop offset="100%" stop-opacity="1" style="stop-color:rgb(255,181,64)"/></linearGradient><path d=" M 57.417 40.001 C 57.338 39.369 56.864 38.751 56.02 38.271 L 49.371 34.494 L 49.495 34.37 L 49.496 34.37 L 56.02 38.077 C 56.951 38.606 57.417 39.303 57.417 40.001 Z " fill="url(#_lgradient_57)"/></g></g></g><path d=" M 26.63 25.251 C 26.63 25.25 26.63 25.249 26.63 25.249 C 26.63 25.249 26.63 25.25 26.63 25.251 Z  M 26.636 25.034 C 26.636 25.033 26.636 25.032 26.636 25.031 C 26.636 25.032 26.636 25.033 26.636 25.034 Z  M 26.636 25.028 C 26.636 25.025 26.636 25.023 26.636 25.021 C 26.636 25.023 26.636 25.025 26.636 25.028 Z  M 26.636 25.02 C 26.714 23.65 27.458 22.859 28.512 22.854 C 28.055 22.857 27.657 23.007 27.346 23.287 L 27.346 23.287 L 27.342 23.291 C 27.309 23.32 27.278 23.352 27.247 23.384 L 27.247 23.384 C 26.897 23.754 26.677 24.309 26.636 25.02 Z " fill="rgb(64,64,64)"/><g><clipPath id="_clipPath_NvPUKupHwtd7VGiinkJRfDKfjLvPrntg"><path d=" M 26.63 25.453 L 26.63 25.258 C 26.63 25.255 26.63 25.253 26.63 25.251 C 26.63 25.25 26.63 25.249 26.63 25.249 C 26.63 25.175 26.632 25.104 26.636 25.034 C 26.636 25.033 26.636 25.032 26.636 25.031 C 26.636 25.03 26.636 25.029 26.636 25.028 C 26.636 25.025 26.636 25.023 26.636 25.021 C 26.636 25.021 26.636 25.02 26.636 25.02 C 26.677 24.309 26.897 23.754 27.247 23.384 L 27.247 23.384 L 27.247 23.384 L 27.345 23.482 C 26.897 23.885 26.63 24.559 26.63 25.453 M 27.342 23.291 L 27.346 23.287 C 27.345 23.289 27.343 23.29 27.342 23.291 Z " fill="rgb(255,255,255)"/></clipPath><g clip-path="url(#_clipPath_NvPUKupHwtd7VGiinkJRfDKfjLvPrntg)"><g><linearGradient id="_lgradient_58" x1="22.036705794671178" y1="0.23382380102197686" x2="-1.2501293184407167" y2="-23.05301131208992" gradientTransform="matrix(0.716,0,0,-2.166,26.63,25.453)" gradientUnits="userSpaceOnUse"><stop offset="0%" stop-opacity="1" style="stop-color:rgb(64,184,255)"/><stop offset="0.657445%" stop-opacity="1" style="stop-color:rgb(64,185,255)"/><stop offset="26.009999999999998%" stop-opacity="1" style="stop-color:rgb(64,206,255)"/><stop offset="51.22%" stop-opacity="1" style="stop-color:rgb(64,221,255)"/><stop offset="76.03999999999999%" stop-opacity="1" style="stop-color:rgb(64,231,255)"/><stop offset="100%" stop-opacity="1" style="stop-color:rgb(64,234,255)"/></linearGradient><path d=" M 26.63 25.453 L 26.63 25.258 C 26.63 25.255 26.63 25.253 26.63 25.251 C 26.63 25.25 26.63 25.249 26.63 25.249 C 26.63 25.175 26.632 25.104 26.636 25.034 C 26.636 25.033 26.636 25.032 26.636 25.031 C 26.636 25.03 26.636 25.029 26.636 25.028 C 26.636 25.025 26.636 25.023 26.636 25.021 C 26.636 25.021 26.636 25.02 26.636 25.02 C 26.677 24.309 26.897 23.754 27.247 23.384 L 27.247 23.384 L 27.247 23.384 L 27.345 23.482 C 26.897 23.885 26.63 24.559 26.63 25.453 M 27.342 23.291 L 27.346 23.287 C 27.345 23.289 27.343 23.29 27.342 23.291 Z " fill="url(#_lgradient_58)"/></g></g></g><path d=" M 28.512 22.854 C 28.513 22.854 28.515 22.854 28.516 22.854 C 28.515 22.854 28.513 22.854 28.512 22.854 Z " fill="rgb(64,64,64)"/><g><clipPath id="_clipPath_SfYJ47LRrT2lcNG3FNFcEwn3bASyVvvE"><path d=" M 49.371 34.494 L 30.018 23.497 C 29.482 23.193 28.974 23.049 28.522 23.049 C 28.061 23.049 27.659 23.199 27.345 23.482 L 27.247 23.384 L 27.247 23.384 C 27.278 23.352 27.309 23.32 27.342 23.291 C 27.343 23.29 27.345 23.289 27.346 23.287 C 27.657 23.007 28.055 22.857 28.512 22.854 L 28.512 22.854 C 28.513 22.854 28.515 22.854 28.516 22.854 C 28.518 22.854 28.52 22.854 28.522 22.854 C 28.974 22.854 29.482 22.998 30.018 23.303 L 49.496 34.369 L 49.495 34.37 L 49.371 34.494 Z " fill="rgb(255,255,255)"/></clipPath><g clip-path="url(#_clipPath_SfYJ47LRrT2lcNG3FNFcEwn3bASyVvvE)"><g><linearGradient id="_lgradient_59" x1="-0.18806932591811276" y1="1.7977822834690773" x2="0.4209595838527185" y2="1.1887533736982463" gradientTransform="matrix(22.249,0,0,-11.64,27.247,34.494)" gradientUnits="userSpaceOnUse"><stop offset="0%" stop-opacity="1" style="stop-color:rgb(101,184,149)"/><stop offset="6.8500000000000005%" stop-opacity="1" style="stop-color:rgb(98,189,149)"/><stop offset="47.620000000000005%" stop-opacity="1" style="stop-color:rgb(80,219,151)"/><stop offset="80.08999999999999%" stop-opacity="1" style="stop-color:rgb(68,237,152)"/><stop offset="100%" stop-opacity="1" style="stop-color:rgb(64,244,152)"/></linearGradient><path d=" M 49.371 34.494 L 30.018 23.497 C 29.482 23.193 28.974 23.049 28.522 23.049 C 28.061 23.049 27.659 23.199 27.345 23.482 L 27.247 23.384 L 27.247 23.384 C 27.278 23.352 27.309 23.32 27.342 23.291 C 27.343 23.29 27.345 23.289 27.346 23.287 C 27.657 23.007 28.055 22.857 28.512 22.854 L 28.512 22.854 C 28.513 22.854 28.515 22.854 28.516 22.854 C 28.518 22.854 28.52 22.854 28.522 22.854 C 28.974 22.854 29.482 22.998 30.018 23.303 L 49.496 34.369 L 49.495 34.37 L 49.371 34.494 Z " fill="url(#_lgradient_59)"/></g></g></g><path d=" M 71.09 30.888 C 70.552 30.888 70.031 30.72 69.526 30.386 C 69.021 30.052 68.67 29.554 68.477 28.893 L 69.456 28.484 C 69.581 28.92 69.786 29.258 70.075 29.499 C 70.362 29.741 70.701 29.861 71.09 29.861 C 71.525 29.861 71.899 29.725 72.215 29.453 C 72.53 29.181 72.687 28.842 72.687 28.437 C 72.687 28.041 72.526 27.707 72.203 27.435 C 71.88 27.163 71.493 27.026 71.043 27.026 L 70.354 27.026 L 70.354 26.023 L 70.961 26.023 C 71.381 26.023 71.729 25.906 72.005 25.673 C 72.281 25.44 72.419 25.129 72.419 24.74 C 72.419 24.374 72.285 24.086 72.017 23.876 C 71.748 23.666 71.415 23.561 71.019 23.561 C 70.335 23.561 69.872 23.908 69.631 24.599 L 68.64 24.18 C 68.794 23.752 69.071 23.371 69.468 23.036 C 69.865 22.702 70.381 22.534 71.019 22.534 C 71.734 22.534 72.33 22.743 72.805 23.159 C 73.279 23.575 73.516 24.102 73.516 24.74 C 73.516 25.509 73.158 26.081 72.443 26.454 L 72.443 26.502 C 72.832 26.664 73.153 26.914 73.405 27.247 C 73.658 27.582 73.784 27.979 73.784 28.437 C 73.784 29.146 73.523 29.731 73.003 30.194 C 72.482 30.656 71.844 30.888 71.09 30.888" fill="rgb(255,255,255)"/><path d=" M 71.09 30.888 L 71.09 30.755 C 70.58 30.754 70.087 30.597 69.599 30.275 C 69.122 29.959 68.792 29.493 68.605 28.856 L 68.477 28.893 L 68.528 29.016 L 69.507 28.607 L 69.456 28.484 L 69.328 28.521 C 69.458 28.977 69.677 29.341 69.989 29.602 L 69.99 29.603 L 69.989 29.602 C 70.298 29.863 70.673 29.995 71.09 29.995 C 71.553 29.996 71.964 29.847 72.302 29.554 C 72.643 29.262 72.823 28.878 72.821 28.437 C 72.823 28.004 72.637 27.624 72.289 27.333 C 71.943 27.041 71.52 26.892 71.043 26.893 L 70.487 26.893 L 70.487 26.156 L 70.961 26.156 C 71.406 26.157 71.79 26.031 72.091 25.775 L 72.091 25.775 C 72.397 25.519 72.555 25.16 72.553 24.74 C 72.555 24.342 72.399 24.003 72.099 23.771 L 72.099 23.771 C 71.806 23.541 71.439 23.427 71.019 23.428 C 70.287 23.42 69.752 23.825 69.506 24.556 L 69.631 24.599 L 69.683 24.477 L 68.691 24.057 L 68.64 24.18 L 68.765 24.225 C 68.911 23.822 69.172 23.461 69.554 23.138 L 69.553 23.139 C 69.923 22.828 70.404 22.669 71.019 22.668 C 71.709 22.669 72.267 22.866 72.717 23.259 L 72.717 23.259 C 73.164 23.654 73.38 24.135 73.382 24.74 C 73.378 25.466 73.06 25.975 72.381 26.336 L 72.309 26.374 L 72.309 26.502 L 72.309 26.59 L 72.391 26.625 C 72.76 26.779 73.059 27.012 73.298 27.328 C 73.533 27.639 73.65 28.003 73.651 28.437 C 73.648 29.113 73.408 29.653 72.914 30.094 C 72.417 30.534 71.817 30.754 71.09 30.755 L 71.09 30.888 L 71.09 31.021 C 71.871 31.022 72.547 30.778 73.091 30.294 C 73.639 29.809 73.919 29.179 73.917 28.437 C 73.918 27.955 73.782 27.525 73.511 27.167 C 73.245 26.815 72.904 26.549 72.494 26.378 L 72.443 26.502 L 72.576 26.502 L 72.576 26.454 L 72.443 26.454 L 72.505 26.572 C 73.255 26.186 73.654 25.552 73.649 24.74 C 73.651 24.069 73.393 23.496 72.893 23.059 L 72.891 23.057 L 72.893 23.058 C 72.392 22.62 71.76 22.401 71.019 22.401 C 70.359 22.401 69.806 22.576 69.381 22.934 L 69.381 22.935 C 68.971 23.281 68.678 23.682 68.514 24.134 L 68.471 24.253 L 69.58 24.722 L 69.71 24.778 L 69.757 24.643 C 69.993 23.99 70.382 23.702 71.019 23.695 C 71.392 23.695 71.692 23.792 71.935 23.981 L 71.935 23.981 C 72.171 24.169 72.284 24.406 72.286 24.74 C 72.284 25.098 72.166 25.36 71.919 25.571 L 71.919 25.571 C 71.669 25.782 71.357 25.889 70.961 25.89 L 70.354 25.89 L 70.221 25.89 L 70.221 27.026 L 70.221 27.159 L 71.043 27.159 C 71.467 27.16 71.817 27.285 72.117 27.537 C 72.415 27.79 72.552 28.078 72.554 28.437 C 72.552 28.807 72.417 29.1 72.128 29.352 C 71.835 29.604 71.497 29.727 71.09 29.728 C 70.728 29.727 70.425 29.619 70.16 29.397 L 70.16 29.397 C 69.896 29.175 69.704 28.865 69.584 28.447 L 69.543 28.304 L 68.425 28.77 L 68.315 28.816 L 68.348 28.931 C 68.549 29.616 68.919 30.145 69.453 30.497 C 69.975 30.843 70.524 31.022 71.09 31.021 L 71.09 30.888" fill="rgb(255,255,255)"/><path d=" M 76.818 27.435 L 79.595 27.435 L 78.231 23.666 L 78.184 23.666 L 76.818 27.435 Z  M 74.451 30.701 L 77.601 22.347 L 78.814 22.347 L 81.964 30.701 L 80.773 30.701 L 79.969 28.437 L 76.457 28.437 L 75.64 30.701 L 74.451 30.701" fill="rgb(255,255,255)"/><path d=" M 76.818 27.435 L 76.818 27.568 L 79.785 27.568 L 78.324 23.533 L 78.184 23.533 L 78.09 23.533 L 76.628 27.568 L 76.818 27.568 L 76.818 27.435 L 76.943 27.48 L 78.309 23.711 L 78.184 23.666 L 78.184 23.799 L 78.231 23.799 L 78.231 23.666 L 78.105 23.711 L 79.405 27.302 L 76.818 27.302 L 76.818 27.435 L 76.943 27.48 L 76.818 27.435 Z  M 74.451 30.701 L 74.575 30.748 L 77.693 22.481 L 78.721 22.481 L 81.771 30.568 L 80.868 30.568 L 80.063 28.304 L 76.364 28.304 L 75.546 30.568 L 74.451 30.568 L 74.451 30.701 L 74.575 30.748 L 74.451 30.701 L 74.451 30.834 L 75.64 30.834 L 75.733 30.834 L 76.551 28.571 L 79.875 28.571 L 80.679 30.834 L 81.964 30.834 L 82.156 30.834 L 78.906 22.214 L 77.601 22.214 L 77.508 22.214 L 74.258 30.834 L 74.451 30.834 L 74.451 30.701" fill="rgb(255,255,255)"/><path d=" M 84.114 29.675 L 86.272 29.675 C 86.685 29.675 87.018 29.531 87.276 29.243 C 87.532 28.955 87.66 28.641 87.66 28.298 C 87.66 27.956 87.529 27.643 87.264 27.359 C 87 27.075 86.654 26.933 86.225 26.933 L 84.114 26.933 L 84.114 29.675 Z  M 84.114 25.93 L 86.063 25.93 C 86.466 25.93 86.792 25.796 87.036 25.527 C 87.281 25.259 87.404 24.965 87.404 24.646 C 87.404 24.328 87.285 24.036 87.048 23.771 C 86.811 23.507 86.497 23.375 86.109 23.375 L 84.114 23.375 L 84.114 25.93 Z  M 83.041 30.701 L 83.041 22.347 L 86.063 22.347 C 86.716 22.347 87.281 22.564 87.759 22.995 C 88.238 23.427 88.477 23.969 88.477 24.622 C 88.477 25.019 88.374 25.37 88.168 25.673 C 87.963 25.977 87.687 26.206 87.345 26.361 L 87.345 26.408 C 87.758 26.548 88.096 26.789 88.36 27.131 C 88.625 27.474 88.758 27.87 88.758 28.321 C 88.758 29.005 88.507 29.573 88.005 30.025 C 87.503 30.475 86.91 30.701 86.225 30.701 L 83.041 30.701 Z " fill="rgb(255,255,255)"/><path d=" M 84.114 29.675 L 84.114 29.808 L 86.272 29.808 C 86.716 29.809 87.095 29.647 87.375 29.332 L 87.375 29.332 C 87.65 29.025 87.794 28.675 87.793 28.298 C 87.794 27.921 87.645 27.57 87.362 27.268 C 87.073 26.956 86.682 26.798 86.225 26.799 L 83.98 26.799 L 83.98 29.808 L 84.114 29.808 L 84.114 29.675 L 84.247 29.675 L 84.247 27.066 L 86.225 27.066 C 86.625 27.068 86.927 27.194 87.167 27.449 C 87.413 27.715 87.526 27.991 87.527 28.298 C 87.526 28.607 87.415 28.885 87.177 29.154 L 87.177 29.154 C 86.942 29.414 86.654 29.54 86.272 29.541 L 84.114 29.541 L 84.114 29.675 L 84.247 29.675 L 84.114 29.675 Z  M 84.114 25.93 L 84.114 26.063 L 86.063 26.063 C 86.495 26.065 86.866 25.914 87.135 25.617 C 87.398 25.331 87.538 24.999 87.537 24.646 C 87.538 24.294 87.403 23.966 87.147 23.682 L 87.147 23.682 C 86.886 23.389 86.527 23.24 86.109 23.241 L 83.98 23.241 L 83.98 26.063 L 84.114 26.063 L 84.114 25.93 L 84.247 25.93 L 84.247 23.508 L 86.109 23.508 C 86.468 23.509 86.736 23.625 86.949 23.86 L 86.949 23.86 C 87.168 24.106 87.269 24.361 87.27 24.646 C 87.269 24.93 87.165 25.187 86.938 25.437 C 86.718 25.677 86.437 25.795 86.063 25.796 L 84.114 25.796 L 84.114 25.93 L 84.247 25.93 L 84.114 25.93 Z  M 83.041 30.701 L 83.174 30.701 L 83.174 22.481 L 86.063 22.481 C 86.687 22.482 87.214 22.684 87.67 23.094 L 87.67 23.094 C 88.123 23.505 88.342 24.002 88.343 24.622 C 88.343 24.997 88.248 25.317 88.058 25.598 C 87.865 25.882 87.612 26.093 87.29 26.24 L 87.212 26.275 L 87.212 26.408 L 87.212 26.503 L 87.302 26.534 C 87.692 26.667 88.006 26.891 88.255 27.213 C 88.502 27.533 88.624 27.896 88.625 28.321 C 88.623 28.972 88.391 29.496 87.916 29.925 L 87.914 29.928 L 87.916 29.925 C 87.435 30.355 86.881 30.567 86.225 30.568 L 83.041 30.568 L 83.041 30.701 L 83.174 30.701 L 83.041 30.701 L 83.041 30.834 L 86.225 30.834 C 86.94 30.835 87.57 30.595 88.094 30.124 L 88.094 30.124 C 88.622 29.652 88.893 29.038 88.891 28.321 C 88.892 27.844 88.748 27.415 88.466 27.05 C 88.187 26.687 87.824 26.429 87.388 26.281 L 87.345 26.408 L 87.479 26.408 L 87.479 26.361 L 87.345 26.361 L 87.401 26.483 C 87.763 26.318 88.059 26.071 88.278 25.748 C 88.5 25.422 88.61 25.042 88.61 24.622 C 88.611 23.937 88.354 23.349 87.848 22.896 L 87.848 22.896 C 87.349 22.444 86.746 22.214 86.063 22.214 L 82.907 22.214 L 82.907 30.834 L 83.041 30.834 L 83.041 30.701 Z " fill="rgb(255,255,255)"/><path d=" M 91.659 27.435 L 94.436 27.435 L 93.071 23.666 L 93.025 23.666 L 91.659 27.435 Z  M 89.292 30.701 L 92.442 22.347 L 93.655 22.347 L 96.805 30.701 L 95.615 30.701 L 94.81 28.437 L 91.298 28.437 L 90.481 30.701 L 89.292 30.701" fill="rgb(255,255,255)"/><path d=" M 91.659 27.435 L 91.659 27.568 L 94.626 27.568 L 93.165 23.533 L 93.025 23.533 L 92.931 23.533 L 91.469 27.568 L 91.659 27.568 L 91.659 27.435 L 91.784 27.48 L 93.15 23.711 L 93.025 23.666 L 93.025 23.799 L 93.071 23.799 L 93.071 23.666 L 92.946 23.711 L 94.246 27.302 L 91.659 27.302 L 91.659 27.435 L 91.784 27.48 L 91.659 27.435 Z  M 89.292 30.701 L 89.417 30.748 L 92.534 22.481 L 93.563 22.481 L 96.612 30.568 L 95.709 30.568 L 94.904 28.304 L 91.205 28.304 L 90.387 30.568 L 89.292 30.568 L 89.292 30.701 L 89.417 30.748 L 89.292 30.701 L 89.292 30.834 L 90.481 30.834 L 90.574 30.834 L 91.392 28.571 L 94.716 28.571 L 95.52 30.834 L 96.805 30.834 L 96.997 30.834 L 93.747 22.214 L 92.442 22.214 L 92.349 22.214 L 89.099 30.834 L 89.292 30.834 L 89.292 30.701" fill="rgb(255,255,255)"/><path d=" M 97.883 30.701 L 97.883 22.347 L 98.956 22.347 L 98.956 25.93 L 103.133 25.93 L 103.133 22.347 L 104.206 22.347 L 104.206 30.701 L 103.133 30.701 L 103.133 26.933 L 98.956 26.933 L 98.956 30.701 L 97.883 30.701 Z " fill="rgb(255,255,255)"/><path d=" M 97.883 30.701 L 98.016 30.701 L 98.016 22.481 L 98.822 22.481 L 98.822 26.063 L 103.266 26.063 L 103.266 22.481 L 104.072 22.481 L 104.072 30.568 L 103.266 30.568 L 103.266 26.799 L 98.822 26.799 L 98.822 30.568 L 97.883 30.568 L 97.883 30.701 L 98.016 30.701 L 97.883 30.701 L 97.883 30.834 L 98.956 30.834 L 99.089 30.834 L 99.089 27.066 L 102.999 27.066 L 102.999 30.834 L 104.206 30.834 L 104.339 30.834 L 104.339 22.214 L 103.133 22.214 L 102.999 22.214 L 102.999 25.796 L 99.089 25.796 L 99.089 22.214 L 97.883 22.214 L 97.749 22.214 L 97.749 30.834 L 97.883 30.834 L 97.883 30.701 Z " fill="rgb(255,255,255)"/><path d=" M 108.763 30.701 L 107.69 30.701 L 107.69 23.375 L 105.357 23.375 L 105.357 22.347 L 111.096 22.347 L 111.096 23.375 L 108.763 23.375 L 108.763 30.701 Z " fill="rgb(255,255,255)"/><path d=" M 108.763 30.701 L 108.763 30.568 L 107.823 30.568 L 107.823 23.241 L 105.49 23.241 L 105.49 22.481 L 110.963 22.481 L 110.963 23.241 L 108.63 23.241 L 108.63 30.701 L 108.763 30.701 L 108.763 30.568 L 108.763 30.701 L 108.896 30.701 L 108.896 23.508 L 111.23 23.508 L 111.23 22.347 L 111.23 22.214 L 105.223 22.214 L 105.223 23.375 L 105.223 23.508 L 107.557 23.508 L 107.557 30.834 L 108.763 30.834 L 108.896 30.834 L 108.896 30.701 L 108.763 30.701 Z " fill="rgb(255,255,255)"/><path d=" M 113.18 27.435 L 115.957 27.435 L 114.592 23.666 L 114.546 23.666 L 113.18 27.435 Z  M 110.813 30.701 L 113.963 22.347 L 115.175 22.347 L 118.325 30.701 L 117.135 30.701 L 116.331 28.437 L 112.819 28.437 L 112.002 30.701 L 110.813 30.701 Z " fill="rgb(255,255,255)"/><path d=" M 113.18 27.435 L 113.18 27.568 L 116.147 27.568 L 114.686 23.533 L 114.546 23.533 L 114.452 23.533 L 112.99 27.568 L 113.18 27.568 L 113.18 27.435 L 113.305 27.48 L 114.671 23.711 L 114.546 23.666 L 114.546 23.799 L 114.592 23.799 L 114.592 23.666 L 114.467 23.711 L 115.767 27.302 L 113.18 27.302 L 113.18 27.435 L 113.305 27.48 L 113.18 27.435 Z  M 110.813 30.701 L 110.937 30.748 L 114.054 22.481 L 115.084 22.481 L 118.133 30.568 L 117.23 30.568 L 116.425 28.304 L 112.725 28.304 L 111.908 30.568 L 110.813 30.568 L 110.813 30.701 L 110.937 30.748 L 110.813 30.701 L 110.813 30.834 L 112.002 30.834 L 112.095 30.834 L 112.913 28.571 L 116.236 28.571 L 117.041 30.834 L 118.325 30.834 L 118.518 30.834 L 115.268 22.214 L 113.963 22.214 L 113.87 22.214 L 110.62 30.834 L 110.813 30.834 L 110.813 30.701" fill="rgb(255,255,255)"/><path d=" M 124.736 26.875 L 124.736 30.701 L 123.663 30.701 L 123.663 26.875 L 123.616 26.875 L 120.372 30.701 L 118.973 30.701 L 118.973 30.655 L 122.496 26.618 L 119.112 22.394 L 119.112 22.347 L 120.419 22.347 L 123.616 26.408 L 123.663 26.408 L 123.663 22.347 L 124.736 22.347 L 124.736 26.408 L 124.782 26.408 L 127.979 22.347 L 129.286 22.347 L 129.286 22.394 L 125.903 26.618 L 129.425 30.655 L 129.425 30.701 L 128.026 30.701 L 124.782 26.875 L 124.736 26.875" fill="rgb(255,255,255)"/><path d=" M 124.736 26.875 L 124.603 26.875 L 124.603 30.568 L 123.796 30.568 L 123.796 26.741 L 123.616 26.741 L 123.554 26.741 L 120.31 30.568 L 118.973 30.568 L 118.973 30.701 L 119.106 30.701 L 119.106 30.655 L 118.973 30.655 L 119.073 30.743 L 122.67 26.621 L 119.245 22.348 L 119.245 22.347 L 119.112 22.347 L 119.112 22.481 L 120.355 22.481 L 123.551 26.541 L 123.663 26.541 L 123.796 26.541 L 123.796 22.481 L 124.603 22.481 L 124.603 26.541 L 124.782 26.541 L 124.847 26.541 L 128.044 22.481 L 129.286 22.481 L 129.286 22.347 L 129.153 22.347 L 129.153 22.348 L 125.729 26.621 L 129.325 30.743 L 129.425 30.655 L 129.292 30.655 L 129.292 30.701 L 129.425 30.701 L 129.425 30.568 L 128.087 30.568 L 124.844 26.741 L 124.736 26.741 L 124.603 26.741 L 124.603 26.875 L 124.736 26.875 L 124.736 27.008 L 124.782 27.008 L 124.782 26.875 L 124.681 26.96 L 127.964 30.834 L 129.425 30.834 L 129.559 30.834 L 129.559 30.655 L 129.559 30.605 L 126.076 26.614 L 129.42 22.441 L 129.42 22.347 L 129.42 22.214 L 127.979 22.214 L 127.915 22.214 L 124.678 26.325 L 124.782 26.408 L 124.782 26.275 L 124.736 26.275 L 124.736 26.408 L 124.869 26.408 L 124.869 22.214 L 123.663 22.214 L 123.53 22.214 L 123.53 26.408 L 123.663 26.408 L 123.663 26.275 L 123.616 26.275 L 123.616 26.408 L 123.721 26.325 L 120.484 22.214 L 119.112 22.214 L 118.979 22.214 L 118.979 22.394 L 118.979 22.441 L 122.322 26.614 L 118.84 30.605 L 118.84 30.701 L 118.84 30.834 L 120.372 30.834 L 120.434 30.834 L 123.718 26.96 L 123.616 26.875 L 123.616 27.008 L 123.663 27.008 L 123.663 26.875 L 123.53 26.875 L 123.53 30.834 L 124.736 30.834 L 124.869 30.834 L 124.869 26.875 L 124.736 26.875 L 124.736 27.008 L 124.736 26.875" fill="rgb(255,255,255)"/><path d=" M 136.888 22.347 L 136.888 30.701 L 135.815 30.701 L 135.815 25.497 L 135.861 23.888 L 135.815 23.888 L 131.568 30.701 L 130.448 30.701 L 130.448 22.347 L 131.521 22.347 L 131.521 27.236 L 131.475 28.846 L 131.521 28.846 L 135.583 22.347 L 136.888 22.347 Z " fill="rgb(255,255,255)"/><path d=" M 136.888 22.347 L 136.755 22.347 L 136.755 30.568 L 135.948 30.568 L 135.948 25.499 L 135.995 23.892 L 135.999 23.755 L 135.815 23.755 L 135.741 23.755 L 131.494 30.568 L 130.581 30.568 L 130.581 22.481 L 131.387 22.481 L 131.387 27.235 L 131.342 28.843 L 131.338 28.98 L 131.521 28.98 L 131.595 28.98 L 135.656 22.481 L 136.888 22.481 L 136.888 22.347 L 136.755 22.347 L 136.888 22.347 L 136.888 22.214 L 135.583 22.214 L 135.508 22.214 L 131.408 28.775 L 131.521 28.846 L 131.521 28.713 L 131.475 28.713 L 131.475 28.846 L 131.608 28.85 L 131.654 27.24 L 131.654 27.238 L 131.654 22.214 L 130.448 22.214 L 130.315 22.214 L 130.315 30.834 L 131.568 30.834 L 131.642 30.834 L 135.928 23.958 L 135.815 23.888 L 135.815 24.021 L 135.861 24.021 L 135.861 23.888 L 135.729 23.884 L 135.681 25.493 L 135.681 25.496 L 135.681 30.834 L 136.888 30.834 L 137.021 30.834 L 137.021 22.214 L 136.888 22.214 L 136.888 22.347" fill="rgb(255,255,255)"/><path d=" M 141.445 30.701 L 140.372 30.701 L 140.372 23.375 L 138.039 23.375 L 138.039 22.347 L 143.779 22.347 L 143.779 23.375 L 141.445 23.375 L 141.445 30.701 Z " fill="rgb(255,255,255)"/><path d=" M 141.445 30.701 L 141.445 30.568 L 140.505 30.568 L 140.505 23.241 L 138.172 23.241 L 138.172 22.481 L 143.645 22.481 L 143.645 23.241 L 141.312 23.241 L 141.312 30.701 L 141.445 30.701 L 141.445 30.568 L 141.445 30.701 L 141.579 30.701 L 141.579 23.508 L 143.912 23.508 L 143.912 22.347 L 143.912 22.214 L 137.905 22.214 L 137.905 23.375 L 137.905 23.508 L 140.239 23.508 L 140.239 30.834 L 141.445 30.834 L 141.579 30.834 L 141.579 30.701 L 141.445 30.701 Z " fill="rgb(255,255,255)"/><path d=" M 151.409 22.347 L 151.409 30.701 L 150.336 30.701 L 150.336 25.497 L 150.383 23.888 L 150.336 23.888 L 146.088 30.701 L 144.969 30.701 L 144.969 22.347 L 146.041 22.347 L 146.041 27.236 L 145.996 28.846 L 146.041 28.846 L 150.103 22.347 L 151.409 22.347 Z " fill="rgb(255,255,255)"/><path d=" M 151.409 22.347 L 151.276 22.347 L 151.276 30.568 L 150.469 30.568 L 150.469 25.499 L 150.516 23.892 L 150.52 23.755 L 150.336 23.755 L 150.261 23.755 L 146.015 30.568 L 145.103 30.568 L 145.103 22.481 L 145.908 22.481 L 145.908 27.235 L 145.863 28.843 L 145.859 28.98 L 146.041 28.98 L 146.116 28.98 L 150.177 22.481 L 151.409 22.481 L 151.409 22.347 L 151.276 22.347 L 151.409 22.347 L 151.409 22.214 L 150.103 22.214 L 150.029 22.214 L 145.928 28.775 L 146.041 28.846 L 146.041 28.713 L 145.996 28.713 L 145.996 28.846 L 146.129 28.85 L 146.175 27.24 L 146.175 27.238 L 146.175 22.214 L 144.969 22.214 L 144.836 22.214 L 144.836 30.834 L 146.088 30.834 L 146.163 30.834 L 150.449 23.958 L 150.336 23.888 L 150.336 24.021 L 150.383 24.021 L 150.383 23.888 L 150.249 23.884 L 150.203 25.493 L 150.203 25.496 L 150.203 30.834 L 151.409 30.834 L 151.543 30.834 L 151.543 22.214 L 151.409 22.214 L 151.409 22.347" fill="rgb(255,255,255)"/><path d=" M 157.849 30.888 C 157.311 30.888 156.791 30.72 156.285 30.386 C 155.78 30.052 155.429 29.554 155.236 28.893 L 156.215 28.484 C 156.34 28.92 156.545 29.258 156.833 29.499 C 157.121 29.741 157.46 29.861 157.849 29.861 C 158.284 29.861 158.659 29.725 158.973 29.453 C 159.289 29.181 159.447 28.842 159.447 28.437 C 159.447 28.041 159.285 27.707 158.963 27.435 C 158.639 27.163 158.252 27.026 157.803 27.026 L 157.113 27.026 L 157.113 26.023 L 157.72 26.023 C 158.14 26.023 158.488 25.906 158.764 25.673 C 159.04 25.44 159.179 25.129 159.179 24.74 C 159.179 24.374 159.044 24.086 158.776 23.876 C 158.508 23.666 158.175 23.561 157.779 23.561 C 157.093 23.561 156.632 23.908 156.391 24.599 L 155.399 24.18 C 155.553 23.752 155.831 23.371 156.227 23.036 C 156.624 22.702 157.14 22.534 157.779 22.534 C 158.493 22.534 159.088 22.743 159.564 23.159 C 160.037 23.575 160.275 24.102 160.275 24.74 C 160.275 25.509 159.917 26.081 159.201 26.454 L 159.201 26.502 C 159.591 26.664 159.912 26.914 160.164 27.247 C 160.417 27.582 160.543 27.979 160.543 28.437 C 160.543 29.146 160.283 29.731 159.761 30.194 C 159.241 30.656 158.603 30.888 157.849 30.888" fill="rgb(255,255,255)"/><path d=" M 157.849 30.888 L 157.849 30.755 C 157.34 30.754 156.847 30.597 156.359 30.275 C 155.881 29.959 155.552 29.493 155.364 28.856 L 155.236 28.893 L 155.287 29.016 L 156.267 28.607 L 156.215 28.484 L 156.087 28.521 C 156.217 28.977 156.436 29.341 156.748 29.602 L 156.748 29.602 C 157.057 29.863 157.432 29.995 157.849 29.995 C 158.312 29.996 158.724 29.847 159.061 29.554 C 159.403 29.262 159.581 28.878 159.58 28.437 C 159.581 28.004 159.396 27.624 159.048 27.333 C 158.703 27.041 158.28 26.892 157.803 26.893 L 157.247 26.893 L 157.247 26.156 L 157.72 26.156 C 158.164 26.157 158.548 26.031 158.851 25.775 L 158.851 25.775 C 159.156 25.519 159.313 25.16 159.312 24.74 C 159.315 24.342 159.159 24.003 158.859 23.771 L 158.855 23.769 L 158.859 23.771 C 158.564 23.541 158.197 23.427 157.779 23.428 C 157.045 23.42 156.511 23.825 156.265 24.556 L 156.391 24.599 L 156.443 24.477 L 155.451 24.057 L 155.399 24.18 L 155.524 24.225 C 155.671 23.822 155.932 23.461 156.312 23.138 L 156.312 23.139 C 156.683 22.828 157.163 22.669 157.779 22.668 C 158.468 22.669 159.025 22.866 159.476 23.259 L 159.476 23.259 C 159.923 23.654 160.14 24.135 160.141 24.74 C 160.137 25.466 159.82 25.975 159.14 26.336 L 159.068 26.374 L 159.068 26.502 L 159.068 26.59 L 159.151 26.625 C 159.519 26.779 159.819 27.012 160.057 27.328 C 160.292 27.639 160.409 28.003 160.409 28.437 C 160.408 29.113 160.168 29.653 159.673 30.094 C 159.176 30.534 158.576 30.754 157.849 30.755 L 157.849 30.888 L 157.849 31.021 C 158.629 31.022 159.305 30.778 159.851 30.294 C 160.397 29.809 160.679 29.179 160.676 28.437 C 160.677 27.955 160.541 27.525 160.271 27.167 C 160.004 26.815 159.664 26.549 159.253 26.378 L 159.201 26.502 L 159.335 26.502 L 159.335 26.454 L 159.201 26.454 L 159.264 26.572 C 160.013 26.186 160.413 25.552 160.408 24.74 C 160.409 24.069 160.152 23.496 159.652 23.059 L 159.652 23.058 C 159.152 22.62 158.519 22.401 157.779 22.401 C 157.119 22.401 156.565 22.576 156.14 22.934 L 156.14 22.935 C 155.731 23.281 155.437 23.682 155.273 24.134 L 155.229 24.253 L 156.339 24.722 L 156.469 24.778 L 156.516 24.643 C 156.752 23.99 157.141 23.702 157.779 23.695 C 158.152 23.695 158.451 23.792 158.693 23.981 L 158.693 23.981 C 158.931 24.169 159.043 24.406 159.045 24.74 C 159.043 25.098 158.924 25.36 158.679 25.571 L 158.679 25.571 C 158.428 25.782 158.116 25.889 157.72 25.89 L 157.113 25.89 L 156.98 25.89 L 156.98 27.026 L 156.98 27.159 L 157.803 27.159 C 158.225 27.16 158.576 27.285 158.876 27.537 C 159.173 27.79 159.312 28.078 159.313 28.437 C 159.312 28.807 159.176 29.1 158.887 29.352 C 158.595 29.604 158.256 29.727 157.849 29.728 C 157.487 29.727 157.184 29.619 156.919 29.397 L 156.919 29.397 C 156.655 29.175 156.463 28.865 156.343 28.447 L 156.301 28.304 L 155.184 28.77 L 155.075 28.816 L 155.108 28.931 C 155.308 29.616 155.679 30.145 156.212 30.497 C 156.735 30.843 157.283 31.022 157.849 31.021 L 157.849 30.888" fill="rgb(255,255,255)"/></g></g></svg>